<svg xmlns="http://www.w3.org/2000/svg" width="20" height="20" xmlns:v="https://vecta.io/nano"><path d="M9.998 20a10 10 0 1 0 0-20 10 10 0 0 0-10 10c.006 5.52 4.48 9.994 10 10zm0-18.631A8.63 8.63 0 1 1 1.369 10c.006-4.764 3.865-8.624 8.629-8.631zM8.627 14.172c.279.26.711.26.99 0 .131-.122.205-.293.205-.472a.64.64 0 0 0-.205-.471l-2.69-2.562h7.79c.244.009.474-.115.599-.326s.125-.472 0-.682a.67.67 0 0 0-.599-.326H6.926l2.691-2.562c.131-.122.205-.293.205-.471s-.074-.35-.205-.471c-.279-.26-.711-.26-.99 0l-3.886 3.7c-.131.122-.205.293-.205.471s.074.35.205.472z"/></svg>