<svg width="285" height="195" viewBox="0 0 285 195" fill="none" xmlns="http://www.w3.org/2000/svg">
                        <style>
                            #rotate_1 , #Vector_23 , #translate_1 , #tree , #lamb , #man_1 , #hand , #man_2 , #Group_10 , #Group_12{
                                transform-origin: center;
                                transform-box: fill-box;
                            }
                           #Vector_23 {
                                animation: rotationRevese 6s linear infinite;
                            }
                            #hand{
                                animation: rotation 6s linear infinite;
                            }
                            #translate_1  {
                                animation: translateY 6s linear infinite;
                            }
                            #man_2 {
                                animation: translateY 5s linear infinite;
                            }
                            #tree{
                                animation: translateY 6s linear infinite;
                            }
                            #man_1{
                                animation: translateX 3s linear infinite;
                            }
                            #Group_10 , #Group_12{
                                animation: fullTranslateX 4s linear infinite;
                            }
                            #lamb{
                                animation:lamp-effect 3s linear infinite
                            }
                            @keyframes rotationRevese{
                                 0% {
                                    transform: rotate(0deg);
                                }

                                50% {
                                    transform: rotate(-5deg);
                                }

                                100% {
                                    transform: rotate(0deg);
                                }
                            }
                            @keyframes fullTranslateX {
                                0%,
                                100% {
                                    transform: translateX(0px);
                                }

                                50% {
                                    transform: translateX(5px);
                                }
                            }
                            @keyframes translateX {
                                0%,
                                100% {
                                    transform: translateX(0px);
                                }

                                50% {
                                    transform: translateX(5px);
                                }
                            }
                            @keyframes translateY {
                                0%,
                                100% {
                                    transform: translateY(0px);
                                }

                                50% {
                                    transform: translateY(-5px);
                                }
                            }
                            @keyframes lamp-effect{
                                0%{
                                    opacity:1
                                }
                                50%{
                                    opacity:.5;
                                }
                                100%{
                                    opacity:1
                                }
                            }
                            /*rotation animation*/
                            @keyframes rotation {
                                0% {
                                    transform: rotate(0deg);
                                }

                                50% {
                                    transform: rotate(5deg);
                                }

                                100% {
                                    transform: rotate(0deg);
                                }
                            }
                        </style>
                        <g id="Group">
                        <g id="tree">
                        <path id="Vector" d="M93.4 70.3L93.5 70.4C96 72.3 99 68.4 96.6 66.4L96.5 66.3C94 64.3 90.9 68.3 93.4 70.3Z" fill="#E9BE28"/>
                        <path id="Vector_2" d="M183.5 16.6C186.4 20 189.9 19.6 194 15.5C190.1 12.2 185.9 12.6 183.5 16.6Z" fill="#E9BE28"/>
                        <path id="Vector_3" d="M106.9 31.2C111.7 30.7 113.5 27.3 112.4 21C107 22.5 104.8 26.5 106.9 31.2Z" fill="#E9BE28"/>
                        <path id="Vector_4" d="M211.954 65.5468L211.287 65.7578L211.919 67.7601L212.587 67.5492L211.954 65.5468Z" fill="white"/>
                        <path id="Vector_5" d="M213.7 65C213.3 65.1 213.2 65.4 213.1 65.6L213 65.3L212.3 65.5L212.9 67.5L213.6 67.3L213.2 66.1C213.2 66 213.3 65.8 213.5 65.7C213.6 65.7 213.7 65.7 213.8 65.8C213.8 65.8 213.9 65.9 213.9 66L214.3 67.2L215 67L214.6 65.8C214.5 65.2 214.1 64.8 213.7 65Z" fill="white"/>
                        <path id="Vector_6" d="M211.8 64.8C211.9 65 211.8 65.2 211.6 65.3C211.4 65.4 211.2 65.3 211.1 65.1C211 64.9 211.1 64.7 211.3 64.6C211.5 64.5 211.7 64.6 211.8 64.8Z" fill="white"/>
                        <path id="Vector_7" d="M214.8 71.5C217.6 67.7 216.3 64.1 211.1 60.8C208.5 65.7 209.9 70 214.8 71.5Z" fill="#E9BE28"/>
                        <path id="Vector_8" d="M229.9 39.4C231.2 44.3 235.1 45.6 241.3 43.4C238.9 38.1 234.4 36.4 229.9 39.4Z" fill="#E9BE28"/>
                        <path id="Vector_9" d="M131.1 12.1C131.1 13.9 132.6 15.4 134.4 15.4C136.2 15.4 137.7 13.9 137.7 12.1C137.7 10.3 136.2 8.80002 134.4 8.80002C132.6 8.80002 131.1 10.3 131.1 12.1ZM135.9 12.1C135.9 13 135.2 13.7 134.3 13.7C133.4 13.7 132.7 13 132.7 12.1C132.7 11.2 133.4 10.5 134.3 10.5C135.2 10.5 135.9 11.2 135.9 12.1Z" fill="#E9BE28"/>
                        <path id="Vector_10" d="M145.1 29.9C145.7 27.6 144.4 26.2 141.4 25.6C141.1 28.3 142.6 30 145.1 29.9Z" fill="#E9BE28"/>
                        <path id="Vector_11" d="M146.2 29C148.6 28.5 149.5 26.4 148.4 23.7C146.2 25 144.6 27.2 146.2 29Z" fill="#E9BE28"/>
                        <path id="Vector_12" d="M138.8 32.9C138.8 33.8 139.5 34.5 140.4 34.5C141.3 34.5 142 33.8 142 32.9C142 32 141.3 31.3 140.4 31.3C139.5 31.3 138.8 32 138.8 32.9Z" fill="#E9BE28"/>
                        <path id="Vector_13" d="M170 66.3C169.4 64 170.7 62.6 173.7 62C174 64.7 172.6 66.5 170 66.3Z" fill="#E9BE28"/>
                        <path id="Vector_14" d="M150.5 34.9C152.9 34.4 153.8 32.3 152.7 29.6C150.4 30.9 148.9 33.1 150.5 34.9Z" fill="#E9BE28"/>
                        <path id="Vector_15" d="M176.3 69.3C176.3 70.2 175.6 70.9 174.7 70.9C173.8 70.9 173.1 70.2 173.1 69.3C173.1 68.4 173.8 67.7 174.7 67.7C175.6 67.8 176.3 68.5 176.3 69.3Z" fill="#E9BE28"/>
                        <path id="Vector_16" d="M168 11.9C168.6 9.60002 167.3 8.20004 164.3 7.60004C164 10.3 165.5 12.1 168 11.9Z" fill="#E9BE28"/>
                        <path id="Vector_17" d="M169.1 11C171.5 10.5 172.4 8.40004 171.3 5.70004C169.1 7.10004 167.5 9.20003 169.1 11Z" fill="#E9BE28"/>
                        <path id="Vector_18" d="M154.5 87.8C155.1 85.6 153.9 84.3 151 83.8C150.7 86.4 152.1 88 154.5 87.8Z" fill="#E9BE28"/>
                        <path id="Vector_19" d="M155.5 87C157.7 86.5 158.6 84.6 157.6 82C155.5 83.3 154 85.3 155.5 87Z" fill="#E9BE28"/>
                        <path id="Vector_20" d="M212.8 27.8C212.8 29.6 214.3 31.1 216.1 31.1C217.9 31.1 219.4 29.6 219.4 27.8C219.4 26 217.9 24.5 216.1 24.5C214.3 24.5 212.8 26 212.8 27.8ZM217.6 27.8C217.6 28.7 216.9 29.4 216 29.4C215.1 29.4 214.4 28.7 214.4 27.8C214.4 26.9 215.1 26.2 216 26.2C216.9 26.2 217.6 26.9 217.6 27.8Z" fill="#E9BE28"/>
                        <path id="Vector_21" d="M183.8 35.3L183.9 35.4C186.5 37.4 189.6 33.3 187.1 31.3L187 31.2C184.4 29.2 181.3 33.3 183.8 35.3Z" fill="#E9BE28"/>
                        <path id="Vector_22" fill-rule="evenodd" clip-rule="evenodd" d="M237.4 35.3C229 39.2 220.7 43.1 212.4 47C214 44.1 215.1 39.1 215.1 39.1C213.2 41.5 213.7 43.5 211.9 45.8C210.7 45.1 211.2 43.6 209.6 43.2C209.9 44.1 210.1 45.1 210.7 45.9C211.3 46.7 211.1 47.8 209.9 48.3C209.1 48.6 208.1 48.8 207.3 49C202.2 50.1 197.8 52.2 193.6 54.6C191.5 55.8 189.3 57 187.1 58.2C186.9 58.1 186.9 58.1 186.8 58C187.1 57.5 187.3 57 187.6 56.6C190.5 52.6 193.4 48.6 196.4 44.7C197.3 43.5 198.7 42.6 199.7 41.5C201.1 39.9 202.7 39.2 205.2 39.5C206.9 39.7 208.6 39.5 210.3 38.9C208.2 38.6 206 39.5 203.8 38.7C208 35.7 211.2 32.1 214.8 28.7C214.9 28.6 214.7 28.4 214.6 28.5C211.6 30.9 206.6 34.8 203.5 37C204.2 35.6 205.2 33.1 205.1 31.7C205.1 31.7 203.5 35.3 202.6 37C201.9 38.3 200.7 38.8 199.1 39.6C199.3 38.6 199.5 37.8 199.7 37.1C199.6 37.1 199.4 35.7 199 35.7C199.2 33.7 199.2 33.1 199.4 30.8C198.9 31.2 197.7 36.1 197.5 38.3C197.4 39.5 197.4 40.6 196.4 41.7C193.3 45.1 190.4 48.6 187.4 52.1C184.2 55.8 181.7 59.7 180.2 64.1C179.7 65.5 179.3 67 178.5 68.3C177.9 69.2 177.3 70.1 176.7 71C176.4 71.5 176.1 71.9 175.8 72.4C174.6 74.1 173.5 75.9 172.5 77.7C171.9 78.7 171.4 79.7 170.9 80.7C170.2 82.2 169 83.6 168 85C167.8 85 167.8 85 167.6 85C167.4 84.7 167 84.3 167 84C167 83.9 167 83.9 167 83.8C167 83.1 166.9 82.3 166.9 81.6C166.9 81 166.9 80.5 166.9 79.9C167 79.2 167 78.4 167.1 77.7C167.2 77 167.2 76.2 167.3 75.5C167.4 74.3 167.5 73.1 167.6 71.9C167.7 70.3 167.6 68.8 167.5 67.2C167.3 64.9 167.3 62.6 169.2 60.6C169.7 60 169.9 59.3 170.2 58.6C170.9 57.1 171.2 55.3 172.4 54.2C175.5 51.5 179.2 49.2 183.8 48.1C185.1 47.8 185.5 47.2 185.8 46.2C184.3 46.5 182.8 46.8 181.1 47.2C181.1 45.9 180.7 44.6 181 43.5C181.6 41.5 182.6 39.6 183.4 37.7C183.8 36.8 184.2 35.8 184.5 34.9C184.6 34.6 184.4 34.2 184.3 33.9C183.2 35.9 182.2 37.8 181.2 39.8C180.2 41.7 179.2 43.6 179.5 45.8C179.7 47.1 179.4 48.1 177.7 48.7C177.1 48.9 176.7 49.3 176.1 49.5C174.9 50.1 173.6 50.7 172.3 51.3C172.3 51 172.3 50.8 172.3 50.7C172.7 48.7 173 46.6 173.4 44.6C173.5 44.2 173.7 43.7 174.1 43.5C175 42.9 176 42.5 177 42C177.5 42.3 178.1 42.7 178.7 43.1C178.8 43 178.8 43 178.9 42.9C178.8 42.7 178.8 42.5 178.6 42.4C177.5 41.4 177.7 40.3 178.6 39.3C178.7 39.2 178.8 39 178.9 38.8C179.4 38 180 37.1 180.5 36.3L180.2 36.1C179.9 36.3 179.5 36.4 179.4 36.7C178.7 37.5 178.2 38.4 177.5 39.3C176.8 40.2 176.1 41.1 175.2 41.8C174.8 42.1 173.7 42.4 173.3 42.2C172.2 41.6 171.3 40.8 170.4 40C169.8 39.6 169.8 39.2 170.3 38.6C172.1 36.7 173.8 34.7 175.5 32.8C175.8 32.4 176.1 32 176.3 31.7L176 31.6C173.8 33.9 171.7 36.2 169.5 38.5C169.3 38.3 169.3 38.2 169.4 38.1C170.4 35.8 171.4 33.5 172.5 31.3C174.1 28.3 175.8 25.3 178.6 22.9C180.7 21.1 182.4 19.1 183.7 16.9C185.2 14.3 186.2 11.6 187.5 9.00003C187.6 8.80003 187.5 8.60003 187.5 8.50003C187 8.70003 186.6 8.90005 186.4 9.20005C185.7 10.5 185 11.8 184.4 13.2C183.4 15.4 182 17.5 180.2 19.5C179.1 17.6 178 15.8 177 14.1C176.8 13.8 176.4 13.5 176.1 13.2L175.8 13.4C176 13.9 176.2 14.4 176.4 14.8C177.3 16.4 178.2 18 179.2 19.6C179.5 20.1 179.4 20.4 178.9 20.7C176.8 22.1 175.1 23.7 173.8 25.6C172.9 27 171.9 28.4 170.9 29.8C170.8 30 170.6 30.1 170.5 30.3C170.4 30.3 170.3 30.2 170.2 30.2C170.7 28.5 171.2 26.7 171.8 25C172.8 21.7 173.9 18.5 174.9 15.2C174 14.9 173.8 15.1 173.6 15.6C172.9 17.7 172.2 19.8 171.5 21.9C171.1 23.1 170.6 24.2 170 25.6C169.4 24.8 168.9 24.2 168.5 23.5C166.8 21.1 165.2 18.7 163.5 16.3C163.2 15.9 162.8 15.7 162.4 15.3L162.1 15.5C162.2 15.7 162.4 16 162.5 16.2C164.3 19.1 166.1 22 168 24.8C168.9 26.2 169.2 27.5 168.7 29C168.4 29.9 168.2 30.9 168.3 31.9C168.5 33.2 168.1 34.3 167.4 35.5C166.5 34.6 166.4 33.4 164.9 32.6C165.1 33.1 165.2 33.4 165.4 33.7C165.8 34.3 166.2 35 166.6 35.6C167.4 36.9 166.7 37.7 165 37.7C164 37.7 162.9 37.6 161.8 37.6C161.7 37.4 161.6 37.2 161.6 37C160.5 32.6 159.1 28.2 158.2 23.7C157.4 19.9 157.1 16 156.5 12.1C156.3 10.6 156.3 9.20002 156.9 7.80002C157.2 7.10002 157.3 6.30003 157.4 5.50003C155.9 6.00003 156.4 7.20003 155.7 8.00003C155.6 7.70003 155.5 7.40005 155.4 7.20005C155 5.40005 154.5 3.50005 154.1 1.70005C154 1.20005 153.8 0.80004 153 1.10004C153 1.20004 153 1.40003 153 1.50003C153.5 4.00003 154.2 6.50003 154.5 9.00003C154.9 12 154.9 15 155.2 18C155.5 21.1 155.8 24.2 156.2 27.4C156.8 31.9 157.6 36.4 159.1 40.7C159.8 42.7 160.6 44.6 160.9 46.6C161.4 49.6 161.9 52.6 162 55.6C162.2 60.8 162.2 66.1 162.3 71.3C162.3 71.5 162.3 71.6 162.3 71.8C162 73.2 161.8 74.6 161.5 76.1C161.2 76 160.9 75.9 160.7 75.8C160.1 75.5 159.9 75.1 159.8 74.5C159.8 74.1 159.7 73.7 159.7 73.3C159.6 72.8 159.5 72.3 159.5 71.8V71.7C159.5 71.5 159.4 71.3 159.4 71C159.2 70.1 158.9 69.3 158.4 68.5C157.1 66.5 155.9 64.4 154.7 62.3C154.5 62 154.6 61.5 154.8 61.2C155.5 60.2 156.3 59.3 157 58.3C157.6 57.5 157.6 56.9 157.3 56.5C156.1 58 154.8 59.5 153.4 61.2C151.7 59.6 150.2 58.3 148.9 56.9C147.5 55.4 146.3 53.7 145 52.1C144.9 52 144.9 51.8 144.9 51.6C145.3 50.2 145.7 48.7 146 47.3C146.4 45.7 147 44.1 147 42.5C147.1 40.6 146.7 38.8 146.4 36.9C146.4 36.7 146.2 36.5 146.1 36.3L145.7 36.4C145.8 38 146.1 39.5 146.1 41C146.1 42.5 145.9 44 145.8 45.5C145.6 45.5 145.7 45.5 145.5 45.6L143.3 42.6C143.7 44 144.6 45.3 144.7 46.6C144.8 48 144.1 49.4 143.8 50.7C143.6 50.7 143.6 50.7 143.4 50.7C142.1 48.7 140.5 46.8 139.7 44.6C138.6 41.4 137.1 38.4 135 35.6C134.7 35.1 134.4 34.6 134.3 34.1C134.2 32.7 134.2 31.3 134.4 30C134.9 26.9 135.2 23.8 134.9 20.8C134.7 18.5 134.5 16.2 134.3 13.9C133.6 14 133.6 14.1 133.7 15.1C133.8 17.9 134 20.6 134 23.4C134 25.2 133.6 27 133.4 28.9C133.2 28.9 133.3 28.9 133.1 28.9L132.9 28.1C132.8 28.1 132.8 28.1 132.7 28.1V40.8C131.5 40.1 130.9 39.2 130.4 38.1C129.1 35.5 129.7 32.7 129 30.1C128.9 29.7 128.9 29.3 128.9 28.8C129.1 26.8 129.2 24.8 129.4 22.7C129.4 22.3 129.3 22 129.3 21.6H129L128.4 27C127.7 26.3 128.1 25.4 126.9 24.7C127 25.3 127 25.6 127.1 26C127.4 27.1 127.7 28.2 127.9 29.3C128.1 30.4 128.5 31.5 128.1 32.5C127.2 34.9 125.8 37.2 124.6 39.7C124.3 39.4 124.2 39.3 124.1 39.2C122.5 37.1 120.8 35 119.2 32.8C118.8 32.3 118.5 32.1 117.9 32.6C118.1 32.9 118.2 33.1 118.4 33.4C120 35.6 121.6 37.8 123.2 40C125.5 43.2 126.7 46.6 127 50.3C126.6 50.1 126.2 49.8 125.8 49.6C123.5 48 121 46.6 118.3 45.3C115.3 43.8 112.8 41.7 111.2 39.2C109.1 35.9 107.4 32.4 105.5 29C104.9 28 104.4 27 103.9 25.9L103.6 26C103.6 26.3 103.6 26.6 103.7 26.9C104 27.7 104.4 28.4 104.8 29.1C106.5 32.6 108.2 36.1 109.9 39.7C110 39.9 110.1 40.1 110.3 40.3C112.4 42.9 114.7 45.3 117.9 47.2C120 48.4 121.9 49.7 123.9 50.9C125.4 51.9 127 52.8 128.5 53.8C129.3 54.3 129.9 55 130.6 55.6C130.5 55.7 130.5 55.8 130.5 55.9C129 56.1 127.6 56.3 126.1 56.4C124.6 56.5 123 56.5 121.5 56.5C120 56.5 118.6 56.5 117.1 56.5C117.1 56.6 117.1 56.6 117.1 56.7C119 56.8 121 56.9 123.3 57C122.3 57.8 121.5 58.4 120.7 59.1C120.8 59.2 120.8 59.2 120.9 59.3C121.7 58.8 122.4 58.3 123.2 57.8C123.6 57.5 124.1 57.2 124.6 57.2C126.6 57 128.5 56.8 130.5 56.7C130.8 56.7 131.3 56.8 131.4 57C132.5 58.4 133.6 59.9 134.6 61.3C132.1 62.1 129.6 62.6 126.7 62C123.8 61.4 120.8 61.3 117.9 60.9C117.8 60.9 117.7 60.9 117.7 60.9C117.5 60.7 117.3 60.6 117.1 60.4H117C116.6 60 116.3 59.5 115.9 59C115 57.8 114.1 56.5 113.2 55.3C113 55 112.5 54.8 112.1 54.6L112 54.7C113.4 56.7 114.8 58.8 116.2 60.9C115.1 61 114.4 61 113.7 61.1C113.4 61.1 113.2 61.3 113 61.4C113.3 61.5 113.5 61.7 113.8 61.7C114.7 61.7 115.6 61.6 116.5 61.6C117.1 61.6 117.6 61.6 118.1 61.6C121.3 64.5 124.4 67.5 128.3 70C126.1 70.9 123.9 70.1 121.8 70.5C123.5 71.1 125.2 71.2 126.9 70.9C129.4 70.4 131 71.2 132.5 72.7C133.6 73.8 135 74.6 136 75.8C138.5 78.7 140.9 81.7 143.4 84.7C144.1 85.6 144.8 86.5 145.6 87.4C146 87.8 146.2 88.3 146.5 88.8C146.3 88.9 146.4 88.9 146.2 89C146 88.9 145.8 88.8 145.6 88.7C143.6 87.7 141.5 86.7 139.5 85.7C135.1 83.4 130.6 81.5 125.5 80.6C124.6 80.4 123.6 80.3 122.8 80C121.6 79.5 121.3 78.5 121.9 77.6C122.4 76.8 122.6 75.8 122.8 74.9C121.2 75.4 121.8 76.8 120.6 77.5C118.6 75.2 119 73.2 117 70.9C117 70.9 118.4 75.9 120.1 78.7C111.5 75.2 103 71.6 94.3999 68.1C93.9999 68.8 96.1 69.7 96.6 69.9C103.2 72.9 108.2 75.1 114.7 78.1C115 78.2 115.3 78.4 115.6 78.8L109 77.8C109 77.9 109 78 108.9 78.1C109.8 78.3 110.6 78.5 111.5 78.7C114.1 79.3 116.8 79.8 119.4 80.5C121 80.9 121.1 81 121.2 82.4C121.2 83 121.3 83.5 121.3 84.1C115.2 84 109 83.9 102.9 84.7C102.9 84.7 109.2 85.1 111.7 85C117.8 84.9 123.9 85.3 129.8 86.5C131.1 86.8 132.4 87.2 133.6 87.8C136.1 88.9 138.5 90.1 141 91.2C141.8 91.5 142.8 91.5 143.6 91.8C145.1 92.2 146.6 92.7 148 93.2C148.4 93.3 148.7 93.8 148.9 94.1C149.8 96.1 150.7 98.1 151.6 100.1C151.8 100.5 152.1 100.9 152.5 101.5C152.1 101.4 151.6 101.2 151.2 101.1C150.1 100.8 149.1 100.4 148.1 100.1C147.2 99.8 146.3 99.4 145.7 98.9C144.9 98.2 144.4 97.4 143.8 96.6C143.2 95.8 142.7 95 142.1 94.2C142 94.3 143.4 97.5 144.3 99.2C142.9 98.8 141.6 98.3 140.5 97.6C138.9 96.5 133.6 93.2 133.3 93.2C134.1 93.8 134.8 94.5 135.6 95.1C136.4 95.8 137.3 96.4 138.1 97C140.2 98.7 142.6 99.9 145.5 100.7C147.7 101.3 149.8 102 151.8 102.8C152.4 103 153.1 103.3 153.7 103.6C154.6 104 155.2 105 155.7 105.8C156.5 107.1 157.8 109.3 159 111.2C160.4 113.6 161.2 116.2 161.3 118.8C161.4 124 160.6 129.1 159.8 134.2C159.4 137 159 139.8 158.6 142.6C158.4 144.4 158.1 146.1 157.9 147.9C157.9 148.1 157.9 148.3 157.8 148.5L157.7 148.6C157.6 148.6 157.6 148.7 157.5 148.7C156.6 149.3 155.3 149.6 153.4 149.8C151 150.1 149.3 151.3 147.5 152.2C146.2 152.9 144.8 153.4 143 153.3C138.8 153.1 135.7 154.9 135.7 154.9H195C195 154.9 188.6 151.3 185 151.9H184.9C184.8 151.9 184.8 151.9 184.8 151.9L184.9 152C184.6 152 184.4 152 184.1 152C183.9 152 183.8 152.1 183.6 152.1C181.1 152.6 179.8 153 177.8 152.1C177.7 152.1 177.6 152 177.5 152C177.4 152 177.3 151.9 177.3 151.9C176.2 151.3 174 149.8 172.4 148.8C172.4 148.8 172.4 148.8 172.3 148.8C172 148.6 171.7 148.4 171.4 148.2C171.2 148.1 171.1 147.9 170.9 147.7C170.8 147.6 170.8 147.6 170.7 147.5C170.7 147.6 170.7 147.7 170.7 147.7C170.7 147.6 170.7 147.5 170.7 147.5C170.7 147.2 170.6 146.8 170.6 146.5C170.1 141.2 169.5 135.9 169 130.6C168.8 128.5 168.6 126.5 168.6 124.4C168.6 123.9 168.6 123.5 168.6 123C168.6 121.5 168.9 120.1 169.3 118.7C170.3 115.5 172.5 112.6 175.5 110.3C175.7 110.2 175.8 110 176 109.9C178.5 108 181.1 106 182.8 104.7C182.9 104.6 183 104.6 183.1 104.5C184.3 103.6 185.8 102.9 187.3 102.2C188.7 101.5 190.1 100.7 191.4 99.9C194.4 98 197.1 95.7 199.5 93.2C202.8 89.9 206 86.6 209.2 83.3C210.2 82.3 211.5 81.9 212.9 81.5C215.4 80.7 220.8 78.5 221.2 78C218.6 78.8 218 78.9 215.6 79.6C215.5 79.3 213.8 79.6 213.8 79.5C213 79.9 212.1 80.2 211 80.7C211.5 79.2 211.8 78.1 213.1 77.3C214.8 76.2 218.4 74 218.7 73.8C217 74.1 214.3 75.6 212.9 76.5C214.7 73.4 217.9 68.5 219.9 65.4C220 65.3 219.7 65.1 219.6 65.3C216.5 69 213.1 72.5 210.8 76.7C209.3 75.2 209.7 73.2 208.7 71.6C208.4 73 208.6 74.5 209.4 75.7C210.5 77.6 210 79.1 208.6 80.6C207.6 81.7 206.9 83 205.7 84.1C201.9 87.6 198 90.9 194.2 94.3C193.8 94.7 193.2 95 192.8 95.4C192.6 95.3 192.6 95.3 192.4 95.2C192.7 94.6 192.9 93.9 193.2 93.3C193.5 92.6 193.7 92 194 91.3C194.3 90.6 194.6 89.8 194.9 89.1C196.6 85.1 197.8 81 197.7 76.8C197.7 76 197.6 75.3 197.8 74.5C198.1 73.4 199.2 73 200.4 73.2C201.5 73.4 202.7 73.4 203.9 73.3C203 72.2 201.4 73 200.3 72.2C202.5 70.1 205.1 70 207.3 67.8C207.3 67.8 201.9 69.5 199 71.5C199.1 71.3 202.5 62.7 201.9 59.7L200.7 63.6C200.6 63.9 200.5 64.2 200.3 64.5L198.4 67.6C198.3 67.9 198.2 68.2 197.8 68.4C197.7 66.6 197 64.4 197 65.1C196.9 67.3 196.9 69.6 196.7 71.8C196.6 73.2 196.5 73.3 194.8 73.7C194.1 73.9 193.5 74 192.8 74.2C192.8 74.2 192.7 74.6 192.5 75.3C192.4 75.7 192.3 76.3 192.2 76.9C192 78 191.9 79.6 191.8 81.5C191.8 82.6 191.5 83.8 191.2 84.8C191 85.4 190.8 86 190.6 86.6C190 88.2 189.4 89.8 188.9 91.5C188.7 92.2 188.9 93 188.8 93.7C188.8 94 188.7 94.3 188.7 94.6C188.5 95.6 188.4 96.6 188.1 97.6C188 97.9 187.6 98.3 187.2 98.5C186 99.2 184.8 99.8 183.7 100.4C182.7 100.9 181.7 101.5 180.7 102C180.2 102.3 179.8 102.6 179.3 103C179.3 102.9 179.3 102.8 179.4 102.7C179.6 101.5 179.8 100.3 180.1 99.2C180.3 98.4 180.5 97.6 181 97C181.6 96.2 182.5 95.6 183.3 95C184.1 94.4 184.9 93.8 185.7 93.1C185.6 93 183.5 94.1 181.8 95.1C181.2 95.4 180.7 95.7 180.3 96C180.4 94.8 180.7 93.7 181.4 92.6C181.5 92.5 181.5 92.4 181.6 92.3C182.1 91.4 182.9 90 183.6 88.7C184.4 87.2 185 85.9 185 85.9C184.4 86.7 183.8 87.4 183.2 88.2C183.2 88.3 183.1 88.3 183.1 88.4C182.6 89.1 182.1 89.9 181.5 90.7C181.3 91 181 91.3 180.8 91.6C180 92.9 179.4 94.2 179 95.6C178.9 96.2 178.8 96.8 178.7 97.4C178.6 98.5 178.4 99.7 178.1 100.8C177.9 101.6 177.7 102.5 177.5 103.3C177.4 103.7 177.2 104.2 177.1 104.6C176.8 105.4 175.8 106.1 174.9 106.7C173.5 107.6 172.2 108.6 170.8 109.5C170.3 109.9 169.7 110.2 169.2 110.6C169.2 108.6 169.2 106.5 169.1 104.5C169.1 103.6 169.1 102.6 169.1 101.7C169.1 98.9 169 96.1 170.2 93.3C170.5 92.6 170.6 91.8 170.8 91.1C170.8 91 170.9 90.9 170.9 90.8C171.2 90 171.5 89.3 171.8 88.5C172.1 87.8 172.4 87.2 172.7 86.5C173.2 85.5 174 84.6 174.5 83.6C175.6 81.6 176.6 79.5 177.7 77.5C178 77 178.3 76.4 178.6 75.9C179.1 75.1 179.6 74 180.5 73.6C182.1 72.8 183.7 72.1 185.4 71.5C186.4 71.1 187.5 70.7 188.5 70.4C191.3 69.5 193.7 68.2 195.6 66.4C196.4 65.7 197.2 65.1 198 64.4C198.7 63.7 199.4 63.1 200.2 62.4C200 62.4 194.8 65.9 193.3 67.1C192.3 67.9 191 68.5 189.6 68.9C190.4 67.2 191.6 63.9 191.5 63.8C191 64.6 190.5 65.4 190 66.2C189.5 67 189 67.9 188.3 68.6C187.7 69.2 186.8 69.5 185.9 69.9C184.5 70.5 183.1 71 181.6 71.5C181.9 71 182.2 70.6 182.4 70.1C183.2 68.1 184 66 184.8 64C184.9 63.6 185.2 63.2 185.6 63.1C187 62.5 188.5 62 189.9 61.5C190.7 61.2 191.7 61.2 192.5 60.8C194.8 59.7 197 58.4 199.3 57.3C199.5 57.2 199.6 57.1 199.8 57.1C200.2 56.9 201.3 56.4 203.4 55.8C204.8 55.4 215.7 53.7 221.4 53.5C223.8 53.4 230.1 52.8 230.1 52.8C224 52.3 217.8 52.6 211.7 52.9V51.2C211.7 49.8 211.8 49.7 213.4 49.2C216 48.5 218.6 47.8 221.2 47.1C222.1 46.9 222.9 46.6 223.7 46.3C223.7 46.2 223.6 46.1 223.6 46.1C221.4 46.5 219.3 46.9 217.1 47.4C217.3 47.1 217.6 46.9 217.9 46.7C224.3 43.5 229.1 41 235.5 37.8C235.8 36.9 237.9 36 237.4 35.3ZM125.7 39.8C126.1 39 126.5 38.2 127 37.4C127.4 36.6 127.9 35.8 128.4 34.9C128.7 36.1 129 37.2 129.4 38.3C129.8 39.7 130.7 40.9 132 41.8C132.6 42.2 133.1 42.8 133.6 43.3C133.5 43.4 133.4 43.5 133.4 43.5C133.1 43.4 132.8 43.3 132.5 43.2C130.4 42.4 128.3 41.5 126.2 40.7C125.7 40.5 125.4 40.3 125.7 39.8ZM133.8 53.5C130.3 52.8 129 50.6 128.4 48C128 46 127.2 44 126.1 42.2C125.9 41.9 125.8 41.5 125.6 41.1C126 41.2 126.1 41.2 126.3 41.3C128.4 42.2 130.4 43.1 132.5 43.9C133.1 44.2 133.4 44.5 133.6 45.1C134.2 47.9 134.7 50.7 133.8 53.5ZM127.9 84.5C126.8 84.4 125.8 84.3 124.7 84.1C123 83.9 122.4 83.2 122.6 81.5C124.4 82.5 126.2 83.4 127.9 84.3C127.9 84.3 127.9 84.4 127.9 84.5ZM127 81.6C132 82.9 136.2 85.2 140.3 87.8C135.8 85.7 131 84.3 127 81.6ZM153 62.4C154.1 64.6 155.4 67.5 156.3 69.8C156.4 70.2 156.5 70.5 156.6 70.9C156.7 71.4 156.7 72 156.7 72.5C156.7 72.7 156.7 72.8 156.7 73C156.6 73 156.5 73.1 156.5 73.1C156.4 73 156.3 72.9 156.2 72.8C156 72.6 155.8 72.4 155.6 72.2C155.2 71.8 154.7 71.3 154.3 70.9C153.5 70.1 152.8 69.4 152.1 68.6C151.7 68.2 151.4 67.5 151.5 67C151.7 65.7 152.2 64.4 152.6 63.1C152.6 63 152.9 62.3 153 62.4ZM140.2 47.4C142.7 51.1 145.4 54.7 148.1 58.2C149.2 59.5 150.7 60.6 151.9 61.8C151.1 63.2 150.4 64.6 149.6 66.1C149.1 65.4 148.8 64.6 148.1 64C146.5 62.7 144.8 61.5 143.2 60.2C141.4 58.8 139.3 57.5 137.8 55.9C136.9 54.9 136.5 53.4 136.6 52.1C136.8 50 136.1 48 135.9 46C135.9 45.8 135.8 45.5 135.8 45.1C137.9 45.4 139.2 46 140.2 47.4ZM145.1 66.8C141.2 64.3 138 61.4 135 58.2C139.3 60.2 142.3 63.4 145.1 66.8ZM138.9 45C138 44.8 137.1 44.7 136.3 44.5C136.1 44.5 135.8 44.3 135.7 44.1C134.9 41.5 134.6 38.8 134.5 36C136.8 38.8 138.3 41.8 138.9 45ZM119 61.6C121.4 61.8 123.6 62.4 125.9 62.9C126.2 63 126.4 63 126.7 63.1C126.7 64.5 127.8 67 128.6 68.3C126 66.5 122.1 63.7 119 61.6ZM129.5 68.2C128.6 66.7 127 63.7 126.7 63.1C128.6 63.5 130.5 63.6 132.4 63.3C132.6 64.5 132.7 65.2 132.9 66.8C132.5 66.8 132.5 68.2 132.3 68.2C132.5 69 132.8 69.7 133.1 70.7C131.5 69.9 130.3 69.4 129.5 68.2ZM155.4 98.4C154.5 97.2 154 95.7 153.4 94.3C153.1 93.5 152.8 92.8 152.4 92C150.7 88.6 148.3 85.4 145.5 82.5C142.3 79.2 139.2 75.8 135.9 72.5C134.9 71.5 134.8 70.4 134.6 69.2C134.4 67.7 133.6 64.8 132.9 63.1C133.2 63 133.4 63 133.7 62.9C135.3 62.5 136.6 62.6 137.7 63.8C137.9 64.1 138.3 64.3 138.6 64.5C140.8 66.5 143.1 68.3 145.9 69.7C146.6 70 147.3 70.4 148 70.8C150.3 72.2 152.1 74 153.6 76.1C154.2 76.8 154.9 77.6 155.8 78.1C155.8 78.1 155.9 78.1 155.9 78.2C157.7 79.2 158.9 80.6 160 82L160.1 82.1C160.3 82.3 160.3 82.6 160.3 82.9C160.3 84.8 160.4 86.8 160.4 88.7C160.4 89.5 160.3 90.3 160.3 91C160.3 91.6 160.3 92.2 160.3 92.8C160.5 95.8 160.9 98.7 161 101.7C161 103.2 161.1 104.7 161.1 106.2C159.3 103.6 157.3 101 155.4 98.4ZM163.3 41.3C162.7 40.2 162.2 39.1 161.5 37.8C163.1 38 164.3 38.1 165.9 38.3C165.1 39.4 164.4 40.4 163.6 41.3C163.5 41.3 163.4 41.3 163.3 41.3ZM165.6 51C165.4 50 165.4 48.9 165.1 47.9C164.6 46.1 165.3 44.5 166.3 43C167 41.9 167.8 40.8 168.7 39.7C169.6 40.5 170.3 41.2 171.2 41.8C172.1 42.4 172.4 43 171.6 43.8C171.4 44 171.2 44.4 171.2 44.7C170.6 46.9 170.2 49 169.4 51.2C168.7 53.1 167.7 55 166.8 57.1C166.3 54.9 166 53 165.6 51ZM194 74.8C194.4 74.6 195 74.4 195.8 74.3C195.2 75.7 194.6 77.1 194 78.4C193.9 78.6 193.8 78.9 193.7 79.1C193.7 79.1 193.7 79.1 193.7 79.2C193.6 79.2 193.6 79.2 193.5 79.2C193.5 79.2 193.5 79.2 193.5 79.1C193.4 78.2 193.3 77.4 193.3 76.6C193.1 75.8 193.3 75.2 194 74.8ZM192.9 87.7C193.2 86.7 193.5 85.8 193.8 84.8C194.5 82.4 195.2 80.1 196.6 77.9C196.3 81 195.3 83.8 194 86.6C193.7 87.3 193.3 88 192.9 88.7C192.7 89.1 192.4 89.5 192.2 89.9C192.5 89.2 192.7 88.4 192.9 87.7ZM192.8 57C196.7 54.2 200.8 51.7 205.7 50.3C201.8 53.1 197.1 54.7 192.8 57ZM208.1 52.6C207.1 52.8 206 52.9 205 53.1C205 53 204.9 53 204.9 52.9C206.6 51.9 208.3 50.9 210.1 49.9C210.3 51.6 209.7 52.3 208.1 52.6Z" fill="#E9BE28"/>
                        </g>
                        <g id="brand">
                        <g id="rotate_1">
                        <path id="Vector_23" d="M94.9999 104.9C97.3999 105.2 99.5999 105.7 101.4 106.5C103.2 107.3 104.8 108.4 106 109.7C107.2 111 108.1 112.6 108.6 114.5C109.1 116.4 109.2 118.5 109 121C108.7 124.1 107.8 126.7 106.4 128.6C105 130.5 103.2 131.9 101 132.8L106.2 148.4C106.3 148.7 106.3 148.9 106.3 149.1C106.3 149.5 106.1 149.8 105.8 150C105.5 150.2 105.2 150.4 104.9 150.3L97.3999 149.5C96.6999 149.4 96.1999 149.2 95.8999 148.8C95.5999 148.4 95.3999 148 95.2999 147.6L90.6999 133.5L85.5999 132.9L84.0999 146.3C83.9999 146.8 83.8999 147.1 83.4999 147.4C83.1999 147.7 82.7999 147.8 82.3999 147.8L75.1999 147C74.7999 147 74.4999 146.8 74.1999 146.4C73.8999 146 73.7999 145.6 73.8999 145.2L78.3999 104.8C78.4999 104.3 78.5999 104 78.9999 103.7C79.2999 103.4 79.6999 103.3 80.0999 103.3L94.9999 104.9ZM86.6999 123.1L92.8999 123.8C94.3999 124 95.7999 123.8 96.7999 123.2C97.8999 122.6 98.4999 121.5 98.6999 119.7C98.8999 117.9 98.4999 116.7 97.5999 115.9C96.6999 115.1 95.3999 114.6 93.8999 114.5L87.6999 113.8L86.6999 123.1Z" fill="#E9BE28"/>
                        <path id="Vector_24" d="M94.7 67.7V114.7" stroke="#E9BE28" stroke-miterlimit="10"/>
                        </g>
                        <path id="translate_1" d="M41.1 167.4C40.7 167.4 40.3 167.2 40 166.9C39.7 166.6 39.6 166.2 39.6 165.7V125C39.6 124.5 39.7 124.1 40 123.8C40.3 123.5 40.6 123.3 41.1 123.3H58.9C61.4 123.3 63.5 123.7 65.2 124.5C66.9 125.3 68.3 126.3 69.3 127.5C70.3 128.7 71 130.1 71.5 131.7C71.9 133.3 72.2 134.8 72.2 136.4C72.2 137.6 72.1 138.7 71.8 139.6C71.6 140.5 71.3 141.3 70.9 141.9C70.6 142.5 70.2 143.1 69.9 143.5C69.5 143.9 69.3 144.2 69 144.4C70.4 145.5 71.4 146.8 72 148.3C72.6 149.8 72.9 151.6 72.9 153.7C72.9 155.4 72.7 157.1 72.2 158.7C71.8 160.3 71 161.8 70 163.1C69 164.4 67.7 165.4 66 166.2C64.4 167 62.4 167.4 60 167.4H41.1V167.4ZM61.8 136.7C61.8 135.6 61.5 134.7 60.9 134.1C60.3 133.4 59.5 133.1 58.4 133.1H49.8V140.3H58.4C59.5 140.3 60.3 140 60.9 139.3C61.5 138.7 61.8 137.8 61.8 136.7ZM49.8 157.7H58.9C60 157.7 60.9 157.3 61.6 156.6C62.3 155.9 62.6 155 62.6 153.9C62.6 152.8 62.3 151.9 61.6 151.2C60.9 150.5 60 150.1 58.9 150.1H49.8V157.7Z" fill="#E9BE28"/>
                        <path id="Vector_25" d="M134 123.4C134.7 123.4 135.3 123.6 135.7 124.1C136.1 124.6 136.4 125 136.5 125.5L148.6 165.1C148.7 165.5 148.8 165.8 148.8 166C148.8 166.4 148.7 166.7 148.4 167C148.2 167.3 147.9 167.4 147.5 167.4H140.5C139.8 167.4 139.2 167.2 138.9 166.9C138.6 166.5 138.4 166.2 138.3 165.9L136.7 160.7H122L120.4 165.9C120.3 166.2 120.1 166.6 119.8 166.9C119.5 167.3 119 167.4 118.2 167.4H111.2C110.9 167.4 110.6 167.3 110.3 167C110.1 166.7 109.9 166.4 109.9 166C109.9 165.8 110 165.5 110.1 165.1L122.2 125.5C122.3 125 122.6 124.6 123 124.1C123.4 123.6 123.9 123.4 124.7 123.4H134ZM125 150.9H134L129.5 135.8L125 150.9Z" fill="#E9BE28"/>
                        <path id="Vector_26" d="M176.1 167.4C175.5 167.4 175 167.2 174.6 166.8C174.2 166.4 174 166.1 173.9 165.9L161.2 144.4V165.7C161.2 166.2 161.1 166.6 160.8 166.9C160.5 167.2 160.2 167.4 159.7 167.4H152.4C152 167.4 151.6 167.2 151.3 166.9C151 166.6 150.9 166.2 150.9 165.7V125C150.9 124.5 151 124.1 151.3 123.8C151.6 123.5 151.9 123.3 152.4 123.3H158.2C158.8 123.3 159.3 123.5 159.7 123.9C160.1 124.3 160.3 124.6 160.4 124.8L173.1 146.3V125C173.1 124.5 173.2 124.1 173.5 123.8C173.8 123.5 174.1 123.3 174.6 123.3H181.9C182.3 123.3 182.7 123.5 183 123.8C183.3 124.1 183.4 124.5 183.4 125V165.7C183.4 166.2 183.3 166.6 183 166.9C182.7 167.2 182.4 167.4 181.9 167.4H176.1Z" fill="#E9BE28"/>
                        <path id="Vector_27" d="M203.2 123.4C205.7 123.4 208.1 123.8 210.2 124.7C212.3 125.6 214.1 126.8 215.7 128.3C217.2 129.9 218.4 131.7 219.3 133.9C220.2 136.1 220.7 138.4 220.8 141C220.8 141.9 220.9 142.7 220.9 143.4V145.5V147.6C220.9 148.3 220.9 149.1 220.8 149.9C220.7 152.5 220.2 154.9 219.4 157C218.6 159.1 217.4 161 215.9 162.5C214.4 164.1 212.6 165.3 210.6 166.1C208.5 167 206.2 167.4 203.7 167.4H188.7C188.3 167.4 187.9 167.2 187.6 166.9C187.3 166.6 187.2 166.2 187.2 165.7V125C187.2 124.5 187.3 124.1 187.6 123.8C187.9 123.5 188.2 123.3 188.7 123.3H203.2V123.4ZM210.4 140.7C210.2 135.9 207.7 133.5 202.9 133.5H197.3V157.4H203.2C207.9 157.4 210.3 155 210.5 150.2C210.5 149.3 210.6 148.5 210.6 147.7V145.4V143.2C210.5 142.4 210.5 141.5 210.4 140.7Z" fill="#E9BE28"/>
                        <g id="Group_2" opacity="0.0599976">
                        <g id="Group_3" opacity="0.0599976">
                        <path id="Vector_28" opacity="0.0599976" d="M23.9 182.9C23.9 183.5 18.6 183.9 12 183.9C5.39998 183.9 0.0999756 183.4 0.0999756 182.9C0.0999756 182.3 5.39998 181.8 12 181.8C18.6 181.8 23.9 182.3 23.9 182.9Z" fill="#F2F6F8"/>
                        </g>
                        </g>
                        <g id="man_1">
                        <path id="Vector_29" d="M14.3 118.4C14.7 118.9 15.2 119.4 15.4 119.9C15.6 120.5 15.6 121.2 15.3 121.7C15.1 122 14.8 122.2 14.4 122.1C14.3 122.1 14.1999 122 14.1999 122C13.3999 121.5 12.8 120.6 12.7 119.7" fill="#495152"/>
                        <path id="Vector_30" d="M5.00004 178.4C5.00004 178.4 4.50003 179.9 4.30003 180.3C4.10003 180.7 3.00004 180.3 2.90004 180.1C2.80004 179.8 3.40004 178 3.40004 178" fill="#F1BFB7"/>
                        <path id="Vector_31" d="M2.60003 180.2C2.50003 180.6 2.20003 181.2 2.30003 181.4C2.40003 181.6 3.80003 182.2 4.10003 182.4C4.30003 182.5 4.90003 182.7 5.10003 182.8C6.10003 183 6.80004 182.8 6.90004 182.7C7.20004 182.1 5.30003 181.7 4.50003 179.9C4.50003 179.9 4.40004 179.9 4.20004 180C4.00004 180.2 3.60004 180.3 3.40004 180.2C3.20004 180.1 3.10003 179.9 3.00003 179.7C3.00003 179.7 2.70003 179.8 2.60003 180.2Z" fill="#E9BE28"/>
                        <path id="Vector_32" d="M17.7 179.1C17.7 179.1 17.7 180.7 17.6 181.1C17.6 181.5 16.4 181.5 16.2 181.3C16.1 181.1 16 179.2 16 179.2" fill="#F1BFB7"/>
                        <g id="Group 1">
                        <path id="Vector_33" d="M16 181.4C16 181.8 15.9 182.5 16 182.6C16.1 182.8 17.7 182.9 18.1 183C18.4 183.1 18.9 183.1 19.2 183.1C20.2 183 20.8 182.6 20.9 182.4C21 181.7 19.1 181.9 17.7 180.5C17.7 180.5 17.6 180.5 17.5 180.7C17.3 181 17.1 181.2 16.8 181.1C16.6 181.1 16.4 180.9 16.3 180.8C16.2 180.9 16 181 16 181.4Z" fill="#E9BE28"/>
                        <path id="Vector_34" d="M29.6 114.3C29.6 114.1 29.4 114.2 29.3 114.4V114.5C29.3 114.2 29.3 114 29.3 113.9C29.3 113.7 29.1 113.8 29 113.9C29 113.8 29 113.7 29 113.7C29 113.5 28.7 113.6 28.7 113.8C28.7 113.8 28.7 114 28.7 114.1C28.7 114 28.7 114 28.7 113.9C28.7 113.7 28.5 113.8 28.4 113.9C28.4 113.9 28.4 114 28.3 114.2C28.3 114.4 28.2 114.6 28.2 114.7C28.2 114.9 28 115.6 27.6 115.7C27 115.8 27.4 114.8 27 114.6C26.9 114.5 26.7 115.3 26.7 115.8C26.7 116.2 26.7 116.5 26.7 116.7C26.7 117 26.9 117.3 26.9 117.5C26.9 117.8 26.6 118.3 26.6 118.3L28.1 118.6C28.1 118.6 28.4 117.8 28.6 117.6C29 117.2 29.3 116.6 29.5 116C29.6 115.6 29.6 115.2 29.7 114.8C29.6 114.9 29.6 114.4 29.6 114.3Z" fill="#F1BFB7"/>
                        <path id="Vector_35" d="M15.8 126.6C15.8 126.6 20.5 126.6 23 123.7C25 120.9 27 117.7 27.1 117.5C27.5 117.7 28.4 118 28.4 118C28.4 118 25.7 124 24.7 125.3C23.7 126.7 21.6 128.9 17.3 130C15.2 127.7 15.8 126.6 15.8 126.6Z" fill="#F1BFB7"/>
                        <path id="Vector_36" d="M19.3 163.7C19.6 160.2 18.4 149.2 18.2 148.3C18.1 147.4 17.4 147.2 16.9 147.1C14.4 146.3 11.4 150.3 12.2 153.8C12.2 153.9 12.2 153.9 12.2 154C12.7 156 15.4 162.6 15.2 164.5C13.7 168.5 15.4 176.7 15.9 180.2C16 180.2 16 180.2 16.1 180.2C17.4 180.2 18.1 180 18.1 180C18.1 180 19.1 167.2 19.3 163.7Z" fill="#E9BE28"/>
                        <path id="Vector_37" d="M16.1 164.4C16.2 163.1 14.9 152.8 14.6 153C14.5 153 14.4 153.2 14.4 153.3C14.1 153.8 13.9 154.2 13.6 154.7C13.4 155.2 13.2 155.7 13 156.3C13.9 159.1 15.4 163.1 15.3 164.6C14.4 167 14.7 170.8 15.1 174.3C14.9 169.5 16 165.4 16.1 164.4Z" fill="#D0A837"/>
                        <path id="Vector_38" d="M17.9 144.5C17.9 144.5 16.9 144.7 15 144.7C12.6 144.6 9.49995 143.4 9.49995 143.4C6.39995 146.8 8.09995 150.7 7.99995 152C7.89995 153.3 7.59995 159.5 7.39995 162.9C4.19995 166 4.09995 174.2 3.19995 178.5V178.6C4.49995 179.1 5.29995 179.2 5.29995 179.2L5.39995 178.9C6.29995 176.1 10.6999 167.9 11.7999 164.7C12.7999 161.8 15.3 153.1 15.4 153.1L18.5999 153.7C18.3999 148 17.9 144.5 17.9 144.5Z" fill="#E9BE28"/>
                        <path id="Vector_39" d="M15.8999 123.5C15.8999 123.8 15.8999 125 15.2999 125.2C14.6999 125.5 14.2999 125.6 14.2999 125.7C14.2999 125.7 14.3999 125.9 14.3999 126.1C14.4999 126.5 14.7999 126.7 14.7999 126.7L14.8999 128.2L13.7999 129.3L13.3999 129.7L12.8999 129.2L11.0999 127.6C11.0999 127.6 11.7999 126.7 11.2999 125.7C11.1999 125.6 10.3999 124.7 9.79993 123.8C9.39993 123.3 9.09993 122.7 8.99993 122.4C8.79993 121.4 8.59993 120.3 9.19993 119.6C9.79993 119 14.1999 116.9 14.8999 120.3C14.8999 120.3 15.5999 121.2 15.8999 121.4C16.1999 121.7 16.0999 122 15.8999 122.2C15.5999 122.3 15.8999 123.2 15.8999 123.5Z" fill="#F1BFB7"/>
                        <path id="Vector_40" d="M18.6999 148.2C18.6999 148.2 13.6999 149.4 7.29993 148.3C7.59993 146.3 8.09993 140.5 8.19993 138.2V138C8.19993 136.6 8.29993 135.6 8.29993 135.5C8.39993 135.4 8.09993 130.9 8.49993 129.1C8.59993 128.8 8.69993 128.5 8.79993 128.4C9.49993 127.8 10.3999 127.1 11.3999 126.7C11.3999 126.7 13.6999 129.1 14.7999 126.4C16.0999 126.3 16.6999 126.5 17.0999 127.8C19.0999 134.9 18.6999 148.2 18.6999 148.2Z" fill="white"/>
                        <path id="Vector_41" d="M15.7999 126.4C15.7999 126.4 17.8999 126.4 20.0999 125.5C21.2999 126.9 21.9999 129.5 21.9999 129.5C21.9999 129.5 19.0999 131.3 16.9999 131.5C16.4999 128.4 15.7999 126.4 15.7999 126.4Z" fill="white"/>
                        <path id="Vector_42" d="M16.2 126.9C16.2 126.9 17.5 128.6 17.9 131.4C19.4 131.1 21.7 129.9 21.9 129.6C21.3 129.8 18.5 130.8 18.1 130C17.5 128.3 16.2 126.9 16.2 126.9Z" fill="#AAD4EB"/>
                        <path id="Vector_43" d="M15.5999 128.4L24.8999 129.4L22.9999 134.7L15.1999 129.3C14.9999 129.2 14.8999 129 14.9999 128.8L15.0999 128.6C15.1999 128.5 15.3999 128.4 15.5999 128.4Z" fill="#E9BE28"/>
                        <path id="Vector_44" d="M24.7 132.3C24.2 133.8 23.4 134.9 23 134.8C22.6 134.7 22.7 133.5 23.2 132C23.7 130.5 24.5 129.4 24.9 129.5C25.4 129.5 25.3 130.8 24.7 132.3Z" fill="#F4CA64"/>
                        <path id="Vector_45" d="M7.40002 135.5C7.40002 135.5 8.40002 138.9 10.9 140.4C11.6 140.9 12.6 140.6 13.1 140C14.8 138.1 16.6 133.7 17.1 132C16.1 131.5 15.8 131.5 15.8 131.5C15.8 131.5 13.3 134.9 11.9 137.2L10.8 135.4" fill="#F1BFB7"/>
                        <path id="Vector_46" d="M15.7999 131.7C15.7999 131.7 16.2999 131 16.2999 130.4C16.2999 129.8 16.0999 128.9 16.5999 128.4C16.7999 128.2 17.4999 127.9 18.2999 128.1C19.4999 128.3 19.7999 128.6 19.6999 128.9C19.5999 129.1 18.7999 129.2 18.5999 129.7C18.3999 130.1 18.4999 130.4 18.4999 130.8C18.3999 131.5 17.3999 131.8 17.1999 132.1C16.9999 132.3 15.7999 131.7 15.7999 131.7Z" fill="#F1BFB7"/>
                        <path id="Vector_47" d="M8.49995 146.3C8.79995 145.3 9.09995 139.3 9.09995 138.4C9.89995 138.3 11.3999 137.7 12.2999 136.3C11.9999 135.7 11.0999 133.8 9.59995 132.1L8.69995 128.8C8.69995 128.8 8.59995 128.9 8.39995 129C7.99995 130.8 8.29995 135.3 8.19995 135.4C8.19995 135.4 8.09995 136.5 8.09995 137.9V138.1C7.99995 140.3 7.49995 146.2 7.19995 148.2C13.5 149.4 18.5999 148.1 18.5999 148.1C18.5999 148.1 8.19995 147.5 8.49995 146.3Z" fill="#EEF3F6"/>
                        <path id="Vector_48" d="M9.39998 127.9C9.39998 127.9 6.79998 129.6 6.69998 132.5C6.59998 134.8 8.09997 138 8.09997 138C8.09997 138 10.7 138.3 12 136.2C11.6 135.2 11.2 134.3 10.5 133" fill="white"/>
                        <path id="Vector_49" d="M13.3 119.1C14.3 118.8 15.6 118.7 15 117.3C14.7 116.5 13.5 115.8 12.2 115.9C11.4 115.9 10.6 116.8 10.1 117.8C7.89995 118.7 7.69995 120.4 8.09995 122.2C8.09995 122.2 9.09995 125.5 11.6 125.6C11.6 125.6 11.6 124.9 11.3 124.1C11.3 124.1 10.3 123.8 10.1 123.1C9.79995 122.3 11 122.8 11 122.8C11 122.8 11 122.1 10.9 121.5C10.9 121.3 10.7 121.1 10.5 120.9C10.7 120.9 11.2 119.8 13.3 119.1Z" fill="#495152"/>
                        </g>
                        </g>
                        <g id="Group_4" opacity="0.0599976">
                        <g id="Group_5" opacity="0.0599976">
                        <path id="Vector_50" opacity="0.0599976" d="M99.7 185.8C99.7 186.4 96.2 186.8 91.9 186.8C87.6 186.8 84.1 186.3 84.1 185.8C84.1 185.2 87.6 184.8 91.9 184.8C96.2 184.8 99.7 185.2 99.7 185.8Z" fill="#F2F6F8"/>
                        </g>
                        </g>
                        <g id="Group_6" opacity="0.0599976">
                        <g id="Group_7" opacity="0.0599976">
                        <path id="Vector_51" opacity="0.0599976" d="M91.1999 190.6C91.1999 192.1 73.8999 193.3 52.4999 193.3C31.0999 193.3 13.7999 192.1 13.7999 190.6C13.7999 189.1 31.0999 187.9 52.4999 187.9C73.8999 187.9 91.1999 189.1 91.1999 190.6Z" fill="#F2F6F8"/>
                        </g>
                        </g>
                        <path id="Vector_52" d="M34.9 185.7C28.6 185.3 22.1 185.3 15.7 185.6C14.9 185.6 8.89997 185.8 10.3 187.8C10.8 188.6 12.9 188.5 13.7 188.6C16.2 188.8 18.7 188.7 21.2 188.7C27.6 188.6 34.1 188.8 40.5 188.5C40.7 188.5 40.7 188.2 40.5 188.2C35.2 188.1 29.8 188.1 24.5 188.3C20.6 188.4 16.5 188.7 12.6 188.2C12.3 188.2 10.9 188.1 10.7 187.7C10.2 186.7 12 186.5 12.6 186.4C14.7 186 16.8 186 18.9 186C24.2 185.9 29.5 185.9 34.9 185.9C35 185.8 35 185.7 34.9 185.7Z" fill="#D3DDE4"/>
                        <path id="Vector_53" d="M68.3 182.1C70.8 182.2 73.3 182.4 75.8 182.6C77.1 182.7 78.3 182.9 79.6 183C80.1 183.1 81.2 182.9 81.5 183.2C81.7 183.7 81.9 184.2 82.1 184.8C81.5 184.9 80.8 185 80.2 185C75.3 185.4 70.3 184.4 65.4 185.2C65.2 185.2 65.2 185.6 65.5 185.6C69.6 185.4 73.7 185.7 77.8 185.6C78.9 185.6 82.8 186.1 83.3 184.4C84.2 181.4 69.9 181.9 68.2 181.9C68.2 181.9 68.2 182.1 68.3 182.1Z" fill="#BECEDA"/>
                        <path id="Vector_54" d="M28.1 186.8C25.5 186.8 22.8 187.1 20.2 187.5C18.7 187.8 17 188.1 15.6 188.8C14.9 189.2 13.9 189.9 14.2 190.8C14.5 191.6 15.6 192 16.4 192.2C17.8 192.6 19.3 192.8 20.8 192.9C23.4 193.1 25.9 193.1 28.5 193.1C30.6 193.1 34 193.4 34.8 190.8C35.3 189.3 34.6 187.8 34.2 186.4C33.9 185.5 33.7 184.6 34 183.7C34.1 183.2 34.5 182.7 35 182.6C35.5 182.5 35.9 182.7 36.1 183.2C36.2 183.4 36.4 183.2 36.4 183C36.1 182.3 35.1 182.1 34.5 182.5C33.5 183.2 33.6 184.8 33.9 185.9C34.3 187.3 35 188.8 34.7 190.3C34.5 191.6 33.5 192.3 32.3 192.6C30.8 193 29.1 192.8 27.5 192.8C26.2 192.8 24.9 192.8 23.6 192.8C22 192.7 20.4 192.7 18.8 192.4C17.6 192.2 16.2 192.1 15.2 191.4C14.3 190.9 14.4 190.1 15.1 189.5C16.2 188.6 17.8 188.2 19.2 187.9C22.1 187.3 25.2 187 28.2 186.9L28.1 186.8Z" fill="#BECEDA"/>
                        <path id="Vector_55" d="M97 183.4C97.5 184.8 99.7 183.8 100.6 184.7C103.1 187.3 99.1 187.2 98.1 187.2C97.2 187.2 96.2999 187.2 95.3999 187.2C93.6999 187.2 91.9 187.3 90.2 187.3C83 187.3 75.9 187.4 68.7 187.4C68.2 187.4 68.2 188.2 68.7 188.2C78.1 188.2 87.5 188 96.8 188C98.2 188 102.9 188.4 102.9 185.9C102.9 183.3 98.3 184.7 97.3 183.4C97.1 183.2 96.9 183.2 97 183.4Z" fill="#BECEDA"/>
                        <path id="Vector_56" d="M95.9 183.7C96 185.1 101.5 186.6 98.1 187.7C94.2 189.1 89.1 188.4 85 188.4C79.2 188.4 73.3 188.5 67.5 188.5C67 188.5 67 189.3 67.5 189.3C74.5 189.3 81.5 189.2 88.5 189.2C91 189.2 93.6 189.2 96.1 188.9C97.1 188.8 98.5 188.7 99.3 188C101.8 186 96.6 184.8 96.1 183.7C96 183.6 95.9 183.6 95.9 183.7Z" fill="#BECEDA"/>
                        <path id="lamb" d="M83.5 182.9C82.8 181.5 82.6 179.7 83.2 178.2C83.6 177.3 84.1 176.5 84.9 175.9C85.6 175.4 86.3 175 87.1 174.8C88.5 174.4 90 174.6 91.3 175.3C92.3 175.9 93.1 176.9 93.6 178C94.1 179.1 94.3 180.4 95.3 181C95.6 181.2 96.1 181.3 96.2 181.6C96.4 182 96.1 182.5 95.9 182.8C95.7 183.2 95.5 183.7 95.3 184.1C95.2 184.4 95 185 94.6 185.1C94.2 185.2 93.8 184.9 93.5 184.8C92.6 184.5 91.6 184.9 90.8 185.3C89.9 185.7 88.9 185.9 87.8 185.9C86 185.8 84.4 184.6 83.5 182.9Z" fill="#E9BE28"/>
                        <path id="Vector_57" d="M96 183.3C96 183.3 93.1 181.9 91.7 181.1C91.3 180.9 90.9 180.7 90.4 180.2C90.1 179.9 89.4 179.2 89.8 178.8C90.3 178.3 90.9 179.1 90.9 179.6C90.9 180 90.6 180.6 90.2 180.8C89.6 181.2 88.7 181.1 88.2 180.8C87.8 180.5 88 179.9 88.5 179.9C89 179.9 90.2 180.9 89.9 181.7C89.7 182.1 89.4 182.4 89 182.6C88.3 182.9 87.4 182.1 88.4 181.7C89.1 181.5 90 181.7 90.6 182C92.4 182.7 93.8 183.3 95.6 184" stroke="white" stroke-width="0.417" stroke-miterlimit="10"/>
                        <path id="Vector_58" d="M95.2354 185.105L96.5841 182.093L96.3103 181.97L94.9616 184.982L95.2354 185.105Z" fill="#E9BE28"/>
                        <path id="Vector_59" d="M96.1999 185.7C96.1999 185.6 96.0999 185.6 95.9999 185.6C95.8999 185.6 95.7999 185.6 95.7999 185.5C95.7999 185.4 95.5999 185.4 95.5999 185.4C95.4999 185.4 95.3999 185.4 95.3999 185.3L95.2999 185.2C95.2999 185.2 95.2999 185.1 95.2999 185L96.5999 182L96.6999 181.9H96.7999C96.8999 181.9 96.9999 181.9 96.9999 182C96.9999 182.1 97.0999 182.1 97.1999 182.1H97.2999C97.3999 182.1 97.4999 182.1 97.4999 182.2C97.4999 182.3 97.5999 182.3 97.6999 182.3C97.7999 182.3 97.8999 182.3 97.8999 182.4C97.8999 182.5 97.8999 182.6 97.8999 182.7L96.5999 185.6C96.5999 185.7 96.4999 185.7 96.3999 185.8C96.3999 185.9 96.2999 185.9 96.1999 185.7Z" fill="white"/>
                        <path id="Vector_60" d="M95.6 185.3C95.5 185.3 95.5 185.3 95.6 185.3L96.2 183.8C96.2 183.8 96.2 183.8 96.3 183.8C96.3 183.8 96.3 183.8 96.3 183.9L95.6 185.3Z" fill="#D0A837"/>
                        <path id="Vector_61" d="M96.4999 183.3C96.3999 183.3 96.3999 183.3 96.4999 183.3L96.7999 182.4C96.7999 182.4 96.7999 182.4 96.8999 182.4C96.8999 182.4 96.8999 182.4 96.8999 182.5L96.4999 183.3Z" fill="#D0A837"/>
                        <path id="Vector_62" d="M96.4 184.5C96.3 184.5 96.3 184.5 96.4 184.5L97.3 182.4C97.3 182.4 97.3 182.4 97.4 182.4C97.4 182.4 97.4 182.4 97.4 182.5L96.4 184.5Z" fill="#D0A837"/>
                        <path id="Vector_63" d="M95.9 185.5C95.9 185.5 95.9 185.4 95.9 185.5L96.1 184.8C96.1 184.8 96.1 184.8 96.2 184.8C96.2 184.8 96.2 184.8 96.2 184.9L95.9 185.5C95.9 185.5 96 185.5 95.9 185.5Z" fill="#D0A837"/>
                        <path id="Vector_64" d="M97 183.9L97.4 182.7C97.4 182.7 97.4 182.7 97.5 182.7C97.5 182.7 97.5 182.7 97.5 182.8L97 183.9C97.1 183.9 97.1 183.9 97 183.9Z" fill="#D0A837"/>
                        <path id="Vector_65" d="M96.5 185.1C96.5 185 96.5 185 96.5 185.1L96.6 184.6C96.6 184.6 96.6 184.6 96.7 184.6C96.7 184.6 96.7 184.6 96.7 184.7L96.5 185.1C96.5 185.1 96.6 185 96.5 185.1Z" fill="#D0A837"/>
                        <path id="Vector_66" d="M96.2999 183.7C96.2999 183.6 96.2999 183.6 96.2999 183.7V183.5C96.2999 183.5 96.2999 183.5 96.3999 183.5C96.3999 183.5 96.3999 183.5 96.3999 183.6L96.2999 183.7C96.3999 183.7 96.3999 183.6 96.2999 183.7Z" fill="#D0A837"/>
                        <path id="Vector_67" d="M83.5 182.9C82.8 181.5 82.6 179.7 83.2 178.2C83.3 178 83.4 177.9 83.4 177.7C82.5 180.2 83.6 183.2 86.2 184.2C88.3 185.1 90.3 184.7 92.2 183C92.6 182.6 93 182.5 93.6 182.6C94.1 182.7 94.5 183.1 95 183.2C95.1 183.2 95.2 183.2 95.2 183.2C95.3 183.2 95.3 183.1 95.4 183.1C95.8 182.7 96.1 182.1 96.2 181.5C96.2 181.5 96.2 181.6 96.3 181.6C96.5 182 96.2 182.5 96 182.8C95.8 183.2 95.6 183.7 95.4 184.1C95.3 184.4 95.1 185 94.7 185.1C94.3 185.2 93.9 184.9 93.6 184.8C92.7 184.5 91.7 184.9 90.9 185.3C90 185.7 89 185.9 87.9 185.9C86 185.8 84.4 184.6 83.5 182.9Z" fill="#D0A837"/>
                        <path id="Vector_68" d="M69.7 188.1H34.4C34.3 188.1 34.2 188.2 34.2 188.3V189.4C34.2 189.5 34.3 189.6 34.4 189.6H73.3C74 189.6 74.5 189.2 74.5 188.6V181.5C74.5 181 74 180.5 73.3 180.5H34.4C34.3 180.5 34.2 180.6 34.2 180.7V181.8C34.2 181.9 34.3 182 34.4 182H69.7C70.4 182 70.9 182.4 70.9 183V187.3C70.9 187.7 70.4 188.1 69.7 188.1Z" fill="#E9BE28"/>
                        <path id="Vector_69" d="M35.7 181.8H69.4C71.1 181.8 72.5 183.2 72.5 184.9C72.5 186.6 71.1 188 69.4 188H35.7V181.8Z" fill="white"/>
                        <path id="Vector_70" d="M72.5 186.2H55.9" stroke="#E9BE28" stroke-width="0.5" stroke-miterlimit="10"/>
                        <path id="Vector_71" d="M72.5 184.9H45.2" stroke="#E9BE28" stroke-width="0.5" stroke-miterlimit="10"/>
                        <path id="Vector_72" d="M72.5 183.8H38" stroke="#E9BE28" stroke-width="0.5" stroke-miterlimit="10"/>
                        <path id="Vector_73" d="M68.6 182.6H41.2" stroke="#E9BE28" stroke-width="0.5" stroke-miterlimit="10"/>
                        <path id="Vector_74" d="M49.9 186.2H40.4" stroke="#E9BE28" stroke-width="0.5" stroke-miterlimit="10"/>
                        <path id="Vector_75" d="M57.4 176.8C55.2 176.8 54.4 177.9 54.2 178.4C54 177.9 53.2 176.8 51 176.8C47.7 176.8 34.4 178.3 34.4 178.3V178.9H74V178.3C74 178.3 60.7 176.8 57.4 176.8Z" fill="#EEDDE1"/>
                        <path id="Vector_76" d="M73.9 178.6C73.9 178.6 60.8 177.3 57.5 177.3C55.3 177.3 54.5 178.2 54.3 178.7C54.1 178.2 53.3 177.3 51.1 177.3C47.8 177.3 34.7 178.6 34.7 178.6" stroke="#E9BE28" stroke-width="0.5" stroke-miterlimit="10"/>
                        <path id="Vector_77" d="M46 178.6C46 178.6 50.7 178.4 51.8 178.5C53.3 178.6 54.2 178.9 54.2 178.9C54.2 178.9 53.2 177.9 50.8 177.9C49.4 177.9 34.5 178.9 34.5 178.9" stroke="#E9BE28" stroke-width="0.5" stroke-miterlimit="10"/>
                        <path id="Vector_78" d="M45.5999 178.5L38.2999 178.8" stroke="#E9BE28" stroke-width="0.5" stroke-miterlimit="10"/>
                        <path id="Vector_79" d="M62.4999 178.6C62.4999 178.6 57.7999 178.4 56.6999 178.5C55.1999 178.6 54.2999 178.9 54.2999 178.9C54.2999 178.9 55.2999 177.9 57.6999 177.9C59.0999 177.9 73.9999 178.9 73.9999 178.9" stroke="#E9BE28" stroke-width="0.5" stroke-miterlimit="10"/>
                        <path id="Vector_80" d="M62.7999 178.5L70.0999 178.8" stroke="#E9BE28" stroke-width="0.5" stroke-miterlimit="10"/>
                        <path id="Vector_81" d="M74.0999 180.4H34.5999C34.1999 180.4 33.7999 180.1 33.7999 179.6C33.7999 179.2 34.0999 178.8 34.5999 178.8H74.0999C74.4999 178.8 74.8999 179.2 74.8999 179.6C74.8999 180 74.4999 180.4 74.0999 180.4Z" fill="#D0A837"/>
                        <g id="Group_8" opacity="0.28">
                        <g id="Group_9" opacity="0.28">
                        <path id="Vector_82" opacity="0.28" d="M71.8 76.7C72.3 75.6 71.9 74.2 70.9 73.4C70 72.6 68.6 72.4 67.4 72.7C66.2 73 65.2 73.9 64.6 75C64.4 74.4 64.1 73.9 63.6 73.5C62.9 73.1 61.9 73.3 61.3 73.8C60.6 74.3 60.2 75.1 59.8 75.8C59 75.2 58.2 74.6 57.3 74.4C55.9 74.1 54.5 74.9 53.2 75.6C50.8 76.8 48.7 76.6 44.4 77.1C53.1 76.6 71.8 76.7 71.8 76.7Z" fill="#F2F6F8"/>
                        </g>
                        </g>
                        <g id="Group_10" opacity="0.28">
                        <g id="Group_11" opacity="0.28">
                        <path id="Vector_83" opacity="0.28" d="M103.4 46.5C104.4 44.1 103.5 41.1 101.5 39.4C99.5 37.7 96.6 37.2 94.1 37.9C91.6 38.6 89.5 40.5 88.1 42.7C87.7 41.5 87.1 40.3 86 39.6C84.5 38.7 82.4 39.2 81 40.3C79.6 41.4 78.7 43 77.8 44.6C76.2 43.3 74.5 42 72.4 41.6C69.4 41.1 66.5 42.7 63.7 44.1C58.6 46.6 54.1 46.1 45 47.3C63.5 46.3 103.4 46.5 103.4 46.5Z" fill="#F2F6F8"/>
                        </g>
                        </g>
                        <g id="Group_12" opacity="0.28">
                        <g id="Group_13" opacity="0.28">
                        <path id="Vector_84" opacity="0.28" d="M246.6 49.7C248.7 49.7 250.7 51.5 251 53.6C251.7 52.7 252.7 52 253.8 52.1C254.9 52.1 256 53 256 54.1C257.2 52.8 259.3 52.6 260.9 53.3C261.6 53.6 262.2 54.2 262.7 54.7C263.1 55.2 263.5 55.8 264.1 56.1C264.7 56.4 268.8 56.7 270.1 56.8C273.2 57 276.3 57.2 279.4 57.3C281.1 57.4 282.9 57.4 284.6 57.5C277 57.5 238.4 57.4 236.1 57.4C236.3 56.1 237.1 55 238.2 54.5C239.4 53.9 240.7 54.1 241.9 54.6C241.8 54.2 242.3 49.7 246.6 49.7Z" fill="#F2F6F8"/>
                        </g>
                        </g>
                        <g id="Group_14" opacity="0.0599976">
                        <g id="Group_15" opacity="0.0599976">
                        <path id="Vector_85" opacity="0.0599976" d="M219.7 166.5C219.7 168.7 178.9 170.5 128.5 170.5C78.0999 170.5 37.2999 168.7 37.2999 166.5C37.2999 164.3 78.0999 162.5 128.5 162.5C178.9 162.5 219.7 164.3 219.7 166.5Z" fill="#F2F6F8"/>
                        </g>
                        </g>
                        <g id="Group_16" opacity="0.0599976">
                        <g id="Group_17" opacity="0.0599976">
                        <path id="Vector_86" opacity="0.0599976" d="M122.5 192.6C122.5 193.4 117.1 194.1 110.3 194.1C103.6 194.1 98.1 193.4 98.1 192.6C98.1 191.8 103.5 191.1 110.3 191.1C117.1 191.1 122.5 191.8 122.5 192.6Z" fill="#F2F6F8"/>
                        </g>
                        </g>
                        <g id="man_2">
                        <path id="Vector_87" d="M105.2 189.1C105.2 189.1 105.2 190.3 105.3 190.8C105.4 191.2 106.6 191.1 106.7 190.9C106.8 190.7 106.7 188.6 106.7 188.6" fill="#E9BE28"/>
                        <path id="Vector_88" d="M106.9 191C106.9 191.4 107 192 106.9 192.2C106.8 192.4 105.2 192.5 104.8 192.6C104.5 192.7 103.9 192.7 103.7 192.7C102.7 192.6 102 192.2 102 192.1C101.9 191.5 103.9 191.6 105.2 190.3C105.2 190.3 105.3 190.3 105.4 190.5C105.6 190.8 105.8 190.9 106.1 190.9C106.3 190.9 106.4 190.8 106.6 190.7C106.6 190.5 106.9 190.6 106.9 191Z" fill="#E9BE28"/>
                        <path id="Vector_89" d="M115.7 154.4C116.2 154 116.8 153.6 117.3 153.2C118.5 152.2 119.6 151.1 119.7 150.3C120 148.5 119.8 143.2 119.6 140.7C119.6 140.6 119.6 140.4 119.6 140.3C119.5 137.9 118.2 136.9 117.6 136.5C117.3 139.6 116.5 146.5 116.5 146.8C116.4 147.3 115.7 154.4 115.7 154.4Z" fill="white"/>
                        <path id="Vector_90" d="M115.7 154.4C116.2 154 116.8 153.6 117.3 153.2C117.3 151.2 117.9 148.5 118.7 145.1C119.7 140.8 119.1 140 119.1 140L117.2 140.3C116.9 143.3 116.5 146.6 116.5 146.9C116.4 147.3 115.7 154.4 115.7 154.4Z" fill="#AAD4EB"/>
                        <path id="Vector_91" d="M115.6 188.5C115.6 188.5 115.8 190 115.8 190.4C115.9 190.8 117.1 190.7 117.2 190.5C117.3 190.3 117.2 188.5 117.2 188.5" fill="#E9BE28"/>
                        <path id="Vector_92" d="M117.5 190.6C117.5 191 117.7 191.6 117.6 191.8C117.5 192 115.9 192.2 115.5 192.3C115.2 192.4 114.6 192.5 114.4 192.4C113.4 192.4 112.7 192 112.7 191.9C112.5 191.3 114.5 191.3 115.8 189.9C115.8 189.9 115.9 189.9 116.1 190.1C116.3 190.4 116.6 190.5 116.9 190.4C117.1 190.4 117.3 190.2 117.4 190.1C117.3 190 117.5 190.2 117.5 190.6Z" fill="#E9BE28"/>
                        <path id="Vector_93" d="M116.2 153.8H110.4L111 161L111.2 163.4C111.2 163.4 111.7 173.2 112.2 174.7C112.9 179 115.6 189.7 115.6 189.7C116.3 189.9 117.1 189.9 117.6 189.6C117.1 183.9 118.1 177.6 115.9 173.5C116.3 170.9 116.8 168.6 117.3 162.6C117.4 161.4 117.8 161.2 118 158.7C118 156.2 116.2 153.8 116.2 153.8Z" fill="#E9BE28"/>
                        <path id="Vector_94" d="M111.6 170.5C111.9 169.3 112.7 166.8 113.1 165.4C113.8 163.6 114.5 162.7 114.5 162.7C117.2 159.4 114.8 155.6 114.8 155.6C114.8 155.6 112.6 157.8 112.4 158C112.3 158.2 111.5 160 110.8 160.9L111 163.3C111.1 163.4 111.3 166.8 111.6 170.5Z" fill="#D0A837"/>
                        <path id="Vector_95" d="M114.9 153.8L107.4 154.1C107.4 154.1 105.4 170.2 105.5 173.2C105.7 178.8 105.1 189.5 105.1 189.5C105.1 189.5 106 190.4 107 189.9C107 189.9 110.9 180.4 109.7 174.2C110.2 172 112.3 164.6 112.9 163.6C113.9 162.3 117.4 160.9 114.9 153.8Z" fill="#E9BE28"/>
                        <path id="Vector_96" d="M114.5 135.2C114.5 135.2 114.1 133.8 114.3 132.7C114.5 131.7 115.1 129.8 114.9 128.4C114.7 127 112.9 125.8 111 126C109.1 126.2 108.6 128 108.3 129C108 130 108 131.6 108.1 132.5C108.2 133.4 108.6 134 109 134.2C109.3 134.4 110.5 134.1 110.7 134.4C110.9 134.6 111.1 136 111.1 136" fill="#F1BFB7"/>
                        <path id="Vector_97" d="M115.4 136.3C115.4 136.3 115.3 135.5 115 135.2C114.7 134.9 112.6 134.9 112 135C111.4 135.1 109.8 135.8 109.6 136C109.4 136.2 109.8 136.9 109.8 136.9L115.4 136.3Z" fill="white"/>
                        <path id="Vector_98" d="M114.6 133.3C114.5 133.4 114.5 133.4 114.6 133.3C114.1 133.6 113.5 133.5 113.1 133.2C112.8 133.5 112.3 133.7 111.9 133.6C111.5 133.5 111.1 133 111.3 132.6C111 132.7 110.6 132.5 110.4 132.3C109.9 131.8 110.2 131.4 110.2 130.9C110.2 130.5 110.2 129.8 109.7 129.8C109.5 129.8 109.3 129.9 109.2 130C109.2 130.1 109.1 130.1 109.1 130.2C109 130.3 108.9 130.2 108.8 130.1C108.7 130 108.7 129.9 108.7 129.8C108.7 129.3 108.9 128.8 109.2 128.5C108.5 128.1 108.1 127.4 108 126.6C108 126.3 108 125.9 108.1 125.6C108.3 125.2 108.8 124.9 109.2 124.8C109.8 124.6 110.3 124.5 110.9 124.6C111.6 124.7 111.8 125.1 112.4 125.3C113.2 125 114.4 125.3 114.6 126.2C115 126.1 115.5 126.2 115.8 126.6C116.2 127.1 115.9 127.6 115.8 128.1C115.6 128.9 115.9 129.5 115.8 130.2C115.8 130.8 115.3 131.4 115.2 132C114.9 132.6 115 133.1 114.6 133.3Z" fill="#495152"/>
                        <path id="Vector_99" d="M107.2 152.5C107.1 153.3 106.4 155.3 106.9 155.5C107.1 155.6 107.9 155.5 108.9 155.4C109.8 155.3 110.8 155.2 111.6 155.2C114.9 155.1 116.6 155 116.9 154.8C117.1 154.7 117.1 154.4 117 154.1C116.9 153.4 116.8 152.6 116.9 151.9C117 151.3 117.1 150.5 117.3 149.7C117.8 146.8 118.9 142.4 119.1 139.7C119.4 135.5 114.9 135.9 114.9 135.9C109.2 135.5 106.5 137.2 106.2 139.6C106.2 139.8 106.2 140 106.1 140.2C106 142.7 106.7 146.8 107.1 149.9C107.3 150.8 107.3 151.7 107.2 152.5Z" fill="white"/>
                        <path id="Vector_100" d="M107.2 152.5C107.1 153.3 106.4 155.3 106.9 155.5C107.1 155.6 107.9 155.5 108.9 155.4C108 155.5 107.9 154.1 108.1 153.6C108.3 153.1 108.7 152.1 108.7 150.9C108.7 149.7 108.2 146.9 107.9 144.4C107.6 142 107.9 140.1 107.9 139.9C107.8 140.2 107.4 140.6 106.3 140.8C106.3 143.3 107 147.1 107.3 149.9C107.3 150.8 107.3 151.7 107.2 152.5Z" fill="white"/>
                        <path id="Vector_101" d="M92.6999 151C92.5999 150.9 92.6999 150.8 92.7999 150.8H92.8999C92.6999 150.7 92.4999 150.7 92.3999 150.6C92.2999 150.5 92.3999 150.4 92.4999 150.4C92.3999 150.4 92.2999 150.3 92.2999 150.3C92.0999 150.2 92.2999 150.1 92.3999 150.1C92.3999 150.1 92.4999 150.1 92.5999 150.2C92.4999 150.2 92.4999 150.2 92.4999 150.2C92.3999 150.1 92.4999 150 92.5999 150C92.5999 150 92.6999 150 92.8999 150.1C92.9999 150.1 93.1999 150.2 93.3999 150.2C93.5999 150.3 93.7999 150.3 93.7999 150.3C94.2999 150.1 94.5999 149.9 94.5999 149.9L94.0999 149.6C94.0999 149.6 94.0999 149.2 95.4999 149.7C95.6999 149.8 95.8999 150.1 95.9999 150.1C96.0999 150.1 96.4999 150.1 96.4999 150.1V151.3C96.4999 151.3 95.7999 151.2 95.5999 151.3C95.3999 151.4 94.5999 151.6 94.4999 151.7C94.3999 151.7 94.1999 151.7 93.8999 151.6L93.4999 151.5L93.0999 151.4C93.0999 151.2 92.6999 151 92.6999 151Z" fill="#F1BFB7"/>
                        <path id="Vector_102" d="M96.2 151.2C96.2 151.2 98.4 151.7 100.1 152C101.5 152.2 102.9 152.4 104.3 152.3C105.2 152.3 106.4 152 106.6 151.6C106.9 151.2 107.4 149.6 107.4 149.6C107.8 148.7 108.5 146.2 109.1 144V143.9C109.4 142.9 109.6 142 109.8 141.4C109.9 141.1 109.9 140.8 109.8 140.5C109.7 140.3 109.6 140 109.3 139.9C108.7 139.5 108.9 138.9 108.3 139.3L107.9 139.2C107.5 138.2 107.8 136.9 107.8 136.9C107.8 136.9 106.1 137.7 105.4 141.2C105.3 142 104.4 147.5 104.3 148.2C104.3 148.3 104.3 148.3 104.3 148.3C104.3 148.3 104.3 148.4 104.3 148.5V148.6C103.8 148.6 103.2 148.6 102.6 148.8C100.6 149.2 96.2 149.5 96.2 149.5L96.1 150.6L96.2 151.2Z" fill="white"/>
                        </g>
                        <g id="Group_18" opacity="0.0599976">
                        <g id="Group_19" opacity="0.0599976">
                        <path id="Vector_103" opacity="0.0599976" d="M271 179.1C271 181.9 259.3 184.2 244.9 184.2C230.5 184.2 218.8 181.9 218.8 179.1C218.8 176.3 230.5 174 244.9 174C259.4 174 271 176.3 271 179.1Z" fill="#F2F6F8"/>
                        </g>
                        </g>
                        <path id="Vector_104" d="M240.2 180.2C240.1 180.2 240.1 180.2 240 180.2C239.7 180.1 239.5 179.6 239.6 179.1C241.9 167.6 244.2 156 246.3 144.7C248.5 133.5 250.7 121.9 253 110.5C253.1 110.1 253.4 109.8 253.7 110C254 110.1 254.2 110.6 254.1 111.1C251.8 122.5 249.5 134.1 247.4 145.3C245.2 156.5 243 168.2 240.6 179.7C240.7 179.9 240.5 180.2 240.2 180.2Z" fill="white"/>
                        <path id="Vector_105" d="M226.4 180.2C226.3 180.2 226.3 180.2 226.2 180.2C225.9 180.1 225.7 179.6 225.8 179.1C228.1 167.6 230.4 156 232.5 144.7C234.7 133.5 236.9 121.9 239.2 110.5C239.3 110.1 239.6 109.8 239.9 110C240.2 110.2 240.4 110.6 240.3 111.1C238 122.5 235.7 134.1 233.6 145.3C231.4 156.5 229.2 168.2 226.8 179.7C226.9 179.9 226.7 180.2 226.4 180.2Z" fill="white"/>
                        <path id="Vector_106" d="M243.9 159.9H230.8C230.5 159.9 230.2 159.5 230.2 159.1C230.2 158.6 230.4 158.3 230.8 158.3H243.9C244.2 158.3 244.5 158.7 244.5 159.1C244.5 159.5 244.2 159.9 243.9 159.9Z" fill="white"/>
                        <path id="Vector_107" d="M246 148.5H232.9C232.6 148.5 232.3 148.1 232.3 147.7C232.3 147.2 232.5 146.9 232.9 146.9H246C246.3 146.9 246.6 147.3 246.6 147.7C246.6 148.1 246.3 148.5 246 148.5Z" fill="white"/>
                        <path id="Vector_108" d="M241.8 171.4H228.7C228.4 171.4 228.1 171 228.1 170.6C228.1 170.1 228.3 169.8 228.7 169.8H241.8C242.1 169.8 242.4 170.2 242.4 170.6C242.4 171 242.1 171.4 241.8 171.4Z" fill="white"/>
                        <path id="Vector_109" d="M248.5 137.1H235.4C235.1 137.1 234.8 136.7 234.8 136.3C234.8 135.8 235 135.5 235.4 135.5H248.5C248.8 135.5 249.1 135.9 249.1 136.3C249.1 136.7 248.8 137.1 248.5 137.1Z" fill="white"/>
                        <path id="Vector_110" d="M250.4 125.7H237.3C237 125.7 236.7 125.3 236.7 124.9C236.7 124.4 236.9 124.1 237.3 124.1H250.4C250.7 124.1 251 124.5 251 124.9C251 125.3 250.7 125.7 250.4 125.7Z" fill="white"/>
                        <path id="Vector_111" d="M253.1 114.2H240C239.7 114.2 239.4 113.8 239.4 113.4C239.4 112.9 239.6 112.6 240 112.6H253C253.3 112.6 253.6 113 253.6 113.4C253.7 113.9 253.4 114.2 253.1 114.2Z" fill="white"/>
                        <path id="Vector_112" d="M247.4 180.2C247.5 180.2 247.5 180.2 247.6 180.2C247.9 180.1 248.2 179.6 248.1 179.1C246.7 167.6 245.5 156 244.3 144.7C243.1 133.5 241.8 121.9 240.5 110.5C240.4 110.1 240.1 109.8 239.8 110C239.5 110.1 239.2 110.6 239.3 111.1C240.7 122.5 241.9 134.1 243.1 145.3C244.3 156.5 245.6 168.2 246.9 179.7C246.9 179.9 247.1 180.2 247.4 180.2Z" fill="white"/>
                        <path id="Vector_113" d="M261.2 180.2C261.3 180.2 261.3 180.2 261.4 180.2C261.7 180.1 262 179.6 261.9 179.1C260.5 167.6 259.3 156 258.1 144.7C256.9 133.5 255.6 121.9 254.3 110.5C254.2 110.1 253.9 109.8 253.6 110C253.3 110.1 253 110.6 253.1 111.1C254.5 122.5 255.7 134.1 256.9 145.3C258.1 156.5 259.4 168.2 260.7 179.7C260.7 179.9 260.9 180.2 261.2 180.2Z" fill="white"/>
                        <path id="Vector_114" d="M245.4 159.9H258.5C258.8 159.9 259.1 159.5 259.2 159.1C259.3 158.6 259 158.3 258.7 158.3H245.6C245.3 158.3 245 158.7 244.9 159.1C244.9 159.5 245.1 159.9 245.4 159.9Z" fill="white"/>
                        <path id="Vector_115" d="M244.3 148.5H257.4C257.7 148.5 258 148.1 258.1 147.7C258.2 147.2 257.9 146.9 257.6 146.9H244.5C244.2 146.9 243.9 147.3 243.8 147.7C243.7 148.1 244 148.5 244.3 148.5Z" fill="white"/>
                        <path id="Vector_116" d="M246.5 171.4H259.6C259.9 171.4 260.2 171 260.3 170.6C260.4 170.1 260.1 169.8 259.8 169.8H246.7C246.4 169.8 246.1 170.2 246 170.6C246 171 246.2 171.4 246.5 171.4Z" fill="white"/>
                        <path id="Vector_117" d="M242.8 137.1H255.9C256.2 137.1 256.5 136.7 256.6 136.3C256.7 135.8 256.4 135.5 256.1 135.5H243C242.7 135.5 242.4 135.9 242.3 136.3C242.2 136.7 242.4 137.1 242.8 137.1Z" fill="white"/>
                        <path id="Vector_118" d="M241.8 125.7H254.9C255.2 125.7 255.5 125.3 255.6 124.9C255.7 124.4 255.4 124.1 255.1 124.1H242C241.7 124.1 241.4 124.5 241.3 124.9C241.3 125.3 241.5 125.7 241.8 125.7Z" fill="white"/>
                        <path id="Vector_119" d="M240.1 114.2H253.2C253.5 114.2 253.8 113.8 253.9 113.4C254 112.9 253.7 112.6 253.4 112.6H240.3C240 112.6 239.7 113 239.6 113.4C239.6 113.9 239.8 114.2 240.1 114.2Z" fill="white"/>
                        <path id="Vector_120" d="M237.4 111H255.9V110.6C255.9 109.1 254.7 107.8 253.1 107.8H240.1C238.6 107.8 237.3 109 237.3 110.6V111H237.4Z" fill="white"/>
                        <g id="Group_20" opacity="0.3">
                        <g id="Group_21" opacity="0.3">
                        <path id="Vector_121" opacity="0.3" d="M245.8 89.4C243.6 89.6 240.8 89.9 240.1 89.5C238.9 88.9 235 85.5 235 85.5L234.4 85.1C234.3 85 234.2 85 234.1 85C234 85 233.7 85 233.5 84.9C233.4 84.9 233.2 84.8 233.1 84.7C233.5 84.9 234.2 84.7 234.6 84.9C235 85.1 237.8 87.4 239 88.2C240.3 89 240.7 89.3 241.9 89.3C243 89.3 245.7 88.8 245.7 88.8L245.8 89.4Z" fill="#E6A994"/>
                        </g>
                        </g>
                        <g id="woman">
                        <path id="hand" d="M248.4 89C248.4 89 247.3 89.2 245.8 89.3C243.6 89.5 240.8 89.8 240.1 89.4C238.9 88.8 235 85.4 235 85.4L234.4 85C234.3 84.9 234.2 84.9 234.1 84.9C234 84.9 233.7 84.9 233.5 84.8C233.4 84.8 233.2 84.7 233.1 84.6C233.1 84.6 233.1 84.6 233 84.6C232.7 84.4 232.5 84.2 232.3 84.1C232 83.9 232.4 83.7 232.9 84C233.4 84.2 233.1 84.2 233.4 84.2C233.7 84.2 233.4 83.8 233.1 83.4C232.9 83.1 232.9 83.1 232.6 82.8C232.4 82.5 232.1 82.2 232 82C231.9 81.8 231.9 81.7 232 81.7C232.2 81.8 232.9 82.5 233.1 82.6C233.3 82.7 233.6 82.5 234.1 82.8C234.6 83.1 234.8 84 235 84.2C235.2 84.5 240.6 87.7 241.3 87.6C242 87.6 247.1 86.3 248.7 86.4C249.5 86.5 248.4 89 248.4 89Z" fill="#F1BFB7"/>
                        <path id="Vector_122" d="M235.6 123.9C235.6 123.9 235.4 125 235.4 125.9C235.5 126.5 235.4 126.7 235.4 126.7L233.1 126.6C233.1 126.6 234.1 126.1 234 123.7C233.8 121.3 235.6 123.9 235.6 123.9Z" fill="#F1BFB7"/>
                        <path id="Vector_123" d="M235.5 126.1C235.5 126.1 234.5 126.5 233.5 126.2C232.3 126.8 231.5 127 230.4 127.2C229.3 127.4 229.5 128.2 231.4 128.1C233.2 127.9 234.5 128 234.9 128C235.3 128 236 128.1 236 127.8C236 127.5 235.8 126 235.5 126.1Z" fill="#E9BE28"/>
                        <path id="Vector_124" d="M242.8 125C242.8 125 242.6 126.1 242.6 127C242.7 127.6 242.6 127.8 242.6 127.8L240.3 127.7C240.3 127.7 241.3 127.2 241.2 124.8C241 122.3 242.8 125 242.8 125Z" fill="#F1BFB7"/>
                        <path id="Vector_125" d="M242.6 127.2C242.6 127.2 241.6 127.6 240.6 127.3C239.4 127.9 238.6 128.1 237.5 128.3C236.4 128.5 236.6 129.3 238.5 129.2C240.3 129 241.6 129.1 242 129.1C242.4 129.1 243.1 129.2 243.1 128.9C243.1 128.6 242.9 127.1 242.6 127.2Z" fill="#E9BE28"/>
                        <path id="Vector_126" d="M244.9 102.2C244.9 102.2 234.3 105.6 233.8 109.8C233.6 111.8 231.8 123.7 231.8 123.7C231.8 123.7 235.9 125.1 236.8 124.3C236.8 124.3 237.8 112.5 238.1 110.5C238.5 108.5 248.9 104 248.9 104L248.5 101.3L244.9 102.2Z" fill="#007ABB"/>
                        <path id="Vector_127" d="M244.9 102.2C244.9 102.2 234.3 105.6 233.8 109.8C233.6 111.8 231.8 123.7 231.8 123.7C231.8 123.7 235.9 125.1 236.8 124.3C236.8 124.3 237.8 112.5 238.1 110.5C238.5 108.5 248.9 104 248.9 104L248.5 101.3L244.9 102.2Z" fill="#E9BE28"/>
                        <path id="Vector_128" d="M246.2 102.2L248.7 102.6L248.9 104C248.9 104 238.5 108.5 238.1 110.5C238 110.9 237.9 111.8 237.8 113C237.6 112.3 237.4 111.5 237.2 110.8C237.1 110.5 237.1 110.2 237 109.9C237 109.3 237.3 108.7 237.7 108.1C239.5 105.6 243.4 103.5 246.2 102.2Z" fill="#D0A837"/>
                        <path id="Vector_129" d="M243 110.7C242.6 107.8 251.1 109.5 252.8 107C253.4 106.1 253.7 103.5 252.8 102.7C251 101.3 247.3 101.8 247.3 101.8C247.3 101.8 238.6 107 238.6 109.2C238.6 111.6 239.8 125.2 239.8 125.2C239.8 125.2 243.7 125.7 244 125C244.5 121.2 243 110.7 243 110.7Z" fill="#E9BE28"/>
                        <path id="Vector_130" d="M246.1 93.4C246.5 98.3 244.3 98.4 244.2 102.5C244.2 102.5 249.5 101.8 253.3 103.4C253.3 103.4 253 101 252.2 98.8C252.2 98.7 252.1 98.7 252.1 98.6C251.9 98.2 251.8 97.8 251.6 97.4C251.6 97.4 251.6 97.4 251.6 97.3C251.6 97.2 251.6 97.2 251.5 97.1C251.5 97.1 251.5 97.1 251.5 97C251.3 96.4 251.4 95.5 251.7 94.7C252 93.9 252.4 93 252.9 92.2C253.2 91.7 253.5 91.3 253.7 90.8C254.5 89.6 255.2 88.8 255.2 88.8C255.2 88.8 255.7 87.3 254.7 85.9C254.6 85.7 254.5 85.6 254.3 85.4C253.9 85 252.8 84.5 251.9 84.2C251.7 84.1 251.4 84.1 251.3 84C251.1 84 251 83.9 250.9 83.9C250.4 83.9 250 83.9 249.6 83.9C248.6 84.1 248.3 84.3 246.8 84.8L243.6 86.2C243.6 86.2 244 88.9 243.7 89.7L245.9 89.6C245.8 89.9 246.1 92.8 246.1 93.4Z" fill="white"/>
                        <path id="Vector_131" d="M251.4 97.2C250.8 95.6 252.3 92.9 253.5 91L252.1 89.6C252.1 89.6 252.1 92 251.7 92.9C251.4 93.8 250.7 95.7 251.4 97.2Z" fill="#EEF3F6"/>
                        <path id="Vector_132" d="M246.4 87.7C246.4 87.7 245.5 89.2 245.7 89.9L243.5 90C243.5 90 243.6 89.7 243.6 89C244 89.1 245.3 89.4 246.4 87.7Z" fill="#EEF3F6"/>
                        <path id="Vector_133" d="M248.3 101.8L239.5 101.4C239.3 101.4 239.1 101.2 239.1 101L237.9 95C237.8 94.7 238.1 94.4 238.4 94.5L247.2 94.9C247.4 94.9 247.6 95.0999 247.6 95.2999L248.8 101.3C248.8 101.6 248.6 101.8 248.3 101.8Z" fill="#D0A837"/>
                        <path id="Vector_134" d="M248.3 101.6L239.5 101.2C239.4 101.2 239.3 101.1 239.2 101L238 95.1C238 94.9 238.1 94.8 238.3 94.8L246.9 95.1C247.1 95.1 247.3 95.2 247.3 95.4L248.5 101.3C248.6 101.5 248.4 101.6 248.3 101.6Z" fill="#E9BE28"/>
                        <path id="Vector_135" d="M249 98.6L249.1 99H249.3L249.4 99.5C249.4 99.5 249.5 99.5 249.8 99.4C250.3 99.3 251.1 99.2 252.2 98.9C252.9 98.7 253.7 98.5 254.6 98.3C255.8 98 256.6 97.4 256.6 97.2C256.6 96.9 256.6 96.4 256.5 95.8C256.5 95.5 256.4 95.1 256.3 94.7C256.1 93.4 255.8 92 255.7 91.4C255.7 91.3 255.7 91.3 255.7 91.3V91.2L255.4 91.3L253.5 92L253.6 92.4L254.8 95.8C254.8 95.9 254.8 96 254.7 96C253.8 96.3 252.6 96.9 251.7 97.4C250.9 97.8 250.1 98.2 249.7 98.4H249.6C249.5 98.5 249.4 98.5 249.3 98.5C249.1 98.6 249 98.6 249 98.6Z" fill="#F1BFB7"/>
                        <path id="Vector_136" d="M249.8 99.4C250.3 99.3 251.1 99.2 252.2 98.9C252.9 98.7 253.7 98.5 254.6 98.3C255.8 98 256.6 97.4 256.6 97.2C256.6 96.9 256.6 96.4 256.5 95.8C256.3 94.3 255.8 92.1 255.7 91.5C255.7 91.4 255.7 91.4 255.7 91.4L255.2 91.6C255.2 91.6 255.2 91.7 255.3 91.8C255.5 92.5 255.9 94.6 256.1 95.9C256.2 96.3 256.2 96.6 256.2 96.8C256.2 97.4 255.8 97.5 255.4 97.7C255.2 97.8 253.5 98.3 252.1 98.8C251 99 250 99.3 249.8 99.4Z" fill="#F1BFB7"/>
                        <path id="Vector_137" d="M249.6 98.5C249.6 98.5 249.4 98.6 249.3 98.5C249.2 98.5 249.1 98.5 249.1 98.5C249.1 98.5 248.6 98.2 248.1 98.1L248.2 98.5C248.2 98.5 247.6 98.8 247.4 99C247.4 99 247.2 99.1 247.1 99.1C247 99.1 246.3 99.1 246.2 99.1C246.1 99.1 245.9 99.2 245.9 99.3C245.9 99.3 245.9 99.4 246 99.4H246.1C246 99.4 245.9 99.4 245.9 99.4C245.7 99.4 245.6 99.5 245.6 99.6C245.6 99.6 245.6 99.7 245.7 99.7C245.7 99.7 245.8 99.7 246 99.7C245.9 99.7 245.8 99.8 245.8 99.9C245.8 99.9 245.8 100 245.9 100C245.9 100 246.1 100 246.2 100L246.1 100.1C246.1 100.1 246.1 100.2 246.2 100.2C246.3 100.2 247.5 100.4 247.6 100.4C247.8 100.4 248.7 99.7 248.8 99.7C249 99.6 249.2 99.5 249.2 99.5L249.6 98.5Z" fill="#F1BFB7"/>
                        <path id="Vector_138" d="M251.9 89.5C252.4 91.2 252.6 92.1 252.7 92.4C252.7 92.5 252.7 92.6 252.7 92.6C252.7 92.6 253 92.6 253.5 92.5C254 92.4 254.6 92.2 255.2 91.8L255.3 91.7C255.4 91.6 255.5 91.5 255.6 91.4C255.8 91.2 256 91.1 256.1 90.8C256.1 90.8 255.6 87.5 254.5 86C254.3 85.7 254.1 85.5 253.8 85.4H253.7C253.1 85.2 252.6 85.4 252.3 85.9C252 86.3 251.8 86.9 251.7 87.6C251.7 88.2 251.7 88.9 251.9 89.5Z" fill="white"/>
                        <path id="Vector_139" d="M249.8 80.4C249.6 79.8 249.3 79.2 249.1 78.5C249 78.2 248.9 77.9 248.6 77.8C248.5 77.7 248.3 77.7 248.1 77.7C247.5 77.8 247.2 78.5 247 79.1C246.7 80.1 246.6 81.1 246.2 82C246.1 82.2 246 82.4 245.9 82.6C245.7 83.3 246.3 84.5 247.1 84.3C247.2 84.3 247.4 84.2 247.5 84.2C248 84 248.4 84.2 248.9 84.3C249.4 84.4 249.9 84.3 250.3 84.1C250.8 83.8 251.1 83.3 251.3 82.8" fill="#495152"/>
                        <path id="Vector_140" d="M248.2 83.4C248.6 83.6 249 83.7 249.5 83.7C249.5 83.9 249.5 84.1 249.5 84.3C249.4 84.3 249.3 84.3 249.3 84.4C249.1 84.5 249.2 84.8 249.2 84.9C249.3 85.5 249.8 85.7 250.3 85.5C250.8 85.4 251 84.8 251.2 84.3C251.3 84.1 251.2 83.5 251.2 83.4C251.4 83.3 252.1 83.1 252.1 83.1C252.1 83.1 253.2 82.2 253.2 81.4C253.2 81.2 252.8 80.6 252.8 80.4C252.8 79.3 252 78.6 251.6 78C251.1 77.2 249.8 77.3 248.9 77.5C248.4 77.6 247.9 77.8 247.9 77.8C247.9 77.8 246.6 82.5 248.2 83.4Z" fill="#F1BFB7"/>
                        <path id="Vector_141" d="M246.9 76.2C247 76.1 247 76 247.1 75.8C247.2 76 247.5 76.1 247.7 76.1C248.7 76.1 249.8 75.6 250.8 76C251.1 76.1 251.4 76.3 251.5 76.6C252.3 76.4 253.1 76.6 253.7 77.2C254.9 78.5 253.8 80.4 254.4 81.8C254.6 82.3 255 82.7 255.1 83.2C255.2 83.7 255.1 84.2 254.8 84.6C254.5 85 253.9 85.2 253.4 85.4C253.2 85.5 253 85.6 252.8 85.6C252.3 85.7 251.8 85.7 251.4 85.5C251.1 85.4 250.8 85.1 250.7 84.8C250.6 84.5 250.7 84.1 250.9 83.8C251.1 83.2 251.5 82.9 251.9 82.4C252.2 81.9 252.6 81.7 252.5 81C252.5 80.9 252.5 80.8 252.4 80.7C252.3 80.6 252.1 80.6 252 80.7C251.9 80.8 251.8 81 251.8 81.1C251.7 80.7 251.4 80.3 251 80C250.7 79.8 250.4 79.7 250.2 79.4C250.1 79.2 249.7 78.7 249.8 78.4C249.3 78.7 248.4 78.6 248 78.4C247.4 78.3 246.9 77.8 246.8 77.3C246.5 77.1 246.7 76.6 246.9 76.2Z" fill="#495152"/>
                        </g>
                        </g>
                        </g>
                    </svg>