<svg xmlns="http://www.w3.org/2000/svg" width="25.6" height="24" xmlns:v="https://vecta.io/nano"><path d="M24.1 0H1.5A1.5 1.5 0 0 0 0 1.5v15A1.5 1.5 0 0 0 1.5 18h7.875v3H8.05a.75.75 0 1 0 0 1.5h5.518a1.75 1.75 0 0 0 1.725 1.5h5.513a1.75 1.75 0 0 0 1.743-1.75V18H24.1a1.5 1.5 0 0 0 1.5-1.5v-15A1.5 1.5 0 0 0 24.1 0zm0 1.5v12h-1.55v-2.75A1.75 1.75 0 0 0 20.807 9h-5.514a1.75 1.75 0 0 0-1.743 1.75v2.75H1.5v-12zM21.05 12h-6v-1.25c-.002-.136.107-.248.243-.25h5.513c.136.002.245.114.243.25zm-6 1.5c1.5-1.5 6 0 6 0v6h-6s-1.5-4.5 0-6zM1.5 15h12.05v1.5H1.5zm9.375 3h2.675v3h-2.675zm9.932 4.5h-5.514c-.136-.002-.245-.114-.243-.25V21h6v1.25c.002.136-.107.248-.243.25zm1.743-6V15h1.55v1.5z" fill="#fdd301"/></svg>