<svg xmlns="http://www.w3.org/2000/svg" width="12.475" height="12" xmlns:v="https://vecta.io/nano"><path d="M.32 0C.314.089.336.874 2.956 2.086l1.625.673c1.845.779 3.357 2.184 4.27 3.966.289.517.545 1.051.766 1.6.209.511.388 1.033.537 1.564l.028.1.065.253.1.215.016.035-.064-.018-.252-.077a12.19 12.19 0 0 1-2.584-1.08c-.531-1.022-.829-2.149-.873-3.3-.252.947-.195 1.949.164 2.861C5.138 7.769 3.881 6.213 3.137 4.4c.29 1.326.932 2.548 1.859 3.539a14.3 14.3 0 0 1-2.533-1.123c.443.667 2.194 1.4 3.139 1.716.678.603 1.426 1.122 2.229 1.545-1.284.197-2.59.218-3.88.063.893.494 3.465.528 4.682.338v-.009l.017.006h0l.021.009a16.07 16.07 0 0 0 1.751.476l.163.033c.533.11 1.074.18 1.617.209l.268-.014-.04.022h.039l-.057.008-.205.105a11.52 11.52 0 0 1-5.7.554C-1.99 10.71.244.345.32 0z" fill="#fdd301"/></svg>