 <svg width="415" height="297" viewBox="0 0 415 297" fill="none" xmlns="http://www.w3.org/2000/svg">
            <style>
                #man , #opacity , #cricle_2 , #cricle_1 , #line_1 , #line_2 , #line_3 , #line_4 {
                    transform-box: fill-box;
                    transform-origin: center;
                }
                #line_1  ,  #line_3 {
                    animation: translateY 2s linear infinite;
                }
                #line_2  ,  #line_4 {
                    animation: translateYReverse 2s linear infinite;
                }
                #cricle_1 {
                    animation: rotation 4s linear infinite;  
                }
                #cricle_2 {
                    animation: rotationReverse 4s linear infinite;  
                }
                #opacity{
                    animation: opacity 2s linear infinite;
                }
                #man{
                    animation: translate 5s linear infinite;
                }
                @keyframes translateYReverse {
                    0%,
                    100% {
                        transform: translateY(0px);
                    }
                
                    50% {
                        transform: translateY(10px);
                    }
                }
                @keyframes translateY {
                    0%,
                    100% {
                        transform: translateY(0px);
                    }
                
                    50% {
                        transform: translateY(-10px);
                    }
                }
                @keyframes rotation {
                    0% {
                        transform: rotate(0deg);
                    }

                    100% {
                        transform: rotate(360deg);
                    }
                }
                @keyframes rotationReverse {
                    0% {
                        transform: rotate(0deg);
                    }

                    100%{
                        transform: rotate(-360deg);
                    }
                }
                @keyframes opacity {
                    0%{
                        opacity: 1;
                    }
                    50%{
                        opacity: .5;
                    }
                    100%{
                        opacity: 1;
                    }
                }
                @keyframes translate {

                    0%,
                    100% {
                        transform: translateX(0px) translateY(0px);
                    }
                
                    50% {
                        transform: translateX(-40px) translateY(-30px);
                    }
                }
            </style>
            <g id="undraw_Logo_design_re_gfu6 1" clip-path="url(#clip0)">
            <g id="man">
            <path id="Path 371" d="M343.574 187.547C343.935 186.795 344.128 185.973 344.137 185.139C344.147 184.305 343.973 183.479 343.629 182.72C343.285 181.96 342.778 181.285 342.145 180.742C341.511 180.199 340.767 179.802 339.963 179.578L338.701 159.342L330.284 165.679L332.773 183.924C332.489 185.298 332.719 186.728 333.418 187.944C334.117 189.16 335.237 190.077 336.567 190.524C337.897 190.97 339.344 190.913 340.635 190.365C341.926 189.816 342.971 188.814 343.573 187.547H343.574Z" fill="#FDA57D"/>
            <path id="Path 372" d="M380.266 267.092L386.953 269.009L397.53 244.13L387.661 241.3L380.266 267.092Z" fill="#FDA57D"/>
            <path id="Path 373" d="M398.074 278.917L377.065 272.883L379.396 264.766L392.288 268.468C394.441 269.086 396.26 270.535 397.345 272.494C398.43 274.454 398.692 276.764 398.074 278.917V278.917Z" fill="#2F2E41"/>
            <path id="Path 374" d="M369.555 289.948H362.599L359.289 263.117H369.556L369.555 289.948Z" fill="#FDA57D"/>
            <path id="Path 375" d="M357.63 287.96H371.045V296.407H349.183C349.183 294.167 350.073 292.018 351.657 290.434C353.241 288.85 355.39 287.96 357.63 287.96Z" fill="#2F2E41"/>
            <path id="Path 376" d="M350.317 180.556C350.317 180.556 346.345 196.443 353.154 228.784L358.261 284.384L371.311 284.951L369.611 224.807L374.15 199.842L385.498 234.453L381.526 258.853L391.172 263.392L401.953 229.916C401.953 229.916 400.818 183.39 396.279 177.716L350.317 180.556Z" fill="#292929"/>
            <path id="Ellipse 73" d="M366.796 90.058C374.493 90.058 380.732 83.8186 380.732 76.122C380.732 68.4253 374.493 62.186 366.796 62.186C359.099 62.186 352.86 68.4253 352.86 76.122C352.86 83.8186 359.099 90.058 366.796 90.058Z" fill="#FDA57D"/>
            <path id="Path 377" d="M359.395 97.285C359.395 97.285 358.544 99.157 368.757 98C378.97 96.843 381.24 93.461 381.24 93.461L399.113 171.861L397.978 178.799L349.178 181.69V171.862L357.689 119.831L359.395 97.285Z" fill="black"/>
            <path id="Path 378" d="M363.573 179.708L348.105 179.416L348.055 179.2C346.058 168.449 346.251 157.406 348.622 146.732C351.746 132.898 344.647 114.132 341.45 106.712C341.074 105.829 341.029 104.84 341.324 103.926C341.619 103.013 342.234 102.237 343.056 101.741L354.005 95.172C354.75 94.7249 355.589 94.458 356.455 94.3926C357.321 94.3273 358.191 94.4652 358.994 94.7955C359.798 95.1257 360.513 95.6392 361.083 96.2949C361.652 96.9506 362.061 97.7303 362.276 98.572L364.19 106.082C373.007 115.563 372.39 135.01 370.313 149.668C368.829 159.765 366.597 169.737 363.636 179.503L363.573 179.708Z" fill="#FDD301"/>
            <path id="Path 379" d="M346.061 100.269L344.723 101.184C341.701 103.239 339.43 106.223 338.257 109.684C337.576 111.702 337.055 113.771 336.699 115.871C335.564 122.68 330.458 151.617 330.458 151.617L328.188 179.987L340.671 177.151L346.345 144.242L352.019 123.816L346.061 100.269Z" fill="#FDD301"/>
            <path id="Path 380" d="M390.453 179.843L390.335 179.517C389.523 177.268 370.588 124.29 379.535 105.608L378.659 96.847C378.565 95.9085 378.706 94.9613 379.068 94.0905C379.431 93.2198 380.004 92.4528 380.737 91.8584C381.469 91.264 382.338 90.8608 383.264 90.6852C384.191 90.5095 385.147 90.5668 386.046 90.852L399.73 95.191C400.295 95.3673 400.787 95.7215 401.135 96.2007C401.482 96.6798 401.665 97.2584 401.656 97.85C401.591 107.297 401.026 116.734 399.965 126.122C398.288 138.98 403.878 171.105 403.935 171.428L403.969 171.619L390.453 179.843Z" fill="#FDD301"/>
            <path id="Path 381" d="M384.421 165.757C384.437 164.923 384.636 164.103 385.004 163.354C385.371 162.605 385.898 161.946 386.548 161.423C387.198 160.9 387.954 160.526 388.764 160.327C389.574 160.128 390.418 160.109 391.236 160.271L401.484 142.771L406.141 152.222L395.696 167.392C395.333 168.749 394.484 169.926 393.311 170.699C392.138 171.472 390.722 171.787 389.332 171.586C387.942 171.384 386.674 170.68 385.769 169.605C384.864 168.531 384.384 167.162 384.421 165.758V165.757Z" fill="#FDA57D"/>
            <path id="Path 382" d="M397.694 95.163L398.428 95.332C399.335 95.5421 400.175 95.9743 400.873 96.5898C401.572 97.2053 402.106 97.9848 402.428 98.858L415 132.895L400.248 165.236L394.858 151.902L401.667 137.15L389.467 121.55L397.694 95.163Z" fill="#FDD301"/>
            <path id="Path 383" d="M380.92 78.048C381.72 75.9818 382.32 73.8432 382.709 71.662C383.095 69.469 382.837 67.2111 381.966 65.162C381.03 63.3692 379.719 61.7981 378.124 60.555C377.03 59.6247 375.882 58.7606 374.686 57.967C371.314 55.731 370.581 57.767 366.536 57.308C362.491 56.849 357.96 55.687 354.718 58.101C352.622 59.6935 351.048 61.8751 350.198 64.3669C349.348 66.8586 349.261 69.5473 349.947 72.089C350.847 75.164 350.131 76.178 352.922 77.84C352.92 75.0726 353.973 72.4086 355.866 70.39C357.799 68.3639 360.415 67.1265 363.208 66.917C365.367 66.8642 367.522 67.1198 369.608 67.676C371.676 67.9921 373.668 68.6899 375.481 69.734C378.351 71.641 379.697 75.047 380.881 78.241" fill="#292929"/>
            </g>
            <path id="Vector" d="M247.384 132.203H0V133.338H247.384V132.203Z" fill="#E6E6E6"/>
            <path id="Vector_2" d="M247.384 87.946H0V89.081H247.384V87.946Z" fill="#E6E6E6"/>
            <path id="Vector_3" d="M247.384 43.689H0V44.824H247.384V43.689Z" fill="#E6E6E6"/>
            <path id="line_4" d="M198.475 0H197.34V177.027H198.475V0Z" fill="#E6E6E6"/>
            <path id="line_3" d="M148.998 0H147.863V177.027H148.998V0Z" fill="#E6E6E6"/>
            <path id="line_2" d="M99.521 0H98.386V177.027H99.521V0Z" fill="#E6E6E6"/>
            <path id="line_1" d="M50.044 0H48.909V177.027H50.044V0Z" fill="#E6E6E6"/>
            <g id="opacity">
            <path id="Rectangle 376" d="M148.657 44.257H49.363V88.514H148.657V44.257Z" fill="#FDD301"/>
            <path id="Path 385" d="M49.363 85.109V132.77L100.996 86.809L49.363 85.109Z" fill="#FDD301"/>
            <path id="Path 386" d="M148.657 86.81V88.51L148.01 89.083L146.71 90.241C121.33 91.007 100.831 109.186 99.91 131.729L98.747 132.762L98.736 132.768V85.11L148.657 86.81Z" fill="#FDD301"/>
            </g>
            <path id="cricle_2" d="M148.373 89.082C148.254 89.082 148.129 89.082 148.01 89.088C121.01 89.258 99.072 108.731 98.738 132.766C98.727 132.959 98.727 133.146 98.727 133.339C98.727 157.739 120.997 177.596 148.374 177.596C175.751 177.596 198.021 157.743 198.021 133.339C198.021 108.935 175.75 89.082 148.373 89.082ZM148.373 176.461C121.626 176.461 99.861 157.119 99.861 133.339C99.861 132.8 99.872 132.267 99.901 131.733C100.826 109.19 121.326 91.011 146.701 90.245C147.251 90.222 147.807 90.217 148.369 90.217C175.116 90.217 196.881 109.559 196.881 133.339C196.881 157.119 175.12 176.46 148.373 176.46V176.461Z" fill="#E6E6E6"/>
            <g id="cricle_1">
            <path id="Path 388" d="M121.138 132.779L118.301 132.763C118.301 132.511 118.757 107.525 147.778 105.792L147.947 108.624C121.626 110.196 121.146 131.858 121.138 132.779Z" fill="#E6E6E6"/>
            <g id="Group 1">
            <path id="Path 389" d="M177.015 132.203C176.906 128.969 176.147 125.79 174.784 122.855C173.422 119.92 171.483 117.289 169.083 115.119C163.44 109.973 156.064 107.146 148.427 107.203H148.37C132.784 107.203 120.063 118.364 119.728 132.203C119.717 132.39 119.717 132.583 119.717 132.77C119.758 136.3 120.568 139.778 122.092 142.962C123.616 146.146 125.817 148.959 128.54 151.205C134.09 155.868 141.122 158.397 148.371 158.337H148.427C164.2 158.309 177.027 146.853 177.027 132.77C177.027 132.583 177.027 132.39 177.015 132.203Z" fill="#E6E6E6"/>
            <path id="Path 390" d="M169.083 115.119L168.232 115.874L129.394 150.451L128.543 151.206C125.82 148.96 123.619 146.147 122.095 142.963C120.571 139.779 119.761 136.301 119.72 132.771C119.72 132.584 119.72 132.391 119.731 132.204C120.066 118.365 132.787 107.204 148.373 107.204H148.427C156.063 107.147 163.44 109.973 169.083 115.119V115.119Z" fill="#FDD301"/>
            </g>
            </g>
            </g>
            <defs>
            <clipPath id="clip0">
            <rect width="415" height="296.407" fill="white"/>
            </clipPath>
            </defs>
        </svg>