<svg xmlns="http://www.w3.org/2000/svg" width="32.5" height="35" xmlns:v="https://vecta.io/nano"><path d="M31.68 13.891L19.313 1.282A4.29 4.29 0 0 0 16.249.001a4.29 4.29 0 0 0-3.061 1.289c0 0-12.001 12.226-12.363 12.608a3.14 3.14 0 0 0-.82 2.039V32.5a2.51 2.51 0 0 0 2.5 2.5h27.5a2.51 2.51 0 0 0 2.5-2.5V15.859c-.025-.735-.319-1.435-.825-1.968zm-1.516 3.3l-6.339 6.629c-.03.029-.047.068-.047.11s.017.081.047.11l5.883 6.266c.191.19.299.449.299.719s-.108.529-.299.719a1.02 1.02 0 0 1-1.438 0L16.477 19.15c-.058-.064-.14-.1-.226-.1s-.168.036-.227.1L4.234 31.734a1.02 1.02 0 0 1-1.437 0c-.191-.19-.298-.449-.298-.718s.107-.528.298-.718l5.883-6.266c.055-.063.055-.156 0-.219l-6.355-6.624a1.78 1.78 0 0 1 1.258-2.8h25.342c1.286-.005 2 2.042 1.239 2.807z" fill="#fdd301"/></svg>