<svg xmlns="http://www.w3.org/2000/svg" width="20.001" height="20" fill="#030104" xmlns:v="https://vecta.io/nano"><path d="M16.195 7.889c-.198-.006-.395.013-.588.057v1.853c.157.029.317.041.476.036.756 0 1.221-.381 1.221-1.024-.001-.576-.401-.922-1.109-.922zM18.725 0H1.278A1.277 1.277 0 0 0 0 1.276v17.449A1.277 1.277 0 0 0 1.278 20h17.447A1.277 1.277 0 0 0 20 18.725V1.276A1.276 1.276 0 0 0 18.725 0zM6.065 10.29a2.96 2.96 0 0 1-2.074.672 3.694 3.694 0 0 1-.492-.028v2.283h-1.43v-6.3a11.859 11.859 0 0 1 1.952-.132 3.066 3.066 0 0 1 1.95.512 1.864 1.864 0 0 1 .683 1.477 2.038 2.038 0 0 1-.589 1.516zm6.775 2.926H11.4v-2.671H9.025v2.671h-1.45V6.834h1.45v2.453H11.4V6.834h1.44zm5.26-2.926a2.956 2.956 0 0 1-2.074.672 3.707 3.707 0 0 1-.492-.028v2.283h-1.429v-6.3a11.83 11.83 0 0 1 1.95-.132 3.066 3.066 0 0 1 1.95.512 1.864 1.864 0 0 1 .683 1.477 2.043 2.043 0 0 1-.588 1.516zM4.092 7.889a2.28 2.28 0 0 0-.588.057v1.853a2.26 2.26 0 0 0 .476.036c.754 0 1.22-.381 1.22-1.024 0-.576-.4-.922-1.108-.922z"/></svg>