<svg xmlns="http://www.w3.org/2000/svg" width="261.603" height="226" xmlns:v="https://vecta.io/nano"><defs><clipPath id="A"><path fill="none" d="M0 0h261.603v226H0z"/></clipPath></defs><g clip-path="url(#A)"><path d="M.056 163.729a62.44 62.44 0 0 0 113.227 36.485c15.803-22.098 15.504-51.877-.739-73.653s-44.703-30.55-70.388-21.701C56.174 24.483 118.851-27.35 60.75 15.31-3.675 62.614-.013 161.823.059 163.642c0 .028-.003.053-.003.087zm136.999 0a62.44 62.44 0 0 0 113.227 36.485c15.803-22.098 15.504-51.877-.739-73.653s-44.703-30.55-70.388-21.701c14.014-80.374 76.691-132.207 18.59-89.548-64.425 47.3-60.764 146.514-60.691 148.332.005.026.001.051.001.085z"/></g></svg>