<svg xmlns="http://www.w3.org/2000/svg" width="259" height="374" xmlns:v="https://vecta.io/nano"><defs><clipPath id="A"><path transform="translate(1661 4508)" fill="#fff" d="M0 0h259v374H0z"/></clipPath></defs><g transform="translate(-1661 -4508)" clip-path="url(#A)" fill="#131313"><path d="M1798.779 4886.707c1.391.227 13.748 1.034 36.64-38.337 4-6.878 8.324-14.984 12.963-24.53 14.941-30.711 42.673-49.67 68.568-61.211a220.52 220.52 0 0 1 26.181-9.689c8.33-2.523 16.796-4.569 25.358-6.13l1.634-.29 4.067-.647 3.525-1.206.576-.2-.37.979c-.492 1.261-1.017 2.546-1.592 3.836a191.84 191.84 0 0 1-20.757 38.976c-12.458 5.462-37.375 10.874-53.14 8.845 12.568 5.462 30.917 5.756 45.174 1.63-19.093 23.064-43.972 39.984-75.632 50.216 22.1-2.546 41.518-11.345 58.325-24-6.051 13.257-15.026 30.072-21.379 38.14 11.126-5.983 25.286-32.4 31.572-46.779 10.47-9.76 19.719-20.752 27.547-32.736.538 14.488.681 41.388-4.723 61.027 9.068-13.3 13.391-53.636 12.185-73.032l-.139-.071.118-.26v-.05c.059-.105.113-.21.168-.315 3.855-8.733 7.211-17.677 10.051-26.791l.769-2.521c2.512-8.203 4.407-16.582 5.668-25.068l.168-4.231.273.689.071-.618.038.887 1.357 3.387c6.874 25.211 8.509 55.249.319 90.3-30.822 131.835-190.285 81.514-195.583 79.8z"/><path d="M1732.782 4711.958c.382 1.076 4.651 10.2 41.686 11.084 6.471.151 13.942.055 22.564-.378 27.732-1.395 52.132 10.958 70.51 24.871a179.83 179.83 0 0 1 17.169 14.866 185.8 185.8 0 0 1 14.328 15.669l.84 1.05 2.055 2.647 2.244 2.038.366.336-.84.114c-1.1.151-2.214.277-3.361.374a156.42 156.42 0 0 1-35.934.492c-8.773-6.723-22.4-22.375-27.131-34.409 1.025 11.105 8.013 24.291 16.543 32.837-23.921-4.567-45.737-15.668-65.443-34.232 10.479 14.753 24.37 25.144 39.968 32.165-11.807.891-27.312 1.084-35.551-.281 8.626 5.584 33 5.328 45.716 4.168a144.41 144.41 0 0 0 34.131 6.8c-10.118 6.063-29.236 16.711-45.346 20.555 13.026 1.261 43.476-11.479 56.829-19.937v-.129h.555c7.736-.683 15.426-1.805 23.034-3.361l2.1-.42a140.4 140.4 0 0 0 20.089-5.782l3.08-1.542-.382.466.466-.189-.618.37-1.9 2.282c-15.286 14.786-36.039 27.732-64.229 35.619-106.041 29.68-132.685-103.689-133.538-108.143z"/><path d="M1673.99 4823.654c.634.525 6.643 4.6 29.892-8.517 4.063-2.294 8.651-5.109 13.828-8.559 16.652-11.1 36.308-12.454 52.817-10.622a129.53 129.53 0 0 1 16.11 2.866c4.959 1.195 9.847 2.671 14.639 4.42l.912.336 2.248.882 2.139.42.353.071-.479.387c-.626.5-1.261.987-1.941 1.466a112.31 112.31 0 0 1-22.059 13.559c-7.916-.933-22.118-5.58-29.488-11.282 4.735 6.492 13.925 12.076 22.354 14.219-16.488 6-34.085 7.177-53.132 2.941 11.513 4.983 24.158 6.766 36.6 5.16-6.979 4.908-16.5 10.748-22.106 12.942 7.4.273 22.387-8.874 29.833-14.286a103.86 103.86 0 0 0 23.639-8.383c-4.03 7.484-11.933 21.127-20.488 29.45 8.53-4.034 22.69-23.144 27.82-33.3l-.046-.076.134-.1v-.029c.063-.034.118-.071.181-.109a148.39 148.39 0 0 0 13.026-10.563l1.13-1.042c3.703-3.401 7.146-7.076 10.3-10.992q.672-1.03 1.34-2.1l-.067.42.219-.29-.244.458-.319 2.1c-4 14.794-12.076 30.455-26.61 45.745-54.668 57.57-120.367-15.163-122.535-17.592zm141.723-246.41c-.092 1.319.235 12.979 39.169 30.988 6.8 3.135 14.786 6.5 24.148 10 30.106 11.307 50.325 35.673 63.447 58.926 4.287 7.655 8.085 15.573 11.374 23.707a215.15 215.15 0 0 1 7.983 23.236l.42 1.508c.42 1.529.731 2.8.962 3.756l1.445 3.2.235.525-.95-.265c-1.261-.349-2.479-.727-3.74-1.151a181.1 181.1 0 0 1-38.4-16.042c-6.227-11.2-13.5-34.1-12.975-49.056-4.025 12.265-2.681 29.5 2.441 42.505-23.307-15.879-41.363-37.724-53.741-66.527 4.332 20.5 14.286 37.938 27.627 52.586-12.95-4.492-29.509-11.437-37.631-16.685 6.588 9.908 32.593 20.87 46.64 25.5a167.17 167.17 0 0 0 33.123 22.959c-13.542 1.773-38.757 4.273-57.649.929 13.273 7.336 51.476 7.849 69.561 5.017l.055-.134.252.088h.05l.307.134a238.74 238.74 0 0 0 26.009 7.072l2.42.5c7.917 1.633 15.946 2.673 24.018 3.109l3.979-.214-.618.311h.58l-.84.113-3.051 1.567c-23.055 8.664-51.065 12.836-84.654 8.236-126.323-17.314-93.123-171.268-91.996-176.398z"/><path d="M1929.733 4492.456c-.727.592-6.568 6.4 2.987 35.148 1.681 5.021 3.807 10.744 6.526 17.261 8.74 20.967 5.975 43.152.344 61.145-1.864 5.909-4.102 11.694-6.7 17.32a152.08 152.08 0 0 1-8.1 15.349l-.576.941-1.471 2.315-.945 2.29-.16.374-.323-.618c-.42-.807-.84-1.626-1.214-2.479a127.9 127.9 0 0 1-10.31-27.521c2.761-8.614 11.03-23.425 18.984-30.392-8.261 3.861-16.479 12.883-20.7 21.807-3.092-19.673-.58-39.531 8.261-59.825-8.458 12.139-12.605 25.7-13.711 39.648-3.95-8.824-8.383-20.723-9.605-27.442-1.916 8.181 5.017 26.892 9.425 36.337a118.16 118.16 0 0 0 4.2 28.152c-7.462-6.109-20.937-17.883-28.349-29.219 2.639 10.378 20.849 30.291 31.051 38.236l.093-.038.08.176.025.021c.029.071.055.147.084.218 2.656 5.767 5.639 11.379 8.933 16.807l.916 1.487a114.29 114.29 0 0 0 10 13.866q1 .975 2.034 1.945l-.462-.164.277.307-.458-.37-2.286-.819c-15.606-7.672-31.3-20.076-45.169-39.589-52.163-73.429 43.134-130.787 46.319-132.674z"/></g></svg>