<svg xmlns="http://www.w3.org/2000/svg" width="31.423" height="24.385" xmlns:v="https://vecta.io/nano"><path d="M28.193 6.077a10.68 10.68 0 0 1 .02.8A17.78 17.78 0 0 1 9.89 24.385 18.82 18.82 0 0 1 0 21.618c.517.054 1.036.08 1.555.076 2.881.014 5.689-.908 8-2.629a6.42 6.42 0 0 1-6.021-4.267 8.49 8.49 0 0 0 1.216.1 7.11 7.11 0 0 0 1.695-.21c-2.948-.512-5.116-3.047-5.164-6.039v-.076c.899.478 1.894.745 2.911.781-1.773-1.102-2.857-3.037-2.871-5.125a5.9 5.9 0 0 1 .877-3.105 18.6 18.6 0 0 0 13.279 6.439 6.65 6.65 0 0 1-.16-1.41A6.3 6.3 0 0 1 21.757 0a6.57 6.57 0 0 1 4.706 1.943c1.436-.263 2.817-.765 4.087-1.486a6.2 6.2 0 0 1-2.831 3.391c1.276-.138 2.525-.459 3.709-.953-.891 1.235-1.985 2.311-3.235 3.182z"/></svg>