<svg id="vuesax_bold_whatsapp" data-name="vuesax/bold/whatsapp" xmlns="http://www.w3.org/2000/svg" width="33" height="33" viewBox="0 0 33 33">
  <g id="whatsapp">
    <path id="BG_164" data-name="BG 164" d="M0,0H33V33H0Z" fill="none" opacity="0.58"/>
    <path id="Vector" d="M27.481,12.939A13.754,13.754,0,1,0,1.837,20.626L.613,25.177A1.37,1.37,0,0,0,2.3,26.854l4.483-1.237A13.687,13.687,0,0,0,13.745,27.5,13.962,13.962,0,0,0,27.481,12.939Zm-7.012,5.926a3.281,3.281,0,0,1-.468.7,3.134,3.134,0,0,1-1.128.811,3.364,3.364,0,0,1-1.347.261,5.6,5.6,0,0,1-2.241-.509,12.593,12.593,0,0,1-2.365-1.361,19.869,19.869,0,0,1-2.255-1.925A19.664,19.664,0,0,1,8.74,14.589a12.1,12.1,0,0,1-1.347-2.351A5.822,5.822,0,0,1,6.9,9.983a3.592,3.592,0,0,1,.247-1.334,3.07,3.07,0,0,1,.8-1.155,1.987,1.987,0,0,1,1.43-.646,1.345,1.345,0,0,1,.564.124,1.139,1.139,0,0,1,.468.385L12,9.612a2.219,2.219,0,0,1,.275.481,1,1,0,0,1,.1.426.986.986,0,0,1-.151.5,2.42,2.42,0,0,1-.385.495l-.523.55a.353.353,0,0,0-.11.275.69.69,0,0,0,.027.165.949.949,0,0,1,.055.138,5.511,5.511,0,0,0,.646.88c.316.358.646.729,1,1.086s.729.7,1.1,1.017a5.279,5.279,0,0,0,.894.633c.041.014.083.041.124.055a.451.451,0,0,0,.468-.1l.522-.523a2.209,2.209,0,0,1,.5-.385.947.947,0,0,1,.495-.151,1,1,0,0,1,.426.1,2.5,2.5,0,0,1,.481.275l2.283,1.622a1.161,1.161,0,0,1,.385.44,1.438,1.438,0,0,1,.11.536C20.633,18.357,20.578,18.618,20.468,18.866Z" transform="translate(2.742 2.749)" fill="#000"/>
    <path id="Vector-2" data-name="Vector" d="M0,0H33V33H0Z" fill="none" opacity="0"/>
  </g>
</svg>
