<svg width="33" height="33" viewBox="0 0 33 33" fill="none" xmlns="http://www.w3.org/2000/svg">
<path d="M30.223 15.688C30.1 13.6166 29.51 11.5999 28.4971 9.78891C27.4841 7.9779 26.0745 6.41956 24.3739 5.23061C22.6733 4.04166 20.7257 3.25291 18.677 2.92344C16.6282 2.59397 14.5315 2.73233 12.5439 3.32814C10.5562 3.92396 8.72914 4.96179 7.19948 6.3639C5.66983 7.76602 4.47725 9.49607 3.71106 11.4245C2.94488 13.3529 2.62496 15.4296 2.77527 17.4992C2.92557 19.5688 3.5422 21.5776 4.57897 23.375L3.35497 27.926C3.29218 28.1592 3.29212 28.4048 3.35482 28.638C3.41751 28.8712 3.54073 29.0837 3.71198 29.2539C3.88324 29.4242 4.09645 29.5461 4.33001 29.6074C4.56357 29.6687 4.80919 29.6672 5.04197 29.603L9.52497 28.366C11.6356 29.6048 14.0397 30.2551 16.487 30.249C18.3529 30.2205 20.1942 29.8183 21.902 29.066C23.6098 28.3138 25.1495 27.2268 26.43 25.8694C27.7106 24.5119 28.706 22.9115 29.3575 21.1628C30.009 19.414 30.3033 17.5524 30.223 15.688V15.688ZM23.211 21.614C23.0857 21.8665 22.9284 22.1018 22.743 22.314C22.4324 22.6653 22.0469 22.9425 21.615 23.125C21.1887 23.3036 20.7301 23.3925 20.268 23.386C19.4938 23.3731 18.7308 23.1998 18.027 22.877C17.1917 22.5104 16.3987 22.054 15.662 21.516C14.8634 20.9314 14.1096 20.288 13.407 19.591C12.7096 18.8895 12.0661 18.1364 11.482 17.338C10.9464 16.6073 10.4945 15.8186 10.135 14.987C9.82179 14.2758 9.65416 13.5091 9.64197 12.732C9.63882 12.2757 9.72265 11.823 9.88897 11.398C10.0628 10.9564 10.3366 10.561 10.689 10.243C10.871 10.0439 11.0917 9.88395 11.3375 9.77289C11.5834 9.66182 11.8492 9.60199 12.119 9.59702C12.3137 9.59703 12.5062 9.63934 12.683 9.72102C12.8709 9.80474 13.0326 9.93778 13.151 10.106L14.742 12.361C14.8534 12.5092 14.9458 12.6708 15.017 12.842C15.0813 12.9749 15.1155 13.1204 15.117 13.268C15.1125 13.4452 15.0603 13.618 14.966 13.768C14.8597 13.949 14.7302 14.1154 14.581 14.263L14.058 14.813C14.0208 14.8482 13.9917 14.8909 13.9727 14.9384C13.9537 14.9859 13.9453 15.037 13.948 15.088C13.9503 15.1439 13.9593 15.1993 13.975 15.253C13.9969 15.2975 14.0153 15.3437 14.03 15.391C14.2157 15.705 14.432 15.9998 14.676 16.271C14.992 16.629 15.322 17 15.676 17.357C16.03 17.714 16.405 18.057 16.776 18.374C17.0512 18.6155 17.3508 18.8276 17.67 19.007C17.711 19.021 17.753 19.048 17.794 19.062C17.8735 19.0909 17.9596 19.0969 18.0423 19.0792C18.1251 19.0615 18.2012 19.0209 18.262 18.962L18.784 18.439C18.9314 18.2874 19.0997 18.1578 19.284 18.054C19.4318 17.9587 19.6032 17.9064 19.779 17.903C19.9266 17.9045 20.0721 17.9386 20.205 18.003C20.375 18.0766 20.5363 18.1688 20.686 18.278L22.969 19.9C23.1327 20.0114 23.2653 20.1629 23.354 20.34C23.4246 20.51 23.462 20.692 23.464 20.876C23.375 21.106 23.32 21.367 23.21 21.615L23.211 21.614Z" fill="#FDD301"/>
</svg>
