<svg xmlns="http://www.w3.org/2000/svg" width="20" height="20" xmlns:v="https://vecta.io/nano"><path d="M14.675 9.289c-1.351 0-2.445 1.095-2.445 2.445s1.095 2.445 2.445 2.445c.433-.008.855-.133 1.223-.361V9.65c-.368-.228-.79-.353-1.223-.361zM18.242 0H1.758A1.76 1.76 0 0 0 0 1.758v16.484A1.76 1.76 0 0 0 1.758 20h16.484A1.76 1.76 0 0 0 20 18.242V1.758A1.76 1.76 0 0 0 18.242 0zm-7.931 15.184A.586.586 0 0 1 9.5 15l-2.43-3.895L4.637 15a.586.586 0 0 1-.993-.621L6.379 10 3.644 5.623A.586.586 0 1 1 4.637 5L7.07 8.895 9.5 5a.586.586 0 1 1 .993.621L7.761 10l2.739 4.377a.586.586 0 0 1-.189.807zm6.721-.5a.586.586 0 0 1-.586.586.575.575 0 0 1-.47-.254 3.513 3.513 0 1 1-.116-6.573v-3.13a.586.586 0 0 1 1.172 0z"/></svg>