<svg width="1172" height="181" viewBox="0 0 1172 181" fill="none" xmlns="http://www.w3.org/2000/svg">
<g clip-path="url(#clip0_348_2)">
<path d="M1097.84 175.873C1098.69 175.98 1106.23 176.362 1120.2 157.738C1122.64 154.486 1125.28 150.65 1128.11 146.134C1137.23 131.607 1154.16 122.638 1169.96 117.179C1175.13 115.399 1180.47 113.867 1185.94 112.595C1191.01 111.405 1196.18 110.437 1201.42 109.695L1202.42 109.557C1203.44 109.419 1204.27 109.324 1204.9 109.251L1207.05 108.68L1207.4 108.587L1207.18 109.05C1206.88 109.646 1206.56 110.254 1206.2 110.864C1202.95 117.308 1198.71 123.489 1193.54 129.302C1185.94 131.886 1170.73 134.446 1161.1 133.486C1168.77 136.07 1179.97 136.209 1188.67 134.257C1177.11 145.219 1161.02 153.5 1142.51 158.012C1156 156.808 1167.85 152.645 1178.11 146.661C1174.42 152.932 1168.94 160.887 1165.07 164.703C1171.86 161.872 1180.5 149.378 1184.34 142.574C1190.8 137.887 1196.44 132.689 1201.15 127.088C1201.48 133.941 1201.56 146.665 1198.27 155.957C1203.8 149.662 1206.44 130.584 1205.7 121.409L1205.62 121.375L1205.69 121.252V121.229C1205.73 121.179 1205.76 121.129 1205.79 121.079C1208.15 116.931 1210.2 112.701 1211.92 108.406L1212.39 107.213C1213.93 103.319 1215.09 99.3567 1215.85 95.3548L1215.95 93.3535L1216.12 93.6793L1216.16 93.3874L1216.19 93.8066L1217.01 95.4088C1221.21 107.335 1222.21 121.545 1217.21 138.124C1198.4 200.488 1101.07 176.685 1097.84 175.873V175.873Z" fill="#FDD301"/>
<path d="M1057.56 93.2075C1057.79 93.7167 1060.4 98.0333 1083 98.4512C1086.95 98.5203 1091.51 98.4768 1096.77 98.272C1113.7 97.612 1128.59 103.456 1139.81 110.037C1143.51 112.224 1147.01 114.574 1150.28 117.07C1153.4 119.425 1156.32 121.9 1159.03 124.482L1159.54 124.979L1160.8 126.231L1162.17 127.194L1162.39 127.353L1161.88 127.407C1161.19 127.479 1160.51 127.538 1159.82 127.585C1152.56 128.315 1145.19 128.393 1137.89 127.817C1132.54 124.635 1124.22 117.233 1121.33 111.54C1121.96 116.793 1126.22 123.031 1131.43 127.073C1116.83 124.913 1103.52 119.661 1091.49 110.88C1097.45 117.404 1105.89 122.669 1115.88 126.099C1108.68 126.52 1099.22 126.611 1094.18 125.965C1099.45 128.607 1114.32 128.485 1122.08 127.937C1128.79 129.648 1135.79 130.73 1142.92 131.153C1136.74 134.019 1125.07 139.055 1115.24 140.871C1123.19 141.467 1141.77 135.44 1149.92 131.439V131.38H1150.26C1154.99 131.055 1159.69 130.524 1164.32 129.788L1165.6 129.59C1169.79 128.911 1173.89 127.997 1177.86 126.855L1179.74 126.125L1179.51 126.346L1179.8 126.256L1179.42 126.431L1178.26 127.51C1168.93 134.505 1156.26 140.629 1139.06 144.36C1074.34 158.406 1058.08 95.3147 1057.56 93.2075V93.2075Z" fill="#FDD301"/>
<path d="M1021.68 146.046C1022.06 146.294 1025.73 148.22 1039.92 142.017C1042.4 140.932 1045.2 139.6 1048.36 137.968C1058.52 132.719 1070.52 132.076 1080.6 132.943C1083.92 133.235 1087.2 133.688 1090.43 134.299C1093.47 134.867 1096.45 135.565 1099.36 136.39L1099.92 136.549L1101.29 136.964L1102.6 137.163L1102.81 137.197L1102.52 137.379C1102.14 137.614 1101.75 137.846 1101.33 138.071C1097.24 140.577 1092.72 142.731 1087.87 144.485C1083.04 144.044 1074.37 141.845 1069.87 139.148C1072.76 142.219 1078.37 144.861 1083.51 145.874C1073.21 148.771 1061.83 149.26 1051.09 147.266C1058.01 149.612 1065.79 150.463 1073.43 149.707C1069.17 152.028 1063.35 154.791 1059.93 155.829C1064.45 155.958 1073.6 151.631 1078.14 149.071C1083.18 148.194 1088.03 146.861 1092.57 145.106C1090.11 148.646 1085.29 155.1 1080.07 159.037C1085.27 157.13 1093.92 148.089 1097.05 143.283L1097.02 143.247L1097.1 143.201V143.188C1097.14 143.172 1097.17 143.154 1097.21 143.136C1100 141.577 1102.65 139.908 1105.16 138.138L1105.85 137.645C1108.13 136.021 1110.23 134.283 1112.14 132.445C1112.41 132.122 1112.68 131.791 1112.95 131.451L1112.91 131.649L1113.05 131.511L1112.9 131.728L1112.7 132.722C1109.84 140.722 1104.27 148.138 1096.46 154.362C1063.1 181.602 1023 147.193 1021.68 146.046V146.046ZM1108.17 29.4807C1108.12 30.1033 1108.32 35.6209 1132.08 44.1401C1136.23 45.6226 1141.1 47.2129 1146.82 48.8704C1165.19 54.2192 1177.53 65.7456 1185.54 76.7489C1188.17 80.39 1190.49 84.1346 1192.48 87.9632C1194.38 91.5661 1196.01 95.2349 1197.35 98.9548L1197.61 99.668C1197.87 100.392 1198.06 100.992 1198.2 101.445L1199.08 102.96L1199.22 103.208L1198.64 103.083C1197.88 102.918 1197.13 102.737 1196.36 102.538C1188.13 100.691 1180.25 98.1417 1172.93 94.9495C1169.13 89.6505 1164.69 78.8194 1165.01 71.7432C1162.55 77.5451 1163.37 85.697 1166.5 91.8503C1152.27 84.339 1141.25 74.0026 1133.7 60.3795C1136.21 69.5206 1142.01 78.0764 1150.56 85.2556C1142.66 83.1305 1132.55 79.8453 1127.59 77.3625C1131.61 82.0493 1147.49 87.2355 1156.06 89.4257C1162.12 93.6153 1168.91 97.264 1176.28 100.286C1168.01 101.126 1152.62 102.308 1141.09 100.726C1149.19 104.196 1172.51 104.439 1183.55 103.099L1183.58 103.036L1183.73 103.077H1183.76L1183.95 103.141C1189.14 104.483 1194.44 105.6 1199.82 106.486L1201.3 106.721C1206.12 107.492 1211.02 107.984 1215.96 108.191L1218.39 108.09L1218.01 108.237H1218.37L1217.85 108.291L1215.99 109.033C1201.92 113.131 1184.82 115.105 1164.32 112.929C1087.22 104.736 1107.48 31.9088 1108.17 29.4807V29.4807Z" fill="#FDD301"/>
<path d="M1177.76 -10.629C1177.32 -10.3489 1173.76 -7.60183 1179.59 5.99775C1180.61 8.3733 1181.91 11.0802 1183.57 14.1607C1188.9 24.0793 1187.22 34.5742 1183.78 43.0851C1182.65 45.8709 1181.28 48.6087 1179.69 51.2847C1178.23 53.765 1176.58 56.1897 1174.75 58.5483L1174.4 58.9938L1173.5 60.0889L1172.92 61.1722L1172.82 61.3493L1172.62 61.0574C1172.36 60.6755 1172.11 60.2881 1171.88 59.8814C1169.12 55.7068 1167.02 51.3429 1165.59 46.8622C1167.27 42.7876 1172.32 35.7807 1177.17 32.4851C1172.13 34.312 1167.12 38.5796 1164.54 42.8008C1162.63 33.2246 1164.37 23.4692 1169.58 14.5003C1164.61 20.1833 1161.74 26.6244 1161.21 33.2564C1158.8 29.0822 1156.1 23.4533 1155.35 20.2746C1154.18 24.1443 1158.41 32.9956 1161.1 37.4638C1161.26 41.9539 1162.12 46.4191 1163.67 50.7811C1159.11 47.8909 1150.89 42.3214 1146.37 36.9588C1147.98 41.8704 1159.09 51.2882 1165.32 55.0466L1165.37 55.0286L1165.42 55.1123L1165.44 55.122C1165.46 55.1559 1165.47 55.1911 1165.49 55.225C1167.1 57.9403 1168.92 60.5942 1170.94 63.1756L1171.5 63.8791C1173.31 66.1641 1175.35 68.3563 1177.61 70.4385C1178.01 70.7461 1178.43 71.0528 1178.85 71.3586L1178.57 71.2811L1178.73 71.4264L1178.45 71.2514L1177.05 70.864C1167.53 67.2342 1157.95 61.3666 1149.49 52.1363C1117.66 17.3975 1175.82 -9.73664 1177.76 -10.629V-10.629ZM56.144 177.151C55.507 177.232 49.844 177.519 39.36 163.539C37.528 161.098 35.547 158.22 33.422 154.83C26.577 143.928 13.874 137.195 2.01203 133.098C-1.86672 131.762 -5.87387 130.613 -9.98097 129.658C-13.7832 128.765 -17.6629 128.038 -21.597 127.481L-22.346 127.378L-24.209 127.149L-25.824 126.721L-26.088 126.651L-25.919 126.997C-25.694 127.445 -25.453 127.901 -25.19 128.359C-22.7492 133.194 -19.5614 137.833 -15.682 142.195C-9.97497 144.132 1.43903 146.056 8.66003 145.335C2.90303 147.272 -5.50197 147.38 -12.033 145.914C-3.35205 154.141 8.72662 160.357 22.613 163.744C12.491 162.839 3.59403 159.715 -4.10497 155.224C-1.33297 159.928 2.77803 165.901 5.68803 168.765C0.588027 166.641 -5.89497 157.263 -8.77497 152.156C-13.6274 148.639 -17.863 144.738 -21.394 140.535C-21.64 145.679 -21.706 155.229 -19.231 162.202C-23.385 157.479 -25.365 143.158 -24.813 136.273L-24.749 136.247L-24.803 136.154V136.136C-24.83 136.099 -24.855 136.062 -24.88 136.024C-26.651 132.911 -28.186 129.736 -29.48 126.512L-29.832 125.617C-30.9872 122.694 -31.8558 119.721 -32.432 116.717L-32.509 115.214L-32.634 115.459L-32.667 115.24L-32.684 115.555L-33.306 116.757C-36.455 125.708 -37.206 136.374 -33.452 148.817C-19.33 195.627 53.717 177.76 56.144 177.151V177.151Z" fill="#FDD301"/>
<path d="M86.3771 115.106C86.2021 115.488 84.2461 118.728 67.2771 119.042C64.3131 119.096 60.8911 119.061 56.9411 118.908C44.2411 118.412 33.0611 122.798 24.6411 127.738C21.8601 129.38 19.2331 131.143 16.7761 133.016C14.4391 134.784 12.2481 136.641 10.2131 138.58L9.82806 138.952L8.88706 139.893L7.85906 140.616L7.69206 140.736L8.07706 140.776C8.58836 140.831 9.10192 140.875 9.61706 140.909C15.0701 141.457 20.6031 141.515 26.0781 141.083C30.0971 138.696 36.3391 133.139 38.5061 128.866C38.0361 132.81 34.8351 137.491 30.9281 140.526C41.8861 138.904 51.8791 134.962 60.9061 128.371C56.4323 133.267 50.0988 137.217 42.5981 139.791C48.0071 140.107 55.1091 140.176 58.8831 139.691C54.9311 141.674 43.7681 141.583 37.9421 141.171C32.9111 142.456 27.6541 143.267 22.3111 143.585C26.9461 145.737 35.7031 149.518 43.0831 150.883C37.1161 151.33 23.1681 146.807 17.0511 143.804V143.759H16.7971C13.2468 143.516 9.72238 143.117 6.24506 142.566L5.28306 142.416C2.14053 141.907 -0.936424 141.22 -3.91694 140.364L-5.32794 139.816L-5.15294 139.982L-5.36694 139.913L-5.08394 140.044L-4.21594 140.854C3.79248 146.803 13.9475 151.168 25.2041 153.5C73.7811 164.041 85.9861 116.688 86.3771 115.106V115.106Z" fill="#FDD301"/>
<path d="M113.307 154.764C113.016 154.951 110.264 156.396 99.614 151.741C97.753 150.926 95.6511 149.927 93.2801 148.702C85.6521 144.758 76.6481 144.28 69.0861 144.93C66.5946 145.149 64.1285 145.489 61.7061 145.948C59.4257 146.374 57.186 146.898 55.0001 147.517L54.5821 147.636L53.552 147.95L52.5721 148.099L52.41 148.125L52.6291 148.263C52.9161 148.439 53.2061 148.614 53.5181 148.784C56.5915 150.665 59.9829 152.281 63.6181 153.598C67.2441 153.267 73.7501 151.617 77.1261 149.593C74.6207 152.018 71.017 153.795 66.8861 154.643C74.6171 156.817 83.1641 157.184 91.2251 155.687C86.0281 157.448 80.1861 158.086 74.4581 157.519C77.5991 159.285 80.9921 160.824 84.5841 162.114C81.1961 162.211 74.3291 158.963 70.9181 157.042C67.1349 156.384 63.4938 155.384 60.0891 154.067C61.9351 156.724 65.5551 161.568 69.4741 164.523C65.5671 163.091 59.0801 156.306 56.7301 152.699L56.7511 152.672L56.6891 152.637V152.627C56.6601 152.615 56.635 152.601 56.606 152.588C54.5147 151.418 52.5224 150.166 50.6391 148.837L50.121 148.467C48.4115 147.248 46.8345 145.944 45.4031 144.564C45.1977 144.321 44.9931 144.072 44.7891 143.818L44.8201 143.968L44.7201 143.865L44.8321 144.027L44.9781 144.773C47.1281 150.778 51.3051 156.344 57.1681 161.015C82.2191 181.451 112.314 155.623 113.307 154.764V154.764ZM48.3881 67.2757C48.4301 67.744 48.2801 71.8843 30.4451 78.2749C27.3291 79.388 23.6721 80.5813 19.3831 81.8258C5.59205 85.8381 -3.66995 94.4915 -9.68095 102.748C-11.6539 105.48 -13.3929 108.291 -14.8909 111.165C-16.3159 113.869 -17.5369 116.623 -18.5479 119.415L-18.7409 119.95L-19.1819 121.284L-19.8439 122.42L-19.9519 122.607L-19.5169 122.513C-18.9389 122.389 -18.3809 122.255 -17.8039 122.104C-11.6219 120.717 -5.71395 118.805 -0.215946 116.408C2.63705 112.431 5.96605 104.302 5.72805 98.9907C7.57205 103.349 6.95605 109.464 4.61005 114.082C15.2871 108.445 23.5571 100.688 29.2281 90.4619C27.347 97.3234 22.9944 103.746 16.5731 109.135C22.5051 107.54 30.0911 105.074 33.8111 103.211C30.7931 106.728 18.8811 110.621 12.4461 112.264C7.90005 115.409 2.80305 118.147 -2.72695 120.416C3.47305 121.045 15.0271 121.933 23.6811 120.746C17.6011 123.35 0.101055 123.532 -8.18295 122.527L-8.20795 122.479L-8.32295 122.51H-8.34595L-8.48695 122.558C-12.3792 123.565 -16.3582 124.404 -20.4009 125.069L-21.5099 125.245C-25.1258 125.825 -28.8052 126.195 -32.5099 126.352L-34.3329 126.276L-34.0499 126.386H-34.3159L-33.9309 126.426L-32.5309 126.98C-21.9699 130.056 -9.13894 131.537 6.24706 129.904C64.1111 123.759 48.9051 69.0971 48.3881 67.2757V67.2757Z" fill="#FDD301"/>
<path d="M-3.843 37.1718C-3.51 37.3793 -0.835002 39.4436 -5.211 49.6514C-5.981 51.4341 -6.955 53.4658 -8.2 55.7798C-12.2 63.224 -10.937 71.1012 -8.358 77.4891C-7.5087 79.5782 -6.4843 81.6314 -5.29 83.6382C-4.194 85.4991 -2.955 87.3185 -1.579 89.088L-1.315 89.4222L-0.641002 90.244L-0.208002 91.0568L-0.135002 91.1896L0.0129976 90.9703C0.205998 90.6839 0.397998 90.3927 0.568998 90.0904C2.634 86.9574 4.215 83.6818 5.286 80.3191C4.021 77.2608 0.233998 72.0019 -3.414 69.5274C0.369998 70.8985 4.135 74.1014 6.069 77.2705C7.50357 70.083 6.19917 62.761 2.285 56.0296C6.01526 60.2946 8.17193 65.1289 8.565 70.1065C10.4462 66.9552 11.9187 63.6945 12.965 60.3628C13.843 63.2683 10.665 69.9093 8.648 73.2644C8.53 76.6347 7.885 79.9857 6.723 83.2598C10.141 81.0904 16.314 76.9107 19.709 72.8832C18.5 76.5683 10.158 83.6382 5.485 86.4593L5.443 86.4461L5.406 86.5091L5.394 86.5167C5.38 86.5423 5.369 86.5686 5.356 86.5942C4.1458 88.632 2.77987 90.6239 1.264 92.5614L0.843998 93.0892C-0.511176 94.8042 -2.04279 96.4496 -3.739 98.0126C-4.04434 98.2432 -4.355 98.4738 -4.671 98.7044L-4.459 98.6463L-4.586 98.7549L-4.376 98.6234L-3.329 98.3322C3.82 95.608 11.009 91.2069 17.362 84.2761C41.27 58.2073 -2.384 37.8415 -3.843 37.1718Z" fill="#FDD301"/>
</g>
<defs>
<clipPath id="clip0_348_2">
<rect width="1172" height="181" fill="white"/>
</clipPath>
</defs>
</svg>
