<svg xmlns="http://www.w3.org/2000/svg" width="1172" height="181" xmlns:v="https://vecta.io/nano"><defs><clipPath id="A"><rect width="1172" height="181" rx="40" fill="#fdd301"/></clipPath></defs><g clip-path="url(#A)" fill="#fdd301"><path d="M1097.839 258.971c.849.155 8.391.707 22.362-26.216 2.441-4.7 5.08-10.246 7.911-16.774 9.119-21 26.045-33.965 41.849-41.856a125.73 125.73 0 0 1 15.979-6.626 127.63 127.63 0 0 1 15.477-4.192l1-.2c1.026-.2 1.849-.336 2.482-.442l2.152-.825.351-.135-.226.669c-.3.862-.621 1.741-.972 2.623-3.252 9.314-7.499 18.25-12.668 26.653-7.6 3.735-22.811 7.436-32.433 6.048 7.67 3.735 18.869 3.936 27.571 1.115-11.566 15.845-27.659 27.817-46.16 34.339 13.486-1.741 25.339-7.758 35.6-16.409-3.693 9.065-9.17 20.564-13.048 26.081 6.791-4.092 15.433-22.153 19.269-31.989 6.465-6.775 12.109-14.289 16.813-22.386.328 9.907.415 28.3-2.883 41.732 5.534-9.1 8.173-36.678 7.437-49.941l-.085-.049.072-.178v-.034c.036-.072.069-.144.1-.216 2.361-5.996 4.408-12.111 6.134-18.32l.469-1.724c1.537-5.63 2.693-11.357 3.459-17.142l.1-2.893.167.471.044-.422.023.606.828 2.316c4.2 17.24 5.193 37.781.2 61.747-18.816 90.152-116.14 55.743-119.374 54.569z"/><path d="M1057.559 139.473c.233.736 2.839 6.976 25.442 7.58 3.949.1 8.509.037 13.771-.259 16.925-.954 31.817 7.494 43.034 17.007 3.705 3.162 7.205 6.558 10.478 10.166a123.02 123.02 0 0 1 8.745 10.715l.513.718 1.254 1.81 1.369 1.393.223.23-.513.078a38.19 38.19 0 0 1-2.052.256 85.28 85.28 0 0 1-21.931.336c-5.355-4.6-13.671-15.3-16.559-23.53.626 7.594 4.89 16.611 10.1 22.455-14.6-3.123-27.914-10.715-39.942-23.409a60.84 60.84 0 0 0 24.393 22c-7.206.609-16.669.741-21.7-.193 5.265 3.819 20.139 3.643 27.9 2.85a79.88 79.88 0 0 0 20.831 4.649c-6.176 4.143-17.841 11.424-27.676 14.048 7.95.862 26.534-7.85 34.684-13.634v-.086h.339c4.73-.469 9.425-1.237 14.058-2.3l1.282-.287a78.76 78.76 0 0 0 12.261-3.954l1.88-1.055-.233.319.285-.129-.377.253-1.157 1.56c-9.329 10.111-22 18.964-39.2 24.357-64.722 20.304-80.981-70.898-81.502-73.944z"/><path d="M1021.677 215.854c.387.359 4.054 3.143 18.244-5.824 2.48-1.569 5.28-3.494 8.44-5.853 10.163-7.588 22.16-8.517 32.235-7.264a71.36 71.36 0 0 1 9.832 1.96 75.71 75.71 0 0 1 8.935 3.023l.556.23 1.372.6 1.305.287.215.049-.292.264c-.382.339-.769.675-1.185 1-4.097 3.623-8.617 6.736-13.463 9.272-4.831-.638-13.5-3.816-18-7.715 2.89 4.439 8.5 8.258 13.643 9.723a51 51 0 0 1-32.428 2.011 38.4 38.4 0 0 0 22.339 3.529c-4.26 3.356-10.073 7.35-13.492 8.85 4.513.187 13.663-6.068 18.208-9.769a59.06 59.06 0 0 0 14.428-5.732c-2.459 5.117-7.283 14.447-12.5 20.139 5.206-2.758 13.848-15.826 16.979-22.774l-.028-.052.082-.066v-.02c.038-.023.072-.049.11-.075a93.6 93.6 0 0 0 7.95-7.224l.69-.713a66.39 66.39 0 0 0 6.285-7.517q.41-.7.818-1.437l-.041.287.133-.2-.149.313-.195 1.437a75.34 75.34 0 0 1-16.241 31.282c-33.364 39.377-73.462-10.363-74.785-12.021zm86.497-168.502c-.056.9.144 8.876 23.906 21.191 4.152 2.143 9.024 4.442 14.738 6.838 18.374 7.732 30.715 24.394 38.723 40.3a150.63 150.63 0 0 1 6.942 16.211 159.53 159.53 0 0 1 4.872 15.889l.256 1.031c.256 1.046.446 1.914.587 2.569l.882 2.189.144.359-.58-.181c-.769-.238-1.513-.5-2.282-.787a104.37 104.37 0 0 1-23.434-10.97c-3.8-7.66-8.237-23.317-7.919-33.546-2.457 8.387-1.636 20.171 1.49 29.066-14.225-10.858-25.245-25.8-32.8-45.493 2.507 13.214 8.306 25.582 16.861 35.96-7.9-3.072-18.01-7.821-22.967-11.41 4.021 6.775 19.893 14.272 28.466 17.438a102.63 102.63 0 0 0 20.216 15.7c-8.265 1.213-23.655 2.922-35.184.635 8.1 5.017 31.417 5.367 42.455 3.431l.033-.092.154.06h.031l.187.092c5.186 1.94 10.488 3.555 15.874 4.836l1.477.339a88.96 88.96 0 0 0 14.659 2.126l2.428-.147-.377.213h.354l-.513.078-1.862 1.072c-14.071 5.925-31.166 8.778-51.666 5.632-77.1-11.843-56.841-117.119-56.151-120.629z"/><path d="M1177.763-10.629c-.444.405-4.008 4.376 1.823 24.035 1.026 3.434 2.323 7.347 3.983 11.8 5.334 14.338 3.647 29.509.21 41.812a107.68 107.68 0 0 1-4.088 11.853 108.84 108.84 0 0 1-4.944 10.5l-.351.644-.9 1.583-.577 1.566-.1.256-.2-.422c-.256-.552-.513-1.112-.741-1.7a94.29 94.29 0 0 1-6.291-18.82c1.685-5.89 6.732-16.019 11.586-20.783-5.042 2.641-10.058 8.81-12.635 14.912-1.911-13.843-.173-27.945 5.042-40.91-4.97 8.215-7.844 17.526-8.368 27.113-2.411-6.034-5.116-14.171-5.862-18.766-1.169 5.594 3.062 18.389 5.752 24.848a89.86 89.86 0 0 0 2.564 19.251c-4.554-4.178-12.779-12.229-17.3-19.981 1.61 7.1 12.725 20.714 18.951 26.147l.057-.026.049.121.015.014c.018.049.033.1.051.149a119.59 119.59 0 0 0 5.452 11.493l.559 1.017c1.806 3.303 3.846 6.472 6.106 9.482q.61.667 1.241 1.33l-.282-.112.169.21-.28-.253-1.4-.56c-9.524-5.247-19.1-13.729-27.568-27.072-31.829-50.217 26.333-89.441 28.277-90.731zM56.144 260.819c-.637.116-6.3.531-16.784-19.677-1.832-3.53-3.813-7.69-5.938-12.59-6.845-15.76-19.548-25.493-31.41-31.415a94.36 94.36 0 0 0-11.993-4.973 95.78 95.78 0 0 0-11.616-3.146l-.749-.149-1.863-.332-1.615-.619-.264-.1.169.5c.225.647.466 1.307.729 1.969a102.92 102.92 0 0 0 9.508 20c5.707 2.8 17.121 5.581 24.342 4.54-5.757 2.8-14.162 2.955-20.693.837a72.9 72.9 0 0 0 34.646 25.773c-10.122-1.307-19.019-5.823-26.718-12.316 2.772 6.8 6.883 15.435 9.793 19.575-5.1-3.071-11.583-16.627-14.463-24.009a89.35 89.35 0 0 1-12.619-16.8c-.246 7.436-.312 21.242 2.163 31.322-4.154-6.828-6.134-27.529-5.582-37.483l.064-.037-.054-.134v-.026c-.027-.054-.052-.108-.077-.162-1.771-4.5-3.306-9.09-4.6-13.75l-.352-1.294a97.33 97.33 0 0 1-2.6-12.866l-.077-2.172-.125.354-.033-.317-.017.455-.622 1.738c-3.149 12.939-3.9 28.357-.146 46.345 14.122 67.666 87.169 41.839 89.596 40.959z"/><path d="M86.377 171.129c-.175.552-2.131 5.236-19.1 5.689-2.964.078-6.386.028-10.336-.194-12.7-.716-23.88 5.624-32.3 12.765-2.781 2.373-5.408 4.922-7.865 7.63-2.337 2.555-4.528 5.24-6.563 8.042l-.385.539-.941 1.359-1.028 1.046-.167.173.385.058a25.9 25.9 0 0 0 1.54.192c5.453.792 10.986.877 16.461.252 4.019-3.451 10.261-11.484 12.428-17.66-.47 5.7-3.671 12.467-7.578 16.854 10.958-2.344 20.951-8.042 29.978-17.57a45.66 45.66 0 0 1-18.308 16.508c5.409.457 12.511.556 16.285-.144-3.952 2.866-15.115 2.735-20.941 2.139-5.031 1.857-10.288 3.03-15.631 3.489 4.635 3.112 13.392 8.577 20.772 10.55-5.967.647-19.915-5.892-26.032-10.233v-.065h-.254a84.37 84.37 0 0 1-10.552-1.725l-.962-.216a59.11 59.11 0 0 1-9.2-2.967l-1.411-.791.175.239-.214-.1.283.19.868 1.171a66.13 66.13 0 0 0 29.42 18.28c48.577 15.238 60.782-53.214 61.173-55.5z"/><path d="M113.307 228.457c-.291.27-3.043 2.359-13.693-4.371-1.861-1.177-3.963-2.622-6.334-4.393-7.628-5.7-16.632-6.392-24.194-5.452a53.57 53.57 0 0 0-7.38 1.471A56.8 56.8 0 0 0 55 217.981l-.418.172-1.03.453-.98.216-.162.037.219.2c.287.255.577.507.889.753a50.84 50.84 0 0 0 10.1 6.959c3.626-.479 10.132-2.864 13.508-5.79a19.35 19.35 0 0 1-10.24 7.3c7.731 3.143 16.278 3.674 24.339 1.51-5.197 2.546-11.039 3.468-16.767 2.648 3.141 2.553 6.534 4.778 10.126 6.642-3.388.14-10.255-4.555-13.666-7.332a44.33 44.33 0 0 1-10.829-4.3c1.846 3.841 5.466 10.843 9.385 15.115-3.907-2.07-10.394-11.878-12.744-17.093l.021-.039-.062-.05v-.015c-.029-.017-.054-.037-.083-.056a70.12 70.12 0 0 1-5.967-5.422l-.518-.535a49.8 49.8 0 0 1-4.718-5.642q-.308-.528-.614-1.078l.031.216-.1-.149.112.235.146 1.078c2.15 8.68 6.327 16.727 12.19 23.479 25.051 29.541 55.146-7.795 56.139-9.036zm-64.919-126.47c.042.677-.108 6.662-17.943 15.9-3.116 1.609-6.773 3.334-11.062 5.133-13.791 5.8-23.053 18.309-29.064 30.244-1.973 3.95-3.712 8.013-5.21 12.167-1.425 3.909-2.646 7.89-3.657 11.926l-.193.774-.441 1.928-.662 1.643-.108.27.435-.136c.578-.179 1.136-.373 1.713-.591 6.182-2.005 12.09-4.77 17.588-8.234 2.853-5.749 6.182-17.5 5.944-25.178 1.844 6.3 1.228 15.139-1.118 21.816 10.677-8.15 18.947-19.362 24.618-34.145a60.02 60.02 0 0 1-12.655 26.993c5.932-2.305 13.518-5.87 17.238-8.564-3.018 5.085-14.93 10.712-21.365 13.088-4.546 4.545-9.643 8.504-15.173 11.783 6.2.91 17.754 2.193 26.408.477-6.08 3.765-23.58 4.028-31.864 2.575l-.025-.069-.115.045h-.023l-.141.069a100.21 100.21 0 0 1-11.914 3.63l-1.109.254a66.77 66.77 0 0 1-11 1.6l-1.823-.11.283.16h-.266l.385.058 1.4.8c10.561 4.447 23.392 6.588 38.778 4.227 57.864-8.883 42.658-87.9 42.141-90.533z"/><path d="M-3.843 58.47c.333.3 3.008 3.284-1.368 18.04-.77 2.577-1.744 5.514-2.989 8.859-4 10.761-2.737 22.148-.158 31.382a80.83 80.83 0 0 0 3.068 8.889c1.096 2.69 2.335 5.32 3.711 7.878l.264.483.674 1.188.433 1.175.073.192.148-.317c.193-.414.385-.835.556-1.272 2.065-4.529 3.646-9.264 4.717-14.125-1.265-4.421-5.052-12.023-8.7-15.6 3.784 1.982 7.549 6.612 9.483 11.193A60.21 60.21 0 0 0 2.285 85.73a43.94 43.94 0 0 1 6.28 20.349 83.15 83.15 0 0 0 4.4-14.085c.878 4.2-2.3 13.8-4.317 18.65-.118 4.872-.763 9.716-1.925 14.449 3.418-3.136 9.591-9.178 12.986-15-1.209 5.327-9.551 15.547-14.224 19.625l-.042-.019-.037.091-.012.011c-.014.037-.025.075-.038.112a89.87 89.87 0 0 1-4.092 8.626l-.42.763a58.96 58.96 0 0 1-4.583 7.117q-.458.5-.932 1l.212-.084-.127.157.21-.19 1.047-.421c7.149-3.938 14.338-10.3 20.691-20.319C41.27 88.878-2.384 59.438-3.843 58.47z"/></g></svg>