<svg xmlns="http://www.w3.org/2000/svg" xmlns:xlink="http://www.w3.org/1999/xlink" width="285" height="195" fill="none" xmlns:v="https://vecta.io/nano"><style><![CDATA[#B,#C,#D,#A,#F,#E,#J,#I,#G,#H{transform-origin:center}#C{animation:rotationRevese 6s linear infinite}#J{animation:rotation 6s linear infinite}#D{animation:translateY 6s linear infinite}#I{animation:translateY 5s linear infinite}#A{animation:translateY 6s linear infinite}#E{animation:translateX 3s linear infinite}#G,#H{animation:fullTranslateX 4s linear infinite}#F{animation:lamp-effect 3s linear infinite}.B{fill:#e9be28}.C{fill:#fff}.D{fill:#f1bfb7}.E{fill:#f2f6f8}.F{fill:#d0a837}.G{fill:#495152}.H{stroke-miterlimit:10}.I{stroke:#e9be28}.J{opacity:.022}]]></style><g id="A"><path d="M93.4 70.3l.1.1c2.5 1.9 5.5-2 3.1-4l-.1-.1c-2.5-2-5.6 2-3.1 4zm90.1-53.7c2.9 3.4 6.4 3 10.5-1.1-3.9-3.3-8.1-2.9-10.5 1.1zm-76.6 14.6c4.8-.5 6.6-3.9 5.5-10.2-5.4 1.5-7.6 5.5-5.5 10.2z" class="B"/><g class="C"><path d="M211.954 65.547l-.667.211.632 2.002.668-.211-.633-2.002zM213.7 65c-.4.1-.5.4-.6.6l-.1-.3-.7.2.6 2 .7-.2-.4-1.2c0-.1.1-.3.3-.4.1 0 .2 0 .3.1 0 0 .1.1.1.2l.4 1.2.7-.2-.4-1.2c-.1-.6-.5-1-.9-.8z"/><path d="M211.8 64.8c.1.2 0 .4-.2.5s-.4 0-.5-.2 0-.4.2-.5.4 0 .5.2z"/></g><g class="B"><path d="M214.8 71.5c2.8-3.8 1.5-7.4-3.7-10.7-2.6 4.9-1.2 9.2 3.7 10.7zm15.1-32.1c1.3 4.9 5.2 6.2 11.4 4-2.4-5.3-6.9-7-11.4-4z"/><use xlink:href="#L"/><path d="M145.1 29.9c.6-2.3-.7-3.7-3.7-4.3-.3 2.7 1.2 4.4 3.7 4.3zm1.1-.9c2.4-.5 3.3-2.6 2.2-5.3-2.2 1.3-3.8 3.5-2.2 5.3zm-7.4 3.9a1.6 1.6 0 1 0 3.2 0 1.6 1.6 0 1 0-3.2 0zM170 66.3c-.6-2.3.7-3.7 3.7-4.3.3 2.7-1.1 4.5-3.7 4.3zm-19.5-31.4c2.4-.5 3.3-2.6 2.2-5.3-2.3 1.3-3.8 3.5-2.2 5.3zm25.8 34.4a1.6 1.6 0 1 1-3.2 0 1.58 1.58 0 0 1 1.6-1.6c.9.1 1.6.8 1.6 1.6zM168 11.9c.6-2.3-.7-3.7-3.7-4.3-.3 2.7 1.2 4.5 3.7 4.3zm1.1-.9c2.4-.5 3.3-2.6 2.2-5.3-2.2 1.4-3.8 3.5-2.2 5.3zm-14.6 76.8c.6-2.2-.6-3.5-3.5-4-.3 2.6 1.1 4.2 3.5 4zm1-.8c2.2-.5 3.1-2.4 2.1-5-2.1 1.3-3.6 3.3-2.1 5z"/><use xlink:href="#L" x="81.7" y="15.7"/><path d="M183.8 35.3l.1.1c2.6 2 5.7-2.1 3.2-4.1l-.1-.1c-2.6-2-5.7 2.1-3.2 4.1z"/><path fill-rule="evenodd" d="M237.4 35.3l-25 11.7c1.6-2.9 2.7-7.9 2.7-7.9-1.9 2.4-1.4 4.4-3.2 6.7-1.2-.7-.7-2.2-2.3-2.6.3.9.5 1.9 1.1 2.7s.4 1.9-.8 2.4c-.8.3-1.8.5-2.6.7-5.1 1.1-9.5 3.2-13.7 5.6l-6.5 3.6c-.2-.1-.2-.1-.3-.2.3-.5.5-1 .8-1.4l8.8-11.9c.9-1.2 2.3-2.1 3.3-3.2 1.4-1.6 3-2.3 5.5-2 1.7.2 3.4 0 5.1-.6-2.1-.3-4.3.6-6.5-.2 4.2-3 7.4-6.6 11-10 .1-.1-.1-.3-.2-.2-3 2.4-8 6.3-11.1 8.5.7-1.4 1.7-3.9 1.6-5.3 0 0-1.6 3.6-2.5 5.3-.7 1.3-1.9 1.8-3.5 2.6.2-1 .4-1.8.6-2.5-.1 0-.3-1.4-.7-1.4.2-2 .2-2.6.4-4.9-.5.4-1.7 5.3-1.9 7.5-.1 1.2-.1 2.3-1.1 3.4-3.1 3.4-6 6.9-9 10.4-3.2 3.7-5.7 7.6-7.2 12-.5 1.4-.9 2.9-1.7 4.2l-1.8 2.7c-.3.5-.6.9-.9 1.4-1.2 1.7-2.3 3.5-3.3 5.3-.6 1-1.1 2-1.6 3-.7 1.5-1.9 2.9-2.9 4.3h-.4c-.2-.3-.6-.7-.6-1v-.2c0-.7-.1-1.5-.1-2.2v-1.7c.1-.7.1-1.5.2-2.2s.1-1.5.2-2.2l.3-3.6c.1-1.6 0-3.1-.1-4.7-.2-2.3-.2-4.6 1.7-6.6.5-.6.7-1.3 1-2 .7-1.5 1-3.3 2.2-4.4 3.1-2.7 6.8-5 11.4-6.1 1.3-.3 1.7-.9 2-1.9l-4.7 1c0-1.3-.4-2.6-.1-3.7.6-2 1.6-3.9 2.4-5.8.4-.9.8-1.9 1.1-2.8.1-.3-.1-.7-.2-1-1.1 2-2.1 3.9-3.1 5.9-1 1.9-2 3.8-1.7 6 .2 1.3-.1 2.3-1.8 2.9-.6.2-1 .6-1.6.8-1.2.6-2.5 1.2-3.8 1.8v-.6c.4-2 .7-4.1 1.1-6.1.1-.4.3-.9.7-1.1.9-.6 1.9-1 2.9-1.5.5.3 1.1.7 1.7 1.1l.2-.2c-.1-.2-.1-.4-.3-.5-1.1-1-.9-2.1 0-3.1.1-.1.2-.3.3-.5l1.6-2.5-.3-.2c-.3.2-.7.3-.8.6-.7.8-1.2 1.7-1.9 2.6s-1.4 1.8-2.3 2.5c-.4.3-1.5.6-1.9.4-1.1-.6-2-1.4-2.9-2.2-.6-.4-.6-.8-.1-1.4 1.8-1.9 3.5-3.9 5.2-5.8l.8-1.1-.3-.1-6.5 6.9c-.2-.2-.2-.3-.1-.4 1-2.3 2-4.6 3.1-6.8 1.6-3 3.3-6 6.1-8.4 2.1-1.8 3.8-3.8 5.1-6 1.5-2.6 2.5-5.3 3.8-7.9.1-.2 0-.4 0-.5-.5.2-.9.4-1.1.7-.7 1.3-1.4 2.6-2 4-1 2.2-2.4 4.3-4.2 6.3l-3.2-5.4c-.2-.3-.6-.6-.9-.9l-.3.2c.2.5.4 1 .6 1.4.9 1.6 1.8 3.2 2.8 4.8.3.5.2.8-.3 1.1-2.1 1.4-3.8 3-5.1 4.9-.9 1.4-1.9 2.8-2.9 4.2-.1.2-.3.3-.4.5-.1 0-.2-.1-.3-.1.5-1.7 1-3.5 1.6-5.2l3.1-9.8c-.9-.3-1.1-.1-1.3.4l-2.1 6.3c-.4 1.2-.9 2.3-1.5 3.7-.6-.8-1.1-1.4-1.5-2.1l-5-7.2c-.3-.4-.7-.6-1.1-1l-.3.2c.1.2.3.5.4.7l5.5 8.6c.9 1.4 1.2 2.7.7 4.2-.3.9-.5 1.9-.4 2.9.2 1.3-.2 2.4-.9 3.6-.9-.9-1-2.1-2.5-2.9.2.5.3.8.5 1.1.4.6.8 1.3 1.2 1.9.8 1.3.1 2.1-1.6 2.1-1 0-2.1-.1-3.2-.1-.1-.2-.2-.4-.2-.6-1.1-4.4-2.5-8.8-3.4-13.3-.8-3.8-1.1-7.7-1.7-11.6-.2-1.5-.2-2.9.4-4.3.3-.7.4-1.5.5-2.3-1.5.5-1 1.7-1.7 2.5-.1-.3-.2-.6-.3-.8l-1.3-5.5c-.1-.5-.3-.9-1.1-.6v.4c.5 2.5 1.2 5 1.5 7.5.4 3 .4 6 .7 9l1 9.4c.6 4.5 1.4 9 2.9 13.3.7 2 1.5 3.9 1.8 5.9.5 3 1 6 1.1 9 .2 5.2.2 10.5.3 15.7v.5c-.3 1.4-.5 2.8-.8 4.3-.3-.1-.6-.2-.8-.3-.6-.3-.8-.7-.9-1.3 0-.4-.1-.8-.1-1.2-.1-.5-.2-1-.2-1.5v-.1c0-.2-.1-.4-.1-.7-.2-.9-.5-1.7-1-2.5-1.3-2-2.5-4.1-3.7-6.2-.2-.3-.1-.8.1-1.1.7-1 1.5-1.9 2.2-2.9.6-.8.6-1.4.3-1.8-1.2 1.5-2.5 3-3.9 4.7-1.7-1.6-3.2-2.9-4.5-4.3-1.4-1.5-2.6-3.2-3.9-4.8-.1-.1-.1-.3-.1-.5.4-1.4.8-2.9 1.1-4.3.4-1.6 1-3.2 1-4.8.1-1.9-.3-3.7-.6-5.6 0-.2-.2-.4-.3-.6l-.4.1c.1 1.6.4 3.1.4 4.6s-.2 3-.3 4.5c-.2 0-.1 0-.3.1l-2.2-3c.4 1.4 1.3 2.7 1.4 4 .1 1.4-.6 2.8-.9 4.1h-.4c-1.3-2-2.9-3.9-3.7-6.1-1.1-3.2-2.6-6.2-4.7-9-.3-.5-.6-1-.7-1.5-.1-1.4-.1-2.8.1-4.1.5-3.1.8-6.2.5-9.2l-.6-6.9c-.7.1-.7.2-.6 1.2.1 2.8.3 5.5.3 8.3 0 1.8-.4 3.6-.6 5.5h-.3l-.2-.8h-.2v12.7c-1.2-.7-1.8-1.6-2.3-2.7-1.3-2.6-.7-5.4-1.4-8-.1-.4-.1-.8-.1-1.3.2-2 .3-4 .5-6.1 0-.4-.1-.7-.1-1.1h-.3l-.6 5.4c-.7-.7-.3-1.6-1.5-2.3.1.6.1.9.2 1.3.3 1.1.6 2.2.8 3.3s.6 2.2.2 3.2c-.9 2.4-2.3 4.7-3.5 7.2l-.5-.5-4.9-6.4c-.4-.5-.7-.7-1.3-.2.2.3.3.5.5.8l4.8 6.6a19.98 19.98 0 0 1 3.8 10.3c-.4-.2-.8-.5-1.2-.7-2.3-1.6-4.8-3-7.5-4.3-3-1.5-5.5-3.6-7.1-6.1-2.1-3.3-3.8-6.8-5.7-10.2-.6-1-1.1-2-1.6-3.1l-.3.1c0 .3 0 .6.1.9.3.8.7 1.5 1.1 2.2l5.1 10.6c.1.2.2.4.4.6 2.1 2.6 4.4 5 7.6 6.9 2.1 1.2 4 2.5 6 3.7 1.5 1 3.1 1.9 4.6 2.9.8.5 1.4 1.2 2.1 1.8-.1.1-.1.2-.1.3-1.5.2-2.9.4-4.4.5s-3.1.1-4.6.1h-4.4v.2l6.2.3c-1 .8-1.8 1.4-2.6 2.1l.2.2c.8-.5 1.5-1 2.3-1.5.4-.3.9-.6 1.4-.6 2-.2 3.9-.4 5.9-.5.3 0 .8.1.9.3 1.1 1.4 2.2 2.9 3.2 4.3-2.5.8-5 1.3-7.9.7s-5.9-.7-8.8-1.1h-.2c-.2-.2-.4-.3-.6-.5h-.1c-.4-.4-.7-.9-1.1-1.4l-2.7-3.7c-.2-.3-.7-.5-1.1-.7l-.1.1c1.4 2 2.8 4.1 4.2 6.2-1.1.1-1.8.1-2.5.2-.3 0-.5.2-.7.3.3.1.5.3.8.3.9 0 1.8-.1 2.7-.1h1.6c3.2 2.9 6.3 5.9 10.2 8.4-2.2.9-4.4.1-6.5.5 1.7.6 3.4.7 5.1.4 2.5-.5 4.1.3 5.6 1.8 1.1 1.1 2.5 1.9 3.5 3.1 2.5 2.9 4.9 5.9 7.4 8.9.7.9 1.4 1.8 2.2 2.7.4.4.6.9.9 1.4-.2.1-.1.1-.3.2l-.6-.3-6.1-3c-4.4-2.3-8.9-4.2-14-5.1-.9-.2-1.9-.3-2.7-.6-1.2-.5-1.5-1.5-.9-2.4.5-.8.7-1.8.9-2.7-1.6.5-1 1.9-2.2 2.6-2-2.3-1.6-4.3-3.6-6.6 0 0 1.4 5 3.1 7.8L94.4 68.1c-.4.7 1.7 1.6 2.2 1.8l18.1 8.2c.3.1.6.3.9.7l-6.6-1c0 .1 0 .2-.1.3l2.6.6c2.6.6 5.3 1.1 7.9 1.8 1.6.4 1.7.5 1.8 1.9 0 .6.1 1.1.1 1.7-6.1-.1-12.3-.2-18.4.6 0 0 6.3.4 8.8.3 6.1-.1 12.2.3 18.1 1.5 1.3.3 2.6.7 3.8 1.3 2.5 1.1 4.9 2.3 7.4 3.4.8.3 1.8.3 2.6.6 1.5.4 3 .9 4.4 1.4.4.1.7.6.9.9l2.7 6c.2.4.5.8.9 1.4-.4-.1-.9-.3-1.3-.4-1.1-.3-2.1-.7-3.1-1-.9-.3-1.8-.7-2.4-1.2-.8-.7-1.3-1.5-1.9-2.3s-1.1-1.6-1.7-2.4c-.1.1 1.3 3.3 2.2 5-1.4-.4-2.7-.9-3.8-1.6-1.6-1.1-6.9-4.4-7.2-4.4.8.6 1.5 1.3 2.3 1.9.8.7 1.7 1.3 2.5 1.9 2.1 1.7 4.5 2.9 7.4 3.7 2.2.6 4.3 1.3 6.3 2.1.6.2 1.3.5 1.9.8.9.4 1.5 1.4 2 2.2l3.3 5.4c1.4 2.4 2.2 5 2.3 7.6.1 5.2-.7 10.3-1.5 15.4l-1.2 8.4c-.2 1.8-.5 3.5-.7 5.3 0 .2 0 .4-.1.6l-.1.1c-.1 0-.1.1-.2.1-.9.6-2.2.9-4.1 1.1-2.4.3-4.1 1.5-5.9 2.4-1.3.7-2.7 1.2-4.5 1.1-4.2-.2-7.3 1.6-7.3 1.6H195s-6.4-3.6-10-3h-.1-.1l.1.1h-.8c-.2 0-.3.1-.5.1-2.5.5-3.8.9-5.8 0-.1 0-.2-.1-.3-.1s-.2-.1-.2-.1c-1.1-.6-3.3-2.1-4.9-3.1h-.1l-.9-.6c-.2-.1-.3-.3-.5-.5l-.2-.2v.2-.2c0-.3-.1-.7-.1-1l-1.6-15.9c-.2-2.1-.4-4.1-.4-6.2V123c0-1.5.3-2.9.7-4.3 1-3.2 3.2-6.1 6.2-8.4.2-.1.3-.3.5-.4l6.8-5.2c.1-.1.2-.1.3-.2 1.2-.9 2.7-1.6 4.2-2.3 1.4-.7 2.8-1.5 4.1-2.3 3-1.9 5.7-4.2 8.1-6.7l9.7-9.9c1-1 2.3-1.4 3.7-1.8 2.5-.8 7.9-3 8.3-3.5-2.6.8-3.2.9-5.6 1.6-.1-.3-1.8 0-1.8-.1-.8.4-1.7.7-2.8 1.2.5-1.5.8-2.6 2.1-3.4l5.6-3.5c-1.7.3-4.4 1.8-5.8 2.7 1.8-3.1 5-8 7-11.1.1-.1-.2-.3-.3-.1-3.1 3.7-6.5 7.2-8.8 11.4-1.5-1.5-1.1-3.5-2.1-5.1-.3 1.4-.1 2.9.7 4.1 1.1 1.9.6 3.4-.8 4.9-1 1.1-1.7 2.4-2.9 3.5-3.8 3.5-7.7 6.8-11.5 10.2-.4.4-1 .7-1.4 1.1l-.4-.2c.3-.6.5-1.3.8-1.9.3-.7.5-1.3.8-2s.6-1.5.9-2.2c1.7-4 2.9-8.1 2.8-12.3 0-.8-.1-1.5.1-2.3.3-1.1 1.4-1.5 2.6-1.3 1.1.2 2.3.2 3.5.1-.9-1.1-2.5-.3-3.6-1.1 2.2-2.1 4.8-2.2 7-4.4 0 0-5.4 1.7-8.3 3.7.1-.2 3.5-8.8 2.9-11.8l-1.2 3.9c-.1.3-.2.6-.4.9l-1.9 3.1c-.1.3-.2.6-.6.8-.1-1.8-.8-4-.8-3.3-.1 2.2-.1 4.5-.3 6.7-.1 1.4-.2 1.5-1.9 1.9-.7.2-1.3.3-2 .5 0 0-.1.4-.3 1.1-.1.4-.2 1-.3 1.6-.2 1.1-.3 2.7-.4 4.6 0 1.1-.3 2.3-.6 3.3l-.6 1.8c-.6 1.6-1.2 3.2-1.7 4.9-.2.7 0 1.5-.1 2.2 0 .3-.1.6-.1.9-.2 1-.3 2-.6 3-.1.3-.5.7-.9.9-1.2.7-2.4 1.3-3.5 1.9-1 .5-2 1.1-3 1.6-.5.3-.9.6-1.4 1 0-.1 0-.2.1-.3.2-1.2.4-2.4.7-3.5.2-.8.4-1.6.9-2.2.6-.8 1.5-1.4 2.3-2s1.6-1.2 2.4-1.9c-.1-.1-2.2 1-3.9 2-.6.3-1.1.6-1.5.9.1-1.2.4-2.3 1.1-3.4.1-.1.1-.2.2-.3l2-3.6c.8-1.5 1.4-2.8 1.4-2.8-.6.8-1.2 1.5-1.8 2.3 0 .1-.1.1-.1.2-.5.7-1 1.5-1.6 2.3-.2.3-.5.6-.7.9-.8 1.3-1.4 2.6-1.8 4l-.3 1.8a20.21 20.21 0 0 1-.6 3.4l-.6 2.5c-.1.4-.3.9-.4 1.3-.3.8-1.3 1.5-2.2 2.1-1.4.9-2.7 1.9-4.1 2.8-.5.4-1.1.7-1.6 1.1 0-2 0-4.1-.1-6.1v-2.8c0-2.8-.1-5.6 1.1-8.4.3-.7.4-1.5.6-2.2 0-.1.1-.2.1-.3l.9-2.3c.3-.7.6-1.3.9-2 .5-1 1.3-1.9 1.8-2.9 1.1-2 2.1-4.1 3.2-6.1.3-.5.6-1.1.9-1.6.5-.8 1-1.9 1.9-2.3 1.6-.8 3.2-1.5 4.9-2.1 1-.4 2.1-.8 3.1-1.1 2.8-.9 5.2-2.2 7.1-4 .8-.7 1.6-1.3 2.4-2 .7-.7 1.4-1.3 2.2-2-.2 0-5.4 3.5-6.9 4.7-1 .8-2.3 1.4-3.7 1.8.8-1.7 2-5 1.9-5.1l-1.5 2.4c-.5.8-1 1.7-1.7 2.4-.6.6-1.5.9-2.4 1.3-1.4.6-2.8 1.1-4.3 1.6.3-.5.6-.9.8-1.4l2.4-6.1c.1-.4.4-.8.8-.9 1.4-.6 2.9-1.1 4.3-1.6.8-.3 1.8-.3 2.6-.7 2.3-1.1 4.5-2.4 6.8-3.5.2-.1.3-.2.5-.2.4-.2 1.5-.7 3.6-1.3 1.4-.4 12.3-2.1 18-2.3 2.4-.1 8.7-.7 8.7-.7-6.1-.5-12.3-.2-18.4.1v-1.7c0-1.4.1-1.5 1.7-2l7.8-2.1c.9-.2 1.7-.5 2.5-.8 0-.1-.1-.2-.1-.2-2.2.4-4.3.8-6.5 1.3.2-.3.5-.5.8-.7l17.6-8.9c.3-.9 2.4-1.8 1.9-2.5zm-111.7 4.5c.4-.8.8-1.6 1.3-2.4.4-.8.9-1.6 1.4-2.5.3 1.2.6 2.3 1 3.4.4 1.4 1.3 2.6 2.6 3.5.6.4 1.1 1 1.6 1.5l-.2.2-.9-.3-6.3-2.5c-.5-.2-.8-.4-.5-.9zm8.1 13.7c-3.5-.7-4.8-2.9-5.4-5.5-.4-2-1.2-4-2.3-5.8-.2-.3-.3-.7-.5-1.1.4.1.5.1.7.2 2.1.9 4.1 1.8 6.2 2.6.6.3.9.6 1.1 1.2.6 2.8 1.1 5.6.2 8.4zm-5.9 31c-1.1-.1-2.1-.2-3.2-.4-1.7-.2-2.3-.9-2.1-2.6 1.8 1 3.6 1.9 5.3 2.8v.2zm-.9-2.9c5 1.3 9.2 3.6 13.3 6.2-4.5-2.1-9.3-3.5-13.3-6.2zm26-19.2c1.1 2.2 2.4 5.1 3.3 7.4.1.4.2.7.3 1.1.1.5.1 1.1.1 1.6v.5c-.1 0-.2.1-.2.1l-.3-.3-.6-.6-1.3-1.3c-.8-.8-1.5-1.5-2.2-2.3-.4-.4-.7-1.1-.6-1.6.2-1.3.7-2.6 1.1-3.9 0-.1.3-.8.4-.7zm-12.8-15c2.5 3.7 5.2 7.3 7.9 10.8 1.1 1.3 2.6 2.4 3.8 3.6-.8 1.4-1.5 2.8-2.3 4.3-.5-.7-.8-1.5-1.5-2.1-1.6-1.3-3.3-2.5-4.9-3.8-1.8-1.4-3.9-2.7-5.4-4.3-.9-1-1.3-2.5-1.2-3.8.2-2.1-.5-4.1-.7-6.1 0-.2-.1-.5-.1-.9 2.1.3 3.4.9 4.4 2.3zm4.9 19.4c-3.9-2.5-7.1-5.4-10.1-8.6 4.3 2 7.3 5.2 10.1 8.6zM138.9 45c-.9-.2-1.8-.3-2.6-.5-.2 0-.5-.2-.6-.4-.8-2.6-1.1-5.3-1.2-8.1 2.3 2.8 3.8 5.8 4.4 9zM119 61.6c2.4.2 4.6.8 6.9 1.3.3.1.5.1.8.2 0 1.4 1.1 3.9 1.9 5.2l-9.6-6.7zm10.5 6.6c-.9-1.5-2.5-4.5-2.8-5.1 1.9.4 3.8.5 5.7.2.2 1.2.3 1.9.5 3.5-.4 0-.4 1.4-.6 1.4.2.8.5 1.5.8 2.5-1.6-.8-2.8-1.3-3.6-2.5zm25.9 30.2c-.9-1.2-1.4-2.7-2-4.1-.3-.8-.6-1.5-1-2.3-1.7-3.4-4.1-6.6-6.9-9.5l-9.6-10c-1-1-1.1-2.1-1.3-3.3-.2-1.5-1-4.4-1.7-6.1.3-.1.5-.1.8-.2 1.6-.4 2.9-.3 4 .9.2.3.6.5.9.7 2.2 2 4.5 3.8 7.3 5.2.7.3 1.4.7 2.1 1.1 2.3 1.4 4.1 3.2 5.6 5.3.6.7 1.3 1.5 2.2 2 0 0 .1 0 .1.1 1.8 1 3 2.4 4.1 3.8l.1.1c.2.2.2.5.2.8 0 1.9.1 3.9.1 5.8 0 .8-.1 1.6-.1 2.3v1.8c.2 3 .6 5.9.7 8.9 0 1.5.1 3 .1 4.5-1.8-2.6-3.8-5.2-5.7-7.8zm7.9-57.1c-.6-1.1-1.1-2.2-1.8-3.5l4.4.5c-.8 1.1-1.5 2.1-2.3 3h-.3zm2.3 9.7c-.2-1-.2-2.1-.5-3.1-.5-1.8.2-3.4 1.2-4.9.7-1.1 1.5-2.2 2.4-3.3.9.8 1.6 1.5 2.5 2.1s1.2 1.2.4 2c-.2.2-.4.6-.4.9-.6 2.2-1 4.3-1.8 6.5-.7 1.9-1.7 3.8-2.6 5.9-.5-2.2-.8-4.1-1.2-6.1zM194 74.8c.4-.2 1-.4 1.8-.5l-1.8 4.1c-.1.2-.2.5-.3.7v.1h-.2v-.1c-.1-.9-.2-1.7-.2-2.5-.2-.8 0-1.4.7-1.8zm-1.1 12.9l.9-2.9c.7-2.4 1.4-4.7 2.8-6.9-.3 3.1-1.3 5.9-2.6 8.7-.3.7-.7 1.4-1.1 2.1-.2.4-.5.8-.7 1.2.3-.7.5-1.5.7-2.2zm-.1-30.7c3.9-2.8 8-5.3 12.9-6.7-3.9 2.8-8.6 4.4-12.9 6.7zm15.3-4.4c-1 .2-2.1.3-3.1.5 0-.1-.1-.1-.1-.2l5.2-3c.2 1.7-.4 2.4-2 2.7z"/></g></g><g id="B"><path id="C" d="M95 104.9c2.4.3 4.6.8 6.4 1.6s3.4 1.9 4.6 3.2 2.1 2.9 2.6 4.8.6 4 .4 6.5c-.3 3.1-1.2 5.7-2.6 7.6a12.42 12.42 0 0 1-5.4 4.2l5.2 15.6c.1.3.1.5.1.7 0 .4-.2.7-.5.9s-.6.4-.9.3l-7.5-.8c-.7-.1-1.2-.3-1.5-.7s-.5-.8-.6-1.2l-4.6-14.1-5.1-.6-1.5 13.4c-.1.5-.2.8-.6 1.1-.3.3-.7.4-1.1.4l-7.2-.8c-.4 0-.7-.2-1-.6s-.4-.8-.3-1.2l4.5-40.4c.1-.5.2-.8.6-1.1.3-.3.7-.4 1.1-.4l14.9 1.6zm-8.3 18.2l6.2.7c1.5.2 2.9 0 3.9-.6 1.1-.6 1.7-1.7 1.9-3.5s-.2-3-1.1-3.8-2.2-1.3-3.7-1.4l-6.2-.7-1 9.3z" class="B"/><path d="M94.7 67.7v47" class="H I"/></g><path id="D" d="M41.1 167.4c-.4 0-.8-.2-1.1-.5s-.4-.7-.4-1.2V125c0-.5.1-.9.4-1.2s.6-.5 1.1-.5h17.8c2.5 0 4.6.4 6.3 1.2s3.1 1.8 4.1 3 1.7 2.6 2.2 4.2c.4 1.6.7 3.1.7 4.7 0 1.2-.1 2.3-.4 3.2-.2.9-.5 1.7-.9 2.3-.3.6-.7 1.2-1 1.6-.4.4-.6.7-.9.9 1.4 1.1 2.4 2.4 3 3.9s.9 3.3.9 5.4c0 1.7-.2 3.4-.7 5-.4 1.6-1.2 3.1-2.2 4.4s-2.3 2.3-4 3.1c-1.6.8-3.6 1.2-6 1.2H41.1h0zm20.7-30.7c0-1.1-.3-2-.9-2.6-.6-.7-1.4-1-2.5-1h-8.6v7.2h8.6c1.1 0 1.9-.3 2.5-1 .6-.6.9-1.5.9-2.6zm-12 21h9.1a3.69 3.69 0 0 0 2.7-1.1c.7-.7 1-1.6 1-2.7s-.3-2-1-2.7a3.69 3.69 0 0 0-2.7-1.1h-9.1v7.6z" class="B"/><path d="M134 123.4c.7 0 1.3.2 1.7.7s.7.9.8 1.4l12.1 39.6c.1.4.2.7.2.9 0 .4-.1.7-.4 1-.2.3-.5.4-.9.4h-7c-.7 0-1.3-.2-1.6-.5-.3-.4-.5-.7-.6-1l-1.6-5.2H122l-1.6 5.2c-.1.3-.3.7-.6 1-.3.4-.8.5-1.6.5h-7c-.3 0-.6-.1-.9-.4-.2-.3-.4-.6-.4-1 0-.2.1-.5.2-.9l12.1-39.6c.1-.5.4-.9.8-1.4s.9-.7 1.7-.7h9.3zm-9 27.5h9l-4.5-15.1-4.5 15.1zm51.1 16.5c-.6 0-1.1-.2-1.5-.6s-.6-.7-.7-.9l-12.7-21.5v21.3c0 .5-.1.9-.4 1.2s-.6.5-1.1.5h-7.3c-.4 0-.8-.2-1.1-.5s-.4-.7-.4-1.2V125c0-.5.1-.9.4-1.2s.6-.5 1.1-.5h5.8c.6 0 1.1.2 1.5.6s.6.7.7.9l12.7 21.5V125c0-.5.1-.9.4-1.2s.6-.5 1.1-.5h7.3c.4 0 .8.2 1.1.5s.4.7.4 1.2v40.7c0 .5-.1.9-.4 1.2s-.6.5-1.1.5h-5.8zm27.1-44c2.5 0 4.9.4 7 1.3s3.9 2.1 5.5 3.6c1.5 1.6 2.7 3.4 3.6 5.6s1.4 4.5 1.5 7.1l.1 2.4v2.1 2.1l-.1 2.3c-.1 2.6-.6 5-1.4 7.1s-2 4-3.5 5.5a14.69 14.69 0 0 1-5.3 3.6c-2.1.9-4.4 1.3-6.9 1.3h-15c-.4 0-.8-.2-1.1-.5s-.4-.7-.4-1.2V125c0-.5.1-.9.4-1.2s.6-.5 1.1-.5h14.5v.1zm7.2 17.3c-.2-4.8-2.7-7.2-7.5-7.2h-5.6v23.9h5.9c4.7 0 7.1-2.4 7.3-7.2 0-.9.1-1.7.1-2.5v-2.3-2.2c-.1-.8-.1-1.7-.2-2.5z" class="B"/><path opacity="0" d="M23.9 182.9c0 .6-5.3 1-11.9 1s-11.9-.5-11.9-1c0-.6 5.3-1.1 11.9-1.1s11.9.5 11.9 1.1z" class="E"/><g id="E"><path d="M14.3 118.4c.4.5.9 1 1.1 1.5.2.6.2 1.3-.1 1.8-.2.3-.5.5-.9.4-.1 0-.2-.1-.2-.1-.8-.5-1.4-1.4-1.5-2.3" class="G"/><path d="M5 178.4l-.7 1.9c-.2.4-1.3 0-1.4-.2-.1-.3.5-2.1.5-2.1" class="D"/><path d="M2.6 180.2c-.1.4-.4 1-.3 1.2s1.5.8 1.8 1c.2.1.8.3 1 .4 1 .2 1.7 0 1.8-.1.3-.6-1.6-1-2.4-2.8 0 0-.1 0-.3.1-.2.2-.6.3-.8.2s-.3-.3-.4-.5c0 0-.3.1-.4.5z" class="B"/><path d="M17.7 179.1s0 1.6-.1 2c0 .4-1.2.4-1.4.2-.1-.2-.2-2.1-.2-2.1" class="D"/><path d="M16 181.4c0 .4-.1 1.1 0 1.2.1.2 1.7.3 2.1.4.3.1.8.1 1.1.1 1-.1 1.6-.5 1.7-.7.1-.7-1.8-.5-3.2-1.9 0 0-.1 0-.2.2-.2.3-.4.5-.7.4-.2 0-.4-.2-.5-.3-.1.1-.3.2-.3.6z" class="B"/><g class="D"><path d="M29.6 114.3c0-.2-.2-.1-.3.1v.1-.6c0-.2-.2-.1-.3 0v-.2c0-.2-.3-.1-.3.1v.3-.2c0-.2-.2-.1-.3 0 0 0 0 .1-.1.3 0 .2-.1.4-.1.5 0 .2-.2.9-.6 1-.6.1-.2-.9-.6-1.1-.1-.1-.3.7-.3 1.2v.9c0 .3.2.6.2.8 0 .3-.3.8-.3.8l1.5.3s.3-.8.5-1c.4-.4.7-1 .9-1.6.1-.4.1-.8.2-1.2-.1.1-.1-.4-.1-.5z"/><path d="M15.8 126.6s4.7 0 7.2-2.9l4.1-6.2a14.16 14.16 0 0 0 1.3.5l-3.7 7.3c-1 1.4-3.1 3.6-7.4 4.7-2.1-2.3-1.5-3.4-1.5-3.4z"/></g><path d="M19.3 163.7c.3-3.5-.9-14.5-1.1-15.4-.1-.9-.8-1.1-1.3-1.2-2.5-.8-5.5 3.2-4.7 6.7v.2c.5 2 3.2 8.6 3 10.5-1.5 4 .2 12.2.7 15.7h.2c1.3 0 2-.2 2-.2l1.2-16.3z" class="B"/><path d="M16.1 164.4c.1-1.3-1.2-11.6-1.5-11.4-.1 0-.2.2-.2.3-.3.5-.5.9-.8 1.4-.2.5-.4 1-.6 1.6.9 2.8 2.4 6.8 2.3 8.3-.9 2.4-.6 6.2-.2 9.7-.2-4.8.9-8.9 1-9.9z" class="F"/><path d="M17.9 144.5s-1 .2-2.9.2c-2.4-.1-5.5-1.3-5.5-1.3-3.1 3.4-1.4 7.3-1.5 8.6s-.4 7.5-.6 10.9c-3.2 3.1-3.3 11.3-4.2 15.6v.1c1.3.5 2.1.6 2.1.6l.1-.3c.9-2.8 5.3-11 6.4-14.2 1-2.9 3.5-11.6 3.6-11.6l3.2.6c-.2-5.7-.7-9.2-.7-9.2z" class="B"/><path d="M15.9 123.5c0 .3 0 1.5-.6 1.7-.6.3-1 .4-1 .5 0 0 .1.2.1.4.1.4.4.6.4.6l.1 1.5-1.1 1.1-.4.4-.5-.5-1.8-1.6s.7-.9.2-1.9a17.34 17.34 0 0 1-1.5-1.9c-.4-.5-.7-1.1-.8-1.4-.2-1-.4-2.1.2-2.8.6-.6 5-2.7 5.7.7 0 0 .7.9 1 1.1.3.3.2.6 0 .8-.3.1 0 1 0 1.3z" class="D"/><g class="C"><path d="M18.7 148.2s-5 1.2-11.4.1c.3-2 .8-7.8.9-10.1v-.2c0-1.4.1-2.4.1-2.5.1-.1-.2-4.6.2-6.4.1-.3.2-.6.3-.7.7-.6 1.6-1.3 2.6-1.7 0 0 2.3 2.4 3.4-.3 1.3-.1 1.9.1 2.3 1.4 2 7.1 1.6 20.4 1.6 20.4z"/><path d="M15.8 126.4s2.1 0 4.3-.9c1.2 1.4 1.9 4 1.9 4s-2.9 1.8-5 2c-.5-3.1-1.2-5.1-1.2-5.1z"/></g><path d="M16.2 126.9s1.3 1.7 1.7 4.5c1.5-.3 3.8-1.5 4-1.8-.6.2-3.4 1.2-3.8.4-.6-1.7-1.9-3.1-1.9-3.1z" fill="#aad4eb"/><path d="M15.6 128.4l9.3 1-1.9 5.3-7.8-5.4c-.2-.1-.3-.3-.2-.5l.1-.2c.1-.1.3-.2.5-.2z" class="B"/><path d="M24.7 132.3c-.5 1.5-1.3 2.6-1.7 2.5s-.3-1.3.2-2.8 1.3-2.6 1.7-2.5c.5 0 .4 1.3-.2 2.8z" fill="#f4ca64"/><g class="D"><path d="M7.4 135.5s1 3.4 3.5 4.9c.7.5 1.7.2 2.2-.4 1.7-1.9 3.5-6.3 4-8-1-.5-1.3-.5-1.3-.5l-3.9 5.7-1.1-1.8"/><path d="M15.8 131.7s.5-.7.5-1.3-.2-1.5.3-2c.2-.2.9-.5 1.7-.3 1.2.2 1.5.5 1.4.8-.1.2-.9.3-1.1.8-.2.4-.1.7-.1 1.1-.1.7-1.1 1-1.3 1.3-.2.2-1.4-.4-1.4-.4z"/></g><path d="M8.5 146.3c.3-1 .6-7 .6-7.9.8-.1 2.3-.7 3.2-2.1-.3-.6-1.2-2.5-2.7-4.2l-.9-3.3s-.1.1-.3.2c-.4 1.8-.1 6.3-.2 6.4 0 0-.1 1.1-.1 2.5v.2c-.1 2.2-.6 8.1-.9 10.1 6.3 1.2 11.4-.1 11.4-.1s-10.4-.6-10.1-1.8z" fill="#eef3f6"/><path d="M9.4 127.9s-2.6 1.7-2.7 4.6c-.1 2.3 1.4 5.5 1.4 5.5s2.6.3 3.9-1.8a28.67 28.67 0 0 0-1.5-3.2" class="C"/><path d="M13.3 119.1c1-.3 2.3-.4 1.7-1.8-.3-.8-1.5-1.5-2.8-1.4-.8 0-1.6.9-2.1 1.9-2.2.9-2.4 2.6-2 4.4 0 0 1 3.3 3.5 3.4 0 0 0-.7-.3-1.5 0 0-1-.3-1.2-1-.3-.8.9-.3.9-.3s0-.7-.1-1.3c0-.2-.2-.4-.4-.6.2 0 .7-1.1 2.8-1.8z" class="G"/></g><path opacity="0" d="M99.7 185.8c0 .6-3.5 1-7.8 1s-7.8-.5-7.8-1c0-.6 3.5-1 7.8-1s7.8.4 7.8 1zm-8.5 4.8c0 1.5-17.3 2.7-38.7 2.7s-38.7-1.2-38.7-2.7 17.3-2.7 38.7-2.7 38.7 1.2 38.7 2.7z" class="E"/><path d="M34.9 185.7c-6.3-.4-12.8-.4-19.2-.1-.8 0-6.8.2-5.4 2.2.5.8 2.6.7 3.4.8 2.5.2 5 .1 7.5.1 6.4-.1 12.9.1 19.3-.2.2 0 .2-.3 0-.3-5.3-.1-10.7-.1-16 .1-3.9.1-8 .4-11.9-.1-.3 0-1.7-.1-1.9-.5-.5-1 1.3-1.2 1.9-1.3 2.1-.4 4.2-.4 6.3-.4l16-.1c.1-.1.1-.2 0-.2z" fill="#d3dde4"/><g fill="#beceda"><path d="M68.3 182.1l7.5.5 3.8.4c.5.1 1.6-.1 1.9.2l.6 1.6c-.6.1-1.3.2-1.9.2-4.9.4-9.9-.6-14.8.2-.2 0-.2.4.1.4 4.1-.2 8.2.1 12.3 0 1.1 0 5 .5 5.5-1.2.9-3-13.4-2.5-15.1-2.5 0 0 0 .2.1.2zm-40.2 4.7c-2.6 0-5.3.3-7.9.7-1.5.3-3.2.6-4.6 1.3-.7.4-1.7 1.1-1.4 2 .3.8 1.4 1.2 2.2 1.4 1.4.4 2.9.6 4.4.7 2.6.2 5.1.2 7.7.2 2.1 0 5.5.3 6.3-2.3.5-1.5-.2-3-.6-4.4-.3-.9-.5-1.8-.2-2.7.1-.5.5-1 1-1.1s.9.1 1.1.6c.1.2.3 0 .3-.2-.3-.7-1.3-.9-1.9-.5-1 .7-.9 2.3-.6 3.4.4 1.4 1.1 2.9.8 4.4-.2 1.3-1.2 2-2.4 2.3-1.5.4-3.2.2-4.8.2h-3.9c-1.6-.1-3.2-.1-4.8-.4-1.2-.2-2.6-.3-3.6-1-.9-.5-.8-1.3-.1-1.9 1.1-.9 2.7-1.3 4.1-1.6 2.9-.6 6-.9 9-1l-.1-.1zm68.9-3.4c.5 1.4 2.7.4 3.6 1.3 2.5 2.6-1.5 2.5-2.5 2.5h-2.7l-5.2.1-21.5.1c-.5 0-.5.8 0 .8l28.1-.2c1.4 0 6.1.4 6.1-2.1 0-2.6-4.6-1.2-5.6-2.5-.2-.2-.4-.2-.3 0z"/><path d="M95.9 183.7c.1 1.4 5.6 2.9 2.2 4-3.9 1.4-9 .7-13.1.7l-17.5.1c-.5 0-.5.8 0 .8l21-.1c2.5 0 5.1 0 7.6-.3 1-.1 2.4-.2 3.2-.9 2.5-2-2.7-3.2-3.2-4.3-.1-.1-.2-.1-.2 0z"/></g><path id="F" d="M83.5 182.9c-.7-1.4-.9-3.2-.3-4.7.4-.9.9-1.7 1.7-2.3.7-.5 1.4-.9 2.2-1.1 1.4-.4 2.9-.2 4.2.5 1 .6 1.8 1.6 2.3 2.7s.7 2.4 1.7 3c.3.2.8.3.9.6.2.4-.1.9-.3 1.2l-.6 1.3c-.1.3-.3.9-.7 1s-.8-.2-1.1-.3c-.9-.3-1.9.1-2.7.5-.9.4-1.9.6-3 .6-1.8-.1-3.4-1.3-4.3-3z" class="B"/><path d="M96 183.3l-4.3-2.2c-.4-.2-.8-.4-1.3-.9-.3-.3-1-1-.6-1.4.5-.5 1.1.3 1.1.8 0 .4-.3 1-.7 1.2-.6.4-1.5.3-2 0-.4-.3-.2-.9.3-.9s1.7 1 1.4 1.8a1.96 1.96 0 0 1-.9.9c-.7.3-1.6-.5-.6-.9.7-.2 1.6 0 2.2.3l5 2" stroke="#fff" stroke-width=".417" class="H"/><path d="M95.235 185.105l1.349-3.012-.274-.123-1.349 3.012.274.123z" class="B"/><path d="M96.2 185.7c0-.1-.1-.1-.2-.1s-.2 0-.2-.1-.2-.1-.2-.1c-.1 0-.2 0-.2-.1l-.1-.1v-.2l1.3-3 .1-.1h.1c.1 0 .2 0 .2.1s.1.1.2.1h.1c.1 0 .2 0 .2.1s.1.1.2.1.2 0 .2.1v.3l-1.3 2.9c0 .1-.1.1-.2.2 0 .1-.1.1-.2-.1z" class="C"/><g class="F"><path d="M95.6 185.3c-.1 0-.1 0 0 0l.6-1.5h.1v.1l-.7 1.4zm.9-2c-.1 0-.1 0 0 0l.3-.9h.1v.1l-.4.8zm-.1 1.2c-.1 0-.1 0 0 0l.9-2.1h.1v.1l-1 2zm-.5 1s0-.1 0 0l.2-.7h.1v.1l-.3.6h0z"/><path d="M97 183.9l.4-1.2h.1v.1l-.5 1.1h0zm-.5 1.2c0-.1 0-.1 0 0l.1-.5h.1v.1l-.2.4s.1-.1 0 0zm-.2-1.4c0-.1 0-.1 0 0v-.2h.1v.1l-.1.1c.1 0 .1-.1 0 0zm-12.8-.8c-.7-1.4-.9-3.2-.3-4.7.1-.2.2-.3.2-.5-.9 2.5.2 5.5 2.8 6.5 2.1.9 4.1.5 6-1.2.4-.4.8-.5 1.4-.4.5.1.9.5 1.4.6h.2c.1 0 .1-.1.2-.1.4-.4.7-1 .8-1.6 0 0 0 .1.1.1.2.4-.1.9-.3 1.2l-.6 1.3c-.1.3-.3.9-.7 1s-.8-.2-1.1-.3c-.9-.3-1.9.1-2.7.5-.9.4-1.9.6-3 .6-1.9-.1-3.5-1.3-4.4-3z"/></g><path d="M69.7 188.1H34.4c-.1 0-.2.1-.2.2v1.1c0 .1.1.2.2.2h38.9c.7 0 1.2-.4 1.2-1v-7.1c0-.5-.5-1-1.2-1H34.4c-.1 0-.2.1-.2.2v1.1c0 .1.1.2.2.2h35.3c.7 0 1.2.4 1.2 1v4.3c0 .4-.5.8-1.2.8z" class="B"/><path d="M35.7 181.8h33.7a3.12 3.12 0 0 1 3.1 3.1 3.12 3.12 0 0 1-3.1 3.1H35.7v-6.2z" class="C"/><path d="M72.5 186.2H55.9m16.6-1.3H45.2m27.3-1.1H38m30.6-1.2H41.2m8.7 3.6h-9.5" stroke-width=".5" class="H I"/><path d="M57.4 176.8c-2.2 0-3 1.1-3.2 1.6-.2-.5-1-1.6-3.2-1.6-3.3 0-16.6 1.5-16.6 1.5v.6H74v-.6s-13.3-1.5-16.6-1.5z" fill="#eedde1"/><g stroke-width=".5" class="H I"><path d="M73.9 178.6s-13.1-1.3-16.4-1.3c-2.2 0-3 .9-3.2 1.4-.2-.5-1-1.4-3.2-1.4-3.3 0-16.4 1.3-16.4 1.3m11.3 0l5.8-.1c1.5.1 2.4.4 2.4.4s-1-1-3.4-1c-1.4 0-16.3 1-16.3 1m11.1-.4l-7.3.3m24.2-.2l-5.8-.1c-1.5.1-2.4.4-2.4.4s1-1 3.4-1c1.4 0 16.3 1 16.3 1"/><path d="M62.8 178.5l7.3.3"/></g><path d="M74.1 180.4H34.6c-.4 0-.8-.3-.8-.8 0-.4.3-.8.8-.8h39.5c.4 0 .8.4.8.8s-.4.8-.8.8z" class="F"/><path d="M71.8 76.7c.5-1.1.1-2.5-.9-3.3-.9-.8-2.3-1-3.5-.7s-2.2 1.2-2.8 2.3c-.2-.6-.5-1.1-1-1.5-.7-.4-1.7-.2-2.3.3-.7.5-1.1 1.3-1.5 2-.8-.6-1.6-1.2-2.5-1.4-1.4-.3-2.8.5-4.1 1.2-2.4 1.2-4.5 1-8.8 1.5 8.7-.5 27.4-.4 27.4-.4z" class="E J"/><path d="M103.4 46.5c1-2.4.1-5.4-1.9-7.1s-4.9-2.2-7.4-1.5-4.6 2.6-6 4.8c-.4-1.2-1-2.4-2.1-3.1-1.5-.9-3.6-.4-5 .7s-2.3 2.7-3.2 4.3c-1.6-1.3-3.3-2.6-5.4-3-3-.5-5.9 1.1-8.7 2.5-5.1 2.5-9.6 2-18.7 3.2 18.5-1 58.4-.8 58.4-.8z" id="G" class="E J"/><path d="M246.6 49.7c2.1 0 4.1 1.8 4.4 3.9.7-.9 1.7-1.6 2.8-1.5 1.1 0 2.2.9 2.2 2 1.2-1.3 3.3-1.5 4.9-.8.7.3 1.3.9 1.8 1.4.4.5.8 1.1 1.4 1.4s4.7.6 6 .7l9.3.5 5.2.2c-7.6 0-46.2-.1-48.5-.1.2-1.3 1-2.4 2.1-2.9 1.2-.6 2.5-.4 3.7.1-.1-.4.4-4.9 4.7-4.9z" id="H" class="E J"/><path opacity="0" d="M219.7 166.5c0 2.2-40.8 4-91.2 4s-91.2-1.8-91.2-4 40.8-4 91.2-4 91.2 1.8 91.2 4zm-97.2 26.1c0 .8-5.4 1.5-12.2 1.5-6.7 0-12.2-.7-12.2-1.5s5.4-1.5 12.2-1.5 12.2.7 12.2 1.5z" class="E"/><g id="I"><g class="B"><path d="M105.2 189.1s0 1.2.1 1.7c.1.4 1.3.3 1.4.1s0-2.3 0-2.3"/><path d="M106.9 191c0 .4.1 1 0 1.2s-1.7.3-2.1.4c-.3.1-.9.1-1.1.1-1-.1-1.7-.5-1.7-.6-.1-.6 1.9-.5 3.2-1.8 0 0 .1 0 .2.2.2.3.4.4.7.4.2 0 .3-.1.5-.2 0-.2.3-.1.3.3z"/></g><path d="M115.7 154.4l1.6-1.2c1.2-1 2.3-2.1 2.4-2.9.3-1.8.1-7.1-.1-9.6v-.4c-.1-2.4-1.4-3.4-2-3.8l-1.1 10.3c-.1.5-.8 7.6-.8 7.6z" class="C"/><path d="M115.7 154.4l1.6-1.2c0-2 .6-4.7 1.4-8.1 1-4.3.4-5.1.4-5.1l-1.9.3-.7 6.6c-.1.4-.8 7.5-.8 7.5z" fill="#aad4eb"/><g class="B"><path d="M115.6 188.5l.2 1.9c.1.4 1.3.3 1.4.1s0-2 0-2"/><path d="M117.5 190.6c0 .4.2 1 .1 1.2s-1.7.4-2.1.5c-.3.1-.9.2-1.1.1-1 0-1.7-.4-1.7-.5-.2-.6 1.8-.6 3.1-2 0 0 .1 0 .3.2.2.3.5.4.8.3.2 0 .4-.2.5-.3-.1-.1.1.1.1.5zm-1.3-36.8h-5.8l.6 7.2.2 2.4s.5 9.8 1 11.3c.7 4.3 3.4 15 3.4 15 .7.2 1.5.2 2-.1-.5-5.7.5-12-1.7-16.1.4-2.6.9-4.9 1.4-10.9.1-1.2.5-1.4.7-3.9 0-2.5-1.8-4.9-1.8-4.9z"/></g><path d="M111.6 170.5l1.5-5.1c.7-1.8 1.4-2.7 1.4-2.7 2.7-3.3.3-7.1.3-7.1l-2.4 2.4c-.1.2-.9 2-1.6 2.9l.2 2.4c.1.1.3 3.5.6 7.2z" class="F"/><path d="M114.9 153.8l-7.5.3s-2 16.1-1.9 19.1c.2 5.6-.4 16.3-.4 16.3s.9.9 1.9.4c0 0 3.9-9.5 2.7-15.7.5-2.2 2.6-9.6 3.2-10.6 1-1.3 4.5-2.7 2-9.8z" class="B"/><path d="M114.5 135.2s-.4-1.4-.2-2.5c.2-1 .8-2.9.6-4.3s-2-2.6-3.9-2.4-2.4 2-2.7 3-.3 2.6-.2 3.5.5 1.5.9 1.7c.3.2 1.5-.1 1.7.2.2.2.4 1.6.4 1.6" class="D"/><path d="M115.4 136.3s-.1-.8-.4-1.1-2.4-.3-3-.2-2.2.8-2.4 1 .2.9.2.9l5.6-.6z" class="C"/><path d="M114.6 133.3c-.1.1-.1.1 0 0-.5.3-1.1.2-1.5-.1-.3.3-.8.5-1.2.4s-.8-.6-.6-1c-.3.1-.7-.1-.9-.3-.5-.5-.2-.9-.2-1.4 0-.4 0-1.1-.5-1.1-.2 0-.4.1-.5.2 0 .1-.1.1-.1.2-.1.1-.2 0-.3-.1s-.1-.2-.1-.3c0-.5.2-1 .5-1.3-.7-.4-1.1-1.1-1.2-1.9 0-.3 0-.7.1-1 .2-.4.7-.7 1.1-.8.6-.2 1.1-.3 1.7-.2.7.1.9.5 1.5.7.8-.3 2 0 2.2.9.4-.1.9 0 1.2.4.4.5.1 1 0 1.5-.2.8.1 1.4 0 2.1 0 .6-.5 1.2-.6 1.8-.3.6-.2 1.1-.6 1.3z" class="G"/><g class="C"><path d="M107.2 152.5c-.1.8-.8 2.8-.3 3 .2.1 1 0 2-.1l2.7-.2 5.3-.4c.2-.1.2-.4.1-.7-.1-.7-.2-1.5-.1-2.2l.4-2.2c.5-2.9 1.6-7.3 1.8-10 .3-4.2-4.2-3.8-4.2-3.8-5.7-.4-8.4 1.3-8.7 3.7 0 .2 0 .4-.1.6-.1 2.5.6 6.6 1 9.7.2.9.2 1.8.1 2.6z"/><path d="M107.2 152.5c-.1.8-.8 2.8-.3 3 .2.1 1 0 2-.1-.9.1-1-1.3-.8-1.8s.6-1.5.6-2.7-.5-4-.8-6.5c-.3-2.4 0-4.3 0-4.5-.1.3-.5.7-1.6.9 0 2.5.7 6.3 1 9.1l-.1 2.6z"/></g><path d="M92.7 151c-.1-.1 0-.2.1-.2h.1c-.2-.1-.4-.1-.5-.2s0-.2.1-.2c-.1 0-.2-.1-.2-.1-.2-.1 0-.2.1-.2 0 0 .1 0 .2.1h-.1c-.1-.1 0-.2.1-.2 0 0 .1 0 .3.1.1 0 .3.1.5.1.2.1.4.1.4.1.5-.2.8-.4.8-.4l-.5-.3s0-.4 1.4.1c.2.1.4.4.5.4h.5v1.2s-.7-.1-.9 0-1 .3-1.1.4c-.1 0-.3 0-.6-.1l-.4-.1-.4-.1c0-.2-.4-.4-.4-.4z" class="D"/><path d="M96.2 151.2l3.9.8c1.4.2 2.8.4 4.2.3.9 0 2.1-.3 2.3-.7.3-.4.8-2 .8-2 .4-.9 1.1-3.4 1.7-5.6v-.1l.7-2.5c.1-.3.1-.6 0-.9-.1-.2-.2-.5-.5-.6-.6-.4-.4-1-1-.6l-.4-.1c-.4-1-.1-2.3-.1-2.3s-1.7.8-2.4 4.3l-1.1 7v.1.2.1c-.5 0-1.1 0-1.7.2-2 .4-6.4.7-6.4.7l-.1 1.1.1.6z" class="C"/></g><path opacity="0" d="M271 179.1c0 2.8-11.7 5.1-26.1 5.1s-26.1-2.3-26.1-5.1 11.7-5.1 26.1-5.1c14.5 0 26.1 2.3 26.1 5.1z" class="E"/><g class="C"><path d="M240.2 180.2h-.2c-.3-.1-.5-.6-.4-1.1l6.7-34.4 6.7-34.2c.1-.4.4-.7.7-.5.3.1.5.6.4 1.1l-6.7 34.2-6.8 34.4c.1.2-.1.5-.4.5zm-13.8 0h-.2c-.3-.1-.5-.6-.4-1.1l6.7-34.4 6.7-34.2c.1-.4.4-.7.7-.5s.5.6.4 1.1l-6.7 34.2-6.8 34.4c.1.2-.1.5-.4.5z"/><use xlink:href="#M"/><path d="M246 148.5h-13.1c-.3 0-.6-.4-.6-.8 0-.5.2-.8.6-.8H246c.3 0 .6.4.6.8s-.3.8-.6.8z"/><use xlink:href="#M" x="-2.1" y="11.5"/><use xlink:href="#M" x="4.6" y="-22.8"/><use xlink:href="#M" x="6.5" y="-34.2"/><path d="M253.1 114.2H240c-.3 0-.6-.4-.6-.8 0-.5.2-.8.6-.8h13c.3 0 .6.4.6.8.1.5-.2.8-.5.8z"/><use xlink:href="#N"/><use xlink:href="#N" x="13.8"/><path d="M245.4 159.9h13.1c.3 0 .6-.4.7-.8.1-.5-.2-.8-.5-.8h-13.1c-.3 0-.6.4-.7.8 0 .4.2.8.5.8zm-1.1-11.4h13.1c.3 0 .6-.4.7-.8.1-.5-.2-.8-.5-.8h-13.1c-.3 0-.6.4-.7.8s.2.8.5.8zm2.2 22.9h13.1c.3 0 .6-.4.7-.8.1-.5-.2-.8-.5-.8h-13.1c-.3 0-.6.4-.7.8 0 .4.2.8.5.8zm-3.7-34.3h13.1c.3 0 .6-.4.7-.8.1-.5-.2-.8-.5-.8H243c-.3 0-.6.4-.7.8s.1.8.5.8zm-1-11.4h13.1c.3 0 .6-.4.7-.8.1-.5-.2-.8-.5-.8H242c-.3 0-.6.4-.7.8 0 .4.2.8.5.8zm-1.7-11.5h13.1c.3 0 .6-.4.7-.8.1-.5-.2-.8-.5-.8h-13.1c-.3 0-.6.4-.7.8 0 .5.2.8.5.8zm-2.7-3.2h18.5v-.4c0-1.5-1.2-2.8-2.8-2.8h-13c-1.5 0-2.8 1.2-2.8 2.8v.4h.1z"/></g><path opacity=".027" d="M245.8 89.4c-2.2.2-5 .5-5.7.1-1.2-.6-5.1-4-5.1-4l-.6-.4c-.1-.1-.2-.1-.3-.1s-.4 0-.6-.1a.76.76 0 0 1-.4-.2c.4.2 1.1 0 1.5.2s3.2 2.5 4.4 3.3c1.3.8 1.7 1.1 2.9 1.1 1.1 0 3.8-.5 3.8-.5l.1.6z" fill="#e6a994"/><path id="J" d="M248.4 89s-1.1.2-2.6.3c-2.2.2-5 .5-5.7.1-1.2-.6-5.1-4-5.1-4l-.6-.4c-.1-.1-.2-.1-.3-.1s-.4 0-.6-.1a.76.76 0 0 1-.4-.2h-.1c-.3-.2-.5-.4-.7-.5-.3-.2.1-.4.6-.1.5.2.2.2.5.2s0-.4-.3-.8c-.2-.3-.2-.3-.5-.6-.2-.3-.5-.6-.6-.8s-.1-.3 0-.3c.2.1.9.8 1.1.9s.5-.1 1 .2.7 1.2.9 1.4c.2.3 5.6 3.5 6.3 3.4.7 0 5.8-1.3 7.4-1.2.8.1-.3 2.6-.3 2.6z" class="D"/><path d="M235.6 123.9s-.2 1.1-.2 2c.1.6 0 .8 0 .8l-2.3-.1s1-.5.9-2.9c-.2-2.4 1.6.2 1.6.2z" class="D"/><use xlink:href="#O" class="B"/><path d="M242.8 125s-.2 1.1-.2 2c.1.6 0 .8 0 .8l-2.3-.1s1-.5.9-2.9c-.2-2.5 1.6.2 1.6.2z" class="D"/><use xlink:href="#O" x="7.1" y="1.1" class="B"/><use xlink:href="#P" fill="#007abb"/><use xlink:href="#P" class="B"/><path d="M246.2 102.2l2.5.4.2 1.4s-10.4 4.5-10.8 6.5c-.1.4-.2 1.3-.3 2.5l-.6-2.2c-.1-.3-.1-.6-.2-.9 0-.6.3-1.2.7-1.8 1.8-2.5 5.7-4.6 8.5-5.9z" class="F"/><path d="M243 110.7c-.4-2.9 8.1-1.2 9.8-3.7.6-.9.9-3.5 0-4.3-1.8-1.4-5.5-.9-5.5-.9s-8.7 5.2-8.7 7.4c0 2.4 1.2 16 1.2 16s3.9.5 4.2-.2c.5-3.8-1-14.3-1-14.3z" class="B"/><path d="M246.1 93.4c.4 4.9-1.8 5-1.9 9.1 0 0 5.3-.7 9.1.9 0 0-.3-2.4-1.1-4.6 0-.1-.1-.1-.1-.2-.2-.4-.3-.8-.5-1.2v-.1c0-.1 0-.1-.1-.2V97c-.2-.6-.1-1.5.2-2.3s.7-1.7 1.2-2.5c.3-.5.6-.9.8-1.4.8-1.2 1.5-2 1.5-2s.5-1.5-.5-2.9c-.1-.2-.2-.3-.4-.5-.4-.4-1.5-.9-2.4-1.2-.2-.1-.5-.1-.6-.2-.2 0-.3-.1-.4-.1h-1.3c-1 .2-1.3.4-2.8.9l-3.2 1.4s.4 2.7.1 3.5l2.2-.1c-.1.3.2 3.2.2 3.8z" class="C"/><path d="M251.4 97.2c-.6-1.6.9-4.3 2.1-6.2l-1.4-1.4s0 2.4-.4 3.3c-.3.9-1 2.8-.3 4.3zm-5-9.5s-.9 1.5-.7 2.2l-2.2.1s.1-.3.1-1c.4.1 1.7.4 2.8-1.3z" fill="#eef3f6"/><path d="M248.3 101.8l-8.8-.4c-.2 0-.4-.2-.4-.4l-1.2-6c-.1-.3.2-.6.5-.5l8.8.4c.2 0 .4.2.4.4l1.2 6a.47.47 0 0 1-.5.5z" class="F"/><path d="M248.3 101.6l-8.8-.4c-.1 0-.2-.1-.3-.2l-1.2-5.9c0-.2.1-.3.3-.3l8.6.3c.2 0 .4.1.4.3l1.2 5.9c.1.2-.1.3-.2.3z" class="B"/><g class="D"><path d="M249 98.6l.1.4h.2l.1.5s.1 0 .4-.1c.5-.1 1.3-.2 2.4-.5l2.4-.6c1.2-.3 2-.9 2-1.1 0-.3 0-.8-.1-1.4 0-.3-.1-.7-.2-1.1l-.6-3.3v-.1-.1l-.3.1-1.9.7.1.4 1.2 3.4c0 .1 0 .2-.1.2-.9.3-2.1.9-3 1.4l-2 1h-.1c-.1.1-.2.1-.3.1-.2.1-.3.1-.3.1z"/><path d="M249.8 99.4c.5-.1 1.3-.2 2.4-.5l2.4-.6c1.2-.3 2-.9 2-1.1 0-.3 0-.8-.1-1.4-.2-1.5-.7-3.7-.8-4.3v-.1l-.5.2s0 .1.1.2c.2.7.6 2.8.8 4.1.1.4.1.7.1.9 0 .6-.4.7-.8.9-.2.1-1.9.6-3.3 1.1-1.1.2-2.1.5-2.3.6zm-.2-.9s-.2.1-.3 0h-.2s-.5-.3-1-.4l.1.4s-.6.3-.8.5c0 0-.2.1-.3.1h-.9c-.1 0-.3.1-.3.2 0 0 0 .1.1.1h.1-.2c-.2 0-.3.1-.3.2 0 0 0 .1.1.1h.3c-.1 0-.2.1-.2.2 0 0 0 .1.1.1h.3l-.1.1s0 .1.1.1 1.3.2 1.4.2c.2 0 1.1-.7 1.2-.7l.4-.2.4-1z"/></g><path d="M251.9 89.5l.8 2.9v.2s.3 0 .8-.1a4.72 4.72 0 0 0 1.7-.7l.1-.1.3-.3c.2-.2.4-.3.5-.6 0 0-.5-3.3-1.6-4.8-.2-.3-.4-.5-.7-.6h-.1c-.6-.2-1.1 0-1.4.5-.3.4-.5 1-.6 1.7 0 .6 0 1.3.2 1.9z" class="C"/><path d="M249.8 80.4l-.7-1.9c-.1-.3-.2-.6-.5-.7-.1-.1-.3-.1-.5-.1-.6.1-.9.8-1.1 1.4-.3 1-.4 2-.8 2.9l-.3.6c-.2.7.4 1.9 1.2 1.7.1 0 .3-.1.4-.1.5-.2.9 0 1.4.1a2.2 2.2 0 0 0 1.4-.2c.5-.3.8-.8 1-1.3" class="G"/><path d="M248.2 83.4c.4.2.8.3 1.3.3v.6c-.1 0-.2 0-.2.1-.2.1-.1.4-.1.5.1.6.6.8 1.1.6.5-.1.7-.7.9-1.2.1-.2 0-.8 0-.9.2-.1.9-.3.9-.3s1.1-.9 1.1-1.7c0-.2-.4-.8-.4-1 0-1.1-.8-1.8-1.2-2.4-.5-.8-1.8-.7-2.7-.5-.5.1-1 .3-1 .3s-1.3 4.7.3 5.6z" class="D"/><path d="M246.9 76.2c.1-.1.1-.2.2-.4.1.2.4.3.6.3 1 0 2.1-.5 3.1-.1.3.1.6.3.7.6.8-.2 1.6 0 2.2.6 1.2 1.3.1 3.2.7 4.6.2.5.6.9.7 1.4s0 1-.3 1.4-.9.6-1.4.8c-.2.1-.4.2-.6.2-.5.1-1 .1-1.4-.1a1.21 1.21 0 0 1-.7-.7c-.1-.3 0-.7.2-1 .2-.6.6-.9 1-1.4.3-.5.7-.7.6-1.4 0-.1 0-.2-.1-.3s-.3-.1-.4 0a.76.76 0 0 0-.2.4c-.1-.4-.4-.8-.8-1.1-.3-.2-.6-.3-.8-.6-.1-.2-.5-.7-.4-1-.5.3-1.4.2-1.8 0-.6-.1-1.1-.6-1.2-1.1-.3-.2-.1-.7.1-1.1z" class="G"/><defs ><path id="L" d="M131.1 12.1a3.33 3.33 0 0 0 3.3 3.3 3.33 3.33 0 0 0 3.3-3.3 3.33 3.33 0 0 0-3.3-3.3 3.33 3.33 0 0 0-3.3 3.3zm4.8 0a1.58 1.58 0 1 1-3.2 0 1.58 1.58 0 1 1 3.2 0z"/><path id="M" d="M243.9 159.9h-13.1c-.3 0-.6-.4-.6-.8 0-.5.2-.8.6-.8h13.1c.3 0 .6.4.6.8s-.3.8-.6.8z"/><path id="N" d="M247.4 180.2h.2c.3-.1.6-.6.5-1.1l-3.8-34.4-3.8-34.2c-.1-.4-.4-.7-.7-.5-.3.1-.6.6-.5 1.1l3.8 34.2 3.8 34.4c0 .2.2.5.5.5z"/><path id="O" d="M235.5 126.1s-1 .4-2 .1c-1.2.6-2 .8-3.1 1s-.9 1 1 .9c1.8-.2 3.1-.1 3.5-.1s1.1.1 1.1-.2-.2-1.8-.5-1.7z"/><path id="P" d="M244.9 102.2s-10.6 3.4-11.1 7.6c-.2 2-2 13.9-2 13.9s4.1 1.4 5 .6l1.3-13.8c.4-2 10.8-6.5 10.8-6.5l-.4-2.7-3.6.9z"/></defs></svg>