<svg xmlns="http://www.w3.org/2000/svg" width="1172" height="225" xmlns:v="https://vecta.io/nano"><defs><clipPath id="A"><rect width="1172" height="225" rx="46" x="374" y="5945"/></clipPath></defs><g transform="translate(-374 -5945)" clip-path="url(#A)"><g opacity=".06" fill="#fdd301"><path d="M673.754 5994.397l-54.763-3.351c-40.24-3.356-64.833 5.589-64.833 5.589s-1.219 2.037-3.5 5.156c-5.235 7.183-16.117 20.086-30.778 26.952-1.388.649-2.8 1.251-4.254 1.778a46.56 46.56 0 0 1-5.024 1.541c-.8.2-1.583.375-2.412.528a42.07 42.07 0 0 1-8.972.744 43.17 43.17 0 0 1-12.106-2.037c-23.025-7.225-67.139 3.108-68.157 3.341 12.3-7.847 33.126-37.95 33.126-37.95a111.2 111.2 0 0 1 20.486-23.506c35.76-31.3 79.356 0 79.356 0-20.527 3.633-40.332 10.556-58.653 20.5a.73.73 0 0 0-.111.053c-3.013 1.673-4.718 2.771-4.9 2.892 1.826-.755 3.694-1.472 5.52-2.158l.4-.148c80.588-29.72 179.575.076 179.575.076zM315.32 5927s9.927 6.6 16.545 45.232 19.859 46.335 19.859 46.335 12.138 13.236 47.433 19.859c0 0-21.511-14.893-31.437-39.163s-16.55-28.683-16.55-28.683 4.412-1.092 27.58 33.089c7.663 11.309 14.84 16.83 21.014 19.146 0 0 13.193-48.932-34.25-68.791 0 0-34.2-15.442-45.232-24.276zm-129.074 77.224s25.374 25.368 99.289 13.236 84.966 30.888 84.966 30.888-18.228-22.614-65.635-7.172c-22.429 7.3-39.427 5.974-51.122 2.544 0 0 5.89 11.8 53.3 4.074s58.468 9.932 58.468 9.932-87.149 100.386-173.196-39.722zm198.018 200.219c-5.515 27.58 22.065 37.512 22.065 37.512-43.021-9.932-28.6-55.006-28.6-55.006a41.99 41.99 0 0 0-10.025 27.439c0 22.54 17.283 40.815 38.609 40.815 13.642 0 25.638-7.483 32.5-18.777 0 0-20.371 3.335-24.8-13.193s-29.749-18.79-29.749-18.79zm-78.507-67.704a65.51 65.51 0 0 1-6.433 3.736"/><path d="M311.458 6101.85s20.962-7.721 24.8-14.893a81.01 81.01 0 0 1-30.889 12.138c-18.751 3.314-22.065 19.854-22.065 19.854s-2.528 13.331 4.433 25.062h0l.053.063a30.78 30.78 0 0 0 9.636 10.027c.079.053.153.111.232.158h0a8.71 8.71 0 0 0 1.715.918c-.032-.179-.058-.364-.074-.528-1.583-13.637 6.449-17.88 6.449-17.88 9.193-5.969 23.991-18.471 14.523-32.683 0 0-19.854 1.1-25.374 23.168.01-.031-5.505-15.478 16.561-25.404zm52.398 111.981s0 66.189 19.859 82.739c0 0-11.61-23.716-10.481-40.266 0 0 25.374 9.927 36.414 39.712s36.414 25.374 36.414 25.374-45.227 34.2-78.322-14.339c-15.653-22.957-12.555-57.523-4.934-87.557zm-18.022 9.13s6.227 30.361-.749 39.7c0 0 2.75-11.9.718-19.394 0 0-9.974 6.792-11.916 21.426s-13.262 14.851-13.262 14.851 22.661 11.695 32.324-13.468c4.565-11.906 0-27.485-6.116-40.594zm118.451 70.03s-5.668-.818-14.349-14.613-16.08-14.46-16.08-14.46-7.663-3-25.395.649c0 0 12.36 1.984 20.582 9.642s11.98 8.18 11.98 8.18-1.937 1.2-17.853-7.969c-5.277-3.034-9.462-3.911-12.734-3.726 0 0 .744 21.278 26.144 20.629 0 0 18.471-.032 24.978 1.451zM339.029 6129.43c-5.188 32.013-1.858 58.9 5.89 81.145l1.43 2.966.09.786a3.9 3.9 0 0 1 .026-.554l.285.6-.111-3.81c1.583-22.318 10.027-45.982 11.447-49.9a5.11 5.11 0 0 0 .132-.29c.003-.016.003-.031 0-.047l.09-.238-.127-.058c-2.285-17.363-.9-53.882 6.428-66.4-3.636 17.985-1.842 42.156-.459 55.149a159.86 159.86 0 0 1 22.73-31.137c4.75-13.32 15.832-37.934 25.479-44-5.214 7.647-12.238 23.315-16.84 35.6 14.318-12.412 31.253-21.532 50.932-25.194-27.833 11.162-49.148 27.917-64.88 49.84 12.56-4.6 29.073-5.478 40.71-1.34-14.3-.85-36.361 5.568-47.217 11.246a173.04 173.04 0 0 0-16.244 36.345c-.528 1.5-1.024 2.976-1.467 4.449l.528-.211 3.093-1.3a141.11 141.11 0 0 0 5.066-1.2 206.33 206.33 0 0 0 22.4-7.088 199.01 199.01 0 0 0 22.934-10.34c22.545-12 46.32-30.762 57.84-59.291 24.06-59.634 39.2-59.729 40.683-59.592-4.868-1.208-151.334-36.545-170.868 83.864z"/></g></g></svg>