<svg xmlns="http://www.w3.org/2000/svg" width="1920" height="403" xmlns:v="https://vecta.io/nano"><defs><clipPath id="A"><path transform="translate(0 4508)" fill="#fdd301" d="M0 0h1920v374H0z"/></clipPath></defs><path d="M0 29h1920v374H0z" fill="#fdd301"/><g clip-path="url(#A)" transform="translate(0 -4508)" fill="#131313"><path d="M1804.779 4902.251c1.391.227 13.748 1.034 36.64-38.337 4-6.878 8.324-14.984 12.963-24.53 14.941-30.711 42.673-49.67 68.568-61.211a220.52 220.52 0 0 1 26.181-9.689c8.33-2.523 16.796-4.569 25.358-6.13l1.634-.29 4.067-.647 3.525-1.206.576-.2-.37.979c-.492 1.261-1.017 2.546-1.592 3.836a191.84 191.84 0 0 1-20.757 38.976c-12.458 5.462-37.375 10.874-53.14 8.845 12.568 5.462 30.917 5.756 45.174 1.63-19.093 23.064-43.972 39.984-75.632 50.216 22.1-2.546 41.518-11.345 58.325-24-6.051 13.257-15.026 30.072-21.379 38.14 11.126-5.983 25.286-32.4 31.572-46.779 10.47-9.76 19.719-20.752 27.547-32.736.538 14.488.681 41.388-4.723 61.027 9.068-13.3 13.391-53.636 12.185-73.032l-.139-.071.118-.26v-.05c.059-.105.113-.21.168-.315 3.855-8.733 7.211-17.677 10.051-26.791l.769-2.521c2.512-8.203 4.407-16.582 5.668-25.068l.168-4.231.273.689.071-.618.038.887 1.357 3.387c6.874 25.211 8.509 55.249.319 90.3-30.822 131.835-190.285 81.514-195.583 79.8z"/><path d="M1738.782 4727.502c.382 1.076 4.651 10.2 41.686 11.084 6.471.151 13.942.055 22.564-.378 27.732-1.395 52.132 10.958 70.51 24.871a179.83 179.83 0 0 1 17.169 14.866 185.8 185.8 0 0 1 14.328 15.669l.84 1.05 2.055 2.647 2.244 2.038.366.336-.84.114c-1.1.151-2.214.277-3.361.374a156.42 156.42 0 0 1-35.934.492c-8.773-6.723-22.4-22.375-27.131-34.409 1.025 11.105 8.013 24.291 16.543 32.837-23.921-4.567-45.737-15.668-65.443-34.232 10.479 14.753 24.37 25.144 39.968 32.165-11.807.891-27.312 1.084-35.551-.281 8.626 5.584 33 5.328 45.716 4.168a144.41 144.41 0 0 0 34.131 6.8c-10.118 6.063-29.236 16.711-45.346 20.555 13.026 1.261 43.476-11.479 56.829-19.937v-.129h.555c7.736-.683 15.426-1.805 23.034-3.361l2.1-.42a140.4 140.4 0 0 0 20.089-5.782l3.08-1.542-.382.466.466-.189-.618.37-1.9 2.282c-15.286 14.786-36.039 27.732-64.229 35.619-106.041 29.68-132.685-103.689-133.538-108.143z"/><path d="M1679.99 4839.198c.634.525 6.643 4.6 29.892-8.517 4.063-2.294 8.651-5.109 13.828-8.559 16.652-11.1 36.308-12.454 52.817-10.622a129.53 129.53 0 0 1 16.11 2.866c4.959 1.195 9.847 2.671 14.639 4.42l.912.336 2.248.882 2.139.42.353.071-.479.387c-.626.5-1.261.987-1.941 1.466a112.31 112.31 0 0 1-22.059 13.559c-7.916-.933-22.118-5.58-29.488-11.282 4.735 6.492 13.925 12.076 22.354 14.219-16.488 6-34.085 7.177-53.132 2.941 11.513 4.983 24.158 6.766 36.6 5.16-6.979 4.908-16.5 10.748-22.106 12.942 7.4.273 22.387-8.874 29.833-14.286a103.86 103.86 0 0 0 23.639-8.383c-4.03 7.484-11.933 21.127-20.488 29.45 8.53-4.034 22.69-23.144 27.82-33.3l-.046-.076.134-.1v-.029c.063-.034.118-.071.181-.109a148.39 148.39 0 0 0 13.026-10.563l1.13-1.042c3.703-3.401 7.146-7.076 10.3-10.992q.672-1.03 1.34-2.1l-.067.42.219-.29-.244.458-.319 2.1c-4 14.794-12.076 30.455-26.61 45.745-54.668 57.57-120.367-15.163-122.535-17.592zm141.723-246.41c-.092 1.319.235 12.979 39.169 30.988 6.8 3.135 14.786 6.5 24.148 10 30.106 11.307 50.325 35.673 63.447 58.926 4.287 7.655 8.085 15.573 11.374 23.707a215.15 215.15 0 0 1 7.983 23.236l.42 1.508c.42 1.529.731 2.8.962 3.756l1.445 3.2.235.525-.95-.265c-1.261-.349-2.479-.727-3.74-1.151a181.1 181.1 0 0 1-38.4-16.042c-6.227-11.2-13.5-34.1-12.975-49.056-4.025 12.265-2.681 29.5 2.441 42.505-23.307-15.879-41.363-37.724-53.741-66.527 4.332 20.5 14.286 37.938 27.627 52.586-12.95-4.492-29.509-11.437-37.631-16.685 6.588 9.908 32.593 20.87 46.64 25.5a167.17 167.17 0 0 0 33.123 22.959c-13.542 1.773-38.757 4.273-57.649.929 13.273 7.336 51.476 7.849 69.561 5.017l.055-.134.252.088h.05l.307.134a238.74 238.74 0 0 0 26.009 7.072l2.42.5c7.917 1.633 15.946 2.673 24.018 3.109l3.979-.214-.618.311h.58l-.84.113-3.051 1.567c-23.055 8.664-51.065 12.836-84.654 8.236-126.323-17.314-93.123-171.268-91.996-176.398z"/><path d="M1935.733 4508c-.727.592-6.568 6.4 2.987 35.148 1.681 5.021 3.807 10.744 6.526 17.261 8.74 20.967 5.975 43.152.344 61.145a146.28 146.28 0 0 1-6.7 17.32 152.08 152.08 0 0 1-8.1 15.349l-.576.941-1.471 2.315-.945 2.29-.16.374-.323-.618c-.42-.807-.84-1.626-1.214-2.479a127.9 127.9 0 0 1-10.31-27.521c2.761-8.614 11.03-23.425 18.984-30.392-8.261 3.861-16.479 12.883-20.7 21.807-3.092-19.673-.58-39.531 8.261-59.825-8.458 12.139-12.605 25.7-13.711 39.648-3.95-8.824-8.383-20.723-9.605-27.442-1.916 8.181 5.017 26.892 9.425 36.337a118.16 118.16 0 0 0 4.2 28.152c-7.462-6.109-20.937-17.883-28.349-29.219 2.639 10.378 20.849 30.291 31.051 38.236l.093-.038.08.176.025.021c.029.071.055.147.084.218a167.28 167.28 0 0 0 8.933 16.807l.916 1.487a114.29 114.29 0 0 0 10 13.866q1 .975 2.034 1.945l-.462-.164.277.307-.458-.37-2.286-.819c-15.606-7.672-31.3-20.076-45.169-39.589-52.163-73.429 43.134-130.787 46.319-132.674zM97.991 4873.867c-1.044.17-10.319.776-27.5-28.774-3-5.163-6.247-11.246-9.729-18.411-11.214-23.047-32.029-37.279-51.465-45.94-6.39-2.837-12.954-5.266-19.651-7.272a172.15 172.15 0 0 0-19.032-4.6l-1.227-.218-3.053-.486-2.646-.905-.432-.148.277.735c.369.946.763 1.911 1.2 2.879a143.99 143.99 0 0 0 15.579 29.253c9.351 4.1 28.052 8.162 39.884 6.638-9.433 4.1-23.2 4.32-33.905 1.224 14.33 17.31 33 30.01 56.766 37.689-16.585-1.911-31.161-8.515-43.776-18.011 4.541 9.95 11.278 22.571 16.046 28.626-8.351-4.491-18.979-24.315-23.7-35.11a133.12 133.12 0 0 1-20.675-24.57c-.4 10.874-.511 31.064 3.545 45.8-6.806-9.984-10.051-40.257-9.146-54.814l.1-.054-.088-.2v-.038c-.044-.079-.085-.158-.126-.237a189.12 189.12 0 0 1-7.544-20.108l-.577-1.892a128.9 128.9 0 0 1-4.254-18.815l-.126-3.176-.2.517-.054-.464-.028.665-1.019 2.542c-5.159 18.922-6.386 41.468-.24 67.772 23.134 98.958 142.819 61.189 146.796 59.903z"/><path d="M147.525 4742.709c-.287.807-3.491 7.657-31.288 8.319-4.857.114-10.464.041-16.935-.284-20.814-1.047-39.128 8.225-52.922 18.667-4.526 3.444-8.83 7.171-12.886 11.158a139.44 139.44 0 0 0-10.754 11.76l-.631.788-1.542 1.987-1.685 1.53-.274.252.631.085a49.24 49.24 0 0 0 2.523.281 117.4 117.4 0 0 0 26.97.369c6.585-5.046 16.812-16.793 20.363-25.825-.769 8.335-6.014 18.231-12.416 24.646 17.954-3.428 34.328-11.76 49.118-25.693-7.645 10.6-18.01 18.94-30 24.141 8.862.669 20.5.814 26.683-.211-6.474 4.191-24.766 4-34.312 3.128-8.302 2.726-16.904 4.439-25.617 5.1 7.594 4.551 21.943 12.542 34.034 15.428-9.776.946-32.631-8.616-42.653-14.964v-.095h-.416c-5.806-.512-11.578-1.355-17.288-2.523l-1.577-.315a105.38 105.38 0 0 1-15.078-4.339l-2.312-1.157.287.35-.35-.142.464.278 1.422 1.712c11.473 11.1 27.049 20.814 48.207 26.734 79.596 22.278 99.591-77.822 100.234-81.165z"/><path d="M191.651 4826.543c-.476.394-4.986 3.45-22.435-6.393-3.05-1.722-6.493-3.835-10.379-6.424-12.5-8.329-27.251-9.348-39.642-7.973a97.14 97.14 0 0 0-12.091 2.151c-3.722.897-7.39 2.005-10.987 3.318l-.684.252-1.687.662-1.605.315-.265.054.359.29c.47.372.946.741 1.457 1.1a84.3 84.3 0 0 0 16.557 10.177c5.942-.7 16.6-4.188 22.132-8.468-3.554 4.872-10.451 9.064-16.778 10.672 12.375 4.5 25.583 5.387 39.878 2.208a52.3 52.3 0 0 1-27.472 3.873c5.238 3.683 12.388 8.067 16.591 9.713-5.55.2-16.8-6.661-22.391-10.723a77.97 77.97 0 0 1-17.743-6.292c3.024 5.617 8.956 15.857 15.377 22.1-6.4-3.027-17.03-17.37-20.88-25l.035-.057-.1-.073v-.022c-.047-.025-.088-.054-.136-.082-3.405-2.456-6.669-5.103-9.776-7.928l-.848-.782a75.57 75.57 0 0 1-7.73-8.25q-.5-.773-1.006-1.577l.05.315-.164-.218.183.344.24 1.577c3.005 11.1 9.064 22.858 19.972 34.334 41.03 43.22 90.341-11.371 91.968-13.193zM85.282 4641.599c.069.99-.177 9.742-29.4 23.258-5.106 2.353-11.1 4.876-18.124 7.506-22.6 8.486-37.771 26.775-47.62 44.227-3.217 5.745-6.069 11.688-8.537 17.793a161.47 161.47 0 0 0-5.992 17.44l-.315 1.132c-.315 1.148-.549 2.1-.722 2.819l-1.085 2.4-.177.394.713-.2a53.73 53.73 0 0 0 2.807-.864 135.92 135.92 0 0 0 28.818-12.041c4.674-8.408 10.13-25.592 9.739-36.819 3.021 9.206 2.012 22.139-1.832 31.9 17.493-11.918 31.045-28.314 40.335-49.932-3.251 15.384-10.722 28.474-20.735 39.468 9.72-3.371 22.148-8.584 28.244-12.523-4.945 7.436-24.463 15.664-35.006 19.14a125.47 125.47 0 0 1-24.86 17.232c10.164 1.331 29.089 3.207 43.268.7-9.962 5.506-38.636 5.891-52.209 3.765l-.041-.1-.189.066h-.038l-.23.1c-6.402 2.136-12.919 3.908-19.521 5.308l-1.817.372a121.76 121.76 0 0 1-18.026 2.334l-2.986-.161.464.233h-.435l.631.085 2.29 1.176c17.3 6.5 38.327 9.634 63.537 6.181C111.044 4761 86.13 4645.45 85.282 4641.599z"/><path d="M-.297 4577.961c.546.445 4.929 4.8-2.242 26.38-1.262 3.769-2.857 8.064-4.9 12.955-6.56 15.737-4.484 32.388-.258 45.892a109.83 109.83 0 0 0 5.027 13 114.13 114.13 0 0 0 6.08 11.52l.432.706 1.1 1.738.71 1.719.12.281.243-.464c.315-.606.631-1.22.911-1.861a96 96 0 0 0 7.736-20.657c-2.072-6.465-8.278-17.582-14.248-22.811 6.2 2.9 12.369 9.669 15.538 16.368 2.321-14.765.435-29.67-6.2-44.9a59.44 59.44 0 0 1 10.29 29.758c2.964-6.623 6.292-15.554 7.209-20.6 1.438 6.14-3.766 20.183-7.074 27.273-.196 7.145-1.255 14.239-3.154 21.13 5.6-4.585 15.715-13.422 21.278-21.931-1.98 7.79-15.649 22.735-23.306 28.7l-.069-.028-.06.132-.019.016c-.022.054-.041.11-.063.164a125.65 125.65 0 0 1-6.7 12.615l-.688 1.116a85.77 85.77 0 0 1-7.509 10.407q-.75.732-1.526 1.46l.347-.123-.208.23.344-.278 1.716-.615c11.713-5.759 23.492-15.068 33.9-29.714 39.159-55.111-32.367-98.162-34.757-99.578z"/></g></svg>