<svg xmlns="http://www.w3.org/2000/svg" xmlns:xlink="http://www.w3.org/1999/xlink" width="731" height="1125" fill="none" xmlns:v="https://vecta.io/nano"><style><![CDATA[#P,#E,#O,#F,#G,#J,#K,#N,#M,#L,#I,#H,#D,#B,#A,#C{transform-origin:center}#J,#K,#N,#M,#L,#I,#H{animation:animationFramesOne 20s linear infinite}#D{animation:translateX 3s linear infinite}#B{animation:rotate 3s linear infinite}#A{animation:rotate_reverse 3s linear infinite}#O,#F,#G{animation:translateY 3s linear infinite}#P{animation:opacity 3s linear infinite}.B{stroke-width:.72}.C{stroke-linecap:round}.D{stroke-linejoin:round}.E{fill:#e8bc10}.F{stroke:#2d2d2d}.G{stroke:#424242}]]></style><path d="M568.05 143.63a224.1 224.1 0 0 0-57.95-86A216.37 216.37 0 0 0 385.86 1.19C382.13.8 378.34.5 374.54.32c-.92-.07-1.85-.09-2.77-.13h-.39c-1 0-2.12-.07-3.17-.09-1.66-.06-3.32-.08-5-.08-2.57 0-5.11 0-7.64.15h-.8c-1.09 0-2.17.08-3.25.15A216 216 0 0 0 216.35 57.6a220.2 220.2 0 0 0-20.2 21.22c-.084.084-.158.178-.22.28l-.29.34c-.082.089-.159.182-.23.28-.08.08-.13.17-.2.23a.62.62 0 0 0-.17.22c-.04.09-.32.36-.47.56-.005.016-.005.034 0 .05h-.05c-.041.035-.072.08-.09.13 0 0-.06 0-.06.06-.004.008-.006.016-.006.025s.002.017.006.025l-.19.2v.05c.004.02.004.04 0 .06-.046.039-.083.087-.11.14 0 0-.05 0-.06.06l-.08.11v.06l-.06.06c-.004.02-.004.04 0 .06h-.06v.06a223.92 223.92 0 0 0-35.48 62.53 227.08 227.08 0 0 0-14.17 79.32c0 52.76 16.27 100 45.44 137.6 3.57 4.61 7.33 9.1 11.3 13.42 22.15 24.18 34.88 55.73 34.65 88.65v.81c0 4.32-.17 8.65-.38 13-.92 19-3.15 38.11-3.35 57.21v5.72.16c.05 3.77.2 7.61.56 11.44v.12c.28 3 .68 6 1.24 9 .23 1.2.49 2.4.78 3.58a56.12 56.12 0 0 0 5.6 15.27h243.26c2.777-4.87 4.8-10.133 6-15.61.23-1 .45-2 .64-3 .56-3 1-6 1.25-9v-.12c.38-3.88.54-7.8.58-11.62v-1.08a3 3 0 0 1 0-.3v-4.5-.4c0-1.43-.06-2.86-.1-4.29-.63-21.85-3.56-43.69-3.68-65.5l.12-13.91v-.95c0-.5 0-1 .06-1.52 0-.8.09-1.59.14-2.39a7.87 7.87 0 0 1 .06-.84c.495-8.722 2.316-17.317 5.4-25.49 5.84-14.86 14.77-28.28 24.42-40.85l22.73-29.91A294.88 294.88 0 0 0 565 310.27a148.22 148.22 0 0 0 12.32-35.13c3.613-16.841 5.38-34.026 5.27-51.25a227.23 227.23 0 0 0-14.54-80.26z" class="E"/><path d="M339.55 341.63c.06.1 1.28-.86 1.34-.77s-5.31 4.89-5.16 5.14c.25.43 10.79-6.88 11.07-6.39s-11.6 6.47-11.34 6.92 11.64-7.39 11.93-6.88-12.78 7.69-12.51 8.17c.38.66 13.61-8.58 13.93-8s-15.06 10.18-14.69 10.86 17.06-10.93 17.52-10.12c.37.63-18 10.24-17.6 11s17.94-11.45 18.41-10.63-18.84 11.66-18.45 12.34 19.51-12.33 20-11.53-20.38 11.31-19.92 12.09 19.85-12.71 20.39-11.77-20.77 11.67-20.34 12.41 20.38-12.87 20.87-12.05-21.37 11.58-20.87 12.41 20.62-13.06 21.12-12.19-21.66 11.42-21.11 12.36 20.75-13.09 21.23-12.26-21.52 12.24-21 13.1 21.2-13.36 21.69-12.52-22.15 11.88-21.67 12.68c.6 1 21.31-13.42 21.79-12.58s-22 12.92-21.48 13.75c.56 1 21.73-13.85 22.29-12.87s-22.11 13.7-21.57 14.63 22.17-14.05 22.71-13.11-22.21 13.92-21.73 14.74 22.12-14.07 22.68-13.09-23.15 12.28-22.59 13.24 22.15-14 22.66-13.09-22.53 13.05-22.07 13.85 21.93-13.84 22.45-13-22.24 12.89-21.71 13.81 21.56-13.63 22.07-12.74-22.1 12.31-21.55 13.25 21.16-13.52 21.73-12.54-20.59 13-20.06 13.88 19.93-12.54 20.38-11.76-19.24 11.93-18.8 12.7 18.36-11.68 18.83-10.87-18.82 10.42-18.42 11.13 18-11.33 18.39-10.62-17.35 10.5-17 11.18 16.3-10.46 16.75-9.67-15 9.62-14.7 10.19 13.75-8.83 14.13-8.17c.28.49-13.47 7.71-13.13 8.3s12.43-8 12.76-7.37c.25.42-9.91 6.86-9.64 7.32s7.87-5 8.08-4.66c.09.17-4.29 3.39-4.2 3.57s1.39-.93 1.45-.84-1.41.75-1.37.81 1.26-.89 1.33-.77" class="B C D G"/><path d="M345 361.51h3.39V353h2.36l.25-2.83h-2.6v-1.62c0-.67.13-.93.78-.93H351v-3h-2.34c-2.52 0-3.66 1.11-3.66 3.23v2.27h-1.75v2.87H345v8.52z" class="E"/><path d="M340.51 401.1c.06.1 1.28-.87 1.34-.77s-4.28 3.45-4.18 3.63c.23.39 8-5.14 8.24-4.76s-9.84 6.63-9.6 7 12-7.69 12.29-7.1-13.6 9.26-13.28 9.9 15.8-10 16.19-9.34-17 11.14-16.54 11.86 18.47-11.65 18.89-10.91-19.3 10.48-18.91 11.16c.51.89 18.62-11.94 19.14-11 .4.7-19.61 10.84-19.16 11.61s19.12-12.27 19.66-11.35-19.93 12.55-19.51 13.28 20.64-13 21.1-12.18-21.07 13.55-20.59 14.37 21.66-13.77 22.21-12.82-22.42 12.75-21.88 13.68 22-13.84 22.48-13-22.88 12.39-22.31 13.38 22-14 22.6-13c.47.81-23 12.49-22.43 13.44s22.16-14 22.66-13.09-22.83 12.92-22.32 13.8 22.22-14 22.74-13.13-23.15 12.4-22.61 13.33 22.18-14.09 22.74-13.12-22.05 14-21.57 14.88 22-13.85 22.5-13-22.57 12.58-22 13.56 21.74-13.84 22.3-12.88c.47.81-21.85 13-21.29 13.93s21.07-13.51 21.66-12.5-21.67 12.07-21.16 13 20.79-13.22 21.32-12.31-21 12.07-20.54 12.92 20.13-12.8 20.64-11.91c.4.69-19.1 12.36-18.68 13.09s18.22-11.72 18.74-10.83-18.62 10.34-18.17 11.11 17.71-11.19 18.12-10.46-16.79 10.39-16.39 11.09 15.64-10 16.07-9.27-16.22 8.68-15.83 9.35 15.44-9.72 15.78-9.12-15.55 8.61-15.18 9.24 14.63-9.32 15-8.67-14.46 8.25-14.11 8.85 13.42-8.65 13.81-8c.29.51-10.71 7.57-10.44 8.05s8.63-5.52 8.86-5.12c.13.22-5.18 4-5.06 4.23s2.28-1.51 2.37-1.36-2.27 1.2-2.22 1.3 2-1.37 2.14-1.23-1.66.95-1.62 1 1.27-.87 1.33-.77" class="B C D G"/><path d="M340.78 417.24a8.64 8.64 0 0 0 4.457 1.355c1.582.035 3.143-.365 4.513-1.156a8.64 8.64 0 0 0 4.31-7.869 6.13 6.13 0 0 0 1.52-1.57 6.04 6.04 0 0 1-1.74.47 3.06 3.06 0 0 0 1.33-1.68 6.2 6.2 0 0 1-1.93.74c-.444-.523-1.054-.878-1.728-1.005s-1.371-.021-1.975.303a3 3 0 0 0-1.467 3.472c-1.208-.059-2.389-.371-3.468-.918a8.59 8.59 0 0 1-2.792-2.252c-.397.666-.521 1.459-.345 2.214a3 3 0 0 0 1.285 1.836c-.484-.011-.958-.142-1.38-.38-.012.707.226 1.397.672 1.946a3 3 0 0 0 1.768 1.054c-.45.124-.922.141-1.38.05a3 3 0 0 0 2.84 2.11 6.08 6.08 0 0 1-2.117 1.087c-.771.22-1.577.285-2.373.193z" class="E"/><path d="M263.78 341.43c.06.09 1.28-.88 1.34-.77s-5.35 4.95-5.19 5.21c.27.47 10.88-7 11.18-6.46s-11.86 6.9-11.62 7.32 12.21-7.88 12.57-7.26-13.11 7.29-12.82 7.8 13.05-8.41 13.43-7.75-14.58 10-14.24 10.59 16.67-10.61 17.1-9.87-17.79 11.43-17.33 12.22 19-12.11 19.48-11.25-19.79 12.69-19.31 13.52 20.63-13.18 21.18-12.23-21.66 11.55-21.14 12.5 20.84-13.14 21.32-12.3-21.83 11.47-21.29 12.4 20.78-13.35 21.37-12.34c.45.79-21.48 13.21-20.92 14.18s21.68-13.86 22.26-12.85-22.55 12.54-22 13.54 21.9-14 22.47-13-22.55 13.12-22 14.09 22.12-14.12 22.71-13.11c.47.83-22.92 12.78-22.4 13.69s22.16-14.14 22.74-13.13c.48.83-23.09 12.51-22.63 13.31.6 1 22.23-14 22.74-13.13s-22.06 14-21.6 14.81 21.92-14 22.48-13-22.2 13-21.66 13.84 21.55-13.81 22.14-12.78c.5.86-22.56 12-22.1 12.82s21.55-13.73 22.11-12.77-21.89 12.57-21.34 13.52 21-13.42 21.6-12.47-21.67 12-21.13 12.88S284 350 284.5 350.94c.46.78-21.71 11.44-21.17 12.37s20.62-13.25 21.2-12.24c.45.79-20.63 12.2-20.18 13 .55.95 19.77-12.59 20.28-11.7.41.7-20 11.4-19.6 12.16.53.92 19.19-12.19 19.67-11.35s-17.7 11.73-17.34 12.4 16.65-10.67 17.11-9.88-16.74 9.5-16.37 10.14 15.76-10.13 16.21-9.36-14.94 9.1-14.57 9.73 13.72-8.75 14.08-8.13-11.74 7.85-11.46 8.33 10-6.47 10.34-6-9.36 5.48-9.14 5.87 8.26-5.27 8.48-4.89c.12.21-4.36 3.57-4.26 3.74s1.27-.87 1.33-.77" class="B C D G"/><path d="M267.64 349.49h-2.88v9.29h2.88v-9.29zm-1.45-1.22a1.71 1.71 0 0 0 1.597-1.057c.132-.315.166-.661.1-.996a1.72 1.72 0 0 0-1.354-1.354c-.334-.066-.681-.031-.996.1a1.71 1.71 0 0 0-1.057 1.597c0 .454.18.889.501 1.209a1.71 1.71 0 0 0 1.209.501zm6.04 5.63c0-1.31.6-2.08 1.75-2.08s1.57.74 1.57 2.08v4.88h2.86v-5.89c0-2.48-1.41-3.69-3.38-3.69a3.24 3.24 0 0 0-2.8 1.54v-1.25h-2.76v9.29h2.76v-4.88z" class="E"/><path d="M261.62 402.59c.07.1 1.28-.87 1.34-.78s-3.17 2.19-3.09 2.34 5.3-3.43 5.46-3.15-7.43 5.13-7.24 5.46 9.9-6.38 10.19-5.88-11.64 7.67-11.32 8.21 13.56-8.68 13.93-8.05-14.38 8-14.08 8.48c.39.68 14.16-9 14.52-8.39s-15.09 8.25-14.71 8.91 14.85-9.48 15.25-8.8-16.15 10.74-15.75 11.43c.5.86 17.87-11.3 18.29-10.56s-18.74 10.73-18.35 11.41 18.61-11.89 19.11-11-19.45 11.91-19.05 12.61 19.93-12.61 20.4-11.78-20.64 12.73-20.14 13.6 21-13.4 21.59-12.46-21.74 13-21.26 13.8 21.74-13.66 22.22-12.83-22.35 12.89-21.83 13.84 22-14 22.53-13-22.52 13.32-22.06 14.12c.63 1.08 22.24-14 22.74-13.13s-22.8 13-22.32 13.8c.57 1 22.23-14 22.74-13.13s-22.3 13.68-21.78 14.58c.61 1.06 22-13.86 22.53-13s-22.11 13.17-21.55 14.15 21.45-13.83 22.07-12.79c.48.84-21.48 12.91-21 13.67.52.92 20.83-13.25 21.36-12.33s-21.61 11.7-21.13 12.54 20.66-13.15 21.19-12.24-20.84 12-20.32 12.88 20-12.55 20.41-11.79-19.32 11.88-18.83 12.73 18.46-11.6 18.87-10.89-17.16 11.05-16.74 11.83 15.92-10.23 16.37-9.45-14.66 9.29-14.29 9.93 13.35-8.43 13.67-7.89-13.31 7.46-13 8 12.43-8 12.77-7.37c.2.35-8.23 6.6-8 7s5.21-3.34 5.36-3.09-3.12 2.16-3 2.29 1.27-.88 1.33-.77" class="B C D G"/><path d="M269.29 407.82l3.08.05c.481.006.958.094 1.41.26.333.121.633.316.88.57s.445.549.57.88c.167.451.255.928.26 1.41v3.08 3.08c-.006.481-.094.958-.26 1.41a2.51 2.51 0 0 1-1.45 1.45c-.452.166-.929.254-1.41.26h-3.08-3.08c-.481-.006-.958-.094-1.41-.26a2.48 2.48 0 0 1-.88-.57 2.35 2.35 0 0 1-.57-.88c-.166-.452-.254-.929-.26-1.41v-3.08-3.08c.005-.482.093-.959.26-1.41a2.51 2.51 0 0 1 1.45-1.45c.452-.166.929-.254 1.41-.26l3.08-.05zm0-1.37l-3.14.05a5.37 5.37 0 0 0-1.85.35c-.506.196-.966.496-1.35.88a3.92 3.92 0 0 0-.88 1.35c-.225.591-.343 1.217-.35 1.85l-.05 3.14.05 3.14a5.42 5.42 0 0 0 .35 1.85c.197.506.497.966.88 1.35a3.86 3.86 0 0 0 1.35.88c.594.215 1.219.333 1.85.35l3.14.05 3.14-.05a6.02 6.02 0 0 0 1.85-.35 3.86 3.86 0 0 0 1.35-.88c.383-.384.683-.844.88-1.35.219-.593.337-1.218.35-1.85l.05-3.14-.05-3.14c-.012-.632-.13-1.257-.35-1.85-.196-.506-.496-.966-.88-1.35s-.844-.684-1.35-.88c-.591-.224-1.218-.342-1.85-.35-.81 0-1.07-.05-3.14-.05zm0 3.71c-.773 0-1.529.229-2.172.659a3.91 3.91 0 0 0-1.663 4.014 3.91 3.91 0 0 0 3.072 3.072c.759.151 1.545.073 2.259-.223a3.91 3.91 0 0 0 1.755-1.44c.43-.643.659-1.399.659-2.172a3.91 3.91 0 0 0-3.91-3.91zm0 6.45a2.54 2.54 0 0 1-1.411-.428c-.418-.279-.743-.676-.936-1.14s-.242-.975-.144-1.468a2.54 2.54 0 0 1 1.995-1.995c.493-.098 1.004-.048 1.468.144a2.54 2.54 0 0 1 .824 4.143 2.54 2.54 0 0 1-1.796.744zm4.98-6.61c.002.183-.051.362-.151.515a.92.92 0 0 1-1.419.145c-.13-.129-.218-.294-.253-.473a.92.92 0 0 1 .398-.946c.153-.101.332-.153.515-.151a.92.92 0 0 1 .91.91z" class="E"/><path d="M348.43 370.09V394.7" class="B C D F"/><path d="M345.15 364.51l-9.52.66v10.17l10.5-.66-.98-10.17z" fill="url(#Q)"/><path d="M337.54 368.07l6.13-.43m-6.35 3.06l6.57-.22" class="B C D F"/><path d="M288.76 417.15l-9.52.66v10.17l10.5-.66-.98-10.17z" fill="url(#R)"/><path d="M281.15 420.71l6.13-.43m-6.35 3.06l6.57-.22" class="B C D F"/><path d="M288.76 360.48l-9.52.66v10.17l10.51-.66-.99-10.17z" fill="url(#S)"/><path d="M281.15 364.05l6.13-.44m-6.35 3.06l6.57-.22" class="B C D F"/><path d="M340.34 419.56l-9.52.65v10.17l10.5-.65-.98-10.17z" fill="url(#T)"/><path d="M332.73 423.12l6.13-.44m-6.35 3.07l6.57-.22m-69.86-54.77v24.61" class="B C D F"/><path d="M415 231.73H308.33c6.91-41 41-43.66 43.21-43.79V.34c1.08-.07 2.16-.11 3.25-.15h.8c2.53-.11 5.07-.15 7.64-.15 1.65 0 3.31 0 5 .08 1 0 2.12.05 3.17.09h.39v187.35c8.63.67 37.25 5.7 43 42.81.05.45.11.91.21 1.36z" fill="#000"/><path id="A" d="M230.26 344.83c-11.67.71-12.25 1.28-12.95 13-.71-11.68-1.29-12.25-13-13 11.67-.71 12.25-1.28 13-12.95.69 11.67 1.28 12.24 12.95 12.95z" fill="#000"/><path id="B" d="M503.53 143.33a95.44 95.44 0 0 0-10 .92c-9.46 1.49-10.24 5.27-11.16 20.21-1.16-19.06-2.07-20-21.13-21.13 19.06-1.16 20-2.11 21.13-21.14.92 15 1.7 18.75 11.27 20.25 2.61.41 5.85.65 9.89.89z" fill="#000"/><g id="C" fill="#000"><g id="D"><path d="M311.88 542.22c-2.32-5-4.79-4.56-6.49-5.45s-5.82 1.24-7 3.81-1.74 2.52-1.77 4.61 5.55 2.82 8.14 3.14 10.3 3.27 10.3 3.27l9-7.19-12.18-2.19z"/><path d="M333.334 524.692l-1.349-2.105-33.049 21.193 1.35 2.104 33.048-21.192z" fill="url(#U)"/><path d="M315.43 541.55c-1.53-4.39-3.65-3.11-6.6-2.55a51.1 51.1 0 0 0-7.22 2.27s-1.05 2.38.69 3.33 7.31-.41 7.75 3 14.08-3.18 14.08-3.18l-8.7-2.87z"/><path d="M405.18 501.33c-8-2.36-14 1.43-21.95 21.32a102.94 102.94 0 0 1-15.69 26.64l-50.1-7.74-4.94 9.45s48 18 58.86 18.42c15 .54 26.87-23.15 37.41-41.39 7.46-12.91 7.23-23.49-3.59-26.7z"/></g><path d="M254.87 574.93h-3.96L265.16 535h3.95l-14.24 39.93z"/><path d="M257.709 525.934l-2.441 6.142 102.793 40.844 2.44-6.143-102.792-40.843zm83.661-38.294c3.35 3.5 6.09 7 8.73 8.93s3.45 7.46 3.68 10 5 .14 5 .14a42.82 42.82 0 0 1 9.58 4.85c2.49 1.61 5.64-2.84 8.19-4.9s2.43-6 4-12.1-.54-14.41-.54-14.41l-10.62-14.7-19.72 5.68-8.3 16.51z"/><path d="M343.63 490.09c-5.17 3.31-18.7-4.44-7-13.87 5.33-4.3 14.49-18.55 21.81-18.16s9.83 5 9.83 5 3.1-2.58 9.46 3.31 7.35 22.94 9.62 26.79L376 489.42s2.17-6.66-1.42-10.28-10.3-1-8.17 3.4 0 6.2 0 6.2-5.36-2.23-5.67-5.45c-.57-6-11.69-7.83-12.31-3.63s-.23 7.51-4.8 10.43z"/><path d="M395 492.78c-.585.066-1.175.066-1.76 0-2.4-.61-17.38-5.48-17.38-5.48L373 504.24s20.29 14.75 27.48 18.35c-2.2-9.87-4.11-19.77-5.48-29.81z"/><path d="M387.21 489.89l-1.26 25.25 6.66 4.43 2.48-31.06-7.88 1.38z" fill="url(#V)"/><path d="M489.21 564a54.46 54.46 0 0 1-6 15.49h-48.34l-.92-1.22c-6.12-8-13.08-15.17-19.39-16.92a38.65 38.65 0 0 1-7.74-3.13 50.43 50.43 0 0 1-11.11-8.07c-2.599-2.422-4.944-5.103-7-8l1.29-24.33.1-1.63.43-8.14.52-10.14.31-5.56.14-2.69 3.56-.18 16.9-.72c10.93-.23 32.33 10.93 44.7 23 11.23 10.92 22.77 32 30.69 48.35l1.85 3.86s0-.06.01.03zM332 562.79s-13.79-2.63-16.9-1.93-11.65 6.14-11.65 6.14l1.28.75 2.7.31-1.95 1.14 1.79 1.53 2.19-.62 2.9-.13-3.83 1.69 1.84 1.12 3.48-1.31-.12 2.45 1.49.17 2.47-3.06 5.4.47 6.36-2.62 7.42 1.46-4.87-7.56z"/><path d="M402.49 495.16c-7.88-2.62-14.91-.79-14.62 20.61.25 18.51-1.2 38.5-1.2 38.5L332 562.79l-1.2 10.59s54.6.29 65.38 1.52S409.34 542.76 411 528s2.24-29.28-8.51-32.84z"/></g><path id="E" opacity=".15" d="M491.12 552.23a85.37 85.37 0 0 1-1.91 11.85c-1.198 5.398-3.222 10.579-6 15.36H240c-4.79-8.14-7-17.72-7.86-27.39l12.59-52 .55-2.38 7.2-29.71v-.07l.13-.58.07-.19.16-.75.27-1 .41-1.72.09-.38.11-.52.14-.52.27-1.13.13-.51.25-1v-.06l.11-.43.25-1 .28-1.17v-.07l.08-.37.07-.2v-.08l.29-1.22.32-1.31.07-.26.35-1.49.33-1.35.09-.38.32-1.27.33-1.37.13-.5v-.12l.16-.62 4.79-19.8.14-.59.14-.57.08-.37.1-.4.12-.51.22-.89.2-.8.07-.31.18-.74.1-.43.23-.95.25-1.05.22-.89v-.11l.25-1.05.18-.77.23-.9.12-.53.24-1 .19-.8.29-1.21.31-1.24.21-.9v-.05l.24-1 .21-.46v-.07l.12-.46.41-1.72.28-1.1.1-.37v-.11l.1-.45 9.09-37.55.09-.38.09-.38.22-.87.28-1.14.16-.72.21-.87.06-.22.15-.65.07-.27.26-1.1.31-1.57.07-.26.18-.76.14-.58.14-.56.12-.54v-.14l.19-.77.07-.29.08-.36.17-.73v-.11l.11-.44.25-1.05.39-1.57.12-.57.11-.45.09-.34v-.1l.16-.72 27.35-112.46h106.53l75.85 317.03z" fill="#000"/><path d="M400.71 213.39c.25-.26 1.2 0 2.17.69s1.6 1.42 1.46 1.75c-.21.31-1.19 0-2.19-.67s-1.65-1.47-1.44-1.77z" fill="url(#W)"/><path d="M400.73 213.36c.2-.31 1.18 0 2.19.66s1.64 1.47 1.44 1.78c.14-.33-.49-1.09-1.46-1.75s-1.92-.95-2.17-.69z" fill="url(#X)"/><use xlink:href="#BO" fill="url(#Y)"/><path d="M400.66 213.45c.21-.3 1.19 0 2.19.67s1.65 1.47 1.44 1.78c.15-.32-.49-1.09-1.46-1.74s-1.92-1-2.16-.7l-.01-.01z" fill="url(#Z)"/><path d="M400.57 213.59c.25-.26 1.2 0 2.17.7s1.61 1.42 1.46 1.74c-.21.31-1.19 0-2.19-.66s-1.65-1.47-1.44-1.78z" fill="url(#a)"/><path d="M400.59 213.56c.21-.3 1.19 0 2.19.67s1.65 1.47 1.44 1.77c.15-.32-.49-1.09-1.46-1.74s-1.92-1-2.17-.7z" fill="url(#b)"/><path d="M400.48 213.72c.25-.26 1.2 0 2.17.69s1.61 1.42 1.46 1.75c-.2.3-1.18 0-2.19-.67s-1.65-1.49-1.44-1.77z" fill="url(#c)"/><path d="M400.5 213.69c.21-.3 1.19 0 2.19.67s1.65 1.47 1.44 1.78c.15-.32-.49-1.09-1.46-1.74s-1.92-.95-2.17-.69c-.01 0-.01-.01 0-.02z" fill="url(#d)"/><use xlink:href="#BO" x="-0.27" y="0.4" fill="url(#e)"/><path d="M400.39 213.85c.21-.3 1.19 0 2.19.67s1.65 1.47 1.44 1.78c.15-.32-.49-1.09-1.46-1.74s-1.92-.95-2.16-.69c-.02 0-.01-.01-.01-.02z" fill="url(#f)"/><path d="M400.29 214c.24-.26 1.19 0 2.16.7s1.61 1.42 1.46 1.74c-.21.31-1.19 0-2.19-.66s-1.63-1.47-1.43-1.78z" fill="url(#g)"/><path d="M400.31 214c.21-.31 1.19 0 2.19.67s1.65 1.47 1.45 1.77c.15-.32-.49-1.09-1.46-1.74s-1.92-1-2.16-.7h-.02z" fill="url(#h)"/><path d="M318.49 373.77l-16.33 1.13v17.45l18.02-1.13-1.69-17.45z" fill="url(#i)"/><path d="M305.44 379.89l10.52-.75m-10.9 5.25l11.27-.37" class="B C D F"/><path d="M531.06 585.03H190.39v33.99h340.67v-33.99z" class="E"/><path opacity=".22" d="M167 206.94l10.29 9.46 7.91-11.52-5.67.64-4.4-38.97-6.86.78 4.4 38.97-5.67.64z" fill="url(#j)" id="F"/><path d="M281.24 268.25l6.74 6.75 5.73-7.62-3.89.27-1.87-26.7-4.7.33 1.87 26.7-3.88.27z" fill="url(#k)" id="G"/><g id="H"><path d="M209.635 296.776h-.11c-1.19.19-3.11-2.55-4.37-6.27s-1.39-7.06-.33-7.63l.11-.05c1.17-.4 3.18 2.4 4.48 6.24s1.43 7.35.22 7.71z" fill="url(#l)"/><path d="M209.525 296.816c-1.17.4-3.18-2.4-4.48-6.24s-1.4-7.29-.23-7.68h.12c-1.06.57-.93 3.91.33 7.63s3.18 6.46 4.37 6.27l-.11.02z" fill="url(#m)"/><path d="M210.005 296.656h-.12c-1.18.19-3.1-2.55-4.36-6.27s-1.4-7.07-.34-7.64h.11c1.18-.4 3.18 2.39 4.48 6.24s1.4 7.27.23 7.67z" fill="url(#n)"/><path d="M209.895 296.696c-1.18.39-3.18-2.4-4.48-6.25s-1.41-7.28-.23-7.68h.11c-1.05.57-.92 3.91.34 7.63s3.18 6.46 4.37 6.27l-.11.03z" fill="url(#o)"/><path d="M210.425 296.516h-.12c-1.19.19-3.11-2.55-4.37-6.27s-1.39-7.07-.33-7.64l.11-.05c1.17-.39 3.18 2.4 4.48 6.25s1.4 7.31.23 7.71z" fill="url(#p)"/><path d="M210.305 296.556c-1.17.39-3.18-2.4-4.48-6.25s-1.4-7.28-.22-7.68h.11c-1.06.57-.92 3.92.34 7.64s3.18 6.46 4.36 6.27l-.11.02z" fill="url(#q)"/><use xlink:href="#BP" fill="url(#r)"/><path d="M210.845 296.416c-1.17.4-3.18-2.39-4.48-6.24s-1.4-7.28-.23-7.68h.12c-1.06.57-.93 3.91.33 7.64s3.18 6.46 4.37 6.27l-.11.01z" fill="url(#s)"/><path d="M211.545 296.136h-.12c-1.19.19-3.11-2.55-4.37-6.27s-1.39-7.07-.33-7.64h.11c1.17-.4 3.18 2.39 4.48 6.24s1.4 7.27.23 7.67z" fill="url(#t)"/><path d="M211.425 296.176c-1.17.39-3.18-2.4-4.48-6.25s-1.4-7.28-.22-7.68h.11c-1.06.57-.92 3.91.34 7.63s3.17 6.46 4.36 6.27l-.11.03z" fill="url(#u)"/><use xlink:href="#BP" x="1.06" y="-0.36" fill="url(#v)"/><path d="M211.845 296.016c-1.17.4-3.18-2.39-4.48-6.24s-1.4-7.28-.22-7.68h.11c-1.06.57-.92 3.91.34 7.64s3.17 6.46 4.36 6.27l-.11.01z" fill="url(#w)"/></g><g id="I"><path d="M504.769 297.147a.41.41 0 0 1-.11-.07c-1.11-.8-.46-4.55 1.53-8.56s4.56-6.82 5.87-6.42l.12.05c1.27.62.64 4.49-1.41 8.63s-4.73 7-6 6.37z" fill="url(#x)"/><path d="M504.649 297.087c-1.26-.63-.63-4.49 1.41-8.63s4.74-7 6-6.37l.12.07c-1.31-.4-3.89 2.4-5.87 6.42s-2.64 7.76-1.53 8.56l-.13-.05z" fill="url(#y)"/><path d="M505.169 297.347l-.12-.08c-1.11-.8-.45-4.55 1.53-8.56s4.56-6.81 5.87-6.42l.13.05c1.26.63.63 4.49-1.41 8.64s-4.74 7.01-6 6.37z" fill="url(#z)"/><path d="M505.049 297.287c-1.27-.63-.64-4.5 1.41-8.64s4.73-7 6-6.37l.11.07c-1.31-.39-3.89 2.41-5.87 6.42s-2.64 7.76-1.53 8.56l-.12-.04z" fill="url(#AA)"/><path d="M505.619 297.567l-.12-.07c-1.11-.81-.45-4.56 1.53-8.57s4.56-6.81 5.87-6.42l.13.05c1.26.63.63 4.49-1.41 8.64s-4.74 6.99-6 6.37z" fill="url(#AB)"/><path d="M505.499 297.507c-1.27-.63-.64-4.49 1.41-8.64s4.73-7 6-6.37l.11.07c-1.31-.39-3.89 2.41-5.87 6.42s-2.64 7.76-1.53 8.57l-.12-.05z" fill="url(#AC)"/><path d="M506.159 297.837l-.11-.07c-1.11-.81-.46-4.56 1.53-8.57s4.56-6.81 5.87-6.42h.12c1.27.63.64 4.49-1.41 8.64s-4.73 7.04-6 6.42z" fill="url(#AD)"/><path d="M506.039 297.777c-1.26-.63-.63-4.49 1.42-8.64s4.73-7 6-6.37l.12.07c-1.31-.39-3.89 2.41-5.87 6.42s-2.64 7.76-1.53 8.57l-.14-.05z" fill="url(#AE)"/><path d="M506.819 298.157a.41.41 0 0 1-.11-.07c-1.11-.8-.46-4.55 1.53-8.56s4.56-6.81 5.87-6.42l.12.05c1.27.62.64 4.49-1.41 8.63s-4.73 7-6 6.37z" fill="url(#AF)"/><path d="M506.699 298.097c-1.26-.62-.63-4.49 1.42-8.63s4.73-7 6-6.37l.12.07c-1.31-.39-3.89 2.41-5.87 6.42s-2.64 7.76-1.53 8.56l-.14-.05z" fill="url(#AG)"/><path d="M507.309 298.397l-.12-.07c-1.11-.8-.45-4.55 1.53-8.56s4.56-6.81 5.87-6.42l.13.05c1.26.62.63 4.49-1.41 8.63s-4.74 6.96-6 6.37z" fill="url(#AH)"/><path d="M507.189 298.337c-1.27-.62-.64-4.49 1.41-8.63s4.73-7 6-6.37a.41.41 0 0 1 .11.07c-1.31-.39-3.89 2.41-5.87 6.42s-2.64 7.76-1.53 8.56l-.12-.05z" fill="url(#AI)"/></g><g id="J"><path d="M440.669 105.776h-.12c-1.18.19-3.1-2.55-4.36-6.27s-1.4-7.06-.34-7.63l.11-.05c1.18-.4 3.18 2.4 4.48 6.24s1.4 7.31.23 7.71z" fill="url(#AJ)"/><path d="M440.529 105.816c-1.18.4-3.18-2.4-4.48-6.24s-1.41-7.29-.23-7.68h.11c-1.05.57-.92 3.91.34 7.63s3.18 6.46 4.37 6.27l-.11.02z" fill="url(#AK)"/><path d="M441.039 105.656h-.12c-1.19.19-3.11-2.55-4.37-6.27s-1.39-7.07-.33-7.64h.11c1.17-.39 3.18 2.4 4.48 6.25s1.4 7.26.23 7.66z" fill="url(#AL)"/><path d="M440.919 105.696c-1.17.39-3.18-2.4-4.48-6.25s-1.4-7.28-.22-7.68h.11c-1.06.57-.92 3.92.34 7.64s3.17 6.46 4.36 6.27l-.11.02z" fill="url(#AM)"/><path d="M441.449 105.516h-.11c-1.19.19-3.11-2.54-4.37-6.27s-1.39-7.06-.33-7.63l.1-.05c1.18-.39 3.19 2.4 4.49 6.25s1.4 7.3.22 7.7z" fill="url(#AN)"/><use xlink:href="#BQ" fill="url(#AO)"/><path d="M441.959 105.326h-.12c-1.18.19-3.1-2.54-4.36-6.27s-1.4-7.06-.34-7.63h.11c1.18-.39 3.18 2.4 4.48 6.24s1.4 7.28.23 7.66z" fill="url(#AP)"/><path d="M441.849 105.376c-1.18.4-3.18-2.39-4.48-6.24s-1.41-7.28-.23-7.68h.12c-1.06.57-.93 3.91.33 7.64s3.18 6.46 4.37 6.27l-.11.01z" fill="url(#AQ)"/><path d="M442.529 105.136h-.11c-1.19.19-3.11-2.55-4.37-6.27s-1.39-7.07-.33-7.64h.1c1.18-.4 3.19 2.39 4.49 6.24s1.44 7.27.22 7.67z" fill="url(#AR)"/><path d="M442.459 105.176c-1.18.39-3.18-2.4-4.48-6.25s-1.4-7.28-.23-7.68h.12c-1.06.56-.93 3.91.33 7.63s3.18 6.46 4.37 6.27l-.11.03z" fill="url(#AS)"/><path d="M443.019 104.986h-.11c-1.19.19-3.11-2.54-4.37-6.27s-1.39-7.06-.34-7.63l.11-.05c1.18-.39 3.19 2.4 4.48 6.25s1.41 7.3.23 7.7z" fill="url(#AT)"/><use xlink:href="#BQ" x="1.57" y="-0.53" fill="url(#AU)"/></g><g id="K"><path d="M318.18 43.207s0 .06-.08.08c0 0-.05.05-.09.06s-.05 0-.08 0c-.83.13-2.19-1.79-3.07-4.4-.381-1.126-.62-2.295-.71-3.48a2.4 2.4 0 0 1 .006-.948 2.38 2.38 0 0 1 .374-.872c.009-.019.023-.036.041-.049s.038-.019.059-.021h.08.07.05c.033-.005.067-.005.1 0 .054.007.106.028.15.06.016-.005.034-.005.05 0a.5.5 0 0 1 .19.14h.06l.05.05a.47.47 0 0 1 .15.13h.06l.07.07a7.37 7.37 0 0 1 .83 1.19 14.84 14.84 0 0 1 1.14 2.58c.505 1.342.749 2.767.72 4.2v.1c-.008.016-.012.033-.012.05s.004.035.012.05c-.005.057-.005.113 0 .17a.42.42 0 0 0 0 .1.99.99 0 0 1-.07.25v.05c-.013.048-.041.09-.08.12 0 0-.05.31-.07.32z" fill="url(#AV)"/><path d="M317.95 43.377h-.08c-.81.28-2.23-1.68-3.15-4.38-.393-1.126-.636-2.3-.72-3.49 0-1 .1-1.63.47-1.83.009-.02.023-.036.04-.049s.039-.019.06-.021h.08c-.39.21-.54.92-.49 1.92.086 1.174.332 2.332.73 3.44.88 2.61 2.2 4.54 3.06 4.41z" fill="url(#AW)"/><path d="M318.2 43.287h-.07-.04a.14.14 0 0 1-.15 0c-.82-.07-2.07-1.92-2.91-4.38-.392-1.103-.638-2.253-.73-3.42-.05-1 .11-1.69.47-1.9l.09-.06h.08c-.04.011-.076.036-.1.07a2.72 2.72 0 0 0-.37 1.91 14.18 14.18 0 0 0 .73 3.37c.84 2.48 2.11 4.36 2.95 4.42.017-.001.034-.004.05-.01z" fill="url(#AX)"/><path d="M318.5 43.187h-.08c-.016.007-.033.011-.05.011s-.034-.004-.05-.011c-.017.009-.036.013-.055.013s-.038-.004-.055-.013c-.85-.11-2.07-1.94-2.9-4.39-.385-1.077-.624-2.2-.71-3.34-.114-.652.01-1.323.35-1.89.012-.02.028-.038.047-.051s.04-.024.063-.029c0 0 .05-.05.09-.06h.07c-.038.016-.072.04-.1.07a.55.55 0 0 0-.1.11 3.24 3.24 0 0 0-.24 1.87 13.24 13.24 0 0 0 .71 3.29c.78 2.34 1.94 4.13 2.78 4.37a.31.31 0 0 0 .16 0 .27.27 0 0 0 .07.05z" fill="url(#AY)"/><path d="M319.09 42.957c-.046.045-.1.079-.16.1h-.05c-.016.008-.033.012-.05.012s-.035-.004-.05-.012c-.062.015-.128.015-.19 0a.47.47 0 0 1-.16-.07c-.82-.4-1.87-2.1-2.61-4.29-.373-1.036-.615-2.114-.72-3.21-.089-.602-.027-1.217.18-1.79l.08-.15a.55.55 0 0 1 .1-.11s.06-.06.1-.07h.05a.67.67 0 0 1 .2 0h.08.11.05a4.48 4.48 0 0 1 1.68 2 13.33 13.33 0 0 1 1 2.32c.75 2.22.94 4.25.5 5.05.004.008.005.016.005.025s-.001.017-.005.025a.17.17 0 0 1-.06.08s-.08.07-.08.09z" fill="url(#AZ)"/><path d="M318.85 43.057a.22.22 0 0 1-.16 0 .23.23 0 0 1-.09.018.23.23 0 0 1-.09-.018c-.054-.007-.106-.027-.15-.06-.83-.37-1.92-2.1-2.66-4.32a13.22 13.22 0 0 1-.71-3.24 3.25 3.25 0 0 1 .2-1.8c.012-.056.04-.108.08-.15.031-.044.068-.085.11-.12a.29.29 0 0 1 .15-.09h.09a.58.58 0 0 0-.13.09c-.045.049-.085.103-.12.16a.52.52 0 0 0-.08.17c-.176.559-.227 1.149-.15 1.73a13.83 13.83 0 0 0 .7 3.21c.73 2.15 1.78 3.83 2.57 4.28a1.04 1.04 0 0 0 .17.06c.054.033.117.05.18.05.029.014.059.024.09.03z" fill="url(#Aa)"/><path d="M319.48 42.797a.21.21 0 0 1-.13.09c-.026-.009-.054-.009-.08 0a.29.29 0 0 1-.16 0h-.08c-.05 0-.1 0-.15-.06a.82.82 0 0 1-.19-.11l-.19-.13c-1.068-1.177-1.852-2.583-2.29-4.11a15.73 15.73 0 0 1-.7-3.09c-.069-.511-.069-1.029 0-1.54.028-.074.048-.152.06-.23.05-.08.07-.15.11-.22a.46.46 0 0 1 .13-.18c0-.05.08-.07.13-.09.023-.009.047-.009.07 0 .039-.01.081-.01.12 0 .55 0 1.33.85 2 2.2.371.707.685 1.443.94 2.2.89 2.48 1.02 4.69.41 5.27z" fill="url(#Ab)"/><path d="M319.29 42.897c-.026.008-.054.008-.08 0a.29.29 0 0 1-.16 0h-.06c-.025.012-.052.019-.08.019s-.055-.007-.08-.019c-.069-.016-.134-.046-.19-.09-.076-.028-.144-.072-.2-.13-1.115-1.157-1.926-2.573-2.36-4.12a13.92 13.92 0 0 1-.69-3.11c-.064-.533-.047-1.072.05-1.6l.09-.23a1.01 1.01 0 0 1 .09-.18c.033-.072.085-.135.15-.18 0-.05.08-.07.13-.09.023-.008.047-.008.07 0-.057.03-.108.071-.15.12l-.13.2a1 1 0 0 0-.1.23c0 .07 0 .17-.06.25a6.09 6.09 0 0 0 0 1.49c.109 1.048.344 2.078.7 3.07a10.19 10.19 0 0 0 2.24 4l.18.15c.068.046.142.083.22.11a.37.37 0 0 0 .22.08.44.44 0 0 0 .2.03z" fill="url(#Ac)"/><path d="M319.61 42.807h-.09-.1a.59.59 0 0 1-.25-.07c-.081-.032-.158-.072-.23-.12l-.22-.16c-.06-.07-.14-.13-.21-.21-.931-1.135-1.628-2.444-2.05-3.85-.339-.971-.567-1.978-.68-3a6.42 6.42 0 0 1 0-1.3 1.22 1.22 0 0 1 0-.27.68.68 0 0 1 .07-.28c.015-.093.049-.181.1-.26.046-.069.099-.133.16-.19h.07c.024-.034.06-.059.1-.07.59-.2 1.48.73 2.28 2.28.342.674.633 1.372.87 2.09.92 2.73 1 5.14.18 5.41z" fill="url(#Ad)"/><path d="M319.61 42.807h-.09c-.016.007-.033.011-.05.011s-.034-.004-.05-.011a.29.29 0 0 1-.135.033.29.29 0 0 1-.135-.033c-.046.002-.092-.007-.133-.026s-.079-.048-.107-.084a.4.4 0 0 1-.22-.14.98.98 0 0 1-.19-.18c-.971-1.15-1.692-2.488-2.12-3.93a13.47 13.47 0 0 1-.67-3 4.77 4.77 0 0 1 0-1.35 1.87 1.87 0 0 1 0-.28.98.98 0 0 1 .07-.26c.025-.086.07-.164.13-.23.011-.039.031-.075.059-.105s.063-.052.101-.065c0-.05.06-.06.11-.08s.07 0 .09 0c-.04.011-.076.036-.1.07-.055.068-.102.142-.14.22a2.18 2.18 0 0 0-.11.27c-.027.095-.044.192-.05.29v.28a7.31 7.31 0 0 0 0 1.22 15.13 15.13 0 0 0 .69 3c.425 1.371 1.103 2.65 2 3.77.069.081.146.154.23.22a1.8 1.8 0 0 0 .21.19.85.85 0 0 0 .25.13.58.58 0 0 0 .27.09.2.2 0 0 0 .09-.02z" fill="url(#Ae)"/></g><g id="L"><path d="M215.321 123.633c.003.023.003.047 0 .07.4.75-1 2.64-3.19 4.31s-4.39 2.51-5 1.93l-.05-.06c-.53-.69.88-2.65 3.15-4.38s4.58-2.56 5.09-1.87z" fill="url(#Af)"/><path d="M215.391 123.703c.53.69-.88 2.65-3.15 4.38s-4.54 2.56-5.06 1.87l-.05-.07c.62.57 2.81-.26 5-1.94s3.59-3.56 3.19-4.3l.07.06z" fill="url(#Ag)"/><path d="M215.172 123.423c.005.023.005.047 0 .07.39.74-1 2.63-3.2 4.3s-4.39 2.51-5 1.94l-.06-.07c-.53-.69.88-2.65 3.15-4.38s4.59-2.56 5.11-1.86z" fill="url(#Ah)"/><path d="M215.222 123.483c.53.69-.88 2.66-3.15 4.38s-4.53 2.56-5.06 1.87c-.003-.023-.003-.047 0-.07.61.58 2.81-.26 5-1.93s3.59-3.56 3.2-4.31l.01.06z" fill="url(#Ai)"/><path d="M214.992 123.173v.07c.39.75-1 2.64-3.19 4.31s-4.39 2.51-5 1.93l-.06-.06c-.52-.69.89-2.66 3.16-4.38s4.56-2.56 5.09-1.87z" fill="url(#Aj)"/><path d="M215.042 123.243c.53.69-.89 2.65-3.15 4.38s-4.54 2.56-5.07 1.86a.41.41 0 0 1 0-.07c.62.58 2.81-.26 5-1.93s3.58-3.56 3.19-4.31l.03.07z" fill="url(#Ak)"/><path d="M214.761 122.873c.003.023.003.047 0 .07.4.75-1 2.64-3.19 4.31s-4.39 2.51-5 1.93v-.06c-.53-.69.88-2.65 3.15-4.38s4.51-2.56 5.04-1.87z" fill="url(#Al)"/><path d="M214.811 122.943c.53.69-.88 2.65-3.15 4.38s-4.54 2.56-5.06 1.87c-.003-.027-.003-.053 0-.08.62.58 2.81-.26 5-1.93s3.59-3.56 3.19-4.31l.02.07z" fill="url(#Am)"/><path d="M214.482 122.513c.005.023.005.047 0 .07.39.75-1 2.64-3.2 4.31s-4.39 2.51-5 1.93l-.06-.06c-.53-.7.88-2.66 3.15-4.38s4.59-2.56 5.11-1.87z" fill="url(#An)"/><path d="M214.532 122.573c.53.7-.881 2.66-3.151 4.38s-4.53 2.57-5.06 1.87c-.005-.023-.005-.047 0-.07.61.58 2.81-.26 5-1.93s3.59-3.56 3.2-4.31l.011.06z" fill="url(#Ao)"/><path d="M214.322 122.243l.05.07c.39.75-1 2.64-3.2 4.31s-4.39 2.51-5 1.93l-.06-.06c-.53-.69.88-2.65 3.15-4.38s4.5-2.56 5.06-1.87z" fill="url(#Ap)"/><path d="M214.322 122.313c.53.69-.88 2.65-3.15 4.38s-4.53 2.56-5.06 1.87c-.003-.023-.003-.047 0-.07.61.58 2.81-.26 5-1.93s3.59-3.56 3.2-4.31l.01.06z" fill="url(#Aq)"/></g><g id="M"><path d="M233.44 158.45v.05c.29.55-.73 1.95-2.35 3.17s-3.23 1.85-3.68 1.42c-.39-.51.65-2 2.32-3.22s3.32-1.93 3.71-1.42z" fill="url(#Ar)"/><path d="M233.48 158.5c.39.51-.65 1.95-2.32 3.22s-3.34 1.89-3.72 1.38c.46.42 2.07-.2 3.69-1.42s2.63-2.62 2.35-3.17v-.01z" fill="url(#As)"/><path d="M233.32 158.29v.06c.29.55-.73 1.94-2.35 3.16s-3.23 1.85-3.68 1.43v-.05c-.39-.51.65-1.95 2.32-3.22s3.32-1.89 3.71-1.38z" fill="url(#At)"/><path d="M233.36 158.34c.38.51-.65 1.95-2.32 3.22s-3.34 1.89-3.72 1.38v-.05c.46.42 2.07-.19 3.68-1.42s2.64-2.62 2.35-3.17l.01.04z" fill="url(#Au)"/><path d="M233.18 158.11c.29.55-.73 2-2.35 3.17s-3.22 1.85-3.68 1.42c-.39-.51.65-2 2.32-3.22s3.32-1.88 3.71-1.37z" fill="url(#Av)"/><path d="M233.22 158.16c.39.51-.65 2-2.32 3.22s-3.33 1.89-3.72 1.38c.45.42 2.06-.2 3.68-1.42s2.64-2.62 2.35-3.17l.01-.01z" fill="url(#Aw)"/><path d="M233 157.89v.05c.29.55-.74 1.95-2.35 3.17s-3.23 1.85-3.69 1.42c-.38-.51.65-2 2.32-3.22s3.35-1.93 3.72-1.42z" fill="url(#Ax)"/><path d="M233.05 157.94c.39.51-.65 1.95-2.32 3.22s-3.33 1.89-3.72 1.38c.45.42 2.06-.2 3.68-1.42s2.64-2.62 2.35-3.17l.01-.01z" fill="url(#Ay)"/><path d="M232.81 157.63c.005.016.005.034 0 .05.29.55-.73 1.94-2.35 3.17s-3.22 1.84-3.68 1.42v-.05c-.39-.51.65-1.95 2.32-3.22s3.32-1.88 3.71-1.37z" fill="url(#Az)"/><path d="M232.85 157.68c.39.51-.65 1.95-2.32 3.22s-3.33 1.88-3.72 1.37c-.005-.016-.005-.034 0-.05.45.42 2.06-.19 3.68-1.42s2.64-2.62 2.35-3.17l.01.05z" fill="url(#BA)"/><path d="M232.66 157.43c.28.55-.74 1.94-2.35 3.17s-3.23 1.85-3.69 1.42c-.38-.51.65-1.95 2.32-3.22s3.34-1.88 3.72-1.37z" fill="url(#BB)"/><path d="M428.04 189.04c.39.51-.65 2-2.32 3.22s-3.33 1.89-3.72 1.38v-.06c.45.43 2.06-.19 3.68-1.42s2.64-2.61 2.35-3.16l.01.04z" fill="url(#BC)"/></g><g id="N"><path d="M228.85 95a.12.12 0 0 1-.14 0h-.11v-.05c0-.05 0 0 0 0-.007-.03-.007-.06 0-.09.005-.036.005-.073 0-.11v-.05c-.003-.033-.003-.067 0-.1.002-.027.002-.053 0-.08.228-.644.567-1.242 1-1.77a5.41 5.41 0 0 1 1.56-1.37h.05.09.1.06.06.07c.016.042.016.088 0 .13a3.78 3.78 0 0 1-1.12 2.25c-.43.54-.986.966-1.62 1.24z" fill="url(#BD)"/><path d="M228.85 95a.12.12 0 0 1-.14 0h-.11c.39.15 1.3-.48 2.13-1.49a4 4 0 0 0 1.11-2.25c-.006-.058-.027-.113-.06-.16a.16.16 0 0 1 .056.065c.012.026.017.056.014.085.14.4-.31 1.33-1.07 2.28a3.92 3.92 0 0 1-1.93 1.47z" fill="url(#BE)"/><path d="M228.54 94.88c.026.01.054.01.08 0 .42 0 1.29-.58 2.06-1.51s1.28-2 1.05-2.36c.012.036.012.074 0 .11.13.39-.3 1.33-1.09 2.28s-1.72 1.66-2.1 1.48z" fill="url(#BF)"/><path d="M228.49 94.78h-.06-.05c-.008-.012-.013-.026-.013-.04s.005-.028.013-.04v-.06-.06a4.7 4.7 0 0 1 1.12-2.06c.46-.654 1.094-1.167 1.83-1.48h.06.09a.19.19 0 0 1 .08 0c-.097.857-.485 1.655-1.1 2.26-.69.92-1.54 1.52-1.97 1.48z" fill="url(#BG)"/><path d="M228.51 94.79h-.09-.05.07.06c.41 0 1.26-.59 2-1.53s1.21-1.86 1.09-2.25c.012-.029.012-.061 0-.09.005-.016.005-.034 0-.05.13.38-.29 1.34-1.08 2.29s-1.6 1.71-2 1.63z" fill="url(#BH)"/><path d="M228.49 94.67h-.15-.07c-.006-.019-.006-.04 0-.06v-.05c0-.05 0 0 0 0v-.05a4.06 4.06 0 0 1 1.1-2.21 3.92 3.92 0 0 1 2-1.49.14.14 0 0 1 .12 0v.06.06a4.12 4.12 0 0 1-1.13 2.19c-.462.685-1.111 1.223-1.87 1.55z" fill="url(#BI)"/><path d="M228.49 94.67h-.08l-.07-.05a.19.19 0 0 0 .08 0 .18.18 0 0 1 .09 0h.08a4.26 4.26 0 0 0 1.91-1.51c.566-.597.951-1.343 1.11-2.15.004-.026.004-.053 0-.08v-.09c.006-.02.006-.04 0-.06.004.008.005.016.005.025s-.001.017-.005.025v.08.06c-.188.811-.561 1.567-1.09 2.209s-1.2 1.152-1.96 1.491l-.07.05z" fill="url(#BJ)"/><path d="M228.47 94.49h-.11-.1-.12-.07c-.21-.34.23-1.33 1.05-2.34s1.7-1.61 2.1-1.51v.06.12c.005.033.005.067 0 .1-.208.742-.584 1.427-1.1 2-.426.64-.99 1.176-1.65 1.57z" fill="url(#BK)"/><path d="M228.53 94.32l-.12.06a.34.34 0 0 0-.14 0H228h-.05-.05c-.31-.27.13-1.36 1-2.43s1.87-1.71 2.19-1.45l.06.12v.13c.007.043.007.087 0 .13a.41.41 0 0 1 0 .14 5.25 5.25 0 0 1-1.08 1.84c-.418.578-.94 1.073-1.54 1.46z" fill="url(#BL)"/><path d="M228.53 94.32a.27.27 0 0 1-.13.07h-.12-.13-.11-.05.06.12a.59.59 0 0 0 .13 0c.052-.014.103-.034.15-.06.05 0 .09 0 .14-.06a5 5 0 0 0 1.55-1.35c.457-.527.813-1.134 1.05-1.79a.26.26 0 0 0 0-.13.42.42 0 0 0 0-.15c.005-.046.005-.093 0-.14.018-.048.018-.101 0-.15v-.05a.16.16 0 0 1 0 .11.26.26 0 0 1 0 .13v.12c.01.043.01.087 0 .13a6.35 6.35 0 0 1-2.68 3.26l.02.06z" fill="url(#BM)"/></g><path d="M274.02 124.35l4.58 4.58 3.89-5.18-2.64.19-1.27-18.14-3.19.22 1.27 18.14-2.64.19z" fill="url(#BN)" id="O"/><path id="P" fill-rule="evenodd" d="M724.4 842.15c-9.39 4.24-19.11 9.83-29 8.1-11.07-1-20.56-13.73-29-21.8 8.51 2.55 16 3 24.58-.3 8.25-3.08 15.61-5.63 23.86-2.63a23.26 23.26 0 0 0-14.26-2.1c-6.53 1.13-13.06 4.58-19.59 4.28-8.1-.38-15.68-4.58-23.38-7.28-20.45-7.13-41.46-10.51-62-16.89-7-2.17-14.11-3.19-21.09-5.33-9.49-2.85-18.57-8.78-27.58-13.39l-22.1-11V623.94H200.46v163.72a66.66 66.66 0 0 0-12.46 5.59c-10.8 6.27-20.75 13.92-32.42 16.17-11.33 2.14-22.63-3.82-34-3.15-20 1.2-40.22 8.6-60 13.06C40.79 824 19.85 811 0 825c19.4-11.64 37.6 2 57.26.41-12.87 7.88-25 16.85-39.29 15.35 18.32 3.64 33.67-11 51.08-16.48 8.85-2.85 18.46-3.3 27.54-4.73 9.53-1.53 19.63-3.15 29.16-1.68-17 5.7-32.27 18.23-49 24.65-13.43 5.14-26.72 5-40.34 3.3 9.34 2.07 18.54 3.38 28.07 2.78-2.7 10.06-11.22 13.55-18.09 15.68 6.16-1.35 12.95-3.45 17.26-10.2 1.07-1.804 1.916-3.732 2.52-5.74a56.36 56.36 0 0 0 6-1 86.15 86.15 0 0 0 12.53-3.75c-8.33 9.53-15.38 21-23.71 30.51-7.28 8.4-17.42 17.78-26.31 9.23 4.88 5.4 11 5.14 16.81 1.72-.71 7-.49 12.46-3.34 18.88-3 6.68-6.49 12.65-8.7 19.85 3.37-9.31 9.6-16.4 12.46-26 .75-2.7.56-12.8 2.17-14.19a132.45 132.45 0 0 0 12.27-11.74c7.81-8.63 15.13-18.09 23.19-26.35 2.14-2.13 4.28-4.95 6.61-6.71l16.58-7.81c-6.26 11.15-8.78 24-17.9 32.09-7.46 6.68-16.24 10.2-24.2 15.46 8.63-4.81 18-7.58 26.08-14.23-5.06 10.17-11.89 14.71-20.38 17.53 6.05-1.46 12-3.53 16.82-9.16 2.402-2.867 4.465-6.001 6.15-9.34 1.84-3.57 4.28-6.12 6.3-9.53 4.58-7.7 7.36-18.92 13.81-24.32 5.26-4.43 12.8-4.88 18.77-4.69a94.41 94.41 0 0 0-19.37 24.69c-6.08 10.81-11.48 21.65-18.91 31-9.12 11.52-19.63 19.28-30.09 28.18-8.49 7-15.47 15.61-18.66 28.52a46.2 46.2 0 0 1 15.28-23.08c9.79-8.14 20.3-14 29.91-22.78a71.84 71.84 0 0 0-1.43 10.28c-.38 4.62-1.39 5.56-3.83 9.05-5.1 7.43-9.9 14.37-16.62 18.95 8-4.62 13.55-12.8 20-20.53-.53 19 .15 37.68-12.42 50.51 11.86-10.62 13.7-27.36 14.78-44.92 3.42 8.71 10.85 5.29 15.46 11.37 4.17 5.37 4.09 14.41 4 21.84.56-9.57.75-22.25-6.79-26.49-3.34-1.84-7.43-1.88-9.68-6.16s-2.33-10.58-1.51-15.83a47.47 47.47 0 0 1 3.79-13.29c2.18-4.5 6.27-7.95 9.12-11.85 4.84-6.68 8.9-14.19 13.44-21.24 4.762-7.457 10.793-14.023 17.82-19.4 8.67-6.5 17.49-9.2 26.76-12.76 14.9-5.71 28.48-15.24 44-17.56-6.645 12.446-11.977 25.55-15.91 39.1-1.05 3.6-1.17 8.44-4.17 9-3.22.656-6.391 1.535-9.49 2.63-6.237 2.252-12.039 5.564-17.15 9.79-7.39 6-15.69 8.41-24 6.91-7-1.28-11.89 2.06-16.4 9.64-3.79 6.49-8.55 11.45-13.39 16.32 3-2.66 6.11-5.4 9-8.44 4-4.24 6.94-10.81 11.55-13.77 4.28-3 9.91.41 14.23 1.09 3 .6 6.79-.42 9.68-1.47-10.74 14.79-17.49 33.51-29.84 46.24 14.26-12.76 22.11-34.12 35.73-47.7-.6 6.19 1.42 11.9 2.33 17.75.971 6.093.137 12.336-2.4 17.96-4.35 10.21-11 18.46-14 29.72 5.41-17.11 21.28-28.18 19-48.67-.52-4.73-1.87-9.45-1.61-14.3.19-5.55 2.21-7.31 5.7-9.19A56.8 56.8 0 0 1 193 859c-5.85 24.51-9.83 49.88-17.11 73.78-4.62 15.16-10.77 29.83-19.48 41.5-7.65 10.17-16.62 16.85-26.38 22.14 10.59-4.69 20.38-11.07 28.82-21.42 9.95-12.16 17.12-27.92 22.67-44.28-.076 7.78.715 15.545 2.36 23.15 1.8 8.29 4.54 16.25 5.37 24.92.86 15.42-7.36 24.54-15.61 33.43 4.61-4.35 9.57-8.59 13.1-14.67 4.87-8.29 5.14-18.2 3.6-27.92-1.58-10.06-4.13-19.59-4.51-30.06s1.36-20.68 3.38-30.73l6.34 15.8c1.73 4.12 2 4.5.79 9.19-1.162 4.386-2.001 8.851-2.51 13.36-1.28 11-2.44 29.16 6.49 34.33-11.26-7.8-5.22-36.43-.94-48.63 2.93 5.37 6.91 8.82 10.32 13.47 3.64 5 5.37 10.92 6 18 1 11.74.56 25.48-4.25 36.06 7.28-13.92 9.16-39.89 2.18-53.59a54.11 54.11 0 0 0-7-10.09c-1.311-1.795-2.477-3.691-3.49-5.67-1.76-3.49-1.61-4 .19-7.58 4.8-9.68 13.13-15.31 18.54-24.5 9.179 21.115 13.616 43.985 13 67-.79 22.37-8.26 41.54-20.64 56.67a84.05 84.05 0 0 0 18.77-30.9c-1.941 9.2-2.873 18.59-2.78 28 1.5-27.43 11.45-49.23 22.22-72.38-1.39 10.54-5 20.37-6.23 31-1.161 9.618.168 19.373 3.86 28.33-4.28-12.91-3.71-25.14-.07-38.72 1.87-7.1 4.5-14.08 5.62-21.47.27-1.69-.07-5.85.53-7.17 1.76-3.94 3.49-7.91 5.1-11.93-.6 36.06 3.34 71.67 4.54 107.55.42-26.31-.6-52.54-.26-78.84 12.42-29.35 18.31-62.6 26.16-94.3 1.2 5.14 3.37 9.75 4.2 15.08.9 5.82 0 12-1.35 17.75-2 8.26-5.33 16-8.37 23.68 5.25-11.52 11.9-24 12.08-38 .08-7-2.44-13.06-3.67-19.7-.87-4.65.18-11.29 1.42-15.83 4.88 9.83 11.45 15.38 10.36 28.74-1.05 12.91-7.36 23.9-12.87 34.22 9.38-15.38 21.2-36.25 11.29-55.12-2-3.9-4.57-7.39-6.19-11.71s2.14-11.33 3.94-15.31c2.07-4.54 7.62-6.64 10.92-9.57 3.68-3.23 7.24-6.68 10.81-10.17-1.54 17.34-.15 34.79 1 51.94l1.61 26.15c.15 4.47.68 7.25-1.46 11-1.736 2.958-3.745 5.746-6 8.33-10.13 12-21 23.23-29.23 37.79-7.1 12.57-10.47 26.53-11.75 41.88 1.69-12.69 4.62-24.54 10.47-35.09 6.72-12.19 16-21.95 24.84-31.07-9.87 18.88-20 36.1-21.35 59.63 1.84-17.38 8.14-31.11 16.36-44.69-2.93 15.87-4.91 32.19-2.81 48.1-1.35-16.51 1.27-35.23 6-50.92 3.15-10.24 9.8-19 15.65-26.72.41 11.22.34 22.59.19 33.81-.19 13.33-.15 26.46-2.18 39.63-.94-.07-1.91 2-2.89 3.08a48.13 48.13 0 0 1-8 6.79c-6.38 4.35-12.88 8.07-19.14 12.65-11 8.21-19.22 18.42-23.53 34.63 4.2-13.09 10.81-22.25 20.15-28.93 10.21-7.28 22.22-10.58 31.82-19.33-2.29 11.79-5.21 23.38-8.63 34.79-2.59 8.71-8.78 14.26-14.15 19.93-15.23 16.1-26.3 34.71-29.23 60.94 2.1-13.1 6-24.69 12.35-35.24 7.61-12.61 17.86-19.85 27.13-29.79.22 2.51-1.39 6.34-1.95 8.74a418.27 418.27 0 0 0-2.78 13.21 195.58 195.58 0 0 0-3.42 26.83 120.86 120.86 0 0 0 4.62 40.6c-6.19-26.6-2-53.06 5.44-79.14 4.24 15.39 10.13 33.7 3.12 49.87 5.55-11.18 4.42-23.94 2.51-36.06-.94-6.12-3.45-12.35-3.75-18.54-.19-2.77 1.2-5.66 1.95-8.18l4.24-13.36c1.13 12.46 5.37 24.13 7.24 36.4a60.44 60.44 0 0 1-3.15 31.9c7.88-17.9 4.62-35.39 1.39-54.15-1.35-7.54-4-18.91-1.62-26.68a306.2 306.2 0 0 0 8.71-34.86c2.59 5 3.15 12.42 3.87 18.35l2.47 23.45c1.05 13.77.53 30.06-7.43 40.68 10.51-12.31 10.28-33.66 9.08-50.36 5.26 8.93 6.8 19.21 6.42 30.62.9-11.14-.07-21.24-4.46-30.69-1-2.18-2.18-3.61-2.33-6.2l-.64-10.43c-.45-5.82-.94-12.08-2.81-17.37-.546-1.938-1.644-3.676-3.16-5 .45-3.42.75-6.83 1-10.29l1.09-16.54c.67-10.66 1.09-21.39 1.46-32.09l6 9.27c1 1.54 2 3 2.85 4.62 1.35 2.28.6 3.48.19 6.3a89.64 89.64 0 0 0-.19 20.83c-.424-8.003.195-16.027 1.84-23.87 8.36 15.8-3.76 31.67-5.78 48.26 2.14-12.35 9-22.33 10.73-34.83 4.43 20.46-.56 43 .22 64.06.23-20 5.15-40 3.53-59.89a58.64 58.64 0 0 0-2.74-14.22 72.43 72.43 0 0 0-2.81-7c-1.43-3.11-1.47-3.41-.45-7 2.85-9.95 6.08-19.63 8.22-29.8a263.26 263.26 0 0 1 7.91 35c1.77 12.61.53 26.31-1.42 38.92-4.17 26.45-16.06 50.17-17.11 77.56 4.69-15.91 9.83-31.67 15.76-46.83 3.56 22.85 10.47 45.56 4 69.24 5.86-17.79 4.13-36.78 1.39-54.94l-1.8-13.77-.6-5.86c-.3-2.47.94-4.31 2-6.41 3.64-7.88 6.38-15.88 7.24-25.11 2.7 25.74 6.42 50.77 1.8 76.93 4.43-19.4 4.36-38.62 3.19-58.47-.67-11.44-1.61-22.89-1.76-34.44-.11-10.44 1-20.94.23-31.38 5.7 16.14 12.87 31.68 12.15 50.51-.6 14.64-4.42 28.75-8.48 42.37a212.07 212.07 0 0 0 8.75-29.76c-2.63 23.91-7.32 47.17-7.13 71.34 1-25 7.24-48.67 10.95-73.18 2.41 23.34 4.47 45.9.19 69.35 5.44-23.15 4.5-45.93 3.27-69.5-1-20.56-.45-41 .11-61.58 5.041 14.053 8.071 28.749 9 43.65.79 16.06-.79 32.23-.79 48.33 0 27.17 6 51.9 13.4 76.36-6.23-25.36-11-50.92-9.42-78.31 17.48 13.66 20.79 44.13 17.33 69.76 3.72-20.08 3.61-42.82-4.72-60.19-1.865-4.107-4.347-7.904-7.36-11.26l-3.08-3c-2.21-1.8-1.72-2-1.38-5.82 1-12.5 2.36-24.92 2.25-37.45 2.289 11.419 5.712 22.581 10.22 33.32-7.13-19.44-10.51-41.43-11-63.38 10.81 9.76 18.27 23.42 21.24 40.86 2.59 15.62 2.29 31.83 1.46 47.89 1.95-19.18 3.75-40.49-.86-58.88-2.59-10.32-6.23-19-11.67-26.94a98.86 98.86 0 0 0-8.26-9.72c-2.92-3.31-1.76-7.85-1.42-12.76 3.503 5.01 7.406 9.729 11.67 14.11 3.75 3.64 6.68 8.37 10 12.61a58.05 58.05 0 0 0 5.85 6.49c2.63 2.4 2.85 4.61 3.79 8.74l4.84 22.44 2.33 11c.82 3.91.75 4.85-.68 8.41-2.4 6.15-6.08 11.15-9.15 16.7-5.86 10.43-8.67 20.75-9.08 33.55.67-8.22 2-15.65 5.29-22.82 4.42-9.64 11.29-16.55 15.61-26.19 6.71 33 14 70.32-7.88 97.45 14.26-15.53 18.76-37.26 17.52-60.86-1.39-27.06-6.87-53.93-11.22-80.16a86.6 86.6 0 0 0 12.72 5.86c1.43.48 4 .67 5 2.17 1.352 2.276 2.481 4.677 3.37 7.17a103.8 103.8 0 0 1 6.31 37.9c-.3 22.67-5.67 47.32-17.9 64 21.2-25.48 27.47-74.41 15.87-107.4 3.75 1 8.71 1.46 12.08 4.09 3.64 2.82 6.91 9.8 8.78 14.71 5.78 15.09 3.76 31.82-.78 47.47 7.35-21.24 8.29-43.49-2.93-61.69l8 2.29c1.88.52 8.29 1.27 8.11 3.9-.53 7.17 3 13.28 4.65 19.66 1.399 4.948 2.353 10.012 2.85 15.13.34 4.76-4.91 12.27-6.94 15.8-7.21 12.6-14.07 25.17-17.15 40.71-3 14.75-1.39 29.23 2.1 43.19-3.23-16.66-3.49-33.32 2.1-49.72 5.74-16.66 16.55-27.73 23.38-43.23 2.14 12.87 1.61 26.23 3.3 39.22 2.18 10.62 9.16 17.33 12.31 27.24-2.25-8.63-7.2-15-9.79-23.3-3.12-7.73-1.39-20.38-1.35-28.9.019-8.9-.964-17.771-2.93-26.45-1.16-5.37-2.74-10.51-4.24-15.65-1.13-3.87-3.08-8.63-2.63-13a69.85 69.85 0 0 1 14.86 7.66 60.98 60.98 0 0 0 .49 17.56 61.43 61.43 0 0 1 .26-17c8.41 6.23 13.92 16.17 13.36 29.83-.52 12.09-4.65 23.49-8.82 34.15 6.91-15.16 14.49-34.3 8.9-51.71-1.302-3.88-3.256-7.509-5.78-10.73a34.36 34.36 0 0 0-3.19-3.68c-1.92-1.91-3.79-2-3.12-5.52 1.104-5.213 1.909-10.485 2.41-15.79.3-4.69-.27-9.31-.12-14 3.225 6.123 5.999 12.473 8.3 19 2.4 6.56 3.3 12.57 3.82 20 .87 12.08.87 24.31.79 36.47.79-14.74 1.54-29.49.75-44.13 3.53 6.31 8.26 10.66 14.15 12.05-3.93-1.319-7.344-3.842-9.76-7.21a39 39 0 0 1-3.82-6.49c-1.43-3.19-1.24-7.5-1.69-11.22-1.62-12.8-4.81-25.18-10.29-35.69 6.895 1.625 13.32 4.825 18.77 9.35 1.4 6.505 3.899 12.725 7.39 18.39-2.92-5.417-4.984-11.252-6.12-17.3 10 8.51 18 20.71 24 34.33-2.187-8.767-5.437-17.233-9.68-25.21a72.33 72.33 0 0 0-12.72-17.79c-1.73-1.69-3.23-2.07-3.49-5.11l-.68-9.15-.86-17a48.85 48.85 0 0 1 16.58 2.25c2.531.841 4.97 1.936 7.28 3.27 3 1.69 4.21 2.51 5.33 6.79 3 11.45 3.46 23.9 3.68 36.1.38-12.83.49-25.93-2.21-38.2 1 .9 1 1.57 2.85 2.63 2.511 2.504 4.809 5.213 6.87 8.1 4.727 6.887 8.432 14.422 11 22.37 4.73 13.73 6.68 28.48 7.28 43.71.22-22.59-2.93-45-12.27-63.56 9.79 6.52 19.7 13.17 28.33 22.55 4.47 4.84 6.6 9.75 7.8 17.41 1 6.49 1.81 16.14 7.06 18.8-8.22-5.18-4.09-23.34-9-31.93-5.1-9.5-13.62-17.15-21.09-22.63 7.69 1.54 14-5.26 21.24.6 7.28 5.59 13.81 10.58 21.84 14.3-4.54-2.56-9.12-5.11-13.28-8.67-4.84-4.21-8.86-10.28-14.86-11.41-5.41-1-10.44 2.66-15.95.41-6.46-2.66-11.86-7.54-17.53-12.19-4.42-3.64-8.81-7.1-13.32-10.4-2.506-6.645-6.321-12.719-11.22-17.86-4.84-5-10.66-7.62-16-11.3-4.73-3.19-5.07-7.54-6.87-14.22 15.337 3.117 30.066 8.707 43.61 16.55 12.23 7.09 15.64 28.75 21.46 43.57-4.09-12.54-6.38-26.64-12.31-37.87 6.628 4.47 12.974 9.346 19 14.6 1.28 1.17 2.63 1.58 2.51 3.72l-.45 7.69-.37 7.54 1.65-15.95c1.61 1.51 3.23 3 4.77 4.66-.49-.68-1-1.32-1.58-2-2.29-2.82-3.11-3.19-2.7-7.62.6-6.23 1-12.5 1.12-18.76.12-12.12-1.31-24.25-6.41-34.15 8.14 1 16.77 5.1 21.65 14.26 5.14 9.53 2.1 22.85 6.45 32.83 4.47 10.88 13.74 15.5 22.33 17.94 7.39 2.1 18.09-.3 22.37 10.17-2.22-7.47-9.23-9.42-14.53-10.62-7.69-1.73-15.46-4.17-21.69-10.7-5.59-5.66-6.9-13.62-7.16-22.74-.34-10.8-1.54-19.7-7.32-27.43 5.59 1.43 11.33 3 16.4 6.46 5.85 4 9.42 7.73 12.08 16.06 5 15.27 6.87 31.82 20.27 36.36-14.3-6.3-13.78-25.74-19.33-41.92 9.76 8.37 20 14.53 32 11.11 9.27-2.66 17.71-8.89 26.53-13.32-2.17.95-4.39 2-6.56 3.02zM222 856.67a2.7 2.7 0 0 0-.26.41c-6.12 9.46-7.24 20-4 31.37 1.09 3 1.84 3.87.27 6.87-1.71 3.177-3.669 6.213-5.86 9.08-4.43 6-9.08 11.26-12.19 18.77-2.44-6.91-5.14-13.81-6.95-21.09-.78-3-1.42-5.45-.6-8.6l3.57-13.51c4.35-16.58 9-33.21 15.76-48.52 7.69-17.6 18.57-30.84 30.62-42.18 7.32-6.86 15.05-13 22.7-19.06l-9 19.06c-9 18.73-18.69 37-31.75 50.59 12.61-11.41 21.84-26.38 30.92-42.78l4.4-7.81 11.45-20.34c2.14-3.94 3.75-6.34 6.83-8.85l11.07-8.93c-4.39 8.93-7.13 18.38-9.46 28.52a83.4 83.4 0 0 1-2.89 9.6 109.45 109.45 0 0 1-12.75 24.28 163.48 163.48 0 0 1-19.89 23.27c-7.1 7-15.16 11.41-21.66 19.51-.07 0-.14.08-.33.34zm8 43.42c-2.13-6.53-6.82-15.13-6.3-22.78.11-8.93 5.29-14.19 10.77-18.2 8.71-6.38 18-10 25.71-18.84-5.78 15-16.1 25.86-18.39 42.89-1.471 9.739-1.686 19.626-.64 29.42.6 4.88-.9 9.2-1.65 14.07-.71 4.25-1.2 8.49-1.61 12.76-.08-.56-.12-1.2-.19-1.8v-.22c-.004-.216-.031-.43-.08-.64v-.23a185.92 185.92 0 0 0-7.62-36.43zm32.35 4.72c-4.39 26.27-18.16 49.31-25.93 73.93 2-10.32 2.29-20.6 1.95-31-.33-10.1 1.17-19.07 3.83-28.75 1.264 5.683 3.219 11.191 5.82 16.4a77.02 77.02 0 0 1-3.76-10.84c-.608-2.55-1.082-5.13-1.42-7.73.94-3.16 2-6.27 3.19-9.27 4.76-11.75 11.56-19 19.36-26.68-1.39 7.88-2.39 15.91-3.05 23.94h.01zm26.72-56.58c0 .26-.11.6-.23 1.12l-.3 1.69c-6.71 34.75-11.14 71.71-23 104.32.56-43.6 5.78-87.4 27.21-122.82-1.48 5.14-2.6 10.46-3.69 15.69h.01zm18.65-62.41c-.11.19-.19.38-.3.53l-.11.18c-.11.19-.19.3-.27.45-.007.026-.007.054 0 .08l-.45.67a.85.85 0 0 1-.15.23v.07c0 .07-.08.12-.08.15-.007.047-.032.09-.07.12v.11c-.024.07-.061.134-.11.19-.03.067-.067.131-.11.19 0 .07 0 .11-.08.15-.06.066-.11.14-.15.22-.007.026-.007.054 0 .08-11.9 19.37-24.54 37.9-32.42 61-2.161 6.33-3.99 12.769-5.48 19.29-1.2 5.14-5.74 8.71-8.78 11.93-7.66 8.11-13.17 19.14-16.55 31.38-1.17-15.09.52-35.28 9-46.84 5.048-6.843 9.327-14.221 12.76-22 1.873-4.24 3.673-8.573 5.4-13 2-4.91 4.13-8 7-12.08 6.31-9 11-19.48 16.21-29.65l2.37-4.54c1.8-3.45 3.64-8.55 7-8.55 2.56 0 5.33.18 7.7 1.5 3.18 1.87-.73 5.48-2.34 8.14h.01zm48.78 99.48c0 .11-.07.3-.11.49-1.69 9.68-4.43 19-6.53 28.52-3.08-5.74-6.38-11.18-9.23-17.08-1.35-2.62-.9-7.35-1-10.47-.86-15.08-1-30.35-1.13-45.51 4.783 6.123 9.159 12.554 13.1 19.25 1.937 3.469 3.631 7.067 5.07 10.77 1.74 4.58.76 9.04-.18 14.03h.01zm31.08 21.8l-.12-.33c-.045-.053-.07-.12-.07-.19a3.51 3.51 0 0 1-.12-.45c-.028-.129-.065-.256-.11-.38-.07-.3-.19-.6-.26-.9-.048-.109-.085-.223-.11-.34 0-.11-.08-.26-.12-.41-.028-.144-.078-.282-.15-.41-.074-.246-.134-.497-.18-.75 0-.15-.12-.34-.15-.49s0-.15-.08-.22c-.15-.45-.22-.76-.26-.9l-6.31-22.52a183.02 183.02 0 0 1-4.73-27.81c-.83-8.37-1.84-16.74-3.23-25-.79-4.76-1.54-10.43-3.45-14.78l2.47 5.1c2.48 5 3.27 9.61 4.62 15.31 2.85 12.16 7 23.57 11.37 34.71l6.38 15.87c.49 5.11.86 10.25 1 15.43l.64 36.17c-1.61-9.29-4.42-17.96-7.04-26.71h.01zm23.75.34c-3-12.49-7.09-24.5-11.15-36.36a363.89 363.89 0 0 0 10.4 16.55c1.8 2.66.86 7.32.86 11-.01 2.77.29 6.22-.12 8.81h.01zm1.24-44.32c-10.13-13.28-20.83-31.48-18-52.42a44.42 44.42 0 0 1 7.13-18.24c7.37 22.63 11.42 45.37 10.86 70.66h.01zm54.07-91a.29.29 0 0 1 .11 0 264.37 264.37 0 0 1 41 10.62c3.23 1.13 6 3.61 8.6 6.53 2.1 2.41 4 5.07 5.92 7.51a144.69 144.69 0 0 1 14.49 22.66c-16.51-3.07-34.71-6.34-49.65-16.62a14.85 14.85 0 0 1-3.67-3.11c-2.48-3.42-4.88-6.91-7.32-10.44a750.36 750.36 0 0 1-11.56-17.56c.65.15 1.36.29 2.07.38l.01.03zm-48.07 98.43c-.22-.23-.45-.49-.75-.79 1.16-13.36 1.88-26.83.71-40.12 3.87 10.17 7.88 20.27 11.41 30.66 3.49 10.06 5.59 20.27 7.58 31.07-6.24-7.12-12.8-13.65-18.96-20.85l.01.03zm29.61 25.55c-1.61-11.86-2.89-23.86-5.7-35.24s-6.53-22.32-10.06-33.36c4.88 5 9.79 9.8 14.86 14.41 2.74 2.48 5.48 4.88 8.25 7.25 3 2.55 5.67 3.56 6.61 8.52 2.89 15.08 2.63 31.74 9.42 44.8a120.57 120.57 0 0 1-13.32-1.24c-1.945-.286-3.875-.674-5.78-1.16-2.6-.67-3.8-.33-4.29-4.01l.01.03zm51.22 20c.68 2.82 1.24 5.59 1.73 8.45a144.76 144.76 0 0 1-13.1-7.25c3.82-.3 7.61-.74 11.36-1.23l.01.03zm-24.66-13.5c-2.802-5.802-4.568-12.05-5.22-18.46 6.53 9.38 16 11.29 23.49 18.46-6.08.15-12.19.19-18.27 0zm21.27 0c-6.49-9-16.32-11.44-22.74-20.67-4.09-5.93-5.1-15.61-6-23.53 4.81 3.56 9.68 6.94 14.71 10 2.44 1.46 4.88 2.93 7.39 4.24a60.17 60.17 0 0 0 6.08 5.89c9.84 8.29 20.49 14.67 30.17 23.34-9.87.02-19.74.43-29.62.69l.01.04zm39.48 49.65c0 .15 0 .38-.07.71v.34l-.94 6.6c-13.32-10.46-29.16-15.27-44-20.63-7.28-2.59-14.52-5.15-21.65-8.48a61.07 61.07 0 0 1-9-5.07c-2.59-1.8-7.62-4-8.29-8a234.88 234.88 0 0 0 33.66-.15 91.12 91.12 0 0 0 14 6.64c2.63 1.09 2.4 2.4 2.74 6.19a67.11 67.11 0 0 1 .07 9.08 67.52 67.52 0 0 0 0-14.07c1.09.45 2.14.86 3.19 1.35-1.09-.56-2.14-1.16-3.22-1.72-.3-3.08-.75-6.08-1.32-9.05 5.78-.75 11.49-1.72 17.23-3 2.25-.52 4.5-1.16 6.75-1.61 1.798 1.496 3.514 3.089 5.14 4.77a54.09 54.09 0 0 1 4.21 5.32c1.2 1.81 1.83 2.26 1.68 4.66-.165 1.723-.165 3.457 0 5.18a109.24 109.24 0 0 1-.18 20.9v.04zm5-29.57a96.51 96.51 0 0 1 5.7 17l.6 2.52c-4-11.79-8.59-23-15.76-31.64 4.5-.27 7.39 7.31 9.49 12.08l-.03.04zm21-60.64h.07.11c.28.169.57.319.87.45h.07c.124.06.238.137.34.23.059.035.123.058.19.07 7.169 3.678 13.114 9.363 17.11 16.36a47.36 47.36 0 0 0-15.13-5.63 69.58 69.58 0 0 0-8.81-1.08c-.42-4.73-1-9.42-1.69-14 2.26 1.34 4.59 2.43 6.88 3.56l-.01.04zm-6.72 26.42c.67 6.79 1.24 13.58 2.21 20.33-7-5.14-14.44-6.79-22.47-6.94-5.78-7.76-12.91-13.66-19.78-19.55 9.83 1.88 19.7 1.2 29.61.3l6.53-.52c1-.08 2.14-.12 3.19-.15.27 2.07.49 4.27.72 6.49l-.01.04zm-2-16.1c-12.23-.45-24.43.34-36.47-3-10.62-2.93-20.72-9.57-30.18-16.4-22.44-16.18-42.62-39.14-60.45-63.65l-2.81-3.9c2.872.939 5.609 2.25 8.14 3.9 7.17 4.47 13.7 11 20.71 16a140.33 140.33 0 0 0 16.29 9.78 145.12 145.12 0 0 0 9 4.28c2.89 1.27 6.3 1.88 8.78 4.16 8.59 7.88 15.27 18.32 23.23 27.14 8.29 9.23 16.92 10.05 27.47 10-9.5-.82-17.68-1.76-25-10.61-6.26-7.51-11.25-16.74-17.41-24.4 12.65 4 25.52 6.72 38.43 9.35l10.28 2.1c2.89.56 3.64 5.78 4.65 9.3 2.352 8.51 4.143 17.165 5.36 25.91l-.02.04zm71.75-27.81c1.35 10.55 1.09 21.47.49 32.16-12.196-14.172-26.114-26.766-41.43-37.49-9.91-6.79-20.26-12.46-31.15-16.06-2.51-.82-5-1.54-7.58-2.1a170.82 170.82 0 0 0-5.21-12 164.13 164.13 0 0 0-10.55-18.46c18.35 7.13 36.36 14.89 55 20.6l24.92 7.39c2.21.6 5.22.64 6.9 2.59 4.99 5.58 7.58 14.82 8.63 23.33l-.02.04z" class="E"/><defs><linearGradient id="Q" x1="335.63" y1="369.92" x2="346.13" y2="369.92" xlink:href="#BR"><stop stop-color="#e8bc10"/></linearGradient><linearGradient id="R" x1="3211.26" y1="4993.49" x2="3321.51" y2="4993.49" xlink:href="#BR"><stop stop-color="#e8bc10"/></linearGradient><linearGradient id="S" x1="3214.06" y1="4323.17" x2="3324.52" y2="4323.17" xlink:href="#BR"><stop stop-color="#e8bc10"/></linearGradient><linearGradient id="T" x1="3804.43" y1="5017.74" x2="3914.68" y2="5017.74" xlink:href="#BR"><stop stop-color="#e8bc10"/></linearGradient><linearGradient id="U" x1="316.745" y1="534.89" x2="317.838" y2="536.78" xlink:href="#BR"><stop stop-color="#272438"/><stop offset="1" stop-color="#2f4260"/></linearGradient><linearGradient id="V" x1="2119.1" y1="18750.1" x2="1917.49" y2="19691" xlink:href="#BR"><stop stop-color="#272438"/><stop offset="1" stop-color="#2f4260"/></linearGradient><linearGradient id="W" x1="404.351" y1="215.815" x2="400.717" y2="213.37" xlink:href="#BR"><stop stop-color="#f6b814"/><stop offset="1" stop-color="#8b4e20"/></linearGradient><linearGradient id="X" x1="-1827.06" y1="831.738" x2="-1834.19" y2="827.619" xlink:href="#BR"><stop stop-color="#f6b814"/><stop offset="1" stop-color="#8b4e20"/></linearGradient><linearGradient id="Y" x1="-1844.91" y1="850.827" x2="-1828.8" y2="850.827" xlink:href="#BR"><stop stop-color="#f6b814"/><stop offset="1" stop-color="#8b4e20"/></linearGradient><linearGradient id="Z" x1="-1828.53" y1="832.879" x2="-1835.68" y2="828.795" xlink:href="#BR"><stop stop-color="#f6b814"/><stop offset="1" stop-color="#8b4e20"/></linearGradient><linearGradient id="a" x1="-1852.85" y1="854.041" x2="-1836.68" y2="854.041" xlink:href="#BR"><stop stop-color="#f6b814"/><stop offset="1" stop-color="#8b4e20"/></linearGradient><linearGradient id="b" x1="-1828.45" y1="830.299" x2="-1835.54" y2="826.176" xlink:href="#BR"><stop stop-color="#f6b814"/><stop offset="1" stop-color="#8b4e20"/></linearGradient><linearGradient id="c" x1="-1853.18" y1="852.708" x2="-1837.01" y2="852.708" xlink:href="#BR"><stop stop-color="#f6b814"/><stop offset="1" stop-color="#8b4e20"/></linearGradient><linearGradient id="d" x1="-1833" y1="832.459" x2="-1840.12" y2="828.367" xlink:href="#BR"><stop stop-color="#f6b814"/><stop offset="1" stop-color="#8b4e20"/></linearGradient><linearGradient id="e" x1="-1844.91" y1="849.554" x2="-1828.8" y2="849.554" xlink:href="#BR"><stop stop-color="#f6b814"/><stop offset="1" stop-color="#8b4e20"/></linearGradient><linearGradient id="f" x1="-1829.87" y1="832.175" x2="-1836.99" y2="828.091" xlink:href="#BR"><stop stop-color="#f6b814"/><stop offset="1" stop-color="#8b4e20"/></linearGradient><linearGradient id="g" x1="401.754" y1="213.995" x2="402.769" y2="217.342" xlink:href="#BR"><stop stop-color="#f6b814"/><stop offset="1" stop-color="#f6df45"/></linearGradient><linearGradient id="h" x1="404.133" y1="216.138" x2="400.499" y2="213.694" xlink:href="#BR"><stop stop-color="#f6ee83"/><stop offset="1" stop-color="#f6df45"/></linearGradient><linearGradient id="i" x1="5747.08" y1="7491.04" x2="6071.8" y2="7491.04" xlink:href="#BR"><stop stop-color="#e8bc10"/></linearGradient><linearGradient id="j" x1="164.961" y1="177.153" x2="171.997" y2="231.363" xlink:href="#BR"><stop stop-color="#fff"/></linearGradient><linearGradient id="k" x1="33205" y1="-15749.4" x2="34213.4" y2="-13746" xlink:href="#BR"><stop stop-color="#fff"/></linearGradient><linearGradient id="l" x1="14958.2" y1="1257.45" x2="14988.1" y2="1346.2" xlink:href="#BR"><stop stop-color="#f6b814"/><stop offset="1" stop-color="#8b4e20"/></linearGradient><linearGradient id="m" x1="14692.8" y1="665.285" x2="14684.9" y2="617.561" xlink:href="#BR"><stop stop-color="#f6b814"/><stop offset="1" stop-color="#8b4e20"/></linearGradient><linearGradient id="n" x1="14918.5" y1="1256.19" x2="14948.3" y2="1344.73" xlink:href="#BR"><stop stop-color="#f6b814"/><stop offset="1" stop-color="#8b4e20"/></linearGradient><linearGradient id="o" x1="14707.5" y1="665.457" x2="14699.6" y2="617.656" xlink:href="#BR"><stop stop-color="#f6b814"/><stop offset="1" stop-color="#8b4e20"/></linearGradient><linearGradient id="p" x1="14974.9" y1="1241.96" x2="15004.8" y2="1330.56" xlink:href="#BR"><stop stop-color="#f6b814"/><stop offset="1" stop-color="#8b4e20"/></linearGradient><linearGradient id="q" x1="14711.6" y1="659.563" x2="14703.7" y2="611.806" xlink:href="#BR"><stop stop-color="#f6b814"/><stop offset="1" stop-color="#8b4e20"/></linearGradient><linearGradient id="r" x1="14971.7" y1="1242" x2="15001.6" y2="1330.58" xlink:href="#BR"><stop stop-color="#f6b814"/><stop offset="1" stop-color="#8b4e20"/></linearGradient><linearGradient id="s" x1="14710.6" y1="662.849" x2="14702.7" y2="615.079" xlink:href="#BR"><stop stop-color="#f6b814"/><stop offset="1" stop-color="#8b4e20"/></linearGradient><linearGradient id="t" x1="14942.2" y1="1254.14" x2="14972.1" y2="1342.75" xlink:href="#BR"><stop stop-color="#f6b814"/><stop offset="1" stop-color="#8b4e20"/></linearGradient><linearGradient id="u" x1="14726.7" y1="657.418" x2="14718.8" y2="609.663" xlink:href="#BR"><stop stop-color="#f6b814"/><stop offset="1" stop-color="#8b4e20"/></linearGradient><linearGradient id="v" x1="14972.14" y1="1314.44" x2="14974.84" y2="1224.06" xlink:href="#BR"><stop stop-color="#f6b814"/><stop offset="1" stop-color="#f6df45"/></linearGradient><linearGradient id="w" x1="14712.5" y1="600.835" x2="14739" y2="679.458" xlink:href="#BR"><stop stop-color="#f6ee83"/><stop offset="1" stop-color="#f6df45"/></linearGradient><linearGradient id="x" x1="22027.5" y1="8602.16" x2="21962.9" y2="8732.89" xlink:href="#BR"><stop stop-color="#f6b814"/><stop offset="1" stop-color="#8b4e20"/></linearGradient><linearGradient id="y" x1="21830.8" y1="8803.9" x2="21880" y2="8742.03" xlink:href="#BR"><stop stop-color="#f6b814"/><stop offset="1" stop-color="#8b4e20"/></linearGradient><linearGradient id="z" x1="22049.3" y1="8612.98" x2="21984.7" y2="8743.72" xlink:href="#BR"><stop stop-color="#f6b814"/><stop offset="1" stop-color="#8b4e20"/></linearGradient><linearGradient id="AA" x1="21834.9" y1="8808.51" x2="21884.1" y2="8746.71" xlink:href="#BR"><stop stop-color="#f6b814"/><stop offset="1" stop-color="#8b4e20"/></linearGradient><linearGradient id="AB" x1="22048.9" y1="8613.31" x2="21984.3" y2="8744.05" xlink:href="#BR"><stop stop-color="#f6b814"/><stop offset="1" stop-color="#8b4e20"/></linearGradient><linearGradient id="AC" x1="21855.2" y1="8820.22" x2="21904.4" y2="8758.43" xlink:href="#BR"><stop stop-color="#f6b814"/><stop offset="1" stop-color="#8b4e20"/></linearGradient><linearGradient id="AD" x1="22054.8" y1="8617.22" x2="21990.3" y2="8747.95" xlink:href="#BR"><stop stop-color="#f6b814"/><stop offset="1" stop-color="#8b4e20"/></linearGradient><linearGradient id="AE" x1="21863.4" y1="8821.82" x2="21912.7" y2="8759.95" xlink:href="#BR"><stop stop-color="#f6b814"/><stop offset="1" stop-color="#8b4e20"/></linearGradient><linearGradient id="AF" x1="22054.3" y1="8617.67" x2="21989.7" y2="8748.4" xlink:href="#BR"><stop stop-color="#f6b814"/><stop offset="1" stop-color="#8b4e20"/></linearGradient><linearGradient id="AG" x1="21855.9" y1="8820.66" x2="21905.2" y2="8758.8" xlink:href="#BR"><stop stop-color="#f6b814"/><stop offset="1" stop-color="#8b4e20"/></linearGradient><linearGradient id="AH" x1="21959.8" y1="8688.92" x2="22066.2" y2="8603.98" xlink:href="#BR"><stop stop-color="#f6b814"/><stop offset="1" stop-color="#f6df45"/></linearGradient><linearGradient id="AI" x1="21911.1" y1="8745.25" x2="21850.6" y2="8867.9" xlink:href="#BR"><stop stop-color="#f6ee83"/><stop offset="1" stop-color="#f6df45"/></linearGradient><linearGradient id="AJ" x1="15965.9" y1="785.515" x2="15995.8" y2="874.119" xlink:href="#BR"><stop stop-color="#f6b814"/><stop offset="1" stop-color="#8b4e20"/></linearGradient><linearGradient id="AK" x1="15706.5" y1="218.687" x2="15698.5" y2="170.884" xlink:href="#BR"><stop stop-color="#f6b814"/><stop offset="1" stop-color="#8b4e20"/></linearGradient><linearGradient id="AL" x1="15927.8" y1="803.054" x2="15957.6" y2="891.717" xlink:href="#BR"><stop stop-color="#f6b814"/><stop offset="1" stop-color="#8b4e20"/></linearGradient><linearGradient id="AM" x1="15718.7" y1="209.987" x2="15710.8" y2="162.186" xlink:href="#BR"><stop stop-color="#f6b814"/><stop offset="1" stop-color="#8b4e20"/></linearGradient><linearGradient id="AN" x1="15976.6" y1="785.579" x2="16006.4" y2="874.22" xlink:href="#BR"><stop stop-color="#f6b814"/><stop offset="1" stop-color="#8b4e20"/></linearGradient><linearGradient id="AO" x1="15716.3" y1="213.497" x2="15708.3" y2="165.727" xlink:href="#BR"><stop stop-color="#f6b814"/><stop offset="1" stop-color="#8b4e20"/></linearGradient><linearGradient id="AP" x1="15929.3" y1="799.207" x2="15959.2" y2="887.81" xlink:href="#BR"><stop stop-color="#f6b814"/><stop offset="1" stop-color="#8b4e20"/></linearGradient><linearGradient id="AQ" x1="15724.3" y1="216.185" x2="15716.4" y2="168.382" xlink:href="#BR"><stop stop-color="#f6b814"/><stop offset="1" stop-color="#8b4e20"/></linearGradient><linearGradient id="AR" x1="15956.5" y1="809.532" x2="15986.5" y2="898.397" xlink:href="#BR"><stop stop-color="#f6b814"/><stop offset="1" stop-color="#8b4e20"/></linearGradient><linearGradient id="AS" x1="15740.3" y1="208.394" x2="15732.3" y2="160.625" xlink:href="#BR"><stop stop-color="#f6b814"/><stop offset="1" stop-color="#8b4e20"/></linearGradient><linearGradient id="AT" x1="15983.3" y1="849.88" x2="15986" y2="759.614" xlink:href="#BR"><stop stop-color="#f6b814"/><stop offset="1" stop-color="#f6df45"/></linearGradient><linearGradient id="AU" x1="15724.03" y1="152.46" x2="15750.53" y2="231.158" xlink:href="#BR"><stop stop-color="#f6ee83"/><stop offset="1" stop-color="#f6df45"/></linearGradient><linearGradient id="AV" x1="7734.62" y1="3774.09" x2="7762.2" y2="3804.56" xlink:href="#BR"><stop stop-color="#f6b814"/><stop offset="1" stop-color="#8b4e20"/></linearGradient><linearGradient id="AW" x1="7230.65" y1="3230.49" x2="7216.83" y2="3209.17" xlink:href="#BR"><stop stop-color="#f6b814"/><stop offset="1" stop-color="#8b4e20"/></linearGradient><linearGradient id="AX" x1="7167.98" y1="3165.88" x2="7154.27" y2="3144.79" xlink:href="#BR"><stop stop-color="#f6b814"/><stop offset="1" stop-color="#8b4e20"/></linearGradient><linearGradient id="AY" x1="7216.76" y1="3220.48" x2="7202.97" y2="3199.2" xlink:href="#BR"><stop stop-color="#f6b814"/><stop offset="1" stop-color="#8b4e20"/></linearGradient><linearGradient id="AZ" x1="7880.95" y1="3960.67" x2="7909.12" y2="3991.78" xlink:href="#BR"><stop stop-color="#f6b814"/><stop offset="1" stop-color="#8b4e20"/></linearGradient><linearGradient id="Aa" x1="7176.64" y1="3157.99" x2="7162.9" y2="3136.85" xlink:href="#BR"><stop stop-color="#f6b814"/><stop offset="1" stop-color="#8b4e20"/></linearGradient><linearGradient id="Ab" x1="7895.42" y1="3933.04" x2="7923.58" y2="3964.14" xlink:href="#BR"><stop stop-color="#f6b814"/><stop offset="1" stop-color="#8b4e20"/></linearGradient><linearGradient id="Ac" x1="7213.29" y1="3216.31" x2="7199.51" y2="3195.05" xlink:href="#BR"><stop stop-color="#f6b814"/><stop offset="1" stop-color="#8b4e20"/></linearGradient><linearGradient id="Ad" x1="7958.61" y1="4016.11" x2="7938.66" y2="3966.54" xlink:href="#BR"><stop stop-color="#f6b814"/><stop offset="1" stop-color="#f6df45"/></linearGradient><linearGradient id="Ae" x1="7228.26" y1="3198.79" x2="7253.49" y2="3226.66" xlink:href="#BR"><stop stop-color="#f6ee83"/><stop offset="1" stop-color="#f6df45"/></linearGradient><linearGradient id="Af" x1="9159.52" y1="7388.23" x2="9228.68" y2="7335.62" xlink:href="#BR"><stop stop-color="#f6b814"/><stop offset="1" stop-color="#8b4e20"/></linearGradient><linearGradient id="Ag" x1="8985.52" y1="7088.08" x2="8940.81" y2="7096.03" xlink:href="#BR"><stop stop-color="#f6b814"/><stop offset="1" stop-color="#8b4e20"/></linearGradient><linearGradient id="Ah" x1="9162.96" y1="7384.16" x2="9232.25" y2="7331.45" xlink:href="#BR"><stop stop-color="#f6b814"/><stop offset="1" stop-color="#8b4e20"/></linearGradient><linearGradient id="Ai" x1="8971.29" y1="7093.5" x2="8926.8" y2="7101.51" xlink:href="#BR"><stop stop-color="#f6b814"/><stop offset="1" stop-color="#8b4e20"/></linearGradient><linearGradient id="Aj" x1="9156.01" y1="7382.3" x2="9225.19" y2="7329.67" xlink:href="#BR"><stop stop-color="#f6b814"/><stop offset="1" stop-color="#8b4e20"/></linearGradient><linearGradient id="Ak" x1="8980.57" y1="7100.47" x2="8936.03" y2="7108.49" xlink:href="#BR"><stop stop-color="#f6b814"/><stop offset="1" stop-color="#8b4e20"/></linearGradient><linearGradient id="Al" x1="9142.44" y1="7392.14" x2="9211.18" y2="7339.85" xlink:href="#BR"><stop stop-color="#f6b814"/><stop offset="1" stop-color="#8b4e20"/></linearGradient><linearGradient id="Am" x1="8982.5" y1="7106.51" x2="8938" y2="7114.56" xlink:href="#BR"><stop stop-color="#f6b814"/><stop offset="1" stop-color="#8b4e20"/></linearGradient><linearGradient id="An" x1="9155.18" y1="7375.08" x2="9224.48" y2="7322.37" xlink:href="#BR"><stop stop-color="#f6b814"/><stop offset="1" stop-color="#8b4e20"/></linearGradient><linearGradient id="Ao" x1="8973.32" y1="7092.42" x2="8928.82" y2="7100.44" xlink:href="#BR"><stop stop-color="#f6b814"/><stop offset="1" stop-color="#8b4e20"/></linearGradient><linearGradient id="Ap" x1="9212.88" y1="7347.06" x2="9150.76" y2="7337.95" xlink:href="#BR"><stop stop-color="#f6b814"/><stop offset="1" stop-color="#f6df45"/></linearGradient><linearGradient id="Aq" x1="8918.38" y1="7121.5" x2="8986.75" y2="7069.49" xlink:href="#BR"><stop stop-color="#f6ee83"/><stop offset="1" stop-color="#f6df45"/></linearGradient><linearGradient id="Ar" x1="6677.89" y1="5169.13" x2="6715.11" y2="5140.82" xlink:href="#BR"><stop stop-color="#f6b814"/><stop offset="1" stop-color="#8b4e20"/></linearGradient><linearGradient id="As" x1="6502.4" y1="4907.37" x2="6478.37" y2="4911.62" xlink:href="#BR"><stop stop-color="#f6b814"/><stop offset="1" stop-color="#8b4e20"/></linearGradient><linearGradient id="At" x1="6696.48" y1="5193.77" x2="6733.7" y2="5165.46" xlink:href="#BR"><stop stop-color="#f6b814"/><stop offset="1" stop-color="#8b4e20"/></linearGradient><linearGradient id="Au" x1="6548.24" y1="4969.01" x2="6524.19" y2="4973.35" xlink:href="#BR"><stop stop-color="#f6b814"/><stop offset="1" stop-color="#8b4e20"/></linearGradient><linearGradient id="Av" x1="6618.92" y1="5092.03" x2="6656.14" y2="5063.72" xlink:href="#BR"><stop stop-color="#f6b814"/><stop offset="1" stop-color="#8b4e20"/></linearGradient><linearGradient id="Aw" x1="6494.03" y1="4895.62" x2="6470" y2="4899.86" xlink:href="#BR"><stop stop-color="#f6b814"/><stop offset="1" stop-color="#8b4e20"/></linearGradient><linearGradient id="Ax" x1="6676.73" y1="5164.9" x2="6713.98" y2="5136.56" xlink:href="#BR"><stop stop-color="#f6b814"/><stop offset="1" stop-color="#8b4e20"/></linearGradient><linearGradient id="Ay" x1="6500.81" y1="4904.05" x2="6476.73" y2="4908.34" xlink:href="#BR"><stop stop-color="#f6b814"/><stop offset="1" stop-color="#8b4e20"/></linearGradient><linearGradient id="Az" x1="6685.65" y1="5180.37" x2="6722.87" y2="5152.06" xlink:href="#BR"><stop stop-color="#f6b814"/><stop offset="1" stop-color="#8b4e20"/></linearGradient><linearGradient id="BA" x1="6549.76" y1="4966.01" x2="6525.7" y2="4970.35" xlink:href="#BR"><stop stop-color="#f6b814"/><stop offset="1" stop-color="#8b4e20"/></linearGradient><linearGradient id="BB" x1="6662.54" y1="5092.2" x2="6629.22" y2="5087.27" xlink:href="#BR"><stop stop-color="#f6b814"/><stop offset="1" stop-color="#f6df45"/></linearGradient><linearGradient id="BC" x1="6707.29" y1="5004.22" x2="6744.27" y2="4976.09" xlink:href="#BR"><stop stop-color="#f6ee83"/><stop offset="1" stop-color="#f6df45"/></linearGradient><linearGradient id="BD" x1="4100.27" y1="3104.43" x2="4103.67" y2="3108.19" xlink:href="#BR"><stop stop-color="#f6b814"/><stop offset="1" stop-color="#8b4e20"/></linearGradient><linearGradient id="BE" x1="4573.28" y1="3470.63" x2="4571.16" y2="3465.78" xlink:href="#BR"><stop stop-color="#f6b814"/><stop offset="1" stop-color="#8b4e20"/></linearGradient><linearGradient id="BF" x1="4522.48" y1="3428.42" x2="4520.35" y2="3423.55" xlink:href="#BR"><stop stop-color="#f6b814"/><stop offset="1" stop-color="#8b4e20"/></linearGradient><linearGradient id="BG" x1="4399.55" y1="3376.53" x2="4403.17" y2="3380.52" xlink:href="#BR"><stop stop-color="#f6b814"/><stop offset="1" stop-color="#8b4e20"/></linearGradient><linearGradient id="BH" x1="4526.6" y1="3417.32" x2="4524.46" y2="3412.5" xlink:href="#BR"><stop stop-color="#f6b814"/><stop offset="1" stop-color="#8b4e20"/></linearGradient><linearGradient id="BI" x1="4481.51" y1="3395.54" x2="4485.16" y2="3399.57" xlink:href="#BR"><stop stop-color="#f6b814"/><stop offset="1" stop-color="#8b4e20"/></linearGradient><linearGradient id="BJ" x1="4577.15" y1="3465.22" x2="4575.02" y2="3460.32" xlink:href="#BR"><stop stop-color="#f6b814"/><stop offset="1" stop-color="#8b4e20"/></linearGradient><linearGradient id="BK" x1="4449.89" y1="3367.61" x2="4453.49" y2="3371.6" xlink:href="#BR"><stop stop-color="#f6b814"/><stop offset="1" stop-color="#8b4e20"/></linearGradient><linearGradient id="BL" x1="4690.83" y1="3595.6" x2="4689.07" y2="3582.01" xlink:href="#BR"><stop stop-color="#f6b814"/><stop offset="1" stop-color="#f6df45"/></linearGradient><linearGradient id="BM" x1="4467.76" y1="3374.5" x2="4470.45" y2="3377.47" xlink:href="#BR"><stop stop-color="#f6ee83"/><stop offset="1" stop-color="#f6df45"/></linearGradient><linearGradient id="BN" x1="22916.1" y1="-12547.7" x2="23381.4" y2="-11623.3" xlink:href="#BR"><stop stop-color="#fff"/></linearGradient><path id="BO" d="M400.64 213.48c.24-.26 1.19 0 2.16.69s1.61 1.42 1.46 1.74c-.2.3-1.18 0-2.18-.67s-1.64-1.45-1.44-1.76z"/><path id="BP" d="M210.925 296.346h-.11c-1.19.19-3.11-2.54-4.37-6.27s-1.39-7.06-.33-7.63l.11-.05c1.17-.39 3.18 2.4 4.48 6.25s1.4 7.3.22 7.7z"/><path id="BQ" d="M441.339 105.546c-1.18.4-3.18-2.39-4.48-6.24s-1.4-7.28-.23-7.68h.12c-1.06.57-.93 3.91.33 7.64s3.18 6.46 4.37 6.27l-.11.01z"/><linearGradient id="BR" gradientUnits="userSpaceOnUse"/></defs></svg>