<svg xmlns="http://www.w3.org/2000/svg" width="415" height="297" fill="none" xmlns:v="https://vecta.io/nano"><style>#A,#F,#G,#H,#E,#D,#C,#B{transform-origin:center}#E,#C{animation:translateY 2s linear infinite}#D,#B{animation:translateYReverse 2s linear infinite}#H{animation:rotation 4s linear infinite}#G{animation:rotationReverse 4s linear infinite}#F{animation:opacity 2s linear infinite}#A{animation:translate 5s linear infinite}</style><g clip-path="url(#I)"><g id="A"><g fill="#fda57d"><path d="M343.574 187.547a5.71 5.71 0 0 0 .563-2.408c.01-.834-.164-1.66-.508-2.419a5.71 5.71 0 0 0-3.666-3.142l-1.262-20.236-8.417 6.337 2.489 18.245c-.284 1.374-.054 2.804.645 4.02a5.74 5.74 0 0 0 10.155-.397h.001zm36.692 79.545l6.687 1.917 10.577-24.879-9.869-2.83-7.395 25.792z"/></g><path d="M398.074 278.917l-21.009-6.034 2.331-8.117 12.892 3.702c2.153.618 3.972 2.067 5.057 4.026a8.45 8.45 0 0 1 .729 6.423h0z" fill="#2f2e41"/><path d="M369.555 289.948h-6.956l-3.31-26.831h10.267l-.001 26.831z" fill="#fda57d"/><path d="M357.63 287.96h13.415v8.447h-21.862a8.45 8.45 0 0 1 8.447-8.447z" fill="#2f2e41"/><path d="M350.317 180.556s-3.972 15.887 2.837 48.228l5.107 55.6 13.05.567-1.7-60.144 4.539-24.965 11.348 34.611-3.972 24.4 9.646 4.539 10.781-33.476s-1.135-46.526-5.674-52.2l-45.962 2.84z" fill="#292929"/><path d="M366.796 90.058a13.94 13.94 0 0 0 13.936-13.936 13.94 13.94 0 0 0-13.936-13.936 13.94 13.94 0 0 0-13.936 13.936 13.94 13.94 0 0 0 13.936 13.936z" fill="#fda57d"/><path d="M359.395 97.285s-.851 1.872 9.362.715 12.483-4.539 12.483-4.539l17.873 78.4-1.135 6.938-48.8 2.891v-9.828l8.511-52.031 1.706-22.546z" fill="#000"/><g fill="#fdd301"><path d="M363.573 179.708l-15.468-.292-.05-.216a81.28 81.28 0 0 1 .567-32.468c3.124-13.834-3.975-32.6-7.172-40.02-.376-.883-.421-1.872-.126-2.786a3.98 3.98 0 0 1 1.732-2.185l10.949-6.569a5.58 5.58 0 0 1 2.45-.779c.866-.065 1.736.073 2.539.403s1.519.844 2.089 1.499.978 1.435 1.193 2.277l1.914 7.51c8.817 9.481 8.2 28.928 6.123 43.586-1.484 10.097-3.716 20.069-6.677 29.835l-.063.205z"/><path d="M346.061 100.269l-1.338.915c-3.022 2.055-5.293 5.039-6.466 8.5-.681 2.018-1.202 4.087-1.558 6.187l-6.241 35.746-2.27 28.37 12.483-2.836 5.674-32.909 5.674-20.426-5.958-23.547zm44.392 79.574l-.118-.326c-.812-2.249-19.747-55.227-10.8-73.909l-.876-8.761a5.7 5.7 0 0 1 .409-2.756 5.69 5.69 0 0 1 4.196-3.405c.927-.176 1.883-.118 2.782.167l13.684 4.339a2.75 2.75 0 0 1 1.405 1.01 2.74 2.74 0 0 1 .521 1.649 268.18 268.18 0 0 1-1.691 28.272c-1.677 12.858 3.913 44.983 3.97 45.306l.034.191-13.516 8.224z"/></g><path d="M384.421 165.757c.016-.834.215-1.654.583-2.403s.894-1.408 1.544-1.931 1.406-.897 2.216-1.096a5.71 5.71 0 0 1 2.472-.056l10.248-17.5 4.657 9.451-10.445 15.17c-.363 1.357-1.212 2.534-2.385 3.307a5.74 5.74 0 0 1-3.979.887c-1.39-.202-2.658-.906-3.563-1.981s-1.385-2.443-1.348-3.847v-.001z" fill="#fda57d"/><path d="M397.694 95.163l.734.169a5.61 5.61 0 0 1 2.445 1.258c.699.615 1.233 1.395 1.555 2.268L415 132.895l-14.752 32.341-5.39-13.334 6.809-14.752-12.2-15.6 8.227-26.387z" fill="#fdd301"/><path d="M380.92 78.048a34.43 34.43 0 0 0 1.789-6.386c.386-2.193.128-4.451-.743-6.5a14.14 14.14 0 0 0-3.842-4.607 36.22 36.22 0 0 0-3.438-2.588c-3.372-2.236-4.105-.2-8.15-.659s-8.576-1.621-11.818.793c-2.096 1.593-3.67 3.774-4.52 6.266s-.937 5.18-.251 7.722c.9 3.075.184 4.089 2.975 5.751a10.88 10.88 0 0 1 2.944-7.45c1.933-2.026 4.549-3.264 7.342-3.473a22.69 22.69 0 0 1 6.4.759 16.88 16.88 0 0 1 5.873 2.058c2.87 1.907 4.216 5.313 5.4 8.507" fill="#292929"/></g><g fill="#e6e6e6"><path d="M247.384 132.203H0v1.135h247.384v-1.135zm0-44.257H0v1.135h247.384v-1.135zm0-44.257H0v1.135h247.384v-1.135z"/></g><path id="B" d="M198.475 0h-1.135v177.027h1.135V0z" fill="#e6e6e6"/><path id="C" d="M148.998 0h-1.135v177.027h1.135V0z" fill="#e6e6e6"/><path id="D" d="M99.521 0h-1.135v177.027h1.135V0z" fill="#e6e6e6"/><path id="E" d="M50.044 0h-1.135v177.027h1.135V0z" fill="#e6e6e6"/><g id="F" fill="#fdd301"><path d="M148.657 44.257H49.363v44.257h99.294V44.257z"/><path d="M49.363 85.109v47.661l51.633-45.961-51.633-1.7z"/><path d="M148.657 86.81v1.7l-.647.573-1.3 1.158c-25.38.766-45.879 18.945-46.8 41.488l-1.163 1.033-.011.006V85.11l49.921 1.7z"/></g><path id="G" d="M148.373 89.082l-.363.006c-27 .17-48.938 19.643-49.272 43.678-.011.193-.011.38-.011.573 0 24.4 22.27 44.257 49.647 44.257s49.647-19.853 49.647-44.257-22.271-44.257-49.648-44.257zm0 87.379c-26.747 0-48.512-19.342-48.512-43.122 0-.539.011-1.072.04-1.606.925-22.543 21.425-40.722 46.8-41.488.55-.023 1.106-.028 1.668-.028 26.747 0 48.512 19.342 48.512 43.122s-21.761 43.121-48.508 43.121v.001z" fill="#e6e6e6"/><g id="H"><g fill="#e6e6e6"><path d="M121.138 132.779l-2.837-.016c0-.252.456-25.238 29.477-26.971l.169 2.832c-26.321 1.572-26.801 23.234-26.809 24.155z"/><path d="M177.015 132.203c-.109-3.234-.868-6.413-2.231-9.348s-3.301-5.566-5.701-7.736a30.32 30.32 0 0 0-20.656-7.916h-.057c-15.586 0-28.307 11.161-28.642 25-.011.187-.011.38-.011.567a24.26 24.26 0 0 0 2.375 10.192c1.524 3.184 3.725 5.997 6.448 8.243 5.55 4.663 12.582 7.192 19.831 7.132h.056c15.773-.028 28.6-11.484 28.6-25.567 0-.187 0-.38-.012-.567z"/></g><path d="M169.083 115.119l-.851.755-38.838 34.577-.851.755c-2.723-2.246-4.924-5.059-6.448-8.243a24.26 24.26 0 0 1-2.375-10.192c0-.187 0-.38.011-.567.335-13.839 13.056-25 28.642-25h.054a30.32 30.32 0 0 1 20.656 7.915h0z" fill="#fdd301"/></g></g><defs><clipPath id="I"><path fill="#fff" d="M0 0h415v296.407H0z"/></clipPath></defs></svg>