<svg xmlns="http://www.w3.org/2000/svg" viewBox="0 0 480 480" xmlns:v="https://vecta.io/nano"><path d="M386.816 323.456l-69.984-14.016c-7.424-1.472-12.832-8.064-12.832-15.68v-16.064c4.608-6.4 8.928-14.944 13.408-23.872 3.424-6.752 8.576-16.928 10.88-19.328 13.568-13.28 28.032-29.76 32.448-51.232 4-19.456 0-29.568-4.64-37.568 0-15.648 0-44.288-5.44-64.928-.544-24.928-5.12-39.008-16.608-51.552-8.128-8.768-20.096-10.816-29.696-12.448-3.808-.64-9.024-1.536-10.848-2.528C276.896 5.056 260.032.512 239.392 0c-42.24 1.6-94.08 28.384-111.424 76.544-5.28 14.624-4.768 38.624-4.384 57.92l-.448 11.232c-4.064 8-8.064 18.112-4.032 37.536 4.416 21.568 18.88 38.016 32.384 51.232 2.336 2.432 7.552 12.672 11.008 19.424 4.544 8.896 8.896 17.44 13.504 23.84v16.032c0 7.616-5.408 14.208-12.864 15.68l-69.984 14.016C48.448 332.384 16 371.968 16 417.568V448c0 17.632 14.368 32 32 32h384c17.632 0 32-14.368 32-32v-30.432c0-45.6-32.448-85.184-77.184-94.112zM432 448H48v-30.432c0-30.4 21.632-56.8 51.456-62.752l69.952-14.016C191.776 336.384 208 316.576 208 293.76V272c0-4.288-1.728-8.416-4.768-11.392-2.752-2.688-8.672-14.336-12.224-21.28-6.016-11.776-11.2-21.952-17.12-27.712-10.624-10.368-20.768-21.76-23.456-34.816-2.08-10.112-.64-12.96 1.216-16.576 1.632-3.2 4.064-8 4.064-14.528l-.16-11.872c-.288-13.984-.768-37.408 2.496-46.432C170.464 52.96 209.856 33.152 239.584 32c14.656.384 26.176 3.424 38.4 10.24 6.592 3.648 14.272 4.928 21.024 6.08 3.808.64 10.176 1.728 11.488 2.56 4.32 4.704 7.904 10.368 8.16 32.384 0 1.44.224 2.88.64 4.288 4.768 16.352 4.768 44.576 4.768 58.144 0 6.528 2.464 11.328 4.064 14.528 1.856 3.616 3.296 6.464 1.216 16.608-2.656 12.992-12.864 24.416-23.456 34.784-5.952 5.824-11.104 16-17.056 27.808-3.456 6.912-9.312 18.496-12.032 21.152-3.072 3.008-4.8 7.136-4.8 11.424v21.76c0 22.816 16.224 42.624 38.592 47.072l69.984 14.016c29.792 5.92 51.424 32.32 51.424 62.72V448z"/></svg>