<svg xmlns="http://www.w3.org/2000/svg" width="20" height="20" fill="#030104" xmlns:v="https://vecta.io/nano"><path d="M1.474 10a8.53 8.53 0 0 0 4.806 7.674L2.212 6.531A8.5 8.5 0 0 0 1.474 10zm14.283-.431a4.48 4.48 0 0 0-.7-2.351 4 4 0 0 1-.837-2c-.021-.813.619-1.489 1.432-1.513.038 0 .074 0 .111.006-1.843-1.689-4.334-2.484-6.815-2.175a8.52 8.52 0 0 0-6.072 3.781l.549.01 2.272-.109c.181.005.328.146.342.326s-.11.342-.288.374l-.975.081 3.1 9.236 1.866-5.6L8.42 6.002l-.895-.081c-.178-.033-.302-.194-.288-.374s.161-.321.342-.326l2.245.109 2.273-.109c.181.005.328.146.342.326s-.11.342-.288.374a17.43 17.43 0 0 1-.975.081l3.081 9.166.851-2.842a7.93 7.93 0 0 0 .649-2.757zm-5.606 1.177l-2.559 7.433c1.718.506 3.552.458 5.241-.136a.94.94 0 0 1-.061-.117zm7.332-4.837a6.39 6.39 0 0 1 .058.877 8.06 8.06 0 0 1-.649 3.053l-2.6 7.53a8.53 8.53 0 0 0 3.2-11.461zM0 10A10 10 0 1 0 10 0 10.012 10.012 0 0 0 0 10zm.458 0A9.542 9.542 0 1 1 10 19.541 9.552 9.552 0 0 1 .458 10z"/></svg>