<svg width="24" height="24" viewBox="0 0 24 24" fill="none" xmlns="http://www.w3.org/2000/svg">
<path d="M12 0C5.373 0 0 5.373 0 12C0 18.627 5.373 24 12 24C18.627 24 24 18.627 24 12C24 5.373 18.627 0 12 0ZM12 2.323C14.5663 2.3238 17.0272 3.34359 18.8418 5.15821C20.6564 6.97282 21.6762 9.43374 21.677 12C21.6762 14.5663 20.6564 17.0272 18.8418 18.8418C17.0272 20.6564 14.5663 21.6762 12 21.677C9.43374 21.6762 6.97282 20.6564 5.15821 18.8418C3.34359 17.0272 2.3238 14.5663 2.323 12C2.32208 10.7289 2.57175 9.47017 3.05774 8.29568C3.54373 7.1212 4.2565 6.05405 5.15527 5.15527C6.05405 4.2565 7.1212 3.54373 8.29568 3.05774C9.47017 2.57175 10.7289 2.32208 12 2.323V2.323ZM18.784 8.623L17.694 7.523C17.6401 7.46903 17.5761 7.42621 17.5057 7.397C17.4353 7.36778 17.3598 7.35274 17.2835 7.35274C17.2072 7.35274 17.1317 7.36778 17.0613 7.397C16.9909 7.42621 16.9269 7.46903 16.873 7.523L10.033 14.308L7.14 11.391C7.08613 11.337 7.02214 11.2942 6.9517 11.265C6.88127 11.2358 6.80576 11.2207 6.7295 11.2207C6.65324 11.2207 6.57774 11.2358 6.5073 11.265C6.43686 11.2942 6.37287 11.337 6.319 11.391L5.219 12.481C5.16503 12.5349 5.12221 12.5989 5.093 12.6693C5.06378 12.7397 5.04874 12.8152 5.04874 12.8915C5.04874 12.9678 5.06378 13.0433 5.093 13.1137C5.12221 13.1841 5.16503 13.2481 5.219 13.302L9.612 17.73C9.66587 17.784 9.72986 17.8268 9.8003 17.856C9.87074 17.8852 9.94624 17.9003 10.0225 17.9003C10.0988 17.9003 10.1743 17.8852 10.2447 17.856C10.3151 17.8268 10.3791 17.784 10.433 17.73L18.784 9.446C18.838 9.39213 18.8808 9.32814 18.91 9.2577C18.9392 9.18727 18.9543 9.11176 18.9543 9.0355C18.9543 8.95924 18.9392 8.88373 18.91 8.8133C18.8808 8.74286 18.838 8.67887 18.784 8.625V8.623Z" fill="#FDD301"/>
</svg>
