<svg width="401" height="386" viewBox="0 0 401 386" fill="none" xmlns="http://www.w3.org/2000/svg">
<style>
    #man , #location  {
        transform-origin: center;
        transform-box: fill-box;
    }
    #man{
        animation: translateX 3s linear infinite;
    }
    #location{
        animation: rotation 3s linear infinite;
    }
    @keyframes translateX {

        0%,
        100% {
            transform: translateX(2px);
        }

        50% {
            transform: translateX(-2px);
        }
    }
    @keyframes rotation {
        0% {
            transform: rotate(0deg) translateY(0px);
        }

        50% {
            transform: rotate(5deg) translateY(10px);
        }

        100% {
            transform: rotate(0deg) translateY(0px);
        }
    }
</style>
<g id="client_location 1" clip-path="url(#clip0)">
<path id="Vector" d="M249.6 223.4L190.5 153.1L71.9 154.2L0 224.3L1.5 225.2H0.9V371H249.4V225.3L249.6 223.4Z" fill="#FDD301" fill-opacity="0.3"/>
<path id="Vector_2" d="M190.6 153.3L116.8 239.8V371H249.4V223.4L190.6 153.3Z" fill="#FDD301"/>
<path id="Vector_3" d="M170.1 298.4H197.2V322.3H170.1V298.4ZM170.1 257H197.2V280.6H170.1V257ZM49.6 292.1H76.7V316H49.6V292.1ZM49.6 250.6H76.7V274.2H49.6V250.6Z" fill="white"/>
<path id="Vector_5" d="M157.2 95.3C164.711 95.3 170.8 89.2111 170.8 81.7C170.8 74.1889 164.711 68.1 157.2 68.1C149.689 68.1 143.6 74.1889 143.6 81.7C143.6 89.2111 149.689 95.3 157.2 95.3Z" fill="#FDD301"/>
<path id="Vector_6" d="M188.6 72.6C187.992 72.6068 187.411 72.8513 186.981 73.2811C186.551 73.711 186.307 74.2921 186.3 74.9C186.295 75.2034 186.351 75.5047 186.465 75.7861C186.579 76.0674 186.748 76.3229 186.963 76.5375C187.177 76.7521 187.433 76.9213 187.714 77.0351C187.995 77.1489 188.297 77.205 188.6 77.2H295.2C295.808 77.1932 296.389 76.9488 296.819 76.5189C297.249 76.089 297.493 75.5079 297.5 74.9C297.505 74.5966 297.449 74.2953 297.335 74.0139C297.221 73.7326 297.052 73.4771 296.837 73.2625C296.623 73.0479 296.367 72.8787 296.086 72.7649C295.805 72.6511 295.503 72.595 295.2 72.6H188.6ZM188.6 86.2C187.992 86.2068 187.411 86.4513 186.981 86.8811C186.551 87.311 186.307 87.8921 186.3 88.5C186.295 88.8034 186.351 89.1047 186.465 89.3861C186.579 89.6674 186.748 89.9229 186.963 90.1375C187.177 90.3521 187.433 90.5213 187.714 90.6351C187.995 90.7489 188.297 90.805 188.6 90.8H234.5C235.108 90.7932 235.689 90.5488 236.119 90.1189C236.549 89.689 236.793 89.1079 236.8 88.5C236.805 88.1966 236.749 87.8953 236.635 87.6139C236.521 87.3326 236.352 87.0771 236.137 86.8625C235.923 86.6479 235.667 86.4787 235.386 86.3649C235.105 86.2511 234.803 86.195 234.5 86.2H188.6ZM146.8 107.9C145.1 107.9 143.7 108.9 143.7 110.2C143.7 111.5 145.1 112.5 146.8 112.5H293.9C295.6 112.5 297 111.5 297 110.2C297 108.9 295.6 107.9 293.9 107.9H146.8ZM146.8 121.5C145.1 121.5 143.7 122.5 143.7 123.8C143.7 125.1 145.1 126.1 146.8 126.1H293.9C295.6 126.1 297 125.1 297 123.8C297 122.5 295.6 121.5 293.9 121.5H146.8Z" fill="#FDD301" fill-opacity="0.22"/>
<g id="location">
<g id="Group">
<path id="Vector_7" d="M278.1 48.2C291.41 48.2 302.2 37.4101 302.2 24.1C302.2 10.7899 291.41 0 278.1 0C264.79 0 254 10.7899 254 24.1C254 37.4101 264.79 48.2 278.1 48.2Z" fill="#FDD301"/>
<path id="Vector_8" d="M278.1 63.4L270.6 50.3L263 37.2H293.2L285.7 50.3L278.1 63.4Z" fill="#FDD301"/>
</g>
<path id="Vector_9" d="M278.3 32.7C283.105 32.7 287 28.8049 287 24C287 19.1951 283.105 15.3 278.3 15.3C273.495 15.3 269.6 19.1951 269.6 24C269.6 28.8049 273.495 32.7 278.3 32.7Z" fill="white"/>
</g>
<g id="man">
<path id="Vector_10" d="M397.5 243L399 269.3C399 269.3 404.2 286.8 394.6 285.2C385 283.6 392.9 268.1 392.9 268.1L386.1 243.6L397.5 243Z" fill="#FFB8B8"/>
<g id="Group 2">
<path id="Vector_11" d="M344.2 354.4L346.2 364.6L336 366.6L337.5 353.9L344.2 354.4ZM376.2 352.4L373.7 365.1H361.5L366.6 349.8L376.2 352.4Z" fill="#A0616A"/>
<path id="Vector_12" d="M387.4 263.8L389.4 277.5L386.9 307.5L384.9 318.7L376.2 355.4C376.2 355.4 366.5 355.4 365 351.3L367.5 330.4C367.5 330.4 369.5 313.6 369 311.6C368.5 309.6 361 277 361 277C361 277 349.8 328.4 348.3 333C346.8 337.6 344.7 357.4 344.7 357.4C344.7 357.4 336 358.9 335.5 357.4C335 355.9 334.5 319.7 334.5 314.1C334.565 310.845 334.9 307.6 335.5 304.4C335.5 303.4 331.5 254.8 331.5 254.8L387.4 263.8Z" fill="#000000"/>
<path id="Vector_13" d="M366.6 362.6C367.95 362.9 369.35 362.9 370.7 362.6C372.2 362.1 370.7 359 370.7 359H376.3C376.3 359 382.4 372.7 385 373.8C387.6 374.9 395.7 386 386 386C380.028 385.939 374.198 384.169 369.2 380.9C369.2 380.9 368.2 376.3 363.6 375.8C359 375.3 356 369.7 356 369.7L362.6 357.5C362.5 357.5 364 363.1 366.6 362.6V362.6ZM342.6 362.1C342.6 362.1 341.6 364.1 340.6 363.1C339.742 362.016 339.067 360.801 338.6 359.5C338.6 359.5 335.5 358 335 359.5C334.5 361 332.5 369.2 331.4 370.2C330.3 371.2 319.7 381.9 330.4 383.9C341.1 385.9 343.1 381.4 343.1 381.4C342.932 381.145 342.816 380.859 342.76 380.559C342.704 380.259 342.709 379.951 342.774 379.652C342.84 379.354 342.964 379.072 343.14 378.822C343.316 378.573 343.541 378.361 343.8 378.2C344.063 378.012 344.377 377.908 344.7 377.9C347.8 376.9 348.3 373.3 348.3 373.3L346.3 358C346.2 358 344.2 363.1 342.6 362.1V362.1Z" fill="#2F2E41"/>
<g id="Group_2">
<path id="Vector_14" d="M326.8 246.9L326 270.5C326 270.5 320 285.6 328.6 284.9C337.2 284.2 331.4 269.9 331.4 269.9L339.3 248.7L326.8 246.9Z" fill="#FFB8B8"/>
<path id="Vector_15" d="M361.5 162.9C368.79 162.9 374.7 156.99 374.7 149.7C374.7 142.41 368.79 136.5 361.5 136.5C354.21 136.5 348.3 142.41 348.3 149.7C348.3 156.99 354.21 162.9 361.5 162.9Z" fill="#FFB8B8"/>
<path id="Vector_16" d="M371.1 157.8C371.1 157.8 367.2 169.9 374.3 173.7C381.4 177.5 352.2 182.8 350.1 173.7L351.1 169.4C351.1 169.4 355.1 164.1 354.1 159.2L371.1 157.8Z" fill="#FFB8B8"/>
</g>
<path id="Vector_17" d="M376 137.8C376 137.8 371.4 127.9 362.6 130.2C353.8 132.5 348.8 135.9 348.5 139.4C348.317 142.267 348.384 145.145 348.7 148C348.7 148 349.7 140.9 355.8 142.5C359.316 143.233 362.918 143.469 366.5 143.2C367.117 143.173 367.734 143.268 368.314 143.48C368.895 143.692 369.428 144.016 369.883 144.434C370.338 144.852 370.707 145.355 370.967 145.916C371.227 146.476 371.374 147.083 371.4 147.7V148L371.2 158.9C371.1 158.8 383.9 150.7 376 137.8Z" fill="#2F2E41"/>
<g id="Group 1">
<path id="Vector_18" d="M372.1 152.2C373.205 152.2 374.1 151.081 374.1 149.7C374.1 148.319 373.205 147.2 372.1 147.2C370.995 147.2 370.1 148.319 370.1 149.7C370.1 151.081 370.995 152.2 372.1 152.2Z" fill="#FFB8B8"/>
<g id="Group_3">
<path id="Vector_19" d="M374.5 173.5L371.4 166.5L370.5 179.2C370.5 179.2 363.1 203.1 363.7 224.1C364.3 245.1 360.9 294.6 365.4 295.2C369.9 295.8 389.3 296.9 389.3 292.9L390.4 183.2L374.5 173.5Z" fill="#FDD301"/>
<path id="Vector_20" d="M388.1 183.8L389.6 183C389.6 183 397.8 186.1 397.2 188.4C396.6 190.7 401.7 270.3 400 273.1C398.3 275.9 384.7 273.7 384.7 273.7L388.1 183.8ZM332.1 184.2L333.2 293.9C333.2 297.9 352.5 296.7 357.1 296.2C361.7 295.7 358.2 246.2 358.8 225.1C359.4 204 352 180.2 352 180.2L351.1 167.5L348 174.5L332.1 184.2Z" fill="#FDD301"/>
<path id="Vector_21" d="M338.9 274C338.9 274 325.3 276.3 323.6 273.4C321.9 270.6 327 191 326.4 188.7C325.8 186.4 334 183.3 334 183.3L335.5 184.1L338.9 274Z" fill="#FDD301"/>
</g>
<path id="Vector_22" d="M348.2 174.5C348.328 175.93 348.361 177.366 348.3 178.8C348.361 180.234 348.328 181.67 348.2 183.1C348.072 181.67 348.039 180.234 348.1 178.8C348.039 177.366 348.072 175.93 348.2 174.5V174.5Z" fill="#263238"/>
<path id="Vector_23" d="M344.9 188.6C344.969 189.438 345.282 190.238 345.8 190.9C346.069 191.236 346.402 191.515 346.78 191.721C347.157 191.927 347.572 192.056 348 192.1C348.574 192.139 349.149 192.02 349.66 191.756C350.171 191.491 350.6 191.092 350.9 190.6C351.387 189.613 351.674 188.539 351.742 187.44C351.811 186.341 351.661 185.24 351.3 184.2C351.072 183.551 350.673 182.977 350.145 182.537C349.616 182.096 348.979 181.807 348.3 181.7C347.551 181.692 346.82 181.933 346.223 182.386C345.625 182.838 345.195 183.477 345 184.2" fill="#E0E0E0"/>
<path id="Vector_24" d="M345.1 184.3C345.137 183.983 345.239 183.676 345.4 183.4C345.568 183.054 345.807 182.748 346.1 182.5C346.446 182.132 346.902 181.886 347.4 181.8C347.658 181.718 347.929 181.684 348.2 181.7C348.503 181.684 348.808 181.717 349.1 181.8C349.767 182.035 350.355 182.45 350.8 183C351.27 183.589 351.61 184.271 351.8 185C351.966 185.789 352.033 186.595 352 187.4C351.99 188.636 351.644 189.846 351 190.9C350.666 191.346 350.216 191.692 349.7 191.9C349.224 192.095 348.715 192.197 348.2 192.2V192.2C347.812 192.208 347.43 192.104 347.1 191.9C346.816 191.724 346.548 191.524 346.3 191.3C345.902 190.943 345.594 190.498 345.4 190C345.268 189.677 345.167 189.342 345.1 189V188.6C345.14 189.057 345.276 189.5 345.5 189.9C345.73 190.378 346.034 190.816 346.4 191.2C346.627 191.423 346.9 191.594 347.2 191.7C347.504 191.871 347.854 191.941 348.2 191.9C348.712 191.917 349.22 191.818 349.688 191.61C350.156 191.402 350.57 191.091 350.9 190.7C351.578 189.526 351.926 188.191 351.908 186.836C351.891 185.481 351.508 184.156 350.8 183C350.379 182.492 349.825 182.111 349.2 181.9C348.908 181.817 348.603 181.784 348.3 181.8C348.029 181.777 347.757 181.811 347.5 181.9C347.04 182.01 346.622 182.253 346.3 182.6C346 182.9 345.8 183.2 345.6 183.4C345.399 183.679 345.231 183.982 345.1 184.3V184.3Z" fill="#263238"/>
<path id="Vector_25" d="M344 188.7C344.069 189.538 344.382 190.338 344.9 191C345.169 191.336 345.502 191.615 345.88 191.821C346.257 192.027 346.672 192.156 347.1 192.2C347.674 192.239 348.249 192.12 348.76 191.856C349.271 191.591 349.7 191.192 350 190.7C350.487 189.713 350.774 188.639 350.842 187.54C350.911 186.441 350.761 185.34 350.4 184.3C350.172 183.651 349.773 183.077 349.245 182.637C348.716 182.196 348.079 181.907 347.4 181.8C346.651 181.792 345.92 182.033 345.323 182.486C344.725 182.938 344.295 183.577 344.1 184.3" fill="#E0E0E0"/>
<path id="Vector_26" d="M344.2 184.4C344.237 184.083 344.339 183.776 344.5 183.5C344.668 183.155 344.907 182.848 345.2 182.6C345.546 182.232 346.002 181.986 346.5 181.9C346.758 181.818 347.029 181.784 347.3 181.8C347.603 181.784 347.908 181.817 348.2 181.9C348.867 182.135 349.455 182.55 349.9 183.1C350.37 183.689 350.71 184.371 350.9 185.1C351.066 185.889 351.133 186.695 351.1 187.5C351.09 188.736 350.744 189.946 350.1 191C349.766 191.446 349.316 191.792 348.8 192C348.324 192.195 347.815 192.297 347.3 192.3V192.3C346.912 192.308 346.53 192.204 346.2 192C345.916 191.825 345.648 191.624 345.4 191.4C345.002 191.043 344.694 190.598 344.5 190.1C344.368 189.777 344.267 189.442 344.2 189.1V188.7C344.24 189.157 344.376 189.6 344.6 190C344.83 190.478 345.134 190.916 345.5 191.3C345.727 191.523 346 191.694 346.3 191.8C346.6 191.9 347 192.1 347.3 192C347.811 192.017 348.32 191.918 348.788 191.71C349.256 191.502 349.67 191.191 350 190.8C350.678 189.626 351.026 188.291 351.008 186.936C350.991 185.581 350.608 184.256 349.9 183.1C349.479 182.592 348.925 182.211 348.3 182C348.008 181.917 347.703 181.884 347.4 181.9C347.129 181.877 346.857 181.911 346.6 182C346.14 182.11 345.722 182.353 345.4 182.7C345.1 183 344.9 183.3 344.7 183.5C344.499 183.779 344.331 184.082 344.2 184.4V184.4Z" fill="#263238"/>
<path id="Vector_27" d="M345.7 183.9C345.24 183.833 344.771 183.925 344.371 184.162C343.97 184.398 343.663 184.765 343.5 185.2C343.327 185.612 343.237 186.054 343.237 186.5C343.237 186.947 343.327 187.389 343.5 187.8C343.673 188.232 343.909 188.637 344.2 189C344.35 189.174 344.534 189.317 344.74 189.42C344.946 189.523 345.17 189.584 345.4 189.6C345.744 189.589 346.08 189.491 346.377 189.316C346.674 189.142 346.923 188.895 347.1 188.6C347.697 187.684 347.912 186.572 347.7 185.5C347.5 184.8 347 184.1 346.3 184.1" fill="#E0E0E0"/>
<g id="Group_4">
<path id="Vector_28" d="M346.2 184.1H346.4C346.541 184.085 346.683 184.12 346.8 184.2C347.049 184.346 347.261 184.549 347.417 184.793C347.573 185.036 347.67 185.312 347.7 185.6C347.927 186.431 347.856 187.316 347.5 188.1C347.292 188.561 346.984 188.971 346.6 189.3C346.141 189.64 345.565 189.784 345 189.7C344.484 189.538 344.052 189.179 343.8 188.7C343.546 188.269 343.376 187.794 343.3 187.3C343.201 186.894 343.186 186.472 343.255 186.059C343.323 185.647 343.475 185.252 343.7 184.9C344.034 184.432 344.535 184.109 345.1 184H345.2C344.665 184.116 344.197 184.44 343.9 184.9C343.696 185.243 343.565 185.624 343.513 186.019C343.462 186.415 343.491 186.816 343.6 187.2C343.723 187.649 343.89 188.085 344.1 188.5C344.206 188.722 344.36 188.917 344.55 189.073C344.74 189.228 344.962 189.34 345.2 189.4C345.441 189.452 345.691 189.453 345.932 189.401C346.174 189.349 346.401 189.247 346.6 189.1C346.98 188.807 347.288 188.431 347.5 188C347.838 187.248 347.943 186.412 347.8 185.6C347.705 185.054 347.422 184.559 347 184.2C346.737 184.143 346.469 184.109 346.2 184.1V184.1Z" fill="#000000"/>
<path id="Vector_29" d="M347.8 190.6C347.719 190.51 347.652 190.409 347.6 190.3C347.5 190.1 347.2 190 346.9 189.9C346.641 189.823 346.37 189.79 346.1 189.8C345.9 189.8 345.7 189.8 345.7 189.7C345.817 189.619 345.959 189.584 346.1 189.6C346.403 189.589 346.707 189.623 347 189.7C347.161 189.725 347.312 189.795 347.435 189.901C347.559 190.007 347.651 190.145 347.7 190.3C347.765 190.386 347.8 190.492 347.8 190.6V190.6ZM348.1 183.4L347.8 183.7C347.518 183.871 347.216 184.005 346.9 184.1C346.598 184.18 346.277 184.144 346 184C345.891 183.948 345.79 183.881 345.7 183.8C345.7 183.7 346.3 184 346.9 183.8C347.6 183.7 348 183.3 348.1 183.4V183.4ZM376.2 174.4H376.3C376.4 174.4 376.5 174.5 376.6 174.6C376.963 174.788 377.299 175.023 377.6 175.3C378.666 176.221 379.433 177.44 379.8 178.8C380.213 180.134 380.481 181.509 380.6 182.9C380.676 183.329 380.709 183.764 380.7 184.2V184.7C380.691 184.529 380.658 184.361 380.6 184.2C380.566 183.795 380.5 183.394 380.4 183C380.25 181.637 379.948 180.296 379.5 179C379.165 177.65 378.434 176.431 377.4 175.5C377.083 175.052 376.674 174.677 376.2 174.4ZM371.9 212.2C372.9 212.2 373.7 211.2 374.7 211.2C375.068 211.234 375.409 211.41 375.651 211.689C375.893 211.968 376.018 212.331 376 212.7C375.933 213.054 375.748 213.375 375.476 213.611C375.204 213.847 374.86 213.984 374.5 214C373.5 213.9 372.8 212.7 371.8 212.4" fill="#000000"/>
<path id="Vector_30" d="M380.4 213.1C380.097 213.116 379.792 213.083 379.5 213L379.6 212.7C380.13 212.815 380.679 212.821 381.212 212.718C381.744 212.615 382.251 212.405 382.7 212.1C383.28 211.604 383.748 210.991 384.076 210.302C384.403 209.613 384.582 208.863 384.6 208.1V208C384.7 207.3 384.9 192.6 384.9 189.8C384.986 188.616 384.622 187.443 383.881 186.516C383.139 185.588 382.074 184.976 380.9 184.8C380.7 184.8 377.3 184.2 375.4 189C373.5 194 370.4 203.6 370.2 204.7C370.157 204.865 370.123 205.032 370.1 205.2C369.8 206.6 369.1 209.6 371.1 211.4C373.3 213.3 375.1 212.6 375.2 212.5L375.3 212.8C375.2 212.8 373.3 213.7 370.9 211.6C368.7 209.7 369.4 206.6 369.8 205.1C369.823 204.932 369.857 204.765 369.9 204.6C370.1 203.5 373.2 193.8 375.1 188.8C377.1 183.8 380.9 184.4 381 184.4C382.231 184.626 383.341 185.284 384.129 186.256C384.917 187.228 385.333 188.449 385.3 189.7C385.3 192 385.1 207.2 385 208V208.1C384.948 208.905 384.736 209.691 384.375 210.413C384.015 211.134 383.513 211.776 382.9 212.3C382.161 212.802 381.293 213.08 380.4 213.1V213.1Z" fill="#000000"/>
<path id="Vector_31" d="M381.3 212.8C380.3 212.9 379.6 214 378.6 214.1C378.226 214.079 377.87 213.928 377.596 213.672C377.322 213.416 377.146 213.072 377.1 212.7C377.125 212.337 377.28 211.995 377.538 211.738C377.795 211.48 378.137 211.325 378.5 211.3C379.6 211.3 380.3 212.5 381.3 212.6V212.8ZM385 192.6C384.872 191.996 384.635 191.419 384.3 190.9C383.917 190.328 383.444 189.821 382.9 189.4C382.249 188.909 381.498 188.567 380.7 188.4C379.209 188.059 377.645 188.273 376.3 189C375.735 189.269 375.226 189.642 374.8 190.1L374.9 190C375 189.9 375 189.8 375.2 189.7C375.537 189.394 375.905 189.126 376.3 188.9C376.903 188.591 377.541 188.356 378.2 188.2C379.03 188.035 379.886 188.069 380.7 188.3C381.542 188.481 382.33 188.858 383 189.4C383.544 189.821 384.017 190.328 384.4 190.9C384.664 191.289 384.835 191.734 384.9 192.2C384.9 192.4 385 192.5 385 192.6C385 192.5 385 192.6 385 192.6V192.6Z" fill="#000000"/>
</g>
</g>
</g>
</g>
<g id="Group_5">
<path id="Vector_32" d="M188.1 204.9C188.249 204.899 188.397 204.93 188.533 204.993C188.669 205.056 188.789 205.148 188.884 205.263C188.98 205.378 189.049 205.513 189.086 205.657C189.124 205.802 189.128 205.953 189.1 206.1L188.7 213.9H180.3L180.7 206.1C180.712 205.818 180.816 205.548 180.997 205.331C181.178 205.114 181.425 204.963 181.7 204.9H188.1ZM179.5 231.1L179.9 223.3H188.3L187.9 231.1C187.888 231.382 187.784 231.652 187.603 231.869C187.422 232.086 187.175 232.237 186.9 232.3H180.6C180.445 232.305 180.292 232.277 180.149 232.217C180.007 232.157 179.879 232.067 179.774 231.953C179.67 231.839 179.591 231.703 179.544 231.556C179.497 231.409 179.482 231.253 179.5 231.1V231.1Z" fill="#E9E9E9"/>
<path id="Vector_33" d="M173.2 213.9H195.7C195.849 213.899 195.997 213.93 196.133 213.993C196.269 214.056 196.389 214.148 196.484 214.263C196.58 214.378 196.649 214.513 196.686 214.657C196.724 214.802 196.728 214.953 196.7 215.1L196.3 222C196.288 222.282 196.184 222.552 196.003 222.769C195.822 222.986 195.575 223.137 195.3 223.2H172.8C172.651 223.201 172.503 223.17 172.367 223.107C172.231 223.044 172.111 222.952 172.016 222.837C171.92 222.722 171.851 222.587 171.814 222.443C171.776 222.298 171.772 222.147 171.8 222L172.2 215.1C172.212 214.818 172.316 214.548 172.497 214.331C172.678 214.114 172.925 213.963 173.2 213.9V213.9Z" fill="#E9E9E9"/>
</g>
</g>
<defs>
<clipPath id="clip0">
<rect width="400.406" height="386" fill="white"/>
</clipPath>
</defs>
</svg>
