<svg width="319" height="387" viewBox="0 0 319 387" fill="none" xmlns="http://www.w3.org/2000/svg">
<style>
    #man , #lamb {
        transform-origin: center;
        transform-box: fill-box;
    }
    #man{
        animation: translateY 3s linear infinite;   
    }
    #lamb{
        animation: rotate 3s ease-in-out infinite;  
    }
    @keyframes rotate {

        0% , 100%{
            transform: rotate(0deg);
        }

        50% {
            transform: rotate(5deg);
        }
    }
    @keyframes translateY {

        0%,
        100% {
            transform: translateY(0px);
        }

        50% {
            transform: translateY(5px);
        }
    }
</style>
<g id="lamb 1" clip-path="url(#clip0)">
<g id="lamb">
<g id="Group 1">
<path id="Vector" d="M89.4 182.7H110.7C110.672 187.328 106.928 191.072 102.3 191.1H97.8C93.172 191.072 89.428 187.328 89.4 182.7V182.7Z" fill="black"/>
<path id="Vector_2" d="M115.7 163.9V156.1C115.7 146.7 126 137.7 132.6 131.4C142 122.4 146.9 110.4 146.9 96.3C146.955 70.453 126.047 49.455 100.2 49.4C74.353 49.345 53.355 70.253 53.3 96.1V96.4C53.3 110 58.4 122.9 67.6 131.5C74.2 137.7 84.5 146.7 84.5 156.2V164" fill="#F2F2F2"/>
<path id="Vector_3" d="M115.7 165C115.409 164.997 115.131 164.881 114.925 164.675C114.719 164.469 114.603 164.191 114.6 163.9V156.1C114.6 146.9 123.7 138.4 130.3 132.1C130.8 131.6 131.4 131.1 131.9 130.6C141 121.9 145.9 110 145.9 96.3C146.04 84.137 141.27 72.432 132.669 63.831C124.068 55.23 112.363 50.46 100.2 50.6H100.1C74.975 50.648 54.603 70.975 54.5 96.1V96.4C54.5 109.8 59.6 122.4 68.5 130.7C68.9432 131.158 69.4105 131.592 69.9 132C76.6 138.3 85.8 146.9 85.8 156.2V164C85.8 164.292 85.6841 164.572 85.4778 164.778C85.2715 164.984 84.9917 165.1 84.7 165.1C84.4082 165.1 84.1285 164.984 83.9222 164.778C83.7159 164.572 83.6 164.292 83.6 164V156.1C83.6 147.7 74.8 139.5 68.4 133.5C67.9 133 67.4 132.6 67 132.2C57.7 123.4 52.3 110.3 52.3 96.3V96C52.449 69.679 73.779 48.393 100.1 48.3H100.2C126.512 48.174 147.95 69.389 148.1 95.7V96.2C148.1 110.5 143 123 133.4 132.1C132.9 132.6 132.3 133.1 131.8 133.6C125.5 139.6 116.8 147.8 116.8 156V163.8C116.818 164.106 116.711 164.406 116.504 164.632C116.297 164.858 116.007 164.991 115.7 165Z" fill="black"/>
</g>
<g id="Group">
<path id="Vector_4" d="M110.5 179H89.6C89.2714 179.015 88.9446 178.943 88.6533 178.79C88.362 178.637 88.1167 178.409 87.9428 178.13C87.7689 177.851 87.6726 177.53 87.6638 177.201C87.6551 176.872 87.7342 176.547 87.893 176.259C88.0514 175.971 88.2838 175.73 88.5663 175.561C88.8488 175.393 89.1711 175.303 89.5 175.3H110.5C110.984 175.311 111.446 175.501 111.797 175.834C112.148 176.167 112.363 176.618 112.4 177.1C112.4 177.604 112.2 178.087 111.844 178.443C111.487 178.8 111.004 179 110.5 179ZM51.6 53.1C51.153 53.084 50.726 52.907 50.4 52.6L34.7 39C33.939 38.334 33.856 37.18 34.514 36.412C35.172 35.644 36.326 35.55 37.1 36.2L52.8 49.9C53.1631 50.2234 53.3868 50.6749 53.4241 51.1597C53.4613 51.6445 53.3094 52.1249 53 52.5C52.8304 52.7032 52.6152 52.8635 52.3719 52.9678C52.1286 53.072 51.8641 53.1174 51.6 53.1V53.1ZM145.9 53.1C145.422 53.102 144.963 52.913 144.625 52.575C144.287 52.237 144.098 51.778 144.1 51.3C144.105 50.772 144.321 50.268 144.7 49.9L160.4 36.2C160.577 36.0321 160.785 35.9009 161.012 35.8141C161.24 35.7273 161.483 35.6865 161.726 35.6943C161.97 35.702 162.21 35.7581 162.431 35.8592C162.653 35.9603 162.853 36.1044 163.018 36.2833C163.184 36.4621 163.312 36.672 163.396 36.9008C163.48 37.1297 163.517 37.3729 163.506 37.6163C163.495 37.8598 163.436 38.0986 163.332 38.319C163.228 38.5393 163.081 38.7368 162.9 38.9V38.9L147.2 52.6C146.852 52.935 146.383 53.115 145.9 53.1V53.1ZM115.7 172.5H84.4C83.9119 172.479 83.4511 172.269 83.1151 171.915C82.7791 171.56 82.5944 171.089 82.6 170.6C82.598 170.122 82.787 169.663 83.125 169.325C83.463 168.987 83.922 168.798 84.4 168.8H115.6C116.084 168.811 116.546 169.001 116.897 169.334C117.248 169.667 117.463 170.118 117.5 170.6C117.528 170.848 117.502 171.099 117.423 171.335C117.344 171.572 117.214 171.788 117.042 171.969C116.871 172.15 116.662 172.291 116.43 172.383C116.198 172.475 115.949 172.515 115.7 172.5V172.5ZM100.1 165.7C99.622 165.702 99.163 165.513 98.825 165.175C98.487 164.837 98.298 164.378 98.3 163.9V122.3C98.2956 121.815 98.4819 121.348 98.8188 120.999C99.1557 120.65 99.6161 120.447 100.101 120.434C100.586 120.421 101.057 120.598 101.412 120.929C101.767 121.259 101.978 121.715 102 122.2V163.9C101.963 164.382 101.748 164.833 101.397 165.166C101.046 165.499 100.584 165.689 100.1 165.7V165.7Z" fill="#FDD301"/>
<path id="Vector_5" d="M100.1 124.1C94.2 124.1 87 118.8 86.6 118.5C86.2022 118.208 85.9365 117.77 85.8615 117.283C85.7865 116.795 85.9083 116.298 86.2 115.9C86.4917 115.502 86.9296 115.237 87.4172 115.162C87.9047 115.087 88.4022 115.208 88.8 115.5C90.6 116.8 96.2 120.3 100.1 120.3C104 120.3 109.6 116.8 111.4 115.5C111.801 115.218 112.296 115.103 112.78 115.177C113.265 115.252 113.702 115.511 114 115.9C114.14 116.09 114.24 116.306 114.296 116.535C114.351 116.764 114.361 117.001 114.324 117.234C114.249 117.704 113.988 118.124 113.6 118.4C113.2 118.7 106 124.1 100.1 124.1V124.1ZM100.1 34.9C99.622 34.902 99.163 34.713 98.825 34.375C98.487 34.037 98.298 33.578 98.3 33.1V1.90003C98.2956 1.41499 98.4819 0.947634 98.8188 0.598621C99.1557 0.249607 99.6161 0.0468536 100.101 0.0340257C100.586 0.020687 101.057 0.198293 101.412 0.528599C101.767 0.858904 101.978 1.31549 102 1.80003V33.1C101.963 33.5823 101.748 34.0335 101.397 34.3661C101.046 34.6988 100.584 34.8891 100.1 34.9V34.9Z" fill="#FDD301"/>
</g>
</g>
<path id="Vector_6" d="M0.1 291.1H18.6C18.6 284.6 18.8 278.4 18.5 272.3C18.2 266.1 19.9 261.4 26.5 259.6C27 259.5 27.5 258.8 27.7 258.2C29.1 252.6 29.6 247 28.2 241.3C27.6 238.8 27.3 236.2 26.9 233.6C26.6 231.3 26.4 229.1 24.3 227.4C23.393 226.535 22.855 225.352 22.8 224.1C22.6 222.2 22.5 219.4 24.7 219.4C26.1 219.4 27.6 222 28.8 223.6C28.9735 223.959 29.0636 224.352 29.0636 224.75C29.0636 225.148 28.9735 225.541 28.8 225.9C26.7 230.2 28.6 234.4 28.9 238.7C29.052 240.407 29.527 242.07 30.3 243.6L33.1 228.7L35.6 214.7C35.7869 213.411 35.6139 212.096 35.1 210.9C32.6 205.2 34.2 200.7 39.8 198C43.5 201.1 43.6 207.6 39.7 210.7C37.942 212.033 36.79 214.013 36.5 216.2L29.4 255C29.4615 255.474 29.5619 255.942 29.7 256.4L36.3 247.6C38 245.5 39.1 243.5 39 240.6C38.8 237.9 41.2 236.1 44.6 235.4C46.4 239.6 45.6 241.7 42 244.1C39.7991 245.784 37.8466 247.771 36.2 250C33.8 253 31.6 256.1 29.1 259.4C30 259.8 30.5 260.1 31.1 260.3C35.3 262.2 37.2 265.4 37.2 270C37.1 275.9 37.2 281.8 37.2 287.8C37.2 288.8 37.3 289.9 37.4 291.2H90.4V386.6H0L0.1 291.1V291.1ZM89.6 324.2H1.1V354.2H89.6V324.2ZM89.5 322.4V292.7H1.1V322.4H89.5ZM1 385.4H89.5V355.7H1V385.4ZM36.1 291V269.4C36.1 264.9 33 261.3 28.9 261C24.2 260.6 20 263.5 19.7 268.2C19.3 275.7 19.6 283.2 19.6 290.9L36.1 291ZM39.8 199.5C34.8 202.2 33.8 206.6 37 211C41.8 208.4 42.8 204.6 39.8 199.5ZM26.6 227.5C28.7 224.7 28.1 222.5 24.8 220.8C22.9 223.8 23.4 225.5 26.6 227.5ZM44 236.8C40.3 238.4 39.4 240.3 40.8 243.1C44.1 241.8 44.7 240.7 44 236.8ZM190 346.1L198.8 385.4C198.5 385.5 198.2 385.5 197.9 385.6L195.7 376.9L189.3 348C189.1 347.3 188.2 346.2 187.7 346.2L169.2 346.1V385.4H168.2V346.3H151.3L159 385.5C158.6 385.6 158.3 385.6 157.9 385.7L150 346.1H126.3V385.2H125.4V346.1L118.4 345.8V334.8H125.2V319.4C125.2 312 127.1 309.2 134.3 306.9C142.3 304.3 149.4 300.3 155.1 294.1C158.791 290.365 161.237 285.58 162.1 280.4C162.7 276.2 165.4 273.8 169.6 273.7L196.4 273.6C199 273.6 198.8 275.1 198.8 276.9V334.6C198.8 337.4 198.7 340.2 198.8 343C198.9 345.4 198 346.1 195.7 346C194.2 346 192.4 346.1 190 346.1V346.1ZM126.7 334.6H182.2V275.1H169.4C166.3 275.1 164.2 277 163.6 280.1C162 288.8 157.1 295.3 150.1 300.4C144.8 304.3 138.9 306.8 132.7 308.9C129.4 310 126.8 312.2 126.7 316C126.6 322.1 126.7 328.2 126.7 334.6V334.6ZM197.5 334.7V275.3H184.1V334.7H197.5ZM197.5 336.2H119.4V344.4H197.5V336.2ZM149.1 215.8V190.6C149.1 189.1 149.5 188.6 151 188.6C162.9 188.7 174.8 188.7 186.7 188.6C188.2 188.6 188.5 189 188.5 190.5V241.1C188.5 242.5 188.1 243 186.7 243C174.8 242.9 162.8 243 150.9 243C149.5 243 149.1 242.6 149.1 241.2V215.8V215.8ZM150.1 189.6V242.1H187.8V189.6H150.1ZM48.4 339.6C47.3 340.3 46.2 341.7 45.2 341.5C44.5887 341.298 44.0387 340.945 43.6014 340.473C43.1641 340 42.854 339.425 42.7 338.8C42.6 338.1 44.3 336.5 45.2 336.4C46.3 336.4 47.3 337.6 48.4 338.3V339.6ZM45.1 303.8C46.5 305.6 47.8 306.6 47.8 307.6C47.8 308.5 46.4 309.8 45.3 310.1C43.6 310.6 42.4 309.3 42.6 307.6C42.7 306.5 43.9 305.6 45.1 303.8ZM49.1 370.4C47.3 371.7 46.3 373.2 45.3 373.1C44.3 373 42.7 371.5 42.7 370.5C42.977 369.211 43.936 368.175 45.2 367.8C46.1 367.8 47.3 369.2 49.1 370.4ZM185.9 240.3H151.7V191.4H185.9V240.3ZM185.3 191.9H152.5V239.7H185.3V191.9ZM155.5 194.9C156.1 194.9 156.5 194.8 157 194.8H180.9C182.2 194.8 182.6 195.1 182.6 196.5V235.3C182.6 236.5 182.3 236.9 181 236.9H156.8C155.7 236.9 155.4 236.6 155.4 235.5V196.1C155.337 195.698 155.371 195.286 155.5 194.9V194.9ZM181.5 195.5H156V236.1H181.5V195.5ZM167.9 221.1V216.8C167.034 216.85 166.166 216.85 165.3 216.8C164.5 216.7 163.4 217.3 163.3 215.8C163.2 214.3 164.4 214.8 165.2 214.8C166.066 214.75 166.934 214.75 167.8 214.8V210.7C169.8 210.1 169.9 210.3 170 212.1V214.8H174.2C174.2 215.5 174.3 216 174.3 216.7L169.9 216.9C169.85 217.799 169.85 218.701 169.9 219.6C170.1 221.1 169.5 221.6 167.9 221.1V221.1ZM168.5 220.5H169C169.133 219.741 169.167 218.968 169.1 218.2C168.9 216.6 169.5 216 171.1 216.2C171.968 216.267 172.84 216.233 173.7 216.1V215.3C172.7 215.3 171.7 215.2 170.7 215.3C169.4 215.4 169 214.9 169.1 213.7C169.117 212.832 169.083 211.964 169 211.1H168.3V215.2L164.1 215.4V216.1L168.4 216.3L168.5 220.5V220.5Z" fill="#E6E6E6"/>
<g id="man">
<path id="Vector_7" d="M301.5 223.1L304.9 303.8L316.8 368.6L294.1 369.7L286.1 306.6L273.6 261.7L266.2 315.1L267.3 370.8H248.5L246.2 312.8V223L301.5 223.1Z" fill="black"/>
<path id="Vector_8" d="M264.4 368.6V382.2C264.4 383.3 260.4 383.3 260.4 383.3C260.4 383.3 259.8 386.1 249 386.1C238.2 386.1 251.3 373.6 251.3 373.6V367.9L264.4 368.6ZM298.5 368.6V382.2C298.5 383.3 302.5 383.3 302.5 383.3C302.5 383.3 303.1 386.1 313.9 386.1C324.7 386.1 311.6 373.6 311.6 373.6V367.9L298.5 368.6Z" fill="#333333"/>
<g id="Group_2">
<path id="Vector_9" d="M269.5 146.7C277.011 146.7 283.1 140.611 283.1 133.1C283.1 125.589 277.011 119.5 269.5 119.5C261.989 119.5 255.9 125.589 255.9 133.1C255.9 140.611 261.989 146.7 269.5 146.7Z" fill="#FFB8B8"/>
<path id="Vector_10" d="M277.5 141.7V157.6L259.3 158.2L258.7 137.7L277.5 141.7Z" fill="#FFB8B8"/>
</g>
<path id="Vector_11" d="M277.5 149.9L286 158.1L295.7 225.2L255.3 226.3L258.7 149.6L267.2 155.9L277.5 149.9Z" fill="#CFCCE0"/>
<path id="Vector_12" d="M240 163.9L241.1 273.6C241.1 277.6 260.5 276.5 265 275.9C269.5 275.3 266.1 225.8 266.7 204.8C267.3 183.8 259.9 159.9 259.9 159.9L259 147.2L255.9 154.2L240 163.9ZM276.9 177.5C275.8 195.6 290 228.6 297.4 234.3C304.8 240 299.1 268.4 299.1 268.4C299.1 268.4 298.5 271.2 306.5 270.7C314.5 270.2 308.2 268.4 304.8 251.4C301.4 234.4 301.4 161.6 301.4 161.6L284.3 155.3L277.5 147.9C276.3 147.9 278 159.4 276.9 177.5V177.5Z" fill="#FDD301"/>
<path id="Vector_13" d="M244.4 252.5V255.9C244.4 255.9 252.9 273.6 245 276.4C237.1 279.2 236.5 257.6 236.5 257.6L235.4 252.5H244.4ZM299.4 232.3L297.4 240.5L299.7 247.9L306.2 239.7L299.4 232.3Z" fill="#FFB8B8"/>
<path id="Vector_14" d="M297.4 207L295.7 235.4L307.1 247.9L311.1 216.1C311.796 211.243 310.993 206.289 308.8 201.9C308.8 201.9 304.8 167.2 303.7 163.8C303.2 161.878 301.376 160.606 299.4 160.8L294 161L297.4 207ZM246.2 253.7C246.2 253.7 232.6 255.9 230.9 253.1C229.2 250.3 234.3 170.7 233.7 168.4C233.1 166.1 241.3 163 241.3 163L242.8 163.8L246.2 253.7Z" fill="#FDD301"/>
<path id="Vector_15" d="M282.5 137.4C282.5 137.4 281.3 135.4 281.6 128.6C281.9 121.8 271.5 125.6 262.9 125C254.3 124.4 256.1 136.4 256.1 136.4C256.1 136.4 255.4 135.7 254.1 129.9C252.8 124.1 255.8 118.3 255.8 118.3C256.7 112.2 261.5 114.2 261.5 114.2C260.222 114.478 259.386 115.71 259.6 117C261.6 113.5 266.4 115.5 266.4 115.5C272.8 111.5 279.3 116.8 279.3 116.8C287.1 118.5 282.5 124.7 282.5 124.7C290.3 128.6 282.5 137.4 282.5 137.4Z" fill="#2F2E41"/>
</g>
</g>
<defs>
<clipPath id="clip0">
<rect width="318.169" height="386.6" fill="white"/>
</clipPath>
</defs>
</svg>
