<svg width="531" height="367" viewBox="0 0 531 367" fill="none" xmlns="http://www.w3.org/2000/svg">
   <style>
         #man , #rotate_1 , #rotate_2  {
        transform-origin: center;
        transform-box: fill-box;
    }
    #man{
        animation: translateX 3s linear infinite;
    }
    #rotate_1{
        animation: rotate 3s linear infinite;
    }
    #rotate_2{
        animation: rotatereverse 3s linear infinite;
    }
    @keyframes translateX {

        0%,
        100% {
            transform: translateY(0px);
        }

        50% {
            transform: translateY(-10px);
        }
    }
     @keyframes rotate {

        0%,
        100% {
            transform: rotateY(0deg) translateX(0px);
        }

        50% {
            transform: rotateY(-40deg) translateX(-10px);
        }
    }
    @keyframes rotatereverse {

        0%,
        100% {
            transform: rotateY(0deg) translateX(0px);
        }

        50% {
            transform: rotateY(40deg) translateX(10px);
        }
    }
   </style>
<g id="more_knowledge 1" clip-path="url(#clip0)">
<g id="rotate_2">
<g id="Group 1">
<g id="Group">
<path id="Vector" fill-rule="evenodd" clip-rule="evenodd" d="M130.347 11.589L129.864 106.84V107.323C129.864 107.323 116.584 108.651 97.027 114.687C96.786 114.808 96.665 114.808 96.427 114.928C78.59 120.575 61.551 128.487 45.727 138.469C45.606 138.59 45.365 138.71 45.244 138.831C9.502 120.603 2.621 98.872 1.414 88.369V83.54C2.259 75.089 9.261 39.114 70.951 21.126C86.766 16.539 106.323 13.038 130.347 11.589V11.589Z" fill="url(#paint0_linear)"/>
<path id="Vector_2" fill-rule="evenodd" clip-rule="evenodd" d="M129.864 106.84V107.323C129.864 107.323 116.584 108.651 97.027 114.687C96.786 114.808 96.665 114.808 96.427 114.928C78.59 120.575 61.551 128.487 45.727 138.469C45.606 138.59 45.365 138.71 45.244 138.831C9.502 120.602 2.621 98.872 1.414 88.369V83.54C2.259 75.089 9.261 39.114 70.951 21.126L72.038 21.247C72.038 21.247 20.73 46.72 46.565 84.989C66.243 113.842 111.514 109.616 129.864 106.84Z" fill="url(#paint1_linear)"/>
<path id="Vector_3" fill-rule="evenodd" clip-rule="evenodd" d="M1.41496 88.249C1.3144 87.3269 1.27398 86.3993 1.29396 85.472C1.29396 85.472 1.29396 84.872 1.41496 83.661V88.249Z" fill="#FDD301"/>
<path id="Vector_4" fill-rule="evenodd" clip-rule="evenodd" d="M1.41497 88.249C1.185 86.1627 1.185 84.0574 1.41497 81.971V88.249Z" fill="#FFFAFB"/>
<path id="Vector_5" fill-rule="evenodd" clip-rule="evenodd" d="M190.347 168.169L187.57 295.769C187.57 295.769 64.07 293.961 11.914 243.62C8.112 240.025 4.676 236.062 1.655 231.789L1.414 88.369C2.621 98.869 9.502 120.602 45.237 138.711C64.794 148.731 93.044 157.665 133.727 163.218H133.848C150.508 165.511 169.22 167.202 190.347 168.169Z" fill="url(#paint2_linear)"/>
<path id="Vector_6" fill-rule="evenodd" clip-rule="evenodd" d="M113.446 179.274L134.09 182.292L134.331 212.835L163.667 218.63L163.426 243.499L134.814 236.618L134.573 266.195L113.326 260.28L113.085 230.58L87.49 224.425L87.973 201.246L113.446 208.007V179.274Z" fill="#FDD301"/>
<path id="Vector_7" fill-rule="evenodd" clip-rule="evenodd" d="M24.473 143.54L23.386 188.449C23.386 188.449 31.716 198.949 50.67 201.849L51.394 157.061C42.0387 153.358 33.0299 148.833 24.473 143.54V143.54Z" fill="#FDD301"/>
</g>
<g id="Group_2">
<path id="Vector_8" d="M31.4935 163.928C31.3987 168.047 32.7837 171.42 34.5869 171.461C36.3901 171.503 37.9287 168.197 38.0235 164.078C38.1182 159.959 36.7332 156.587 34.93 156.545C33.1268 156.504 31.5882 159.809 31.4935 163.928Z" fill="white"/>
<path id="Vector_9" fill-rule="evenodd" clip-rule="evenodd" d="M28.215 183.379C28.215 183.379 33.285 151.629 44.271 191.347L28.215 183.379Z" fill="white"/>
</g>
<g id="Group_3">
<path id="Vector_10" d="M49.003 218.523H48.762C39.253 216.312 30.452 211.745 23.169 205.243C23.0242 205.107 22.9186 204.934 22.8632 204.744C22.8077 204.553 22.8046 204.35 22.8541 204.158C22.9035 203.965 23.0037 203.79 23.1443 203.649C23.2848 203.509 23.4605 203.408 23.653 203.359C23.8455 203.31 24.0477 203.313 24.2386 203.368C24.4295 203.424 24.6019 203.529 24.738 203.674C31.7984 209.833 40.2505 214.184 49.366 216.35C49.5089 216.381 49.6442 216.441 49.7641 216.524C49.884 216.608 49.9861 216.715 50.0646 216.838C50.1432 216.962 50.1965 217.099 50.2216 217.244C50.2468 217.388 50.2432 217.535 50.211 217.678C49.992 218.158 49.529 218.481 49.003 218.523Z" fill="#FDD301"/>
<path id="Vector_11" d="M48.325 229.893H48.084C38.575 227.682 29.774 223.115 22.491 216.613C22.3462 216.477 22.2406 216.304 22.1852 216.114C22.1298 215.923 22.1266 215.72 22.1761 215.528C22.2255 215.335 22.3258 215.16 22.4663 215.019C22.6068 214.879 22.7825 214.778 22.975 214.729C23.1675 214.68 23.3698 214.683 23.5606 214.738C23.7515 214.794 23.924 214.899 24.06 215.044C31.1204 221.203 39.5725 225.554 48.688 227.72C48.8309 227.751 48.9662 227.811 49.0861 227.894C49.206 227.978 49.3081 228.085 49.3866 228.208C49.4652 228.332 49.5185 228.469 49.5437 228.614C49.5688 228.758 49.5652 228.905 49.533 229.048C49.314 229.528 48.851 229.851 48.325 229.893Z" fill="#FDD301"/>
<path id="Vector_12" d="M47.735 241.67H47.494C37.985 239.459 29.184 234.892 21.901 228.39C21.7037 228.18 21.5958 227.901 21.6004 227.613C21.6049 227.324 21.7214 227.049 21.9253 226.845C22.1292 226.641 22.4044 226.525 22.6928 226.52C22.9811 226.516 23.2598 226.624 23.47 226.821C30.5304 232.98 38.9825 237.331 48.098 239.497C48.2409 239.528 48.3762 239.588 48.4961 239.671C48.616 239.755 48.7181 239.862 48.7966 239.985C48.8751 240.109 48.9285 240.246 48.9536 240.391C48.9788 240.535 48.9752 240.682 48.943 240.825C48.724 241.305 48.261 241.628 47.735 241.67Z" fill="#FDD301"/>
</g>
<path id="Vector_13" d="M13.309 139.368C13.09 139.352 12.88 139.279 12.698 139.156C7.72201 135.888 3.54401 131.544 0.471014 126.446C0.399411 126.322 0.353585 126.185 0.336295 126.043C0.319006 125.901 0.330609 125.757 0.370406 125.62C0.410204 125.483 0.477374 125.355 0.567874 125.244C0.658374 125.134 0.770333 125.042 0.897014 124.976C1.15553 124.851 1.45045 124.824 1.72739 124.9C2.00433 124.975 2.24464 125.148 2.40401 125.387C5.26413 130.19 9.20134 134.264 13.905 137.285C14.1455 137.454 14.3162 137.705 14.3853 137.991C14.4543 138.277 14.4169 138.578 14.28 138.838C13.998 139.215 13.712 139.47 13.309 139.368V139.368ZM13.35 157.302C13.134 157.294 12.924 157.23 12.742 157.114C7.73353 154.047 3.50118 149.865 0.375014 144.893C0.302691 144.769 0.255885 144.631 0.23734 144.489C0.218794 144.346 0.228883 144.202 0.267014 144.063C0.344014 143.783 0.530014 143.546 0.783014 143.404C0.912972 143.332 1.05626 143.286 1.20421 143.271C1.35215 143.256 1.50169 143.27 1.64378 143.314C1.78586 143.358 1.91754 143.431 2.03085 143.527C2.14416 143.623 2.23675 143.742 2.30301 143.875C5.21088 148.56 9.19624 152.482 13.927 155.314C14.429 155.653 14.597 156.315 14.317 156.853C14.1948 156.99 14.046 157.1 13.8797 157.177C13.7135 157.254 13.5332 157.297 13.35 157.302V157.302ZM12.996 178.712C12.7798 178.7 12.5707 178.631 12.39 178.512C7.41162 175.372 3.22172 171.129 0.144014 166.112C0.0736725 165.987 0.0289278 165.849 0.0123913 165.707C-0.00414512 165.564 0.00785787 165.42 0.0476998 165.282C0.0875418 165.144 0.154425 165.016 0.244446 164.904C0.334466 164.793 0.445822 164.7 0.572014 164.632C0.82547 164.499 1.11908 164.463 1.3972 164.531C1.67533 164.6 1.91863 164.768 2.08101 165.004C4.94307 169.732 8.88868 173.71 13.592 176.612C13.8323 176.779 14.003 177.029 14.0721 177.313C14.1412 177.598 14.1038 177.898 13.967 178.157C13.8704 178.329 13.7291 178.471 13.5581 178.569C13.3872 178.666 13.1929 178.716 12.996 178.712V178.712ZM13.49 198.37C13.3969 198.377 13.3033 198.365 13.2154 198.333C13.1275 198.302 13.0472 198.252 12.98 198.187C7.89501 195.307 3.62901 191.177 0.587014 186.187C0.419014 185.94 0.368014 185.632 0.446014 185.344C0.524014 185.056 0.724014 184.816 0.994014 184.687C1.25287 184.543 1.55825 184.507 1.84331 184.588C2.12837 184.669 2.36989 184.859 2.51501 185.117C5.40915 189.704 9.36974 193.523 14.059 196.248C14.1886 196.319 14.3022 196.416 14.3929 196.533C14.4835 196.649 14.5493 196.783 14.586 196.927C14.6228 197.07 14.6297 197.219 14.6065 197.365C14.5833 197.511 14.5304 197.65 14.451 197.775C14.3784 197.966 14.245 198.128 14.0713 198.235C13.8976 198.343 13.6933 198.39 13.49 198.37V198.37Z" fill="#FDD301"/>
<path id="Vector_14" d="M13.004 87.886H12.642C12.3811 87.7896 12.164 87.6019 12.0309 87.3578C11.8978 87.1136 11.8577 86.8295 11.918 86.558C12.039 86.075 15.54 75.814 31.475 65.311C31.6446 65.2053 31.839 65.1461 32.0387 65.1393C32.2384 65.1324 32.4364 65.1782 32.6128 65.272C32.7893 65.3658 32.938 65.5043 33.044 65.6737C33.15 65.843 33.2097 66.0373 33.217 66.237C33.2239 66.4369 33.1781 66.635 33.0842 66.8116C32.9903 66.9882 32.8516 67.137 32.682 67.243C17.471 77.143 14.091 87.043 13.97 87.162C13.8873 87.3573 13.7543 87.5271 13.5846 87.6543C13.415 87.7815 13.2146 87.8614 13.004 87.886V87.886ZM16.384 100.804H16.022C15.7611 100.708 15.544 100.52 15.4109 100.276C15.2778 100.032 15.2377 99.7475 15.298 99.476C15.419 98.993 19.644 86.559 34.131 79.557C34.3847 79.4472 34.6708 79.4389 34.9305 79.5338C35.1901 79.6287 35.4035 79.8195 35.5267 80.067C35.6499 80.3145 35.6734 80.5998 35.5926 80.8642C35.5117 81.1285 35.3325 81.3518 35.092 81.488C21.45 88.128 17.346 100.079 17.346 100.2C17.2516 100.375 17.1134 100.523 16.9448 100.629C16.7761 100.735 16.5829 100.795 16.384 100.804ZM20.17 112.7L19.929 112.714C19.636 112.681 19.375 112.516 19.219 112.266C19.1422 112.143 19.0942 112.003 19.0784 111.859C19.0627 111.714 19.0796 111.568 19.128 111.431C19.23 111.062 21.661 101.125 35.055 94.531C35.317 94.39 35.627 94.365 35.908 94.462C36.189 94.559 36.417 94.771 36.536 95.044C36.677 95.306 36.702 95.616 36.605 95.897C36.508 96.178 36.296 96.406 36.023 96.525C23.682 102.577 21.332 111.905 21.332 111.905C21.2115 112.117 21.0441 112.299 20.8425 112.437C20.6409 112.574 20.4106 112.664 20.169 112.699L20.17 112.7ZM24.232 121.689C24.062 121.707 23.891 121.664 23.749 121.568C23.5643 121.453 23.4121 121.293 23.3071 121.103C23.202 120.912 23.1476 120.698 23.149 120.481C23.27 119.153 29.185 110.702 37.394 107.681C37.5295 107.621 37.6758 107.588 37.8241 107.586C37.9724 107.583 38.1197 107.61 38.2574 107.665C38.395 107.72 38.5203 107.802 38.6256 107.907C38.731 108.011 38.8144 108.136 38.8709 108.273C38.9273 108.41 38.9558 108.557 38.9544 108.705C38.9531 108.854 38.9221 109 38.8632 109.136C38.8043 109.272 38.7187 109.395 38.6115 109.498C38.5043 109.6 38.3776 109.68 38.239 109.733C31.478 112.147 26.408 118.787 25.439 120.477C25.4432 120.636 25.413 120.793 25.3505 120.939C25.288 121.085 25.1947 121.216 25.077 121.322C24.8374 121.525 24.5435 121.652 24.232 121.689V121.689Z" fill="#FFFAFB"/>
<path id="Vector_15" fill-rule="evenodd" clip-rule="evenodd" d="M52.963 46.357L54.291 84.987C54.291 84.987 70.227 76.657 82.057 77.261L80.363 34.887C80.363 34.768 61.051 35.613 52.963 46.357V46.357Z" fill="#FDD301"/>
<g id="Group_4">
<path id="Vector_16" d="M67.451 57.223C69.9849 57.223 72.039 54.4664 72.039 51.066C72.039 47.6656 69.9849 44.909 67.451 44.909C64.9171 44.909 62.863 47.6656 62.863 51.066C62.863 54.4664 64.9171 57.223 67.451 57.223Z" fill="white"/>
<path id="Vector_17" fill-rule="evenodd" clip-rule="evenodd" d="M58.997 75.088C58.997 75.088 58.152 62.05 68.051 58.549C76.139 55.772 77.83 69.897 77.83 69.897C77.83 69.897 65.036 70.502 58.997 75.088Z" fill="white"/>
</g>
<path id="Vector_18" d="M91.111 34.526C90.8633 34.5197 90.6242 34.4343 90.4286 34.2822C90.233 34.1301 90.0912 33.9195 90.024 33.681C89.9919 33.5383 89.9883 33.3906 90.0134 33.2465C90.0385 33.1024 90.0919 32.9647 90.1704 32.8413C90.2489 32.7179 90.3511 32.6112 90.471 32.5274C90.5908 32.4436 90.7261 32.3843 90.869 32.353C90.99 32.353 106.563 28.611 118.269 27.645C118.412 27.6274 118.557 27.6385 118.696 27.6778C118.834 27.7171 118.964 27.7837 119.076 27.8737C119.188 27.9637 119.282 28.0753 119.351 28.2019C119.419 28.3285 119.462 28.4676 119.476 28.611C119.501 29.198 119.088 29.714 118.51 29.818C109.399 30.7661 100.364 32.3391 91.468 34.526H91.111ZM92.451 46.144C92.2033 46.1377 91.9642 46.0523 91.7686 45.9002C91.573 45.7481 91.4312 45.5375 91.364 45.299C91.3319 45.1563 91.3283 45.0086 91.3534 44.8645C91.3785 44.7204 91.4319 44.5827 91.5104 44.4593C91.5889 44.3359 91.6911 44.2292 91.8109 44.1454C91.9308 44.0616 92.0661 44.0023 92.209 43.971C92.33 43.971 107.903 40.229 119.609 39.263C119.752 39.2454 119.897 39.2565 120.036 39.2958C120.174 39.335 120.304 39.4017 120.416 39.4917C120.529 39.5817 120.622 39.6933 120.691 39.8199C120.759 39.9465 120.802 40.0856 120.816 40.229C120.841 40.816 120.428 41.332 119.85 41.436C110.739 42.3841 101.704 43.9571 92.808 46.144C92.572 46.024 92.572 46.144 92.451 46.144ZM91.907 58.827C91.6593 58.8207 91.4202 58.7353 91.2246 58.5832C91.029 58.4311 90.8872 58.2205 90.82 57.982C90.7879 57.8393 90.7843 57.6916 90.8094 57.5475C90.8345 57.4034 90.8879 57.2657 90.9664 57.1423C91.0449 57.0189 91.1471 56.9122 91.2669 56.8284C91.3868 56.7446 91.5221 56.6853 91.665 56.654C91.786 56.654 107.359 52.912 119.065 51.946C119.665 51.879 120.205 52.312 120.272 52.912C120.339 53.512 119.906 54.052 119.306 54.119C110.195 55.0671 101.16 56.6401 92.264 58.827H91.907ZM91.242 71.508C90.9938 71.5023 90.754 71.4172 90.5578 71.2651C90.3616 71.113 90.2193 70.9019 90.152 70.663C90.1199 70.5203 90.1163 70.3726 90.1414 70.2285C90.1665 70.0844 90.2199 69.9467 90.2984 69.8233C90.3769 69.6999 90.4791 69.5932 90.5989 69.5094C90.7188 69.4256 90.8541 69.3663 90.997 69.335C91.118 69.335 106.691 65.593 118.397 64.627C118.54 64.6094 118.685 64.6205 118.824 64.6598C118.962 64.699 119.092 64.7657 119.204 64.8557C119.316 64.9457 119.41 65.0573 119.479 65.1839C119.547 65.3105 119.59 65.4496 119.604 65.593C119.629 66.18 119.216 66.696 118.638 66.8C109.53 67.7485 100.498 69.3215 91.605 71.508H91.242Z" fill="#FDD301"/>
<path id="Vector_19" fill-rule="evenodd" clip-rule="evenodd" d="M190.347 168.167L180.689 197.867C160.649 259.195 90.146 289.376 33.165 258.953C25.3844 254.836 18.2299 249.632 11.917 243.497C14.573 244.463 107.289 276.575 133.727 163.097H133.848C150.508 165.511 169.217 167.197 190.347 168.167Z" fill="url(#paint3_linear)"/>
</g>
</g>
<g id="rotate_1">
<g id="Group_5">
<path id="Vector_20" fill-rule="evenodd" clip-rule="evenodd" d="M479.164 145.11C479.164 145.11 460.693 114.929 388.983 103.219C385.483 102.619 381.983 102.132 378.239 101.65H377.998C364.219 99.9164 350.355 98.9483 336.469 98.75L337.435 0.11899C337.435 0.11899 405.161 -2.29501 460.335 14.485C460.576 14.606 461.542 14.847 462.991 15.33C496.664 26.2 525.034 44.426 529.264 75.211C529.501 75.211 542.781 119.275 479.164 145.11Z" fill="url(#paint4_linear)"/>
<path id="Vector_21" fill-rule="evenodd" clip-rule="evenodd" d="M530.225 73.4L530.104 77.746V77.867L529.621 95.01L526.721 215.734C526.721 215.734 522.979 235.171 498.472 255.334C493.84 259.172 488.915 262.643 483.744 265.716C483.623 265.837 483.623 265.837 483.503 265.837H483.382C483.383 265.869 483.37 265.901 483.347 265.923C483.324 265.945 483.293 265.958 483.261 265.958C471.143 273.194 458.219 278.987 444.753 283.218L447.771 152.233C457.632 149.812 467.189 146.29 476.262 141.733C490.145 134.972 506.081 124.349 516.946 108.655C523.697 99.0952 528.007 88.0294 529.501 76.422C529.899 75.459 530.144 74.439 530.225 73.4V73.4Z" fill="url(#paint5_linear)"/>
<path id="Vector_22" fill-rule="evenodd" clip-rule="evenodd" d="M497.251 152.621L496.473 197.533C496.473 197.533 487.54 207.665 468.098 209.75L469.241 164.975C469.359 165.101 482.74 160.59 497.251 152.621V152.621Z" fill="#FDD301"/>
<path id="Vector_23" fill-rule="evenodd" clip-rule="evenodd" d="M491.76 192.259C491.76 192.259 487.926 160.323 475.059 199.531L491.76 192.259Z" fill="white"/>
<path id="Vector_24" d="M469.23 226.485C468.98 226.469 468.742 226.375 468.549 226.214C468.356 226.054 468.22 225.837 468.159 225.594C468.133 225.449 468.137 225.3 468.169 225.157C468.201 225.013 468.262 224.877 468.347 224.757C468.433 224.637 468.541 224.535 468.666 224.457C468.791 224.379 468.931 224.327 469.076 224.304C478.41 222.489 487.19 218.514 494.712 212.696C495.199 212.355 495.854 212.382 496.31 212.763C496.479 212.993 496.565 213.273 496.553 213.558C496.541 213.843 496.432 214.116 496.244 214.33C495.861 214.677 486.005 223.324 469.599 226.5L469.23 226.485ZM469.448 237.874C469.198 237.858 468.96 237.764 468.767 237.603C468.574 237.443 468.438 237.226 468.377 236.983C468.351 236.838 468.355 236.689 468.387 236.545C468.419 236.402 468.48 236.266 468.565 236.146C468.651 236.026 468.759 235.924 468.884 235.846C469.009 235.768 469.149 235.716 469.294 235.693C478.628 233.878 487.408 229.903 494.93 224.085C495.155 223.891 495.445 223.79 495.742 223.803C496.039 223.815 496.32 223.94 496.528 224.152C496.697 224.381 496.783 224.662 496.771 224.947C496.759 225.232 496.65 225.505 496.462 225.719C496.079 226.066 486.223 234.713 469.817 237.889C469.575 237.758 469.57 237.879 469.447 237.873L469.448 237.874ZM469.554 249.667C469.304 249.652 469.065 249.557 468.872 249.397C468.68 249.237 468.543 249.019 468.482 248.776C468.456 248.631 468.46 248.482 468.492 248.338C468.524 248.195 468.585 248.059 468.67 247.939C468.756 247.819 468.864 247.717 468.989 247.639C469.114 247.561 469.254 247.509 469.399 247.486C478.734 245.671 487.514 241.696 495.036 235.878C495.523 235.537 496.178 235.565 496.634 235.945C496.803 236.175 496.889 236.455 496.877 236.74C496.865 237.025 496.756 237.298 496.568 237.512C496.185 237.859 486.329 246.506 469.923 249.682C469.681 249.551 469.676 249.672 469.553 249.666L469.554 249.667Z" fill="#FDD301"/>
<path id="Vector_25" d="M508.512 150.994C508.315 150.995 508.12 150.943 507.95 150.842C507.78 150.742 507.641 150.597 507.547 150.423C507.419 150.157 507.394 149.854 507.476 149.57C507.558 149.287 507.741 149.044 507.991 148.887C512.838 146.014 517.005 142.125 520.206 137.487C520.284 137.36 520.386 137.25 520.507 137.164C520.628 137.078 520.765 137.016 520.911 136.984C521.056 136.952 521.206 136.949 521.352 136.976C521.498 137.002 521.638 137.058 521.762 137.14C522.275 137.448 522.442 138.114 522.135 138.628C518.803 143.639 514.353 147.808 509.135 150.806C508.828 150.9 508.712 151.012 508.512 150.994V150.994ZM507.642 168.815C507.443 168.808 507.249 168.747 507.081 168.64C506.913 168.533 506.777 168.383 506.686 168.205C506.56 167.939 506.537 167.636 506.622 167.355C506.708 167.074 506.895 166.834 507.148 166.684C512.018 164 516.229 160.265 519.476 155.75C519.547 155.616 519.648 155.499 519.771 155.409C519.894 155.319 520.036 155.258 520.185 155.231C520.335 155.203 520.489 155.21 520.636 155.25C520.783 155.291 520.918 155.364 521.033 155.464C521.537 155.786 521.694 156.45 521.387 156.964C518.006 161.849 513.508 165.856 508.266 168.652C508.101 168.812 507.864 168.874 507.642 168.815V168.815ZM507.252 187.873C506.846 187.863 506.478 187.633 506.29 187.273C506.161 187.009 506.135 186.705 506.217 186.423C506.3 186.14 506.485 185.899 506.737 185.746C511.581 182.992 515.754 179.198 518.956 174.638C519.3 174.143 519.97 174.004 520.483 174.321C520.73 174.473 520.909 174.715 520.983 174.996C521.057 175.276 521.02 175.575 520.88 175.829C517.548 180.759 513.092 184.826 507.88 187.697C507.565 187.788 507.454 187.894 507.252 187.873V187.873ZM505.915 207.511C505.708 207.524 505.503 207.468 505.331 207.354C505.158 207.239 505.028 207.071 504.96 206.876C504.833 206.612 504.81 206.31 504.896 206.03C504.982 205.751 505.17 205.514 505.424 205.367C510.327 202.904 514.533 199.249 517.656 194.737C517.733 194.608 517.836 194.496 517.957 194.407C518.079 194.319 518.217 194.256 518.363 194.222C518.509 194.188 518.661 194.183 518.809 194.209C518.957 194.235 519.099 194.29 519.225 194.372C519.458 194.539 519.622 194.784 519.686 195.063C519.751 195.342 519.713 195.635 519.578 195.887C516.195 200.682 511.689 204.576 506.455 207.23C506.406 207.328 506.327 207.407 506.23 207.458C506.133 207.508 506.023 207.527 505.915 207.511Z" fill="#FDD301"/>
<path id="Vector_26" d="M491.339 122.79C491.082 122.782 490.834 122.692 490.632 122.532C471.632 106.032 447.727 98.594 447.586 98.47C447.316 98.3736 447.095 98.1739 446.973 97.9148C446.85 97.6557 446.835 97.3585 446.931 97.0885C447.028 96.8185 447.228 96.5979 447.487 96.4751C447.746 96.3524 448.043 96.3376 448.313 96.434C448.596 96.561 472.783 104.005 492.206 120.878C492.428 121.072 492.566 121.345 492.59 121.638C492.614 121.932 492.522 122.224 492.334 122.451C492.038 122.649 491.695 122.766 491.339 122.79ZM493.702 105.911C493.446 105.903 493.2 105.813 492.999 105.654C474.216 89.157 449.974 81.835 449.836 81.711C449.693 81.6831 449.559 81.6229 449.444 81.535C449.328 81.4471 449.234 81.3339 449.169 81.204C449.104 81.0743 449.069 80.9315 449.067 80.7864C449.065 80.6412 449.096 80.4975 449.157 80.366C449.192 80.2173 449.26 80.0784 449.356 79.9592C449.452 79.84 449.572 79.7436 449.71 79.677C449.989 79.542 450.313 79.542 450.593 79.674C450.873 79.806 475.4 87.129 494.596 103.998C495.054 104.406 495.101 105.105 494.702 105.57C494.404 105.767 494.06 105.884 493.704 105.909L493.702 105.911ZM493.892 89.847C493.61 89.8175 493.337 89.7314 493.089 89.594C475.266 73.591 450.779 65.992 450.513 65.986C449.932 65.775 449.6 65.164 449.737 64.561C449.921 63.985 450.512 63.644 451.103 63.771C451.369 63.894 476.258 71.502 494.472 87.869C494.681 88.0621 494.809 88.3283 494.827 88.6125C494.846 88.8967 494.754 89.1773 494.572 89.396C494.398 89.614 494.16 89.7718 493.891 89.847H493.892ZM494.901 74.198C494.646 74.19 494.4 74.0994 494.201 73.94C475.531 57.447 450.652 49.383 450.514 49.259C450.332 49.1941 450.17 49.0818 450.046 48.9337C449.921 48.7856 449.838 48.6071 449.806 48.4164C449.773 48.2257 449.792 48.0298 449.86 47.8487C449.928 47.6676 450.043 47.5079 450.193 47.386C450.344 47.2646 450.524 47.1856 450.716 47.1571C450.908 47.1286 451.103 47.1517 451.283 47.224C451.563 47.351 476.726 55.424 495.811 72.287C496.268 72.696 496.312 73.396 495.911 73.859C495.609 74.058 495.261 74.174 494.901 74.198V74.198ZM496.496 55.875C496.24 55.8672 495.994 55.7771 495.793 55.618C477.016 39.122 450.786 31.875 450.506 31.751C450.22 31.6777 449.973 31.4951 449.82 31.2423C449.667 30.9896 449.619 30.6868 449.686 30.399C449.751 30.121 449.923 29.8797 450.165 29.7271C450.406 29.5745 450.698 29.5228 450.977 29.583C451.262 29.711 477.919 37.083 497.254 53.96C497.712 54.368 497.759 55.067 497.36 55.532L496.496 55.875Z" fill="#FDD301"/>
<g id="Group_6">
<path id="Vector_27" fill-rule="evenodd" clip-rule="evenodd" d="M427.819 26.948L427.177 70.787C427.177 70.787 407.855 61.882 394.246 63.374L395.833 21.165C395.833 21.165 404.758 16.47 427.819 26.948V26.948Z" fill="#FDD301"/>
<path id="Vector_28" fill-rule="evenodd" clip-rule="evenodd" d="M421.17 60.172C421.17 60.172 421.298 47.097 409.649 44.346C400.137 42.182 399.109 56.406 399.109 56.406C399.109 56.406 413.907 56.048 421.17 60.172V60.172Z" fill="white"/>
</g>
<path id="Vector_29" d="M381.334 22.004L381.195 22.013C381.056 22.022 362.988 19.448 349.692 19.346C349.396 19.35 349.112 19.228 348.911 19.01C348.812 18.9025 348.736 18.7753 348.689 18.6365C348.642 18.4978 348.625 18.3508 348.639 18.205C348.6 17.606 349.275 17.195 349.69 17.168C363.263 17.252 381.337 19.825 381.473 19.816C381.761 19.867 382.019 20.0281 382.191 20.2652C382.363 20.5023 382.436 20.797 382.395 21.087C382.292 21.598 381.856 21.975 381.335 22.003L381.334 22.004ZM380.686 33.69L380.546 33.699C380.407 33.708 362.339 31.134 349.043 31.032C348.747 31.036 348.463 30.914 348.262 30.696C348.163 30.5885 348.087 30.4613 348.04 30.3225C347.993 30.1838 347.976 30.0368 347.99 29.891C347.979 29.7509 347.999 29.61 348.048 29.4783C348.097 29.3466 348.175 29.2274 348.275 29.129C348.375 29.0306 348.496 28.9551 348.628 28.9078C348.76 28.8605 348.901 28.8425 349.041 28.855V28.855C362.615 28.939 380.685 31.513 380.964 31.494C381.252 31.545 381.51 31.7061 381.682 31.9432C381.854 32.1803 381.927 32.475 381.886 32.765C381.772 33.0023 381.605 33.2096 381.397 33.3703C381.188 33.5309 380.945 33.6404 380.687 33.69H380.686ZM382.14 46.304L382.001 46.313C381.861 46.322 363.794 43.748 350.497 43.646C350.201 43.65 349.917 43.528 349.716 43.31C349.617 43.2025 349.541 43.0753 349.494 42.9365C349.447 42.7978 349.43 42.6508 349.444 42.505C349.422 42.3625 349.434 42.2168 349.479 42.0799C349.524 41.943 349.601 41.8188 349.704 41.7175C349.807 41.6162 349.932 41.5408 350.069 41.4974C350.207 41.454 350.353 41.4439 350.495 41.468C364.068 41.552 382.138 44.126 382.417 44.107C382.705 44.158 382.963 44.3191 383.135 44.5562C383.307 44.7933 383.38 45.088 383.339 45.378C383.091 45.878 382.705 46.385 382.14 46.303V46.304ZM383.603 59.039L383.464 59.048C383.325 59.057 365.257 56.483 351.96 56.381C351.664 56.385 351.38 56.263 351.179 56.045C351.08 55.9375 351.004 55.8103 350.957 55.6715C350.91 55.5328 350.893 55.3858 350.907 55.24C350.896 55.0999 350.916 54.959 350.965 54.8273C351.014 54.6956 351.092 54.5764 351.192 54.478C351.292 54.3796 351.413 54.3041 351.545 54.2568C351.677 54.2095 351.818 54.1915 351.958 54.204C365.531 54.288 383.601 56.862 383.88 56.843C384.168 56.894 384.426 57.0551 384.598 57.2922C384.77 57.5293 384.843 57.824 384.802 58.114C384.704 58.3619 384.541 58.5786 384.33 58.7415C384.119 58.9043 383.868 59.0071 383.603 59.039V59.039Z" fill="#FDD301"/>
<path id="Vector_30" d="M529.864 76.297C525.156 111.065 498.355 130.985 476.625 141.609C469.382 133.4 446.082 112.394 389.1 103.098C416.384 106.478 486.041 111.066 497.631 74.124C509.7 35.492 475.659 19.677 464.19 15.452C497.51 26.317 525.397 44.546 529.622 75.09C529.5 75.21 529.622 75.572 529.864 76.297V76.297Z" fill="url(#paint6_linear)"/>
</g>
<g id="Group_7">
<path id="Vector_31" fill-rule="evenodd" clip-rule="evenodd" d="M530.226 73.4L530.105 77.746V77.867L529.622 95.01L526.722 215.734C526.722 215.734 522.98 235.171 498.473 255.334L483.745 265.716C483.624 265.837 483.624 265.837 483.504 265.837C483.472 265.836 483.44 265.849 483.418 265.872C483.396 265.895 483.383 265.926 483.383 265.958L483.504 265.837C522.015 234.207 518.876 134.852 517.304 108.655C524.055 99.0952 528.365 88.0294 529.859 76.422L530.226 73.4V73.4Z" fill="url(#paint7_linear)"/>
</g>
</g>
<g id="man">
<path id="Vector_32" d="M168.386 151.387C168.855 150.319 169.531 149.355 170.376 148.552C171.221 147.748 172.217 147.12 173.307 146.704C174.396 146.288 175.557 146.093 176.723 146.13C177.889 146.168 179.035 146.436 180.096 146.92C180.552 147.136 180.996 147.377 181.424 147.644L206.656 128.812L207.622 145.112L183.477 160.562C180.433 164.444 174.828 165.144 170.922 162.131C169.38 160.865 168.297 159.128 167.839 157.187C167.381 155.246 167.574 153.208 168.387 151.387H168.386Z" fill="#FFB8B8"/>
<path id="Vector_33" fill-rule="evenodd" clip-rule="evenodd" d="M316.217 176.135C316.217 176.135 330.945 226.356 337.344 243.135C337.344 243.135 335.775 257.501 292.797 263.535C292.797 263.535 271.791 143.535 255.01 107.077C255.01 107.077 298.35 89.934 309.21 103.697L316.217 176.135Z" fill="#FDD301"/>
<g id="Group 2">
<path id="Vector_34" d="M191.807 157.784L182.507 147.04C182.158 146.656 181.89 146.205 181.719 145.715C181.547 145.224 181.477 144.705 181.51 144.187C181.544 143.669 181.682 143.163 181.915 142.699C182.149 142.235 182.473 141.823 182.869 141.487C182.99 141.366 183.11 141.246 183.231 141.246L264.845 84.384C267.471 82.5924 270.647 81.7911 273.809 82.1228C276.97 82.4544 279.911 83.8975 282.108 86.195C283.294 87.4686 284.217 88.9642 284.823 90.5957C285.429 92.2273 285.706 93.9625 285.639 95.7016C285.571 97.4407 285.161 99.1493 284.431 100.729C283.7 102.309 282.665 103.729 281.384 104.907C280.824 105.493 280.171 105.983 279.452 106.356L196.998 158.509C195.533 159.487 193.589 159.338 192.29 158.147C192.108 158.057 191.945 157.934 191.807 157.785V157.784Z" fill="#FDD301"/>
<g id="Group_8">
<path id="Vector_35" fill-rule="evenodd" clip-rule="evenodd" d="M219.572 229.134C219.572 229.134 244.32 209.215 253.254 228.048C253.254 228.048 285.004 159.235 284.884 149.336C284.643 139.436 254.341 145.714 254.341 145.714L219.572 229.134Z" fill="#FDD301" fill-opacity="0.5"/>
<path id="Vector_36" fill-rule="evenodd" clip-rule="evenodd" d="M253.531 114.79C253.531 114.79 240.855 167.063 221.901 202.918C218.781 208.947 215.189 214.72 211.157 220.181C211.157 220.181 205.362 229.115 219.004 245.171C219.004 245.171 256.911 154.99 261.74 126.137C266.569 97.284 271.64 82.556 278.158 77.727C278.158 77.727 271.397 85.574 261.619 88.471C261.619 88.352 253.531 106.943 253.531 114.79V114.79Z" fill="#FDD301"/>
</g>
<g id="Group_9">
<path id="Vector_37" d="M292.852 68.45C304.853 68.45 314.582 58.7211 314.582 46.72C314.582 34.7188 304.853 24.99 292.852 24.99C280.851 24.99 271.122 34.7188 271.122 46.72C271.122 58.7211 280.851 68.45 292.852 68.45Z" fill="#FFB8B8"/>
<path id="Vector_38" d="M267.38 345.028H256.515L251.324 303.258H267.38V345.028Z" fill="#FFB8B8"/>
</g>
<path id="Vector_39" d="M270.156 355.527H235.267V355.044C235.265 353.268 235.613 351.509 236.292 349.868C236.97 348.226 237.966 346.735 239.222 345.48C240.478 344.224 241.97 343.228 243.611 342.55C245.253 341.872 247.012 341.524 248.788 341.527H270.035L270.156 355.527Z" fill="#2F2E41"/>
<path id="Vector_40" d="M299.975 356.497H289.11L287.661 315.813L299.975 314.847V356.497Z" fill="#FFB8B8"/>
<path id="Vector_41" d="M302.752 366.996H267.863V366.513C267.861 364.737 268.209 362.978 268.888 361.337C269.566 359.695 270.562 358.204 271.818 356.949C273.074 355.693 274.566 354.697 276.207 354.019C277.849 353.341 279.608 352.993 281.384 352.996H302.631L302.752 366.996Z" fill="#2F2E41"/>
<path id="Vector_42" d="M296.957 348.891L288.506 347.925C286.548 347.674 285.063 346.035 285.006 344.062L283.437 234.324C283.434 233.973 283.293 233.637 283.045 233.388C282.796 233.14 282.46 232.999 282.109 232.996C281.583 233.038 281.121 233.361 280.902 233.841L269.187 266.799L270.032 328.61C270.084 330.738 268.417 332.513 266.29 332.594L255.304 333.077C253.217 333.135 251.411 331.638 251.079 329.577L245.284 259.557L253.976 186.519L319.408 191.227L301.187 345.27C301.078 346.245 300.609 347.143 299.872 347.791C299.135 348.438 298.184 348.787 297.203 348.77C297.203 348.891 297.082 348.891 296.962 348.891H296.957Z" fill="black"/>
<g id="Group_10">
<path id="Vector_43" d="M254.341 193.154C253.157 192.536 252.38 191.347 252.289 190.015C252.289 190.015 258.204 153.436 260.378 152.715L255.67 113.601C254.582 103.959 257.36 94.278 263.396 86.68C266.309 83.043 269.928 80.0338 274.036 77.8339C278.144 75.634 282.654 74.289 287.296 73.88C287.896 73.88 288.624 73.759 289.228 73.759C294.807 73.4587 300.376 74.5091 305.462 76.8211C310.548 79.133 315.001 82.6382 318.443 87.039C322.017 91.4808 324.465 96.72 325.579 102.311C326.693 107.902 326.441 113.68 324.843 119.152L322.187 128.327V192.673C322.185 193.312 322.031 193.941 321.737 194.508C321.443 195.075 321.018 195.563 320.497 195.933C312.77 201.48 303.447 204.361 293.938 204.142C276.675 204.144 260.498 196.418 254.341 193.154V193.154Z" fill="#E6C002"/>
</g>
<path id="Vector_44" d="M308.909 66.036C307.072 67.116 304.709 66.525 303.597 64.708C303.405 64.4176 303.281 64.0873 303.235 63.742V63.742C302.994 61.8989 302.994 60.0321 303.235 58.189C303.476 56.3523 303 54.4935 301.907 52.998C299.493 50.463 295.388 51.791 292.007 51.187C287.857 50.333 285.035 46.466 285.488 42.253C285.521 41.843 285.602 41.438 285.729 41.046C286.092 39.38 285.773 37.638 284.843 36.209C283.913 34.78 282.449 33.783 280.779 33.44C280.181 33.34 279.574 33.299 278.968 33.319C275.588 33.56 271.845 34.647 268.948 32.112C267.885 31.1167 267.144 29.8258 266.821 28.4056C266.498 26.9854 266.608 25.5011 267.137 24.144C268.706 19.436 273.294 17.021 277.881 15.573C283.477 13.8956 289.379 13.5022 295.148 14.4219C300.917 15.3416 306.404 17.5508 311.201 20.885C314.239 22.706 316.61 25.4577 317.962 28.732C319.169 31.992 318.686 36.217 315.91 38.39C320.249 43.005 321.853 49.556 320.135 55.653C318.567 59.879 312.169 64.105 308.909 66.036Z" fill="#2F2E41"/>
<path id="Vector_45" d="M253.42 140.551L299.536 124.308L322.396 189.213L276.28 205.456L253.42 140.551Z" fill="black"/>
<path id="Vector_46" d="M258.649 143.209L297.478 129.533L317.689 186.915L278.86 200.591L258.649 143.209Z" fill="white"/>
<path id="Vector_47" d="M265.07 146.951L272.96 144.172L277.102 155.933L269.212 158.712L265.07 146.951ZM279.143 144.265C278.951 144.315 278.747 144.294 278.569 144.205C278.392 144.116 278.252 143.966 278.177 143.782C278.045 143.35 278.251 142.886 278.66 142.695L293.147 137.625C293.577 137.521 294.022 137.719 294.233 138.108C294.365 138.54 294.159 139.003 293.75 139.194L279.142 144.264L279.143 144.265ZM280.612 148.164C280.42 148.214 280.216 148.193 280.038 148.104C279.861 148.015 279.721 147.865 279.646 147.681C279.514 147.249 279.72 146.785 280.129 146.594L294.616 141.524C294.821 141.457 295.044 141.472 295.238 141.565C295.433 141.658 295.584 141.822 295.661 142.023C295.738 142.224 295.735 142.448 295.653 142.647C295.57 142.846 295.413 143.006 295.216 143.093L280.608 148.163L280.612 148.164ZM281.93 152.087C281.738 152.137 281.534 152.116 281.356 152.027C281.179 151.938 281.039 151.788 280.964 151.604C280.832 151.172 281.038 150.708 281.447 150.517L295.934 145.447C296.364 145.343 296.81 145.541 297.021 145.93C297.153 146.362 296.947 146.826 296.538 147.017L281.93 152.087ZM272.414 165.752C271.953 165.752 271.492 165.752 271.492 165.082C271.262 164.748 271.492 164.082 271.953 164.082L299.609 154.372C300.07 154.372 300.531 154.372 300.761 155.042C300.992 155.377 300.761 156.042 300.3 156.042L272.414 165.751V165.752ZM274.216 169.971C273.755 169.971 273.294 169.971 273.294 169.302C273.064 168.967 273.294 168.302 273.755 168.302L301.411 158.593C301.872 158.258 302.333 158.593 302.563 159.263C302.793 159.598 302.563 160.263 302.102 160.263L274.215 169.972L274.216 169.971ZM275.957 174.344C275.496 174.344 275.035 174.344 275.035 173.675C274.805 173.34 275.035 172.675 275.496 172.675L303.152 162.966C303.613 162.966 304.074 162.966 304.304 163.636C304.534 163.971 304.304 164.636 303.843 164.636L275.956 174.345L275.957 174.344Z" fill="#FDD301"/>
<path id="Vector_48" d="M278.399 176.498C279.317 174.341 281.051 172.636 283.222 171.753C285.394 170.871 287.826 170.884 289.988 171.79C290.444 172.006 290.888 172.247 291.316 172.514L316.186 153.078L317.514 169.378L293.731 185.314C292.424 187.05 290.528 188.249 288.399 188.685C286.27 189.121 284.055 188.764 282.171 187.681C280.287 186.598 278.864 184.864 278.169 182.805C277.475 180.746 277.556 178.504 278.399 176.501V176.498Z" fill="#FFB8B8"/>
<path id="Vector_49" d="M300.612 184.104C299.958 183.888 299.371 183.508 298.906 183C298.441 182.492 298.114 181.874 297.956 181.204L295.421 170.704C295.25 169.954 295.296 169.17 295.552 168.444C295.809 167.719 296.266 167.08 296.87 166.604L313.77 148.375L289.022 110.226C284.32 104.459 285.184 95.972 290.951 91.27C296.718 86.568 305.205 87.432 309.907 93.199C310.733 94.1668 311.387 95.2695 311.839 96.459L334.777 141.368C339.501 150.615 336.542 161.935 327.896 167.686L304.355 183.38C303.607 183.998 302.669 184.339 301.699 184.346C301.327 184.324 300.96 184.242 300.613 184.105L300.612 184.104Z" fill="#FDD301"/>
</g>
</g>
</g>
<defs>
<linearGradient id="paint0_linear" x1="1.414" y1="75.0827" x2="130.347" y2="75.0827" gradientUnits="userSpaceOnUse">
<stop offset="0.008" stop-color="#ECF2F3"/>
<stop offset="0.489" stop-color="#F2F4F6"/>
<stop offset="0.995" stop-color="#FFFAFB"/>
</linearGradient>
<linearGradient id="paint1_linear" x1="75.6581" y1="72.0922" x2="51.9061" y2="128.172" gradientUnits="userSpaceOnUse">
<stop stop-color="#FDD301" stop-opacity="0"/>
<stop offset="0.183" stop-color="#8EA6AA" stop-opacity="0.184"/>
<stop offset="0.427" stop-color="#9FB3B6" stop-opacity="0.427"/>
<stop offset="0.706" stop-color="#BBC9CB" stop-opacity="0.706"/>
<stop offset="1" stop-color="#E0E7E8"/>
</linearGradient>
<linearGradient id="paint2_linear" x1="-57.911" y1="94.1762" x2="101.764" y2="187.827" gradientUnits="userSpaceOnUse">
<stop offset="0.008" stop-color="#ECF2F3"/>
<stop offset="0.489" stop-color="#F2F4F6"/>
<stop offset="0.995" stop-color="#FFFAFB"/>
</linearGradient>
<linearGradient id="paint3_linear" x1="76.8655" y1="247.416" x2="131.434" y2="140.551" gradientUnits="userSpaceOnUse">
<stop stop-color="white" stop-opacity="0"/>
<stop offset="1" stop-color="white" stop-opacity="0.8"/>
</linearGradient>
<linearGradient id="paint4_linear" x1="513.878" y1="90.8383" x2="400.152" y2="39.0117" gradientUnits="userSpaceOnUse">
<stop offset="0.008" stop-color="#ECF2F3"/>
<stop offset="0.489" stop-color="#F2F4F6"/>
<stop offset="0.995" stop-color="#FFFAFB"/>
</linearGradient>
<linearGradient id="paint5_linear" x1="428.257" y1="213.139" x2="559.17" y2="201.131" gradientUnits="userSpaceOnUse">
<stop offset="0.008" stop-color="#ECF2F3"/>
<stop offset="0.489" stop-color="#F2F4F6"/>
<stop offset="0.995" stop-color="#FFFAFB"/>
</linearGradient>
<linearGradient id="paint6_linear" x1="460.186" y1="59.7331" x2="458.603" y2="134.3" gradientUnits="userSpaceOnUse">
<stop stop-color="#FDD301" stop-opacity="0"/>
<stop offset="0.183" stop-color="#8EA6AA" stop-opacity="0.184"/>
<stop offset="0.427" stop-color="#9FB3B6" stop-opacity="0.427"/>
<stop offset="0.706" stop-color="#BBC9CB" stop-opacity="0.706"/>
<stop offset="1" stop-color="#E0E7E8"/>
</linearGradient>
<linearGradient id="paint7_linear" x1="478.605" y1="189.898" x2="568.201" y2="186.113" gradientUnits="userSpaceOnUse">
<stop stop-color="white" stop-opacity="0"/>
<stop offset="1" stop-color="white" stop-opacity="0.8"/>
</linearGradient>
<clipPath id="clip0">
<rect width="530.569" height="367" fill="white"/>
</clipPath>
</defs>
</svg>
