<svg width="372" height="387" viewBox="0 0 372 387" fill="none" xmlns="http://www.w3.org/2000/svg">
<style>
    #rotate , #translate {
        transform-origin: center;
        transform-box: fill-box;
    }
    #translate{
        animation: translateY 3s linear infinite;   
    }
    #rotate{
        animation: rotate 3s ease-in-out infinite;  
    }
    @keyframes rotate {

        0% , 100%{
            transform: rotate(0deg);
        }

        50% {
            transform: rotate(5deg);
        }
    }
    @keyframes translateY {

        0%,
        100% {
            transform: translateY(0px);
        }

        50% {
            transform: translateY(5px);
        }
    }
</style>
<g id="percent 1" clip-path="url(#clip0)">
<g id="translate" opacity=".5">
<path id="Vector" opacity=".5" d="M223.907 386.392C231.116 386.392 236.96 378.744 236.96 369.309C236.96 359.874 231.116 352.226 223.907 352.226C216.698 352.226 210.854 359.874 210.854 369.309C210.854 378.744 216.698 386.392 223.907 386.392Z" fill="#fff"/>
<path id="Vector_2" opacity=".5" d="M234.236 296.225C236.065 293.051 237.014 289.447 236.984 285.784C236.984 276.329 231.14 268.701 223.931 268.701C216.722 268.701 210.884 276.347 210.884 285.784C210.847 289.445 211.788 293.049 213.608 296.225C211.822 299.414 210.884 303.008 210.884 306.664C210.884 310.319 211.822 313.913 213.608 317.102C209.976 323.589 209.976 331.498 213.608 337.985C211.788 341.161 210.847 344.765 210.884 348.426C210.884 357.881 216.728 365.509 223.931 365.509C231.134 365.509 236.984 357.863 236.984 348.426C237.021 344.765 236.08 341.161 234.26 337.985C237.892 331.498 237.892 323.589 234.26 317.102C236.046 313.913 236.984 310.319 236.984 306.664C236.984 303.008 236.046 299.414 234.26 296.225H234.236Z" fill="#fff"/>
<path id="Vector_3" opacity=".5" d="M223.907 281.991C231.116 281.991 236.96 274.343 236.96 264.908C236.96 255.473 231.116 247.825 223.907 247.825C216.698 247.825 210.854 255.473 210.854 264.908C210.854 274.343 216.698 281.991 223.907 281.991Z" fill="#fff"/>
<path id="Vector_4" opacity=".5" d="M223.907 261.108C231.116 261.108 236.96 253.46 236.96 244.025C236.96 234.59 231.116 226.942 223.907 226.942C216.698 226.942 210.854 234.59 210.854 244.025C210.854 253.46 216.698 261.108 223.907 261.108Z" fill="#fff"/>
<path id="Vector_5" opacity=".5" d="M272.763 101.133C274.544 98.862 276.167 96.471 277.62 93.977L243.347 88.346L280.438 88.624C287.622 72.978 288.05 55.065 281.62 39.094L231.854 64.894L277.754 31.177C272.003 21.2512 263.632 13.0992 253.557 7.61323C243.482 2.1273 232.092 -0.480954 220.634 0.0740109C209.176 0.629892 198.092 4.32739 188.596 10.7617C179.099 17.196 171.555 26.1192 166.791 36.5542C162.027 46.9892 160.225 58.5339 161.584 69.9244C162.942 81.3149 167.408 92.1121 174.493 101.134C171.716 104.667 169.326 108.489 167.367 112.534L211.88 135.662L164.418 119.708C161.079 129.556 160.248 140.081 162.002 150.331C163.756 160.581 168.039 170.231 174.463 178.408C154.306 204.035 157.23 240.851 181.181 262.975C205.132 285.099 242.063 285.098 266.014 262.975C289.965 240.852 292.889 204.036 272.732 178.408C290.572 155.729 290.572 123.787 272.732 101.108L272.763 101.133Z" fill="#fff"/>
<path id="Vector_6" opacity=".5" d="M161.117 139.782C161.095 153.803 165.809 167.42 174.495 178.427C154.337 204.054 157.261 240.87 181.212 262.994C205.163 285.118 242.095 285.118 266.045 262.994C289.995 240.87 292.92 204.054 272.762 178.427C281.142 167.793 161.117 132.764 161.117 139.782V139.782Z" fill="#fff"/>
</g>
<g id="rotate">
<path id="Vector_7" d="M130.981 211.295C110.819 211.295 94.9297 203.292 83.313 187.286C71.6963 171.28 65.8877 151.891 65.887 129.118C65.887 106.191 71.5047 86.8403 82.74 71.067C93.9753 55.2937 109.823 47.415 130.284 47.431C151.982 47.431 168.33 55.741 179.329 72.361C190.328 88.981 195.828 108.217 195.829 130.069C195.829 151.763 190.137 170.727 178.752 186.961C167.367 203.195 151.444 211.306 130.981 211.295ZM131.572 193.295C144.839 193.295 154.752 187.514 161.312 175.952C167.872 164.39 171.153 149.814 171.156 132.225C171.156 112.646 167.798 96.615 161.081 84.131C154.364 71.647 144.064 65.403 130.181 65.399C103.787 65.399 90.59 86.3657 90.59 128.299C90.59 171.636 104.248 193.303 131.564 193.299L131.572 193.295ZM138.214 365.715H109.053L299.963 50.644H328.575L138.214 365.715ZM307.107 368.947C286.64 368.947 270.686 360.871 259.244 344.72C247.802 328.569 242.056 309.176 242.006 286.541C242.006 263.768 247.584 244.494 258.74 228.721C269.896 212.948 285.784 205.068 306.403 205.081C327.947 205.081 344.18 213.391 355.103 230.011C366.026 246.631 371.49 265.864 371.495 287.711C371.495 309.263 365.84 328.192 354.53 344.497C343.22 360.802 327.407 368.949 307.092 368.937L307.107 368.947ZM307.45 350.481C320.65 350.481 330.51 344.798 337.031 333.433C343.552 322.068 346.812 307.551 346.811 289.883C346.811 270.974 343.511 255.116 336.911 242.309C330.311 229.502 320.031 223.089 306.072 223.069C279.525 223.069 266.251 244.036 266.251 285.969C266.242 328.977 279.97 350.481 307.437 350.481H307.45Z" fill="#3F3D56"/>
<path id="Vector_8" d="M130.981 211.295C110.819 211.295 94.9297 203.292 83.313 187.286C71.6963 171.28 65.8877 151.891 65.887 129.118C65.887 106.191 71.5047 86.8403 82.74 71.067C93.9753 55.2937 109.823 47.415 130.284 47.431C151.982 47.431 168.33 55.741 179.329 72.361C190.328 88.981 195.828 108.217 195.829 130.069C195.829 151.763 190.137 170.727 178.752 186.961C167.367 203.195 151.444 211.306 130.981 211.295ZM131.572 193.295C144.839 193.295 154.752 187.514 161.312 175.952C167.872 164.39 171.153 149.814 171.156 132.225C171.156 112.646 167.798 96.615 161.081 84.131C154.364 71.647 144.064 65.403 130.181 65.399C103.787 65.399 90.59 86.3657 90.59 128.299C90.59 171.636 104.248 193.303 131.564 193.299L131.572 193.295ZM138.214 365.715H109.053L299.963 50.644H328.575L138.214 365.715ZM307.107 368.947C286.64 368.947 270.686 360.871 259.244 344.72C247.802 328.569 242.056 309.176 242.006 286.541C242.006 263.768 247.584 244.494 258.74 228.721C269.896 212.948 285.784 205.068 306.403 205.081C327.947 205.081 344.18 213.391 355.103 230.011C366.026 246.631 371.49 265.864 371.495 287.711C371.495 309.263 365.84 328.192 354.53 344.497C343.22 360.802 327.407 368.949 307.092 368.937L307.107 368.947ZM307.45 350.481C320.65 350.481 330.51 344.798 337.031 333.433C343.552 322.068 346.812 307.551 346.811 289.883C346.811 270.974 343.511 255.116 336.911 242.309C330.311 229.502 320.031 223.089 306.072 223.069C279.525 223.069 266.251 244.036 266.251 285.969C266.242 328.977 279.97 350.481 307.437 350.481H307.45Z" fill="black"/>
<path id="Vector_9" d="M112.663 211.295C92.501 211.295 76.6117 203.292 64.995 187.286C53.3783 171.28 47.5697 151.891 47.569 129.118C47.569 106.191 53.1867 86.8403 64.422 71.067C75.6573 55.2937 91.5053 47.415 111.966 47.431C133.664 47.431 150.012 55.741 161.011 72.361C172.01 88.981 177.51 108.217 177.511 130.069C177.511 151.763 171.819 170.727 160.434 186.961C149.049 203.195 133.126 211.306 112.663 211.295ZM113.254 193.295C126.521 193.295 136.434 187.514 142.994 175.952C149.554 164.39 152.836 149.814 152.839 132.225C152.839 112.646 149.481 96.615 142.764 84.131C136.047 71.647 125.747 65.403 111.864 65.399C85.47 65.399 72.273 86.3657 72.273 128.299C72.273 171.636 85.9307 193.303 113.246 193.299L113.254 193.295ZM119.896 365.715H90.735L281.645 50.644H310.257L119.896 365.715ZM288.789 368.947C268.322 368.947 252.368 360.871 240.926 344.72C229.484 328.569 223.738 309.176 223.688 286.541C223.688 263.768 229.266 244.494 240.422 228.721C251.578 212.948 267.466 205.068 288.085 205.081C309.63 205.081 325.863 213.391 336.785 230.011C347.707 246.631 353.171 265.864 353.177 287.711C353.177 309.263 347.522 328.192 336.212 344.497C324.902 360.802 309.089 368.949 288.774 368.937L288.789 368.947ZM289.132 350.481C302.332 350.481 312.192 344.798 318.713 333.433C325.234 322.068 328.494 307.551 328.493 289.883C328.493 270.974 325.193 255.116 318.593 242.309C311.993 229.502 301.709 223.089 287.742 223.069C261.195 223.069 247.921 244.036 247.921 285.969C247.921 328.983 261.654 350.488 289.121 350.484L289.132 350.481Z" fill="#FDD301"/>
</g>
<path id="Vector_10" d="M125.302 309.97C125.325 307.064 123.97 304.319 121.65 302.57C121.626 297.341 117.833 292.891 112.674 292.04C111.892 288.293 109.172 285.248 105.536 284.051C105.101 283.913 104.657 283.809 104.207 283.738H104.077L103.847 283.708H102.63C97.506 283.827 93.214 287.624 92.472 292.696C89.192 291.94 86.185 292.92 85.647 294.996C85.508 295.546 85.539 296.124 85.736 296.656C86.291 298.263 88.1 299.8 90.552 300.562L90.871 300.657C91.031 300.704 91.19 300.74 91.35 300.775H91.456C89.583 304.768 91.172 309.527 95.067 311.595C94.993 311.635 94.9218 311.681 94.854 311.731C94.551 312.009 94.31 312.347 94.145 312.724C93.5528 313.763 93.0922 314.871 92.774 316.024C92.538 317.011 92.496 318.045 92.183 319.024C91.645 320.797 90.263 322.351 90.103 324.236C90.032 325.075 90.168 326.062 89.571 326.636C89.4223 326.764 89.2642 326.881 89.098 326.985C88.6796 327.271 88.3254 327.641 88.058 328.072C87.884 328.428 87.65 328.752 87.367 329.029C86.829 329.437 85.943 329.395 85.677 330.022C85.411 330.649 86.097 331.387 85.937 332.072C85.807 332.627 85.198 332.882 84.755 333.254C84.261 333.792 83.916 334.45 83.755 335.163C82.8723 335.333 81.963 335.307 81.0918 335.085C80.2206 334.863 79.409 334.452 78.715 333.881C78.953 334.49 79.127 335.121 79.235 335.766C78.424 335.139 77.499 334.675 76.511 334.4C75.4042 333.894 74.4162 333.161 73.611 332.249L75.159 332.036L68.304 321.636L66.283 321.222L68.097 324.702C67.9486 324.773 67.8183 324.878 67.716 325.007C67.6136 325.136 67.5418 325.286 67.506 325.447C67.408 325.833 67.384 326.234 67.435 326.629C67.531 327.562 67.687 328.487 67.902 329.4L68.428 331.846C68.4725 332.076 68.5296 332.303 68.599 332.526C67.914 332.501 67.228 332.578 66.566 332.756C65.207 332.253 63.793 331.917 62.353 331.756C62.0365 331.7 61.7115 331.716 61.402 331.803C61.0507 331.965 60.746 332.213 60.516 332.524C59.3339 333.89 58.2852 335.366 57.384 336.932C53.703 343.337 48.784 348.932 44.184 354.718C41.005 356.012 37.802 357.241 34.594 358.458L27.694 361.088C26.355 361.712 24.899 362.042 23.422 362.057C22.76 362.016 21.956 361.915 21.584 362.477C21.4025 362.756 21.2611 363.059 21.164 363.377C20.922 363.377 20.679 363.436 20.455 363.448H20.414C20.086 362.325 19.522 361.286 18.759 360.4C18.5902 360.426 18.4305 360.494 18.2943 360.597C18.1582 360.7 18.0498 360.836 17.979 360.991C17.814 361.298 17.713 361.635 17.524 361.919C17.152 362.463 16.508 362.729 16.047 363.189C15.586 363.649 15.296 364.371 14.8 364.82C14.105 365.325 13.29 365.641 12.436 365.736C11.1563 366.039 9.92229 366.51 8.766 367.136C8.33957 367.398 7.88333 367.608 7.407 367.762C6.88302 367.863 6.34652 367.88 5.817 367.815L2.165 367.549C1.84007 367.506 1.5102 367.52 1.19 367.59C0.416002 367.873 -0.0689976 368.643 0.0080024 369.463C0.0980024 370.263 0.515002 370.99 1.16 371.472C1.79394 371.937 2.49544 372.301 3.24 372.553C6.41313 373.782 9.68443 374.741 13.019 375.419V376.158C15.33 377.322 17.882 377.929 20.47 377.931C20.6605 377.946 20.8517 377.912 21.025 377.831C21.264 377.651 21.43 377.391 21.492 377.098C22.267 374.781 22.7573 372.378 22.952 369.942C23.408 369.912 23.855 369.798 24.27 369.605C25.529 369.262 26.775 370.125 28.07 370.267C29.67 370.438 31.149 369.511 32.655 368.937C32.8716 368.857 33.0904 368.782 33.311 368.713C32.881 369.269 32.3735 369.76 31.804 370.172C31.178 370.621 30.474 370.952 29.86 371.419C29.3492 371.885 28.8017 372.31 28.223 372.689C27.815 372.879 27.394 373.041 26.964 373.174C26.34 373.401 25.745 373.701 25.191 374.066C24.695 374.359 24.274 374.763 23.962 375.248C23.643 375.708 23.585 376.301 23.809 376.814C24.033 377.327 24.508 377.687 25.062 377.765C25.556 377.852 26.059 377.866 26.557 377.806L32.466 377.298C33.299 377.243 34.127 377.124 34.942 376.944C35.373 376.838 35.799 376.696 36.23 376.584C36.966 376.39 37.721 376.277 38.481 376.247C38.702 376.23 38.924 376.252 39.137 376.312C39.598 376.46 39.923 376.903 40.39 377.021C40.693 377.051 40.9986 377.008 41.282 376.897C42.7223 376.584 44.1921 376.428 45.666 376.43C46.31 376.395 47.066 376.271 47.366 375.674C47.732 374.935 47.118 374.108 46.876 373.31C46.753 372.803 46.686 372.284 46.676 371.762C46.5638 370.475 46.1942 369.223 45.589 368.081C45.2672 367.548 44.996 366.986 44.779 366.403C47.603 365.329 50.305 363.958 52.839 362.314C54.2307 361.313 55.7878 360.565 57.439 360.104C59.389 359.864 61.368 360.093 63.212 360.772C67.702 362.071 72.118 363.612 76.442 365.387C78.485 366.281 80.571 367.07 82.694 367.751C83.312 368.586 84.061 369.316 84.91 369.914C86.382 370.742 88.037 371.193 89.726 371.226C91.9772 371.432 94.2377 371.516 96.498 371.48C98.229 371.555 99.954 371.235 101.544 370.546C101.921 370.352 102.276 370.117 102.602 369.846C103.836 369.948 105.052 369.498 105.923 368.617C107.151 367.572 108.036 366.182 108.464 364.628C109.008 362.495 108.588 360.007 109.9 358.264C110.249 357.797 110.7 357.419 111.046 356.946C111.468 356.313 111.675 355.561 111.637 354.801L111.696 354.712C111.993 354.026 112.192 353.302 112.287 352.561C112.442 351.981 112.64 351.413 112.878 350.861C113.544 349.212 114.124 347.53 114.615 345.821C114.955 344.687 115.222 343.532 115.415 342.364C115.557 341.43 115.639 340.491 115.715 339.551C115.81 338.08 116.096 336.628 116.566 335.231C117.733 331.897 118.392 328.407 118.522 324.878V324.671C120.238 324.483 121.823 323.661 122.965 322.367C124.107 321.072 124.725 319.397 124.697 317.671C124.699 316.631 124.481 315.602 124.059 314.651C124.876 313.227 125.305 311.612 125.302 309.97V309.97ZM91.886 350.57C91.986 350.93 92.105 351.291 92.223 351.651L90.592 350.026C90.811 350.091 91.029 350.162 91.242 350.239C91.4685 350.329 91.6861 350.44 91.892 350.57H91.886ZM89.244 348.8C86.018 346 82.283 343.825 78.98 341.118C80.753 342.01 82.525 343.044 84.298 344.037C86.3647 345.219 88.4527 346.35 90.562 347.429C90.2155 347.954 89.7747 348.411 89.262 348.776L89.244 348.8ZM90.621 341.745L90.775 341.585V342.685C90.486 342.59 90.184 342.496 89.906 342.385C90.161 342.177 90.402 341.952 90.627 341.711L90.621 341.745ZM62.221 349.332C63.5496 347.83 64.7052 346.183 65.666 344.422C66.942 346.662 69.022 348.275 70.795 350.148C67.947 349.748 65.095 349.433 62.227 349.309L62.221 349.332Z" fill="url(#paint0_linear)"/>
<path id="Vector_11" d="M66.821 322.09L68.86 322.504L75.803 332.762L72.736 333.176L66.821 322.09Z" fill="#2F2E41"/>
<path id="Vector_12" d="M17.451 363.725C18.0008 365.543 18.6781 367.32 19.478 369.043C21.779 368.562 24.042 367.916 26.25 367.11C25.823 366.444 25.353 365.806 24.844 365.201C24.301 364.598 23.653 364.099 22.93 363.73C22.1685 363.544 21.3748 363.532 20.608 363.695C19.5553 363.735 18.503 363.745 17.451 363.725V363.725Z" fill="#FBBEBE"/>
<path id="Vector_13" d="M22.941 366.467C22.3897 366.218 21.8978 365.854 21.4984 365.4C21.099 364.945 20.8013 364.411 20.625 363.832C20.2781 362.67 19.6881 361.594 18.894 360.677C18.551 360.731 18.258 360.953 18.114 361.268C17.943 361.568 17.842 361.9 17.647 362.184C17.281 362.716 16.631 362.976 16.164 363.431C15.697 363.886 15.408 364.577 14.905 365.031C14.208 365.532 13.394 365.845 12.541 365.941C11.253 366.233 10.009 366.694 8.84101 367.312C8.40901 367.563 7.94901 367.761 7.47001 367.903C6.94263 368.003 6.40287 368.021 5.87001 367.956L2.18901 367.69C1.86174 367.649 1.52988 367.665 1.20801 367.737C0.436009 368.006 -0.0519907 368.767 0.0260093 369.581C0.0749458 369.975 0.205307 370.354 0.408801 370.695C0.612295 371.036 0.884468 371.33 1.20801 371.56C1.84801 372.018 2.55301 372.376 3.30001 372.624C6.5073 373.83 9.80756 374.773 13.168 375.443V376.17C15.503 377.326 18.072 377.932 20.678 377.943C20.88 377.961 21.084 377.927 21.269 377.843C21.5093 377.666 21.6771 377.408 21.741 377.116C22.6244 374.534 23.1398 371.841 23.272 369.116C23.3397 368.427 23.2876 367.731 23.118 367.06C22.918 366.398 23.603 366.676 22.964 366.416" fill="#2F2E41"/>
<path id="Vector_14" d="M93.518 352.593C82.604 353.255 71.826 350.052 60.894 349.709C59.537 349.626 58.175 349.714 56.84 349.969C55.4482 350.342 54.101 350.865 52.822 351.529C46.966 354.253 40.903 356.51 34.847 358.768L27.898 361.356C26.541 361.966 25.072 362.29 23.584 362.307C22.922 362.266 22.113 362.165 21.734 362.721C20.605 364.393 21.143 366.857 21.888 368.736C22.13 369.327 22.538 370.007 23.188 370.077C23.6476 370.045 24.0978 369.931 24.517 369.74C25.782 369.403 27.046 370.254 28.346 370.39C29.959 370.561 31.454 369.645 32.973 369.084C35.49 368.156 38.244 368.184 40.891 367.743C45.3185 366.834 49.5308 365.085 53.3 362.59C54.704 361.598 56.272 360.862 57.933 360.416C59.8976 360.177 61.8908 360.402 63.753 361.072C68.2751 362.352 72.7269 363.869 77.09 365.616C79.361 366.603 81.69 367.451 84.063 368.157C89.2357 369.519 94.7074 369.2 99.687 367.247C101.46 366.556 103.327 365.338 103.427 363.453C103.486 362.378 102.653 361.432 102.097 360.499C101.737 359.908 101.382 359.317 100.997 358.756C99.114 356.014 96.833 352.392 93.518 352.593V352.593Z" fill="black"/>
<path id="Vector_15" opacity="0.1" d="M93.518 352.593C82.604 353.255 71.826 350.052 60.894 349.709C59.537 349.626 58.175 349.714 56.84 349.969C55.4482 350.342 54.101 350.865 52.822 351.529C46.966 354.253 40.903 356.51 34.847 358.768L27.898 361.356C26.541 361.966 25.072 362.29 23.584 362.307C22.922 362.266 22.113 362.165 21.734 362.721C20.605 364.393 21.143 366.857 21.888 368.736C22.13 369.327 22.538 370.007 23.188 370.077C23.6476 370.045 24.0978 369.931 24.517 369.74C25.782 369.403 27.046 370.254 28.346 370.39C29.959 370.561 31.454 369.645 32.973 369.084C35.49 368.156 38.244 368.184 40.891 367.743C45.3185 366.834 49.5308 365.085 53.3 362.59C54.704 361.598 56.272 360.862 57.933 360.416C59.8976 360.177 61.8908 360.402 63.753 361.072C68.2751 362.352 72.7269 363.869 77.09 365.616C79.361 366.603 81.69 367.451 84.063 368.157C89.2357 369.519 94.7074 369.2 99.687 367.247C101.46 366.556 103.327 365.338 103.427 363.453C103.486 362.378 102.653 361.432 102.097 360.499C101.737 359.908 101.382 359.317 100.997 358.756C99.114 356.014 96.833 352.392 93.518 352.593Z" fill="black"/>
<path id="Vector_16" d="M38.398 364.257C40.108 364.836 41.8297 365.372 43.563 365.864C44.538 364.264 46.358 363.152 46.772 361.326C46.795 361.247 46.795 361.163 46.772 361.084C46.725 361.006 46.656 360.944 46.572 360.907C45.3262 360.22 43.9439 359.816 42.524 359.725C41.401 359.654 40.893 360.825 40.385 361.645C40.212 361.977 38.853 364.411 38.398 364.257V364.257Z" fill="#FBBEBE"/>
<path id="Vector_17" d="M40.803 363.087C39.771 362.915 38.86 362.316 38.292 361.438C38.05 361.018 37.792 360.451 37.311 360.481C36.83 360.511 36.661 361.042 36.561 361.481C36.2339 363.136 35.7614 364.76 35.149 366.332C34.5312 367.909 33.4857 369.282 32.13 370.297L30.174 371.526C29.6567 371.987 29.1033 372.406 28.519 372.779C28.1077 372.967 27.6832 373.125 27.249 373.252C26.612 373.474 26.004 373.769 25.435 374.132C24.937 374.424 24.514 374.829 24.2 375.314C24.0437 375.537 23.947 375.795 23.9193 376.066C23.8916 376.336 23.9337 376.61 24.0417 376.859C24.1496 377.109 24.3198 377.326 24.5359 377.492C24.752 377.657 25.0068 377.764 25.276 377.802C25.7742 377.885 26.2815 377.896 26.783 377.837L32.745 377.337C33.5857 377.285 34.4214 377.17 35.245 376.994L36.539 376.634C37.284 376.444 38.046 376.333 38.814 376.303C39.037 376.286 39.261 376.308 39.476 376.368C39.937 376.516 40.262 376.959 40.735 377.068C41.0401 377.1 41.3485 377.06 41.635 376.95C43.088 376.642 44.57 376.488 46.055 376.489C46.705 376.453 47.473 376.329 47.769 375.744C48.141 375.017 47.527 374.202 47.279 373.422C47.1563 372.922 47.0869 372.411 47.072 371.897C46.96 370.627 46.588 369.395 45.979 368.275C45.471 367.341 44.797 366.313 45.134 365.32C45.3151 365.01 45.4298 364.666 45.471 364.31C45.38 362.709 41.701 363.3 40.803 363.087V363.087Z" fill="#2F2E41"/>
<path id="Vector_18" d="M77.156 335.09C75.223 334.236 73.673 332.698 72.807 330.77L72.307 329.505C71.731 328.12 70.841 326.887 69.707 325.905C69.461 325.634 69.109 325.485 68.744 325.497C68.5695 325.549 68.412 325.647 68.2875 325.779C68.1629 325.912 68.0758 326.076 68.035 326.253C67.9336 326.638 67.9074 327.04 67.958 327.435C68.059 328.352 68.217 329.262 68.431 330.159L68.963 332.57C69.0301 332.94 69.1412 333.301 69.294 333.645C69.5211 334.05 69.8216 334.408 70.18 334.703L71.651 336.003C71.9245 336.251 72.2235 336.469 72.543 336.653C73.0671 336.902 73.6274 337.065 74.203 337.138C76.4262 337.43 78.5499 338.239 80.403 339.502L80.362 337.729C80.34 337.262 80.179 336.811 79.901 336.435C79.0835 335.81 78.1506 335.353 77.156 335.09V335.09Z" fill="#FBBEBE"/>
<path id="Vector_19" opacity="0.1" d="M77.156 335.09C75.223 334.236 73.673 332.698 72.807 330.77L72.307 329.505C71.731 328.12 70.841 326.887 69.707 325.905C69.461 325.634 69.109 325.485 68.744 325.497C68.5695 325.549 68.412 325.647 68.2875 325.779C68.1629 325.912 68.0758 326.076 68.035 326.253C67.9336 326.638 67.9074 327.04 67.958 327.435C68.059 328.352 68.217 329.262 68.431 330.159L68.963 332.57C69.0301 332.94 69.1412 333.301 69.294 333.645C69.5211 334.05 69.8216 334.408 70.18 334.703L71.651 336.003C71.9245 336.251 72.2235 336.469 72.543 336.653C73.0671 336.902 73.6274 337.065 74.203 337.138C76.4262 337.43 78.5499 338.239 80.403 339.502L80.362 337.729C80.34 337.262 80.179 336.811 79.901 336.435C79.0835 335.81 78.1506 335.353 77.156 335.09V335.09Z" fill="black"/>
<path id="Vector_20" d="M99.374 316.654C100.839 316.654 102.027 315.458 102.027 313.983C102.027 312.508 100.839 311.312 99.374 311.312C97.9088 311.312 96.721 312.508 96.721 313.983C96.721 315.458 97.9088 316.654 99.374 316.654Z" fill="#2F2E41"/>
<g id="Group">
<path id="Vector_21" d="M97.726 312.37C97.013 312.207 96.265 312.313 95.626 312.67C95.3193 312.941 95.0753 313.276 94.911 313.651C94.314 314.671 93.849 315.763 93.528 316.901C93.292 317.876 93.25 318.892 92.937 319.855C92.393 321.628 90.999 323.134 90.837 324.984C90.766 325.811 90.902 326.784 90.299 327.348C90.149 327.474 89.989 327.586 89.82 327.685C89.4002 327.967 89.0439 328.333 88.774 328.761C88.593 329.145 88.343 329.491 88.035 329.783C87.491 330.183 86.599 330.144 86.335 330.764C86.071 331.384 86.754 332.105 86.595 332.779C86.465 333.329 85.85 333.579 85.413 333.961C84.9151 334.489 84.5665 335.139 84.403 335.846C83.5153 336.013 82.602 335.986 81.7258 335.766C80.8496 335.547 80.0313 335.141 79.327 334.575C79.9445 336.446 80.211 338.416 80.113 340.384C80.1981 341.014 80.0302 341.651 79.646 342.157C81.7563 342.297 83.8459 342.659 85.88 343.238C86.7619 343.533 87.7161 343.533 88.598 343.238C89.0696 342.984 89.4919 342.648 89.845 342.245C91.083 341.219 91.98 339.84 92.415 338.292C92.487 337.398 92.503 336.499 92.462 335.603C92.571 334.496 92.799 333.405 93.142 332.347C93.736 330.151 94.131 327.906 94.324 325.64C94.448 324.24 95.653 323.117 96.292 321.864C97.474 319.5 98.715 317.048 98.809 314.401C98.901 313.54 98.605 312.482 97.726 312.37V312.37Z" fill="#FDD301"/>
<path id="Vector_22" opacity="0.1" d="M97.726 312.37C97.013 312.207 96.265 312.313 95.626 312.67C95.3193 312.941 95.0753 313.276 94.911 313.651C94.314 314.671 93.849 315.763 93.528 316.901C93.292 317.876 93.25 318.892 92.937 319.855C92.393 321.628 90.999 323.134 90.837 324.984C90.766 325.811 90.902 326.784 90.299 327.348C90.149 327.474 89.989 327.586 89.82 327.685C89.4002 327.967 89.0439 328.333 88.774 328.761C88.593 329.145 88.343 329.491 88.035 329.783C87.491 330.183 86.599 330.144 86.335 330.764C86.071 331.384 86.754 332.105 86.595 332.779C86.465 333.329 85.85 333.579 85.413 333.961C84.9151 334.489 84.5665 335.139 84.403 335.846C83.5153 336.013 82.602 335.986 81.7258 335.766C80.8496 335.547 80.0313 335.141 79.327 334.575C79.9445 336.446 80.211 338.416 80.113 340.384C80.1981 341.014 80.0302 341.651 79.646 342.157C81.7563 342.297 83.8459 342.659 85.88 343.238C86.7619 343.533 87.7161 343.533 88.598 343.238C89.0696 342.984 89.4919 342.648 89.845 342.245C91.083 341.219 91.98 339.84 92.415 338.292C92.487 337.398 92.503 336.499 92.462 335.603C92.571 334.496 92.799 333.405 93.142 332.347C93.736 330.151 94.131 327.906 94.324 325.64C94.448 324.24 95.653 323.117 96.292 321.864C97.474 319.5 98.715 317.048 98.809 314.401C98.901 313.54 98.605 312.482 97.726 312.37V312.37Z" fill="#FDD301"/>
</g>
<path id="Vector_23" d="M95.25 354.89C92.975 353.809 91.315 351.79 89.477 350.068C85.967 346.768 81.677 344.443 77.99 341.352C75.55 339.307 73.363 336.926 70.675 335.212C68.31 333.703 65.629 332.763 62.84 332.464C62.521 332.408 62.195 332.424 61.883 332.511C61.5309 332.669 61.2242 332.913 60.991 333.22C59.8 334.562 58.741 336.017 57.83 337.563C53.156 345.493 46.52 352.163 41.019 359.545C40.653 359.905 40.625 360.486 40.954 360.88L42.071 363.072C42.697 364.295 43.702 365.725 45.025 365.483C45.6325 365.308 46.1763 364.96 46.591 364.483L51.614 359.683L56.879 354.648C59.964 351.694 63.101 348.68 65.116 344.91C66.688 347.634 69.477 349.419 71.391 351.918C72.118 352.863 72.709 353.909 73.359 354.918C74.405 356.531 75.587 358.044 76.769 359.551L82.814 367.262C83.5768 368.36 84.5221 369.319 85.609 370.098C87.103 370.908 88.767 371.351 90.466 371.392C92.735 371.599 95.013 371.682 97.291 371.64C99.032 371.717 100.768 371.404 102.373 370.724C103.17 370.366 103.851 369.793 104.338 369.068C104.826 368.343 105.101 367.497 105.133 366.624C105.039 365.717 104.742 364.842 104.264 364.065C102.128 360.108 99.303 356.799 95.25 354.89V354.89Z" fill="black"/>
<path id="Vector_24" d="M101.005 317.882C102.131 317.882 103.044 316.964 103.044 315.832C103.044 314.7 102.131 313.782 101.005 313.782C99.8789 313.782 98.966 314.7 98.966 315.832C98.966 316.964 99.8789 317.882 101.005 317.882Z" fill="#E8E8F0"/>
<path id="Vector_25" d="M100.556 314.289C101.017 315.206 101.097 316.268 100.78 317.244C100.466 318.205 100.026 319.119 99.471 319.964C98.9928 320.836 98.42 321.653 97.763 322.399C100.913 322.553 103.963 321.318 106.745 319.817C108.985 318.635 111.218 317.128 112.412 314.877C111.694 315.048 110.936 314.909 110.326 314.493C109.726 314.074 109.187 313.573 108.726 313.004L107.148 311.231C106.775 310.842 106.448 310.412 106.173 309.949C105.827 309.32 105.681 308.601 105.753 307.887C105.125 308.545 104.423 309.128 103.661 309.624C102.532 310.363 101.297 310.894 100.161 311.624C99.761 311.884 98.867 312.304 99.097 312.806C99.327 313.308 100.237 313.722 100.556 314.289V314.289Z" fill="#FBBEBE"/>
<path id="Vector_26" opacity="0.1" d="M100.556 314.289C101.017 315.206 101.097 316.268 100.78 317.244C100.466 318.205 100.026 319.119 99.471 319.964C98.9928 320.836 98.42 321.653 97.763 322.399C100.913 322.553 103.963 321.318 106.745 319.817C108.985 318.635 111.218 317.128 112.412 314.877C111.694 315.048 110.936 314.909 110.326 314.493C109.726 314.074 109.187 313.573 108.726 313.004L107.148 311.231C106.775 310.842 106.448 310.412 106.173 309.949C105.827 309.32 105.681 308.601 105.753 307.887C105.125 308.545 104.423 309.128 103.661 309.624C102.532 310.363 101.297 310.894 100.161 311.624C99.761 311.884 98.867 312.304 99.097 312.806C99.327 313.308 100.237 313.722 100.556 314.289V314.289Z" fill="black"/>
<path id="Vector_27" d="M100.597 314.597C99.944 315.52 99.944 316.753 100.597 317.676C100.686 317.788 101.022 318.491 101.188 318.497C101.327 318.485 101.456 318.42 101.548 318.314C102.263 317.568 102.931 316.779 103.548 315.95C104.171 315.111 105.071 314.521 106.089 314.284C107.345 314.24 108.579 314.624 109.589 315.371C110.054 315.602 110.458 315.938 110.771 316.352C111 316.762 111.137 317.218 111.171 317.687C111.481 320.504 111.6 323.339 111.526 326.172C111.584 328.213 111.45 330.256 111.126 332.272L110.482 335.38C110.379 336.306 110.337 337.238 110.358 338.169V342.069C110.332 342.783 110.384 343.499 110.512 344.202C110.756 345.041 111.042 345.868 111.369 346.678C111.657 347.643 111.855 348.632 111.96 349.633L112.492 353.669C112.663 354.945 112.792 356.334 112.013 357.356C111.67 357.823 111.213 358.189 110.831 358.65C109.501 360.34 109.945 362.792 109.354 364.89C108.917 366.43 108.022 367.8 106.789 368.82C106.35 369.256 105.82 369.588 105.236 369.793C104.652 369.997 104.03 370.069 103.415 370.002C101.778 369.695 100.791 367.987 100.342 366.374C99.893 364.761 99.751 363 98.764 361.647C97.874 360.611 96.82 359.729 95.644 359.035C94.458 358.329 93.5869 357.196 93.209 355.868C93.103 355.277 93.168 354.686 93.109 354.095C92.93 352.561 91.929 351.247 90.497 350.668C89.658 350.343 88.618 350.225 88.133 349.486C89.3353 348.731 90.212 347.554 90.591 346.186C90.9577 344.837 91.1562 343.448 91.182 342.05L91.466 337.358C91.424 335.284 91.798 333.223 92.566 331.296L93.919 328.832C94.489 327.663 94.975 326.454 95.373 325.216L97.311 319.425C97.55 318.484 97.908 317.576 98.375 316.725C98.925 315.838 99.652 314.774 100.597 314.597V314.597Z" fill="#E8E8F0"/>
<path id="Vector_28" d="M90.18 345.082L91.421 345.123L91.687 343.25C91.722 342.875 91.81 342.507 91.947 342.157C92.153 341.787 92.3924 341.437 92.662 341.111C93.885 339.386 93.797 337.093 94.098 334.995C94.631 332.214 95.5499 329.522 96.828 326.995L99.239 321.624C99.4536 321.182 99.6257 320.721 99.753 320.247C99.858 319.724 99.908 319.191 99.901 318.657C99.901 317.83 100.173 314.81 100.191 313.977C100.191 313.67 99.517 313.841 99.376 313.569C99.076 312.978 98.661 314.585 98.094 314.94C97.559 315.349 97.17 315.918 96.983 316.565C96.463 317.918 96.144 319.342 95.659 320.701C95.2342 322.093 94.4591 323.352 93.408 324.359L91.878 325.6C90.378 327.083 90.235 329.423 90.178 331.509C90.144 332.809 89.902 345.082 90.18 345.082ZM108.055 312.362C107.483 312.669 106.988 313.102 106.606 313.628C106.225 314.154 105.969 314.759 105.855 315.399C105.643 316.684 105.264 317.936 104.726 319.122C103.213 321.757 99.355 322.522 98.285 325.374C98.013 326.336 97.868 327.329 97.854 328.328C97.665 330.367 96.991 332.34 96.79 334.379C96.686 335.965 96.723 337.557 96.902 339.136L98.255 355.226C98.517 357.596 98.38 359.993 97.847 362.317C99.235 362.517 100.651 362.283 101.901 361.649C103.172 361.058 104.33 360.278 105.547 359.604C107.647 358.422 109.961 357.624 111.793 356.059C112.125 355.8 112.411 355.486 112.638 355.131C112.932 354.455 113.131 353.741 113.229 353.01C113.385 352.441 113.582 351.884 113.82 351.344C114.499 349.722 115.091 348.065 115.593 346.38C115.937 345.262 116.208 344.123 116.403 342.97L116.71 340.205C116.805 338.755 117.093 337.324 117.567 335.95C118.739 332.673 119.403 329.235 119.535 325.757C119.576 325.255 119.542 324.749 119.435 324.257C119.231 323.66 118.957 323.09 118.62 322.557C118.059 321.499 117.72 320.335 117.19 319.266C115.871 316.897 113.972 314.901 111.671 313.466C110.531 312.706 109.286 311.89 108.055 312.362V312.362Z" fill="#FDD301"/>
<g id="Group_2">
<path id="Vector_29" d="M79.845 338.611C78.8854 338.109 78.0167 337.45 77.275 336.661L76.318 335.432C75.45 334.507 74.324 333.864 73.086 333.588C71.856 333.317 70.599 333.196 69.34 333.228C68.499 333.17 67.655 333.271 66.852 333.528C66.4488 333.66 66.0855 333.891 65.7961 334.201C65.5067 334.511 65.3006 334.89 65.197 335.301C65.121 336.335 65.601 337.332 66.456 337.919C67.1868 338.516 68.0464 338.935 68.967 339.142C69.7179 339.272 70.4754 339.361 71.236 339.408C75.703 339.875 79.692 342.308 83.604 344.519C87.0433 346.461 90.5493 348.279 94.122 349.973C94.2636 348.904 94.3227 347.825 94.299 346.747C94.299 345.947 94.24 344.714 93.478 344.242C92.401 343.79 91.28 343.452 90.133 343.232C87.8303 342.481 85.5817 341.572 83.403 340.514C82.1909 339.93 81.0039 339.295 79.845 338.611V338.611Z" fill="#FBBEBE"/>
<path id="Vector_30" d="M99.373 313.374C103.769 313.374 107.332 309.789 107.332 305.367C107.332 300.945 103.769 297.36 99.373 297.36C94.9774 297.36 91.414 300.945 91.414 305.367C91.414 309.789 94.9774 313.374 99.373 313.374Z" fill="#FBBEBE"/>
</g>
<path id="Vector_31" d="M110.329 321.433C109.696 322.323 109.178 323.29 108.787 324.311C107.8 326.338 106.258 328.075 105.487 330.22C104.672 332.448 104.701 335.101 103.123 336.856C102.807 337.121 102.568 337.466 102.432 337.856C102.422 338.1 102.394 338.343 102.349 338.583C102.124 339.221 101.078 339.251 100.884 339.901C100.831 340.09 100.884 340.301 100.789 340.492C100.629 340.912 100.08 340.971 99.708 341.225C98.934 341.751 99.117 342.968 98.526 343.725C98.286 344.006 97.9761 344.219 97.6275 344.342C97.279 344.465 96.9042 344.493 96.541 344.425C95.817 344.272 95.12 344.011 94.473 343.651C94.246 343.523 93.994 343.444 93.734 343.42C93.4254 343.427 93.1263 343.528 92.877 343.71C92.1706 344.229 91.6041 344.915 91.2287 345.707C90.8532 346.5 90.6805 347.373 90.726 348.248C90.8297 349.997 91.2438 351.714 91.949 353.318C92.0323 353.595 92.1711 353.852 92.357 354.074C92.927 354.523 93.714 354.579 94.342 354.216C94.9508 353.855 95.5991 353.566 96.274 353.353C97.503 353.128 98.709 353.979 99.955 353.908C100.867 353.769 101.726 353.389 102.443 352.808C103.708 352.039 104.842 351.072 105.799 349.942C106.343 349.227 106.744 348.412 107.223 347.649C107.837 346.713 108.51 345.818 109.239 344.969L113.83 339.349C114.291 338.817 114.704 338.245 115.065 337.641C115.479 336.824 115.802 335.964 116.028 335.076C116.52 333.595 116.839 332.062 116.979 330.508C117.002 329.221 116.889 327.936 116.642 326.673C116.488 325.417 116.156 324.189 115.655 323.027C114.631 320.961 112.202 319.247 110.329 321.433V321.433Z" fill="#FDD301"/>
<path id="Vector_32" d="M126.319 311.004C126.332 308.124 124.96 305.413 122.632 303.718C122.56 298.513 118.732 294.125 113.585 293.348C113.105 290.96 111.796 288.818 109.891 287.3C107.985 285.782 105.605 284.985 103.169 285.051C100.734 285.117 98.4002 286.04 96.5792 287.658C94.7582 289.277 93.5671 291.486 93.216 293.897C89.907 293.152 86.882 294.122 86.332 296.16C85.741 298.293 88.105 300.787 91.603 301.732C92.699 302.042 93.841 302.156 94.977 302.069C95.7904 303.263 96.8445 304.275 98.0717 305.038C99.2988 305.801 100.672 306.3 102.103 306.501C102.524 308.428 103.474 310.2 104.847 311.617C106.219 313.033 107.96 314.039 109.873 314.52C110.403 315.799 111.225 316.937 112.273 317.841C112.273 318.089 112.232 318.341 112.232 318.603C112.182 319.817 112.461 321.021 113.04 322.089C113.618 323.157 114.475 324.049 115.518 324.67C116.562 325.291 117.754 325.619 118.968 325.619C120.183 325.619 121.375 325.29 122.418 324.668C123.461 324.047 124.318 323.155 124.896 322.088C125.475 321.02 125.754 319.816 125.705 318.603C125.705 317.583 125.485 316.575 125.06 315.648C125.891 314.242 126.326 312.637 126.319 311.004V311.004Z" fill="black"/>
<path id="Vector_33" opacity="0.1" d="M88.578 296.568C89.128 294.529 92.123 293.56 95.462 294.305C96.264 289.252 100.586 285.51 105.702 285.441H106.387C105.429 285.149 104.433 285.001 103.432 285.004C98.317 285.073 93.994 288.815 93.192 293.867C89.883 293.122 86.858 294.091 86.308 296.13C85.717 298.263 88.081 300.757 91.579 301.702C92.2296 301.883 92.8965 301.997 93.57 302.045C90.251 301.077 88.017 298.654 88.578 296.568V296.568ZM114.477 319.017C114.47 318.76 114.484 318.503 114.518 318.249C113.469 317.347 112.647 316.212 112.118 314.934C108.218 313.944 105.211 310.838 104.347 306.909C102.916 306.709 101.542 306.211 100.315 305.448C99.0873 304.684 98.0335 303.672 97.221 302.477C96.5593 302.529 95.894 302.512 95.236 302.424C96.886 304.648 99.36 306.117 102.102 306.501C102.523 308.428 103.473 310.199 104.846 311.616C106.218 313.032 107.959 314.038 109.872 314.519C110.402 315.798 111.224 316.935 112.272 317.84C112.272 318.088 112.231 318.34 112.231 318.602C112.201 320.413 112.888 322.163 114.143 323.47C115.399 324.776 117.12 325.533 118.931 325.575C117.609 325.065 116.475 324.164 115.679 322.992C114.883 321.82 114.464 320.434 114.477 319.017V319.017Z" fill="black"/>
<path id="Vector_34" d="M103.018 308.3C103.558 307.889 103.553 306.973 103.005 306.253C102.458 305.533 101.577 305.283 101.036 305.693C100.496 306.104 100.501 307.021 101.049 307.74C101.596 308.46 102.477 308.711 103.018 308.3Z" fill="#FBBEBE"/>
</g>
<defs>
<linearGradient id="paint0_linear" x1="62.6511" y1="377.934" x2="62.6511" y2="283.614" gradientUnits="userSpaceOnUse">
<stop stop-color="#808080" stop-opacity="0.251"/>
<stop offset="0.54" stop-color="#808080" stop-opacity="0.122"/>
<stop offset="1" stop-color="#808080" stop-opacity="0.102"/>
</linearGradient>
<clipPath id="clip0">
<rect width="371.495" height="386.392" fill="white"/>
</clipPath>
</defs>
</svg>
