<svg width="465" height="387" viewBox="0 0 465 387" fill="none" xmlns="http://www.w3.org/2000/svg">
<style>
    #opacity , #man , #translate_1 , #translate_2 , #rotate_1 {
        transform-origin: center;
        transform-box: fill-box;
    }
    #man {
        animation: translateX 3s linear infinite;
    }
    #opacity {
        animation: opacity 2s linear infinite;
    }
    #rotate_1 {
        animation: rotate 2s linear infinite;
    }
    #translate_1 ,  #translate_2 {
        animation: translate 3s linear infinite;
    }
    @keyframes opacity {
        0% , 100% {
            opacity: 1 ;
        }
        50%{
            opacity: .5;
        }
    }
    @keyframes rotate {

        0%{
            transform: rotate(0deg);
        }

        100% {
            transform: rotate(360deg);
        }
    }
    @keyframes translateX {

        0%,
        100% {
            transform: translateX(2px);
        }

        50% {
            transform: translateX(-2px);
        }
    }
     @keyframes translate{

        0%,
        100% {
            transform: translateX(0px) translateY(0px);
        }

        50% {
            transform: translateX(-2px) translateY(4px);
        }
    }
</style>
<g id="tools 1" clip-path="url(#clip0)">
<g id="Group" opacity="0.8">
<g id="Group_2" opacity="0.8">
<path id="Vector" opacity="0.8" d="M398.244 54.631V285.844C398.239 290.682 394.318 294.603 389.48 294.608H53.615C48.777 294.603 44.856 290.682 44.851 285.844V54.631C44.856 49.793 48.777 45.872 53.615 45.867H389.48C394.28 45.963 398.148 49.831 398.244 54.631Z" stroke="#E6E6E6" stroke-miterlimit="10"/>
<path id="Vector_2" opacity="0.8" d="M389.48 294.866H53.615C51.1912 294.856 48.8695 293.888 47.1556 292.174C45.4417 290.46 44.4743 288.139 44.464 285.715V54.631C44.4743 52.2071 45.4417 49.8855 47.1556 48.1716C48.8695 46.4577 51.1912 45.4902 53.615 45.48H389.48C391.891 45.494 394.197 46.467 395.889 48.184C397.581 49.901 398.522 52.22 398.502 54.631V285.844C398.539 288.248 397.6 290.564 395.9 292.264C394.2 293.964 391.884 294.903 389.48 294.866ZM53.615 46.38C52.5143 46.3777 51.424 46.5929 50.4066 47.0131C49.3892 47.4333 48.4649 48.0502 47.6866 48.8286C46.9082 49.6069 46.2913 50.5312 45.8711 51.5486C45.4509 52.5659 45.2357 53.6563 45.238 54.757V285.973C45.2357 287.074 45.4509 288.164 45.8711 289.181C46.2913 290.199 46.9082 291.123 47.6866 291.901C48.4649 292.68 49.3892 293.297 50.4066 293.717C51.424 294.137 52.5143 294.352 53.615 294.35H389.48C390.581 294.352 391.671 294.137 392.688 293.717C393.706 293.297 394.63 292.68 395.408 291.901C396.187 291.123 396.804 290.199 397.224 289.181C397.644 288.164 397.859 287.074 397.857 285.973V54.631C397.859 53.5303 397.644 52.4399 397.224 51.4226C396.804 50.4052 396.187 49.4809 395.408 48.7026C394.63 47.9242 393.706 47.3073 392.688 46.8871C391.671 46.4669 390.581 46.2517 389.48 46.254L53.615 46.38V46.38Z" stroke="#E6E6E6" stroke-miterlimit="10"/>
<path id="Vector_3" opacity="0.8" d="M398.244 54.631V68.292H44.851V54.631C44.856 49.793 48.777 45.872 53.615 45.867H389.48C394.28 45.963 398.148 49.831 398.244 54.631Z" stroke="#E6E6E6" stroke-miterlimit="10"/>
<path id="Vector_4" opacity="0.8" d="M398.63 68.808H44.464V54.631C44.4743 52.2071 45.4417 49.8855 47.1556 48.1716C48.8695 46.4577 51.1912 45.4902 53.615 45.48H389.48C391.891 45.494 394.197 46.467 395.889 48.184C397.581 49.901 398.522 52.22 398.502 54.631L398.631 68.808H398.63ZM45.237 68.034H397.857V54.634C397.859 53.5333 397.644 52.443 397.224 51.4256C396.804 50.4082 396.187 49.4839 395.408 48.7056C394.63 47.9272 393.706 47.3103 392.688 46.8901C391.671 46.4699 390.581 46.2547 389.48 46.257H53.615C52.5143 46.2547 51.424 46.4699 50.4066 46.8901C49.3892 47.3103 48.4649 47.9272 47.6866 48.7056C46.9082 49.4839 46.2913 50.4082 45.8711 51.4256C45.4509 52.443 45.2357 53.5333 45.238 54.634L45.237 68.034Z" stroke="#E6E6E6" stroke-miterlimit="10"/>
</g>
<g id="Group_3" opacity="0.8">
<path id="Vector_5" opacity="0.8" d="M64.44 61.203C66.6464 61.203 68.435 59.4144 68.435 57.208C68.435 55.0016 66.6464 53.213 64.44 53.213C62.2336 53.213 60.445 55.0016 60.445 57.208C60.445 59.4144 62.2336 61.203 64.44 61.203Z" fill="#FDD301"/>
<path id="Vector_6" opacity="0.8" d="M79.911 53.084C78.8501 53.084 77.8327 53.5054 77.0826 54.2556C76.3324 55.0057 75.911 56.0231 75.911 57.084C75.911 58.1449 76.3324 59.1623 77.0826 59.9124C77.8327 60.6626 78.8501 61.084 79.911 61.084C80.9719 61.084 81.9893 60.6626 82.7394 59.9124C83.4896 59.1623 83.911 58.1449 83.911 57.084C83.9306 56.5534 83.8406 56.0245 83.6465 55.5304C83.4524 55.0362 83.1585 54.5873 82.7831 54.2119C82.4077 53.8365 81.9588 53.5426 81.4646 53.3485C80.9705 53.1544 80.4416 53.0644 79.911 53.084Z" fill="#FDD301"/>
</g>
<g id="Group_4" opacity="0.8">
<path id="Vector_7" opacity="0.8" d="M95.377 61.204C94.3161 61.204 93.2987 60.7826 92.5486 60.0325C91.7984 59.2823 91.377 58.2649 91.377 57.204C91.377 56.1432 91.7984 55.1258 92.5486 54.3756C93.2987 53.6255 94.3161 53.204 95.377 53.204C96.4379 53.204 97.4553 53.6255 98.2054 54.3756C98.9556 55.1258 99.377 56.1432 99.377 57.204C99.395 58.27 98.979 59.298 98.225 60.052C97.471 60.806 96.443 61.222 95.377 61.204ZM95.377 53.858C94.714 53.8566 94.0655 54.0519 93.5136 54.4192C92.9617 54.7865 92.5311 55.3093 92.2765 55.9215C92.0219 56.5336 91.9546 57.2075 92.0833 57.8579C92.2119 58.5083 92.5306 59.1059 92.999 59.575C93.4668 60.0449 94.0636 60.3654 94.7137 60.4959C95.3637 60.6264 96.0379 60.5611 96.6509 60.3081C97.2638 60.0552 97.7879 59.6261 98.1567 59.0751C98.5256 58.5241 98.7227 57.8761 98.723 57.213C98.693 55.376 97.214 53.892 95.377 53.857V53.858Z" fill="white" stroke="#E6E6E6" stroke-miterlimit="10"/>
<path id="Vector_8" opacity="0.8" d="M195.126 61.719H119.726C118.53 61.719 117.382 61.2438 116.536 60.3978C115.69 59.5518 115.215 58.4044 115.215 57.208C115.215 56.0116 115.69 54.8642 116.536 54.0183C117.382 53.1723 118.53 52.697 119.726 52.697H195.126C197.605 52.727 199.607 54.729 199.637 57.208C199.645 58.407 199.172 59.558 198.324 60.406C197.476 61.254 196.325 61.726 195.126 61.719V61.719ZM119.726 53.471C118.746 53.4875 117.811 53.8884 117.123 54.5874C116.435 55.2864 116.05 56.2275 116.049 57.208C116.05 58.1886 116.435 59.1297 117.123 59.8286C117.811 60.5276 118.746 60.9285 119.726 60.945H195.126C196.106 60.9285 197.041 60.5276 197.729 59.8286C198.417 59.1297 198.802 58.1886 198.803 57.208C198.802 56.2275 198.417 55.2864 197.729 54.5874C197.041 53.8884 196.106 53.4875 195.126 53.471H119.726Z" stroke="#E6E6E6" stroke-miterlimit="10"/>
</g>
<path id="rotate_1" opacity="1" d="M291.014 175.907C290.976 211.416 262.793 240.502 227.303 241.659C191.813 242.816 161.795 215.63 159.443 180.199C157.091 144.768 183.252 113.851 218.583 110.307L220.774 131.959C197.077 134.397 179.577 155.178 181.207 178.944C182.837 202.71 203.009 220.908 226.817 220.089C250.625 219.27 269.499 199.729 269.492 175.907C269.468 171.77 268.905 167.654 267.817 163.663L288.698 157.607C290.197 163.593 290.975 169.736 291.015 175.907H291.014Z" fill="#fff"/>
<path id="Vector_9" opacity="0.8" d="M225.026 229.136C254.423 229.136 278.254 205.305 278.254 175.908C278.254 146.511 254.423 122.68 225.026 122.68C195.629 122.68 171.798 146.511 171.798 175.908C171.798 205.305 195.629 229.136 225.026 229.136Z" fill="white"/>
<path id="Vector_10" opacity="0.8" d="M225.026 229.136C254.423 229.136 278.254 205.305 278.254 175.908C278.254 146.511 254.423 122.68 225.026 122.68C195.629 122.68 171.798 146.511 171.798 175.908C171.798 205.305 195.629 229.136 225.026 229.136Z" fill="#FDD301"/>
<path id="Vector_11" opacity="0.8" d="M225.026 213.669C245.81 213.669 262.659 196.762 262.659 175.907C262.659 155.052 245.81 138.145 225.026 138.145C204.242 138.145 187.393 155.052 187.393 175.907C187.393 196.762 204.242 213.669 225.026 213.669Z" fill="white"/>
<path id="translate_2" opacity="0.8" d="M229.408 194.467V200.138H222.191V194.725C217.036 194.467 212.009 193.05 208.916 191.116L212.782 182.223C216.419 184.361 220.55 185.516 224.768 185.574C228.248 185.574 229.408 184.801 229.408 183.641C229.408 179.13 209.431 182.741 209.431 169.335C209.431 163.535 213.684 158.635 222.19 157.349V151.678H229.407V157.22C233.053 157.482 236.606 158.491 239.846 160.184L236.237 169.077C233.142 167.407 229.7 166.48 226.184 166.37C222.575 166.37 221.544 167.401 221.544 168.69C221.544 173.072 241.521 169.463 241.521 182.738C241.394 188.278 237.399 193.049 229.408 194.467V194.467Z" fill="#FDD301"/>
<g id="Group_5" opacity="0.8">
<path id="Vector_12" opacity="0.8" d="M316.275 0.887024H459.72V88.526H316.275V0.887024Z" fill="white" stroke="#E6E6E6" stroke-miterlimit="10"/>
<path id="Vector_13" opacity="0.8" d="M460.106 88.913H315.888V0.5H460.106V88.913ZM316.661 88.14H459.333V1.273H316.661V88.14Z" fill="white" stroke="#E6E6E6" stroke-miterlimit="10"/>
</g>
<path id="Vector_14" opacity="0.8" d="M334.318 60.688H342.566V75.896H334.318V60.688ZM350.815 53.728H359.063V75.767H350.815V53.728ZM367.312 59.399H375.56V75.767H367.312V59.399ZM383.937 47.8H392.185V75.767H383.937V47.8ZM400.434 40.453H408.682V75.767H400.434V40.453ZM416.931 29.885H425.179V75.767H416.931V29.885ZM433.428 13.646H441.676V75.767H433.428V13.646ZM334.318 20.992H340.891V28.467H334.318V20.992ZM351.073 24.472H395.537V26.405H351.073V24.472Z" fill="#FDD301"/>
<path id="Vector_15" opacity="0.8" d="M330.71 132.99L321.688 107.858C315.539 110.096 310.426 114.514 307.318 120.272C304.211 126.03 303.325 132.729 304.829 139.098C306.334 145.466 310.123 151.06 315.479 154.819C320.835 158.579 327.385 160.241 333.885 159.491C340.387 158.737 346.386 155.621 350.742 150.736C355.099 145.851 357.509 139.536 357.517 132.99C357.546 128.728 356.528 124.523 354.553 120.746L330.71 132.99Z" fill="#FDD301"/>
<path id="translate_1" opacity="0.8" d="M357.904 111.209C355.649 106.864 352.246 103.221 348.065 100.676C343.884 98.1306 339.085 96.7811 334.19 96.774C331.115 96.752 328.06 97.276 325.168 98.321L334.19 123.453L357.904 111.209Z" fill="#fff"/>
<path id="Vector_16" opacity="0.8" d="M305.32 218.439H368.472V278.498H305.32V218.439Z" fill="#E6E6E6"/>
<path id="Vector_17" opacity="0.8" d="M315.244 234.42H350.558V236.998H315.244V234.42ZM315.244 242.024H350.558V244.602H315.244V242.024Z" fill="white"/>
<path id="Vector_18" opacity="0.8" d="M72.689 103.605H127.592V196.4H72.689V103.605Z" fill="#E6E6E6"/>
<path id="Vector_19" opacity="0.8" d="M81.066 117.137H117.024V150.131H81.066V117.137Z" fill="white"/>
<g id="Group_6" opacity="0.8">
<path id="Vector_20" opacity="0.8" d="M80.861 117.349L81.383 116.779L117.41 149.763L116.888 150.333L80.861 117.349Z" fill="#EBEBFF"/>
<path id="Vector_21" opacity="0.8" d="M80.778 149.867L116.826 116.896L117.348 117.466L81.3 150.437L80.778 149.867Z" fill="#EBEBFF"/>
</g>
</g>
<g id="man">
<g id="Group 3">
<g id="Group 2">
<g id="Group 1">
<g id="Group_7">
<path id="Vector_22" d="M389.351 363.43V386.242H359.837L373.37 375.287L374.014 361.368L389.351 363.43Z" fill="#333333"/>
<path id="Vector_23" d="M372.973 375.498L373.506 374.938L379.109 380.268L378.576 380.828L372.973 375.498ZM376.334 369.488H386.387V370.261H376.334V369.488ZM423.891 364.59L424.922 386.242H395.408L407.908 375.542V362.399L423.891 364.59Z" fill="#333333"/>
<path id="Vector_24" d="M407.517 375.86L408.029 375.281L412.665 379.376L412.153 379.955L407.517 375.86ZM411.26 370.003H421.184V370.776H411.26V370.003Z" fill="#333333"/>
</g>
<g id="Group_8">
<path id="Vector_25" d="M392.315 232.487C392.746 277.392 396.58 322.199 403.785 366.524H428.659C423.504 332.886 421.184 292.159 424.019 238.029L405.976 223.336L392.315 232.487Z" fill="black"/>
<path id="Vector_26" d="M372.597 238.544L361.384 288.679C358.701 300.714 358.525 313.173 360.868 325.279L368.73 366.263H393.602L386.127 312.519L404.173 230.553L372.597 238.544Z" fill="black"/>
</g>
<path id="Vector_27" d="M393.991 286.488C393.991 285.457 392.573 262.388 392.316 259.552L385.872 257.232L386.13 256.459L393.219 259.037V259.295C393.219 259.811 394.25 277.338 394.894 286.489L393.991 286.488Z" fill="#222222"/>
<path id="Vector_28" d="M447.86 125.386L449.149 122.164C449.149 122.164 444.38 111.982 445.927 110.694C447.474 109.406 449.927 113.143 449.927 113.143C449.927 113.143 449.154 100.899 451.602 100.77C453.535 100.641 453.402 104.25 453.664 109.534C453.664 109.534 454.953 107.859 457.144 109.534C458.175 107.859 460.366 109.018 460.882 110.05C461.655 109.277 464.62 109.406 464.104 112.885C463.588 117.267 461.526 125.515 461.526 125.515L454.953 130.928L447.86 125.386Z" fill="#FFBC96"/>
<path id="Vector_29" d="M395.279 167.786L405.203 167.657C422.731 166.11 436.392 151.933 436.392 151.933L447.992 125.383L461.782 125.641L453.662 156.83C452.513 161.318 450.044 165.359 446.574 168.43L417.962 193.306L395.279 167.786Z" fill="#FDD301"/>
<path id="Vector_30" d="M335.994 195.111C335.156 194.396 334.124 193.947 333.03 193.822C327.359 193.306 309.574 192.022 309.702 193.306C309.96 194.981 323.492 201.039 323.492 201.039L332.127 210.834L340.118 198.59L335.994 195.111Z" fill="#FFBC96"/>
<path id="Vector_31" d="M374.787 172.428C371.118 173.081 367.968 175.42 366.281 178.743L351.073 208.515L339.989 198.72L331.998 210.963C333.029 211.994 333.931 213.154 334.962 214.185C339.215 218.954 344.241 225.527 350.943 226.944C354.423 227.717 357.516 226.3 359.965 223.851C361.759 222.081 363.318 220.089 364.605 217.922L370.662 207.998L389.998 169.85L374.787 172.428Z" fill="#FDD301"/>
<path id="Vector_32" d="M367.548 190.449L368.317 190.374L371.201 220.006L370.432 220.081L367.548 190.449Z" fill="#D1D1FF"/>
<path id="Vector_33" d="M422.731 194.724L422.602 188.924L422.344 180.16L395.279 167.788L376.462 175.779L367.956 190.471L372.596 238.544L424.02 238.028L422.731 194.724Z" fill="#FDD301"/>
<path id="Vector_34" d="M455.467 115.719C453.534 115.719 453.405 113.141 453.405 109.662H454.049C454.049 113.915 454.436 115.204 455.467 115.204C455.725 115.204 455.854 115.075 456.111 114.946C456.684 113.973 456.953 112.851 456.884 111.724V109.791H457.528V111.724C457.657 113.399 457.915 115.075 458.428 115.204C458.557 115.252 458.696 115.265 458.832 115.242C458.967 115.219 459.094 115.162 459.201 115.075C459.928 114.195 460.377 113.118 460.49 111.982C460.49 111.466 460.619 110.822 460.619 110.182H461.263C461.259 110.743 461.216 111.302 461.134 111.857C461.134 113.146 461.263 114.435 461.778 114.563C462.11 114.692 462.477 114.692 462.809 114.563C463.453 114.176 463.709 112.63 463.84 112.114H464.484C464.484 112.243 464.355 114.305 463.195 114.949C462.958 115.078 462.692 115.146 462.422 115.146C462.151 115.146 461.885 115.078 461.648 114.949C461.519 114.949 461.004 114.562 460.748 113.66C460.562 114.301 460.206 114.88 459.717 115.335C459.511 115.474 459.279 115.569 459.035 115.613C458.791 115.657 458.54 115.651 458.299 115.593C457.783 115.464 457.399 114.693 457.268 113.918C457.16 114.393 456.94 114.836 456.624 115.207C456.327 115.532 455.907 115.718 455.467 115.719V115.719Z" fill="#D28572"/>
<g id="Group_9">
<path id="Vector_35" d="M390.897 179.516C388.81 179.698 386.736 179.038 385.138 177.682C383.54 176.326 382.551 174.388 382.391 172.299L382.262 171.139L380.973 155.673L390.639 154.9L396.825 154.384L398.114 171.01C398.279 173.094 397.613 175.158 396.26 176.752C394.908 178.346 392.98 179.339 390.897 179.516Z" fill="#FFBC96"/>
<path id="Vector_36" d="M396.829 143.944L394.896 160.054C390.695 163.734 385.271 165.71 379.688 165.596C376.337 165.467 374.404 162.374 373.373 158.379C372.894 156.647 372.549 154.88 372.342 153.095C371.876 149.204 371.746 145.28 371.955 141.367L385.874 136.727L396.829 143.944Z" fill="#FFBC96"/>
</g>
</g>
<path id="Vector_37" d="M394.763 150.516C393.345 145.361 390.763 142.783 387.163 142.139C375.95 148.196 368.733 144.588 363.32 137.886C376.337 140.464 382.008 121.905 394.38 134.277C403.659 137.112 403.402 145.877 398.246 153.094L394.763 150.516Z" fill="#2F2E41"/>
</g>
<path id="Vector_38" d="M400.54 152.568C401.018 150.121 399.706 147.806 397.61 147.396C395.513 146.986 393.425 148.637 392.947 151.083C392.469 153.53 393.781 155.845 395.877 156.255C397.974 156.665 400.062 155.014 400.54 152.568Z" fill="#FFBC96"/>
</g>
<path id="Vector_39" d="M398.114 150.133C397.512 150.326 397.005 150.741 396.696 151.293C396.405 151.863 396.189 152.468 396.052 153.093H395.794C395.665 152.717 395.665 152.309 395.794 151.933C395.784 151.552 395.923 151.182 396.181 150.902C396.325 150.52 396.598 150.202 396.954 150.002C397.277 149.736 397.708 149.64 398.114 149.744V150.133Z" fill="#1B1B43"/>
</g>
<path id="Vector_40" opacity="0.2" d="M374.658 156.059C374.654 156.971 374.225 157.829 373.498 158.379C373.019 156.647 372.674 154.88 372.467 153.095C373.778 153.482 374.673 154.692 374.658 156.059V156.059Z" fill="#FE5B52"/>
<path id="Vector_41" d="M105.683 251.819H162.777V255.685H105.683V251.819Z" fill="black"/>
<g id="Group_10">
<path id="Vector_42" d="M162.775 251.819H114.575L132.875 207.355H181.075L162.775 251.819Z" fill="white" stroke="black" stroke-miterlimit="10"/>
<path id="Vector_43" d="M163.031 252.334H113.931L132.49 206.968H181.59L163.031 252.334ZM115.216 251.434H162.516L180.431 207.741H133.131L115.216 251.434Z" fill="white" stroke="black" stroke-miterlimit="10"/>
</g>
<path id="opacity" d="M158.653 248.081H120.762L135.068 213.154H172.962L158.653 248.081Z" fill="#FDD301"/>
<path id="Vector_44" d="M142.801 256.974H143.574V386.5H142.801V256.974Z" fill="black"/>
<path id="Vector_45" d="M97.177 255.685H189.198V263.031H97.177V255.685Z" fill="#E6E6E6"/>
<path id="Vector_46" d="M22.039 311.362H22.812V386.5H22.039V311.362Z" fill="black"/>
<path id="Vector_47" d="M44.98 314.842H0C0.973 310.275 4.996 307.003 9.666 306.98H35.314C37.5919 306.947 39.8088 307.716 41.5762 309.154C43.3436 310.591 44.5486 312.605 44.98 314.842V314.842ZM34.154 386.242H10.826V384.567C10.8238 384.109 10.9123 383.656 11.0866 383.233C11.2608 382.81 11.5172 382.425 11.841 382.102C12.1647 381.779 12.5491 381.523 12.9721 381.348C13.3952 381.174 13.8485 381.085 14.306 381.087H30.674C31.1316 381.085 31.5851 381.173 32.0082 381.348C32.4313 381.522 32.8157 381.778 33.139 382.102C33.4623 382.426 33.7185 382.81 33.8927 383.233C34.0668 383.656 34.1557 384.109 34.154 384.567V386.242Z" fill="#E6E6E6"/>
<path id="Vector_48" d="M63.15 279.786L14.95 273.6L24.101 225.656C24.4121 224.008 25.1125 222.459 26.1439 221.137C27.1752 219.815 28.5076 218.759 30.03 218.056C31.3202 217.472 32.7129 217.149 34.1283 217.105C35.5437 217.061 36.9539 217.296 38.278 217.798L54.774 225.137C56.333 225.841 57.6851 226.934 58.7007 228.311C59.7162 229.687 60.3613 231.302 60.574 232.999L61.474 248.723L62.505 266.509L63.15 279.786Z" fill="#FDD301"/>
<path id="Vector_49" d="M107.229 245.245L119.988 241.507C120.904 241.242 121.89 241.383 122.695 241.894C126.175 244.214 135.454 250.787 133.134 253.494C131.974 254.783 121.277 251.694 121.277 251.694L105.811 255.943L107.229 245.245Z" fill="#FFBC96"/>
<path id="Vector_50" d="M53.228 224.496L55.161 225.269C59.1404 226.976 62.702 229.527 65.6 232.744L81.452 250.144L107.357 245.244L110.837 259.163L78.231 269.347C76.9693 269.592 75.6658 269.507 74.4465 269.1C73.2273 268.694 72.1335 267.98 71.271 267.027L47.686 241.379L53.228 224.496Z" fill="#FDD301"/>
<g id="Group_11">
<path id="Vector_51" d="M61.348 352.218L51.037 372.581L77.329 385.981L70.237 370.004L76.037 357.374L61.348 352.218Z" fill="#333333"/>
<path id="Vector_52" d="M62.683 371.891L70.101 369.707L70.319 370.449L62.901 372.633L62.683 371.891Z" fill="#333333"/>
</g>
<path id="Vector_53" d="M77.715 365.622L53.872 356.729L70.24 305.95C73.072 298.473 81.71 294.737 89.572 297.701C97.434 300.665 101.558 309.043 98.723 316.647L77.715 365.622Z" fill="black"/>
<g id="Group_12">
<path id="Vector_54" d="M100.914 362.141L103.234 386.241H132.748L119.214 375.287L115.993 361.368L100.914 362.141Z" fill="#333333"/>
<path id="Vector_55" d="M112.047 378.652L119.045 374.794L119.418 375.471L112.42 379.329L112.047 378.652Z" fill="#333333"/>
</g>
<g id="Group_13">
<path id="Vector_56" d="M122.179 364.977L96.403 369.101L78.617 317.162L75.398 307.629L31.449 308.016C28.8904 308.073 26.3488 307.587 23.9917 306.591C21.6345 305.594 19.5154 304.109 17.774 302.233C16.0326 300.358 14.7085 298.135 13.8888 295.71C13.0692 293.286 12.7728 290.715 13.019 288.168L14.819 273.733L58.252 279.146L86.864 282.239C98.721 284.301 102.459 291.518 104.907 300.798L122.179 364.977Z" fill="black"/>
<path id="Vector_57" d="M78.617 317.162L75.395 307.625L81.324 307.367C81.845 310.868 80.862 314.426 78.617 317.162V317.162Z" fill="black"/>
</g>
<path id="Vector_58" d="M45.624 216.893C53.0268 216.893 59.028 210.892 59.028 203.489C59.028 196.086 53.0268 190.085 45.624 190.085C38.2211 190.085 32.22 196.086 32.22 203.489C32.22 210.892 38.2211 216.893 45.624 216.893Z" fill="#FFB8B8"/>
<path id="Vector_59" d="M28.741 208.901C27.671 205.129 28.649 201.072 31.319 198.201C29.644 196.912 29.257 194.201 30.03 192.272C30.845 190.239 32.29 188.522 34.154 187.372C40.124 183.196 47.686 182.01 54.648 184.156C57.483 185.056 60.319 186.476 61.221 189.44C61.5494 190.278 61.6142 191.196 61.407 192.071C61.1997 192.947 60.7301 193.738 60.061 194.34C58.261 195.887 55.937 195.24 53.875 195.113C53.4838 195.092 53.0919 195.136 52.715 195.242C51.6904 195.449 50.7896 196.053 50.2099 196.923C49.6301 197.793 49.4187 198.857 49.622 199.882C49.727 200.125 49.771 200.391 49.751 200.655C49.984 203.241 48.279 205.604 45.751 206.197C43.689 206.584 41.111 205.81 39.694 207.357C39.3469 207.81 39.0988 208.331 38.9657 208.886C38.8325 209.441 38.8173 210.018 38.921 210.579C39.05 211.735 39.05 212.903 38.921 214.059C38.921 214.317 38.792 214.446 38.663 214.703C38.362 215.259 37.839 215.66 37.224 215.808C36.609 215.956 35.961 215.835 35.441 215.476C33.638 214.185 29.772 211.607 28.741 208.901V208.901Z" fill="#2F2E41"/>
</g>
<defs>
<clipPath id="clip0">
<rect width="464.489" height="386.5" fill="white"/>
</clipPath>
</defs>
</svg>
