<svg width="437" height="383" viewBox="0 0 437 383" fill="none" xmlns="http://www.w3.org/2000/svg">
<style>
    #man , #location  {
        transform-origin: center;
        transform-box: fill-box;
    }
    #man{
        animation: translateX 3s linear infinite;
    }
    #location{
        animation: rotation 3s linear infinite;
    }
    @keyframes translateX {

        0%,
        100% {
            transform: translateX(2px);
        }

        50% {
            transform: translateX(-2px);
        }
    }
    @keyframes rotation {
        0% {
            transform: rotate(0deg) translateY(0px);
        }

        50% {
            transform: rotate(5deg) translateY(10px);
        }

        100% {
            transform: rotate(0deg) translateY(0px);
        }
}
</style>
<g id="where_clients 1" clip-path="url(#clip0)">
<g id="man">
<path id="Vector" d="M420.4 219.4V309.2L418.1 367.2H399.3L400.4 311.5L393 258.1L380.5 303L372.5 366.1L349.8 365L361.7 300.2L365.1 219.5L420.4 219.4Z" fill="black"/>
<path id="Vector_2" d="M415.3 364.3V370C415.3 370 428.4 382.5 417.6 382.5C406.8 382.5 406.2 379.7 406.2 379.7C406.2 379.7 402.2 379.7 402.2 378.6V365L415.3 364.3ZM355 364.3V370C355 370 341.9 382.5 352.7 382.5C363.5 382.5 364.1 379.7 364.1 379.7C364.1 379.7 368.1 379.7 368.1 378.6V365L355 364.3Z" fill="#2F2E41"/>
<g id="Group">
<path id="Vector_3" d="M397.1 143.1C404.611 143.1 410.7 137.011 410.7 129.5C410.7 121.989 404.611 115.9 397.1 115.9C389.589 115.9 383.5 121.989 383.5 129.5C383.5 137.011 389.589 143.1 397.1 143.1Z" fill="#FFB8B8"/>
<path id="Vector_4" d="M407.9 134.1L407.3 154.6L389.1 154V138.1L407.9 134.1Z" fill="#FFB8B8"/>
</g>
<path id="Vector_5" d="M399.4 152.3L407.9 146L411.3 222.7L370.9 221.6L380.6 154.5L389.1 146.3L399.4 152.3Z" fill="#141414"/>
<path id="Vector_6" d="M410.483 151L407.383 144L406.483 156.7C406.483 156.7 399.083 180.6 399.683 201.6C400.283 222.6 396.883 272.1 401.383 272.7C405.883 273.3 425.283 274.4 425.283 270.4L426.383 160.7L410.483 151ZM388.883 144.7L382.083 152.1L364.983 158.4C364.983 158.4 364.983 231.2 361.583 248.2C358.183 265.2 351.883 267 359.883 267.5C367.883 268 367.283 265.2 367.283 265.2C367.283 265.2 361.583 236.8 368.983 231.1C376.383 225.4 390.583 192.4 389.483 174.3C388.383 156.2 390.083 144.7 388.883 144.7V144.7Z" fill="#FDD301"/>
<path id="Vector_7" d="M431.2 248.9L430.1 254C430.1 254 429.5 275.6 421.6 272.8C413.7 270 422.2 252.3 422.2 252.3V248.9H431.2ZM360.4 236.1L366.9 244.3L369.2 236.9L367.2 228.7L360.4 236.1Z" fill="#FFB8B8"/>
<path id="Vector_8" d="M372.6 157.4L367.2 157.2C365.224 157.006 363.4 158.278 362.9 160.2C361.8 163.6 357.8 198.3 357.8 198.3C355.607 202.689 354.804 207.643 355.5 212.5L359.5 244.3L370.9 231.8L369.2 203.4L372.6 157.4ZM423.8 160.2L425.3 159.4C425.3 159.4 433.5 162.5 432.9 164.8C432.3 167.1 437.4 246.7 435.7 249.5C434 252.3 420.4 250.1 420.4 250.1L423.8 160.2Z" fill="#FDD301"/>
<path id="Vector_9" d="M384.1 121.1C384.1 121.1 379.5 114.9 387.3 113.2C387.3 113.2 393.8 107.9 400.2 111.9C400.2 111.9 405 109.9 407 113.4C407.214 112.11 406.378 110.878 405.1 110.6C405.1 110.6 409.9 108.6 410.8 114.7C410.8 114.7 413.8 120.5 412.5 126.3C411.2 132.1 410.5 132.8 410.5 132.8C410.5 132.8 412.3 120.8 403.7 121.4C395.1 122 384.7 118.2 385 125C385.3 131.8 384.1 133.8 384.1 133.8C384.1 133.8 376.3 125 384.1 121.1V121.1Z" fill="#2F2E41"/>
</g>
<path id="Vector_10" d="M103.7 56.2H312.3V189.8H103.7V56.2Z" fill="#E6E6E6"/>
<path id="Vector_11" d="M123.2 71H292.7V175H123.2V71Z" fill="white"/>
<g id="Group_2">
<path id="Vector_12" d="M123.2 91H292.7V97.4H123.2V91ZM123.2 122.2H292.7V128.6H123.2V122.2ZM197.5 105.1H269.2V111.5H197.5V105.1ZM123.2 155.2H292.7V161.6H123.2V155.2Z" fill="#E6E6E6"/>
<path id="Vector_13" d="M265.9 71H272.3V159.1H265.9V71ZM146.7 71H153.1V125.7H146.7V71ZM195 71H201.4V175H195V71ZM231.5 123.2H237.9V174.9H231.5V123.2Z" fill="#E6E6E6"/>
</g>
<g id="location">
<path id="Vector_14" d="M198.2 133.6C202.729 133.6 206.4 129.929 206.4 125.4C206.4 120.871 202.729 117.2 198.2 117.2C193.671 117.2 190 120.871 190 125.4C190 129.929 193.671 133.6 198.2 133.6Z" fill="#FDD301"/>
<path id="Vector_15" d="M197.5 -6.87841e-06C214.507 0.00699312 228.293 13.793 228.3 30.8C228.3 47.8 197.5 112.3 197.5 112.3C197.5 112.3 166.7 47.8 166.7 30.8C166.67 22.622 169.905 14.77 175.688 8.98799C181.471 3.20599 189.322 -0.0300069 197.5 -6.87841e-06ZM197.5 45.5C200.407 45.4998 203.249 44.6376 205.666 43.0223C208.084 41.407 209.968 39.1113 211.08 36.4253C212.193 33.7394 212.484 30.7838 211.917 27.9324C211.35 25.081 209.95 22.4618 207.894 20.406C205.838 18.3504 203.219 16.9505 200.368 16.3833C197.516 15.8162 194.561 16.1073 191.875 17.2199C189.189 18.3324 186.893 20.2164 185.278 22.6336C183.662 25.0508 182.8 27.8927 182.8 30.8V30.8C182.795 32.7319 183.171 34.6458 183.908 36.4317C184.645 38.2175 185.728 39.8402 187.094 41.2062C188.46 42.5723 190.082 43.6549 191.868 44.3918C193.654 45.1286 195.568 45.5053 197.5 45.5Z" fill="#FDD301"/>
</g>
<path id="Vector_16" d="M18.6 260.7L12.9 233.9L9.1 215.8C7.9 209.7 12.7 204.4 19.6 204.2C25.6 204.1 31.6 204.2 37.6 204.2H41.1V198.5C37 198.5 32.8 198.4 28.7 198.5C26 198.6 24.9 197.8 25.1 194.9C25.4 190.8 25.2 186.7 25.8 182.7C26.494 178.799 29.939 175.992 33.9 176.1C43.5 176 53.1 176 62.7 176.1C67.7 176.1 71.5 180.2 71.7 185.4C71.8 188.8 71.6 192.2 71.8 195.6C71.9 197.7 71 198.5 69 198.4C66 198.3 63 198.4 60 198.4H52.6C52.5 199.5 52.4 200.3 52.3 201.2C52 203.3 52.8 204.2 55.1 204.2C60.1 204 65.1 204.1 70.1 204.2C77 204.3 80.6 207.1 81.7 213.8L86.8 248.9L88.3 258.6C88.5 260.6 89.8 260.6 91.3 260.6H111.1C114.3 260.6 115.7 261.8 115.7 264.3C115.7 266.7 114.1 268.1 111 268.1H90L91.1 277.6C91.3 279.4 92.1 280.2 94 280.2C98.7 280.1 103.4 280.2 108.1 280.2C112.8 280.2 115.3 281.9 115.6 285.3C116.1 292.7 114.9 294.4 109.1 295.2C108.9 295.2 108.8 295.4 108.2 295.7L143.9 354.5H20.3C20.1 351.3 22 348.6 25.1 348.3C27.896 348.115 30.7 348.082 33.5 348.2V295C27.6 293.3 25.2 289.1 25.3 283.2C25.3 282.8 25.4 282.2 25.1 282C20.9 279.1 22.1 274.2 20.7 270.3C20.1 268.6 19.5 268.1 17.9 268.1C13.1 268.2 8.3 268.1 3.5 268.1C0.7 268.1 0 266.7 0 264.1C0 261.6 0.8 260.4 3.5 260.5C8.3 260.8 13.3 260.7 18.6 260.7ZM90 280.1C89.8 278.6 89.8 277.4 89.6 276.3L85.8 250.9L80 212.9C79.3 208.3 76.4 205.9 71.7 205.9H18.7C13 205.9 9.4 210.2 10.6 215.9L19.4 258.2C19.8 260.2 20.5 260.8 22.5 260.8H44.7C48.3 260.8 49 261.4 48.9 264.6C48.9 267.6 48.1 268.3 44.5 268.3H21.3L24 280.1H90ZM42 295.3C42.228 295.788 42.429 296.289 42.6 296.8L76.8 351.1C77.2456 351.921 77.9133 352.601 78.7267 353.06C79.5402 353.52 80.4666 353.742 81.4 353.7L138.3 353.8C139.2 353.8 140.2 353.7 141.6 353.6L131.3 336.6C123.4 323.7 115.533 310.767 107.7 297.8C106.5 295.7 105.3 295.2 103.1 295.2H45.6C44.6 295.3 43.5 295.3 42 295.3V295.3ZM76.3 353.4C76.2755 353.06 76.2083 352.724 76.1 352.4L47.7 307C47.4945 306.66 47.2186 306.368 46.8909 306.144C46.5632 305.92 46.1912 305.768 45.8 305.7C42.1 305.6 38.3 305.6 34.4 305.6V342.9C34.4 349.2 34.4 349.2 28.2 349.3C27.1167 349.173 26.0187 349.31 25 349.7C23.6062 350.507 22.2697 351.409 21 352.4C21.2 352.7 21.3 353 21.5 353.3L76.3 353.4V353.4ZM26.6 281.7C26.499 283.399 26.499 285.101 26.6 286.8C26.986 290.488 30.092 293.292 33.8 293.3L57.4 293.8L109.2 293.9C111.4 293.9 113.1 293.3 114 291.2C116.3 285.8 113.7 281.8 107.9 281.8H30C29 281.7 27.9 281.7 26.6 281.7V281.7ZM26.7 196.8H70.2C70.2 193 70 189.4 70.3 185.9C70.3542 184.777 70.1796 183.654 69.7868 182.601C69.394 181.547 68.7913 180.584 68.0151 179.771C67.2389 178.957 66.3055 178.31 65.2715 177.868C64.2375 177.426 63.1245 177.199 62 177.2C52.9 177.1 43.8 177.1 34.7 177.2C30.7 177.2 27.1 179.8 26.8 183.3C26.4 187.7 26.7 192.2 26.7 196.8V196.8ZM24.4 261.8H4.4C2.4 261.8 0.8 262 0.9 264.6C1 266.9 2.3 267.4 4.3 267.4H44.4C46.4 267.4 47.9 266.8 48 264.4C48.1 261.9 46.4 261.8 44.6 261.8H24.4ZM89.7 267.3L111.1 267.2C111.816 267.053 112.485 266.729 113.044 266.257C113.602 265.785 114.034 265.181 114.3 264.5C114.7 262.3 112.7 261.8 110.9 261.8C107.2 261.7 103.5 261.8 99.8 261.8H88.8L89.7 267.3V267.3ZM45.4 304.4C45.4 304 45.5 303.8 45.4 303.7C44.4 302 43.3 300.3 42.2 298.7C39.8 294.9 39 294.6 34.6 295.9V304.5C38.4 304.4 41.9 304.4 45.4 304.4ZM42.9 198.6C42 204.3 42 204.3 47 204.3C47.699 204.419 48.4155 204.385 49.1 204.2C49.8 203.9 50.6 203.3 50.7 202.6C51.4 199.2 50.8 198.5 47.4 198.5C45.9 198.6 44.5 198.6 42.9 198.6V198.6ZM217.4 307.8L216.2 293.5C216.1 292.4 215.2 291.4 214.7 290.3L206.6 271.6C206.104 270.604 205.296 269.796 204.3 269.3C199.5 266.9 197.8 262.5 200.1 258C205.6 258.7 208.1 262.3 207.3 268.2C207.131 269.029 207.165 269.887 207.4 270.7L215.5 289.7C215.6 289.9 215.8 290 216.2 290.5L215.6 283.4L213.7 257.8C213.6 255.8 213.6 253.9 213.4 251.9C213.264 248.258 211.967 244.754 209.7 241.9C206 237.3 207.7 230.1 212.7 226.3C217.6 229.1 220.3 237 216.8 241.2C213.1 245.6 214.2 250 214.5 254.6C214.8 260.4 215.4 266.2 215.8 272L217.3 291.7L218.4 305.5C218.8 304.7 219.1 304.3 219.3 303.9L226.1 286.9C226.815 285.429 226.887 283.727 226.3 282.2C224.9 278.2 226.1 274.9 229.5 272.6C230.9 271.7 231.8 271.6 232.5 273.5C234.2 278 233.3 281.2 229.3 284.2C228.353 284.984 227.6 285.977 227.1 287.1L219.8 305.4C219.5 306 219.4 306.7 219 307.8H225.8C232.3 307.8 232.3 307.8 232.3 314.4V337.3C232.3 344.8 227.8 349.3 220.2 349.3H206.5C199.4 349.3 194.9 344.7 194.8 337.6V310.5C194.8 308.4 195.5 307.8 197.5 307.8C201.1 307.9 204.7 307.8 208.7 307.8L204.8 295.9L193.9 263.9C192.4 259.6 191.1 255.3 189.4 251C188.819 249.673 187.885 248.532 186.7 247.7C180.4 243.1 179.8 237.8 182.9 231.2C183.1 230.7 183.6 230.4 183.9 230C191.3 233.2 193.8 239.7 190.5 246.8C190.044 247.765 189.871 248.84 190 249.9L201.7 284.4L209 305.7C209.5 307.4 210.3 308 212 307.8C213.6 307.7 215.3 307.8 217.4 307.8V307.8ZM231 321.7L197.4 321.8C196.9 321.8 195.9 322.7 195.9 323.2C195.8 328.7 195.7 334.2 196 339.7C196.2 343.8 199.6 347.6 203.6 347.8C210.13 348.1 216.67 348.1 223.2 347.8C227.1 347.6 230.9 343.7 231 340.1C231.1 334.1 231 328.1 231 321.7V321.7ZM195.9 320.8H230.9V308.6L197.3 308.7C196.8 308.7 196 309.6 196 310.1C195.8 313.6 195.9 317.1 195.9 320.8ZM213.2 244.5C218.8 238.3 218.6 232.7 212.8 227.5C207.1 232.4 207.2 239.5 213.2 244.5ZM184 231.4C180 237.9 182.2 245.4 188.7 247.4C192.9 241.2 190.9 234.1 184 231.4ZM200.8 259C198.9 263.4 200.9 267.2 205.7 268.5C207.8 265.4 206 260.4 200.8 259ZM227.9 283.5C232.6 281.6 233.2 275.8 230.6 273.2C226.2 275.6 225.2 279.6 227.9 283.5ZM46.6 152.7C35.9 153.6 27.6 143.2 27.4 134C27.2 122.8 37.2 114.1 46.8 114.4C51.8805 114.489 56.7218 116.574 60.2773 120.205C63.8327 123.835 65.8166 128.719 65.8 133.8C65.9 144.6 56.3 153.5 46.6 152.7V152.7ZM28.5 133.5C28.445 143.496 36.504 151.645 46.5 151.7C56.496 151.755 64.645 143.696 64.7 133.7C64.8 124.1 56.2 115.4 46.6 115.5C37.1 115.5 28.6 124 28.5 133.5ZM47.5 120.8C45.7 129.3 48 136.1 55.8 140.8C55.4 141 55.1 141.3 54.7 141.5C53.7 140.7 52.7 139.8 51.7 139.1C50 137.9 48.1 136.8 46.4 135.5C45.7 135 44.8 133.7 45 133.4C47.2 129.9 45.7 126 46.2 122.4C46.3 122 46.4 121.5 46.5 121.1C46.7933 120.897 47.1434 120.792 47.5 120.8V120.8Z" fill="#E6E6E6"/>
</g>
<defs>
<clipPath id="clip0">
<rect width="436.049" height="382.5" fill="white"/>
</clipPath>
</defs>
</svg>
