<svg width="488" height="367" viewBox="0 0 488 367" fill="none" xmlns="http://www.w3.org/2000/svg">
<style>
    #man , #circle_1 , #circle_2 , #circle_3 , #rotate {
        transform-origin: center;
        transform-box: fill-box;
    }
    #man{
        animation: translateX 3s linear infinite;
    }
    #rotate{
        animation: rotation 3s linear infinite;
    }
    #circle_1 , #circle_2 , #circle_3
    {
        animation: animationFramesOne 20s linear infinite;
    }
    @keyframes animationFramesOne {
        0% {
        transform: translate(0) rotate(0deg);
        }
        20% {
            transform: translate(-73px, -1px) rotate(36deg);
        }
        40% {
            transform: translate(-141px, 72px) rotate(72deg);
        }

        60% {
            transform: translate(-83px, 122px) rotate(108deg);
        }
        80% {
            transform: translate(-40px, 72px) rotate( 144deg);
        }
        100% {
            
            transform: translate(0) rotate(0deg);
        }
    }
    @keyframes translateX {

        0%,
        100% {
            transform: translateX(2px);
        }

        50% {
            transform: translateX(-2px);
        }
    }
    @keyframes rotation {
        0% {
            transform: rotate(0deg) translateX(0px);
        }

        50% {
            transform: rotate(10deg) translateX(-10px);
        }

        100% {
            transform: rotate(0deg) translateX(0px);
        }
    }
</style>
<g id="world_see 1" clip-path="url(#clip0)">
<g id="Group">
<path id="Vector" d="M377.645 8.6C380.02 8.6 381.945 6.67482 381.945 4.3C381.945 1.92518 380.02 0 377.645 0C375.27 0 373.345 1.92518 373.345 4.3C373.345 6.67482 375.27 8.6 377.645 8.6Z" fill="#E6E6E6"/>
<path id="Vector_2" d="M355.945 8.6C358.32 8.6 360.245 6.67482 360.245 4.3C360.245 1.92518 358.32 0 355.945 0C353.57 0 351.645 1.92518 351.645 4.3C351.645 6.67482 353.57 8.6 355.945 8.6Z" fill="#E6E6E6"/>
<path id="Vector_3" d="M334.245 8.6C336.62 8.6 338.545 6.67482 338.545 4.3C338.545 1.92518 336.62 0 334.245 0C331.87 0 329.945 1.92518 329.945 4.3C329.945 6.67482 331.87 8.6 334.245 8.6Z" fill="#E6E6E6"/>
<path id="Vector_4" d="M312.545 8.6C314.92 8.6 316.845 6.67482 316.845 4.3C316.845 1.92518 314.92 0 312.545 0C310.17 0 308.245 1.92518 308.245 4.3C308.245 6.67482 310.17 8.6 312.545 8.6Z" fill="#E6E6E6"/>
<path id="Vector_5" d="M290.845 8.6C293.22 8.6 295.145 6.67482 295.145 4.3C295.145 1.92518 293.22 0 290.845 0C288.47 0 286.545 1.92518 286.545 4.3C286.545 6.67482 288.47 8.6 290.845 8.6Z" fill="#E6E6E6"/>
<path id="Vector_6" d="M377.645 30.6C380.02 30.6 381.945 28.6748 381.945 26.3C381.945 23.9252 380.02 22 377.645 22C375.27 22 373.345 23.9252 373.345 26.3C373.345 28.6748 375.27 30.6 377.645 30.6Z" fill="#E6E6E6"/>
<path id="Vector_7" d="M355.945 30.6C358.32 30.6 360.245 28.6748 360.245 26.3C360.245 23.9252 358.32 22 355.945 22C353.57 22 351.645 23.9252 351.645 26.3C351.645 28.6748 353.57 30.6 355.945 30.6Z" fill="#E6E6E6"/>
<path id="Vector_8" d="M334.245 30.6C336.62 30.6 338.545 28.6748 338.545 26.3C338.545 23.9252 336.62 22 334.245 22C331.87 22 329.945 23.9252 329.945 26.3C329.945 28.6748 331.87 30.6 334.245 30.6Z" fill="#E6E6E6"/>
</g>
<path id="Vector_9" d="M312.545 30.6C314.92 30.6 316.845 28.6748 316.845 26.3C316.845 23.9252 314.92 22 312.545 22C310.17 22 308.245 23.9252 308.245 26.3C308.245 28.6748 310.17 30.6 312.545 30.6Z" fill="#FDD301"/>
<g id="Group_2">
<path id="Vector_10" d="M290.845 30.6C293.22 30.6 295.145 28.6748 295.145 26.3C295.145 23.9252 293.22 22 290.845 22C288.47 22 286.545 23.9252 286.545 26.3C286.545 28.6748 288.47 30.6 290.845 30.6Z" fill="#E6E6E6"/>
<path id="Vector_11" d="M247.445 30.6C249.82 30.6 251.745 28.6748 251.745 26.3C251.745 23.9252 249.82 22 247.445 22C245.07 22 243.145 23.9252 243.145 26.3C243.145 28.6748 245.07 30.6 247.445 30.6Z" fill="#E6E6E6"/>
<path id="Vector_12" d="M377.645 52.5C380.02 52.5 381.945 50.5748 381.945 48.2C381.945 45.8252 380.02 43.9 377.645 43.9C375.27 43.9 373.345 45.8252 373.345 48.2C373.345 50.5748 375.27 52.5 377.645 52.5Z" fill="#E6E6E6"/>
<path id="Vector_13" d="M355.945 52.5C358.32 52.5 360.245 50.5748 360.245 48.2C360.245 45.8252 358.32 43.9 355.945 43.9C353.57 43.9 351.645 45.8252 351.645 48.2C351.645 50.5748 353.57 52.5 355.945 52.5Z" fill="#E6E6E6"/>
<path id="Vector_14" d="M334.245 52.5C336.62 52.5 338.545 50.5748 338.545 48.2C338.545 45.8252 336.62 43.9 334.245 43.9C331.87 43.9 329.945 45.8252 329.945 48.2C329.945 50.5748 331.87 52.5 334.245 52.5Z" fill="#E6E6E6"/>
<path id="Vector_15" d="M312.545 52.5C314.92 52.5 316.845 50.5748 316.845 48.2C316.845 45.8252 314.92 43.9 312.545 43.9C310.17 43.9 308.245 45.8252 308.245 48.2C308.245 50.5748 310.17 52.5 312.545 52.5Z" fill="#E6E6E6"/>
<path id="Vector_16" d="M290.845 52.5C293.22 52.5 295.145 50.5748 295.145 48.2C295.145 45.8252 293.22 43.9 290.845 43.9C288.47 43.9 286.545 45.8252 286.545 48.2C286.545 50.5748 288.47 52.5 290.845 52.5Z" fill="#E6E6E6"/>
<path id="Vector_17" d="M377.645 74.5C380.02 74.5 381.945 72.5748 381.945 70.2C381.945 67.8252 380.02 65.9 377.645 65.9C375.27 65.9 373.345 67.8252 373.345 70.2C373.345 72.5748 375.27 74.5 377.645 74.5Z" fill="#E6E6E6"/>
<path id="Vector_18" d="M355.945 74.5C358.32 74.5 360.245 72.5748 360.245 70.2C360.245 67.8252 358.32 65.9 355.945 65.9C353.57 65.9 351.645 67.8252 351.645 70.2C351.645 72.5748 353.57 74.5 355.945 74.5Z" fill="#E6E6E6"/>
<path id="Vector_19" d="M334.245 74.5C336.62 74.5 338.545 72.5748 338.545 70.2C338.545 67.8252 336.62 65.9 334.245 65.9C331.87 65.9 329.945 67.8252 329.945 70.2C329.945 72.5748 331.87 74.5 334.245 74.5Z" fill="#E6E6E6"/>
<path id="Vector_20" d="M312.545 74.5C314.92 74.5 316.845 72.5748 316.845 70.2C316.845 67.8252 314.92 65.9 312.545 65.9C310.17 65.9 308.245 67.8252 308.245 70.2C308.245 72.5748 310.17 74.5 312.545 74.5Z" fill="#E6E6E6"/>
<path id="Vector_21" d="M290.845 74.5C293.22 74.5 295.145 72.5748 295.145 70.2C295.145 67.8252 293.22 65.9 290.845 65.9C288.47 65.9 286.545 67.8252 286.545 70.2C286.545 72.5748 288.47 74.5 290.845 74.5Z" fill="#E6E6E6"/>
<path id="Vector_22" d="M269.145 74.5C271.52 74.5 273.445 72.5748 273.445 70.2C273.445 67.8252 271.52 65.9 269.145 65.9C266.77 65.9 264.845 67.8252 264.845 70.2C264.845 72.5748 266.77 74.5 269.145 74.5Z" fill="#E6E6E6"/>
<path id="Vector_23" d="M247.445 74.5C249.82 74.5 251.745 72.5748 251.745 70.2C251.745 67.8252 249.82 65.9 247.445 65.9C245.07 65.9 243.145 67.8252 243.145 70.2C243.145 72.5748 245.07 74.5 247.445 74.5Z" fill="#E6E6E6"/>
<path id="Vector_24" d="M225.745 74.5C228.12 74.5 230.045 72.5748 230.045 70.2C230.045 67.8252 228.12 65.9 225.745 65.9C223.37 65.9 221.445 67.8252 221.445 70.2C221.445 72.5748 223.37 74.5 225.745 74.5Z" fill="#E6E6E6"/>
<path id="Vector_25" d="M203.945 74.5C206.32 74.5 208.245 72.5748 208.245 70.2C208.245 67.8252 206.32 65.9 203.945 65.9C201.57 65.9 199.645 67.8252 199.645 70.2C199.645 72.5748 201.57 74.5 203.945 74.5Z" fill="#E6E6E6"/>
<path id="Vector_26" d="M182.245 74.5C184.62 74.5 186.545 72.5748 186.545 70.2C186.545 67.8252 184.62 65.9 182.245 65.9C179.87 65.9 177.945 67.8252 177.945 70.2C177.945 72.5748 179.87 74.5 182.245 74.5Z" fill="#E6E6E6"/>
<path id="Vector_27" d="M290.845 96.5C293.22 96.5 295.145 94.5748 295.145 92.2C295.145 89.8252 293.22 87.9 290.845 87.9C288.47 87.9 286.545 89.8252 286.545 92.2C286.545 94.5748 288.47 96.5 290.845 96.5Z" fill="#E6E6E6"/>
</g>
<path id="Vector_28" d="M269.145 96.5C271.52 96.5 273.445 94.5748 273.445 92.2C273.445 89.8252 271.52 87.9 269.145 87.9C266.77 87.9 264.845 89.8252 264.845 92.2C264.845 94.5748 266.77 96.5 269.145 96.5Z" fill="#FDD301"/>
<g id="Group_3">
<path id="Vector_29" d="M247.445 96.5C249.82 96.5 251.745 94.5748 251.745 92.2C251.745 89.8252 249.82 87.9 247.445 87.9C245.07 87.9 243.145 89.8252 243.145 92.2C243.145 94.5748 245.07 96.5 247.445 96.5Z" fill="#E6E6E6"/>
<path id="Vector_30" d="M225.745 96.5C228.12 96.5 230.045 94.5748 230.045 92.2C230.045 89.8252 228.12 87.9 225.745 87.9C223.37 87.9 221.445 89.8252 221.445 92.2C221.445 94.5748 223.37 96.5 225.745 96.5Z" fill="#E6E6E6"/>
<path id="Vector_31" d="M203.945 96.5C206.32 96.5 208.245 94.5748 208.245 92.2C208.245 89.8252 206.32 87.9 203.945 87.9C201.57 87.9 199.645 89.8252 199.645 92.2C199.645 94.5748 201.57 96.5 203.945 96.5Z" fill="#E6E6E6"/>
<path id="Vector_32" d="M182.245 96.5C184.62 96.5 186.545 94.5748 186.545 92.2C186.545 89.8252 184.62 87.9 182.245 87.9C179.87 87.9 177.945 89.8252 177.945 92.2C177.945 94.5748 179.87 96.5 182.245 96.5Z" fill="#E6E6E6"/>
<path id="Vector_33" d="M290.845 118.5C293.22 118.5 295.145 116.575 295.145 114.2C295.145 111.825 293.22 109.9 290.845 109.9C288.47 109.9 286.545 111.825 286.545 114.2C286.545 116.575 288.47 118.5 290.845 118.5Z" fill="#E6E6E6"/>
<path id="Vector_34" d="M269.145 118.5C271.52 118.5 273.445 116.575 273.445 114.2C273.445 111.825 271.52 109.9 269.145 109.9C266.77 109.9 264.845 111.825 264.845 114.2C264.845 116.575 266.77 118.5 269.145 118.5Z" fill="#E6E6E6"/>
<path id="Vector_35" d="M247.445 118.5C249.82 118.5 251.745 116.575 251.745 114.2C251.745 111.825 249.82 109.9 247.445 109.9C245.07 109.9 243.145 111.825 243.145 114.2C243.145 116.575 245.07 118.5 247.445 118.5Z" fill="#E6E6E6"/>
<path id="Vector_36" d="M225.745 118.5C228.12 118.5 230.045 116.575 230.045 114.2C230.045 111.825 228.12 109.9 225.745 109.9C223.37 109.9 221.445 111.825 221.445 114.2C221.445 116.575 223.37 118.5 225.745 118.5Z" fill="#E6E6E6"/>
</g>
<path id="Vector_37" d="M203.945 118.5C206.32 118.5 208.245 116.575 208.245 114.2C208.245 111.825 206.32 109.9 203.945 109.9C201.57 109.9 199.645 111.825 199.645 114.2C199.645 116.575 201.57 118.5 203.945 118.5Z" fill="#FDD301"/>
<g id="Group_4">
<path id="Vector_38" d="M182.245 118.5C184.62 118.5 186.545 116.575 186.545 114.2C186.545 111.825 184.62 109.9 182.245 109.9C179.87 109.9 177.945 111.825 177.945 114.2C177.945 116.575 179.87 118.5 182.245 118.5Z" fill="#E6E6E6"/>
<path id="Vector_39" d="M290.845 140.5C293.22 140.5 295.145 138.575 295.145 136.2C295.145 133.825 293.22 131.9 290.845 131.9C288.47 131.9 286.545 133.825 286.545 136.2C286.545 138.575 288.47 140.5 290.845 140.5Z" fill="#E6E6E6"/>
<path id="Vector_40" d="M269.145 140.5C271.52 140.5 273.445 138.575 273.445 136.2C273.445 133.825 271.52 131.9 269.145 131.9C266.77 131.9 264.845 133.825 264.845 136.2C264.845 138.575 266.77 140.5 269.145 140.5Z" fill="#E6E6E6"/>
<path id="Vector_41" d="M247.445 140.5C249.82 140.5 251.745 138.575 251.745 136.2C251.745 133.825 249.82 131.9 247.445 131.9C245.07 131.9 243.145 133.825 243.145 136.2C243.145 138.575 245.07 140.5 247.445 140.5Z" fill="#E6E6E6"/>
<path id="Vector_42" d="M225.745 140.5C228.12 140.5 230.045 138.575 230.045 136.2C230.045 133.825 228.12 131.9 225.745 131.9C223.37 131.9 221.445 133.825 221.445 136.2C221.445 138.575 223.37 140.5 225.745 140.5Z" fill="#E6E6E6"/>
<path id="Vector_43" d="M203.945 140.5C206.32 140.5 208.245 138.575 208.245 136.2C208.245 133.825 206.32 131.9 203.945 131.9C201.57 131.9 199.645 133.825 199.645 136.2C199.645 138.575 201.57 140.5 203.945 140.5Z" fill="#E6E6E6"/>
<path id="Vector_44" d="M182.245 140.5C184.62 140.5 186.545 138.575 186.545 136.2C186.545 133.825 184.62 131.9 182.245 131.9C179.87 131.9 177.945 133.825 177.945 136.2C177.945 138.575 179.87 140.5 182.245 140.5Z" fill="#E6E6E6"/>
<path id="Vector_45" d="M377.645 162.4C380.02 162.4 381.945 160.475 381.945 158.1C381.945 155.725 380.02 153.8 377.645 153.8C375.27 153.8 373.345 155.725 373.345 158.1C373.345 160.475 375.27 162.4 377.645 162.4Z" fill="#E6E6E6"/>
<path id="Vector_46" d="M355.945 162.4C358.32 162.4 360.245 160.475 360.245 158.1C360.245 155.725 358.32 153.8 355.945 153.8C353.57 153.8 351.645 155.725 351.645 158.1C351.645 160.475 353.57 162.4 355.945 162.4Z" fill="#E6E6E6"/>
<path id="Vector_47" d="M334.245 162.4C336.62 162.4 338.545 160.475 338.545 158.1C338.545 155.725 336.62 153.8 334.245 153.8C331.87 153.8 329.945 155.725 329.945 158.1C329.945 160.475 331.87 162.4 334.245 162.4Z" fill="#E6E6E6"/>
<path id="Vector_48" d="M312.545 162.4C314.92 162.4 316.845 160.475 316.845 158.1C316.845 155.725 314.92 153.8 312.545 153.8C310.17 153.8 308.245 155.725 308.245 158.1C308.245 160.475 310.17 162.4 312.545 162.4Z" fill="#E6E6E6"/>
<path id="Vector_49" d="M290.845 162.4C293.22 162.4 295.145 160.475 295.145 158.1C295.145 155.725 293.22 153.8 290.845 153.8C288.47 153.8 286.545 155.725 286.545 158.1C286.545 160.475 288.47 162.4 290.845 162.4Z" fill="#E6E6E6"/>
<path id="Vector_50" d="M269.145 162.4C271.52 162.4 273.445 160.475 273.445 158.1C273.445 155.725 271.52 153.8 269.145 153.8C266.77 153.8 264.845 155.725 264.845 158.1C264.845 160.475 266.77 162.4 269.145 162.4Z" fill="#E6E6E6"/>
<path id="Vector_51" d="M247.445 162.4C249.82 162.4 251.745 160.475 251.745 158.1C251.745 155.725 249.82 153.8 247.445 153.8C245.07 153.8 243.145 155.725 243.145 158.1C243.145 160.475 245.07 162.4 247.445 162.4Z" fill="#E6E6E6"/>
<path id="Vector_52" d="M225.745 162.4C228.12 162.4 230.045 160.475 230.045 158.1C230.045 155.725 228.12 153.8 225.745 153.8C223.37 153.8 221.445 155.725 221.445 158.1C221.445 160.475 223.37 162.4 225.745 162.4Z" fill="#E6E6E6"/>
<path id="Vector_53" d="M203.945 162.4C206.32 162.4 208.245 160.475 208.245 158.1C208.245 155.725 206.32 153.8 203.945 153.8C201.57 153.8 199.645 155.725 199.645 158.1C199.645 160.475 201.57 162.4 203.945 162.4Z" fill="#E6E6E6"/>
<path id="Vector_54" d="M182.245 162.4C184.62 162.4 186.545 160.475 186.545 158.1C186.545 155.725 184.62 153.8 182.245 153.8C179.87 153.8 177.945 155.725 177.945 158.1C177.945 160.475 179.87 162.4 182.245 162.4Z" fill="#E6E6E6"/>
<path id="Vector_55" d="M377.645 184.4C380.02 184.4 381.945 182.475 381.945 180.1C381.945 177.725 380.02 175.8 377.645 175.8C375.27 175.8 373.345 177.725 373.345 180.1C373.345 182.475 375.27 184.4 377.645 184.4Z" fill="#E6E6E6"/>
<path id="Vector_56" d="M355.945 184.4C358.32 184.4 360.245 182.475 360.245 180.1C360.245 177.725 358.32 175.8 355.945 175.8C353.57 175.8 351.645 177.725 351.645 180.1C351.645 182.475 353.57 184.4 355.945 184.4Z" fill="#E6E6E6"/>
<path id="Vector_57" d="M377.645 206.4C380.02 206.4 381.945 204.475 381.945 202.1C381.945 199.725 380.02 197.8 377.645 197.8C375.27 197.8 373.345 199.725 373.345 202.1C373.345 204.475 375.27 206.4 377.645 206.4Z" fill="#E6E6E6"/>
<path id="Vector_58" d="M355.945 206.4C358.32 206.4 360.245 204.475 360.245 202.1C360.245 199.725 358.32 197.8 355.945 197.8C353.57 197.8 351.645 199.725 351.645 202.1C351.645 204.475 353.57 206.4 355.945 206.4Z" fill="#E6E6E6"/>
<path id="Vector_59" d="M312.545 206.4C314.92 206.4 316.845 204.475 316.845 202.1C316.845 199.725 314.92 197.8 312.545 197.8C310.17 197.8 308.245 199.725 308.245 202.1C308.245 204.475 310.17 206.4 312.545 206.4Z" fill="#E6E6E6"/>
</g>
<path id="circle_1" d="M244.045 39.6C251.335 39.6 257.245 33.6902 257.245 26.4C257.245 19.1098 251.335 13.2 244.045 13.2C236.755 13.2 230.845 19.1098 230.845 26.4C230.845 33.6902 236.755 39.6 244.045 39.6Z" fill="#FDD301"/>
<path id="circle_2" d="M462.445 125.2C469.735 125.2 475.645 119.29 475.645 112C475.645 104.71 469.735 98.8 462.445 98.8C455.155 98.8 449.245 104.71 449.245 112C449.245 119.29 455.155 125.2 462.445 125.2Z" fill="#FDD301"/>
<path id="circle_3" d="M308.845 217.7C316.135 217.7 322.045 211.79 322.045 204.5C322.045 197.21 316.135 191.3 308.845 191.3C301.555 191.3 295.645 197.21 295.645 204.5C295.645 211.79 301.555 217.7 308.845 217.7Z" fill="#FDD301"/>
<path id="Vector_60" d="M278.345 195.7C278.636 195.707 278.922 195.774 279.187 195.894C279.451 196.015 279.689 196.188 279.885 196.403C280.081 196.618 280.232 196.87 280.328 197.144C280.424 197.419 280.464 197.71 280.445 198C280.425 198.551 280.198 199.073 279.808 199.463C279.418 199.853 278.896 200.08 278.345 200.1H222.345C222.054 200.093 221.768 200.026 221.503 199.906C221.239 199.785 221.001 199.612 220.805 199.397C220.609 199.182 220.458 198.93 220.362 198.656C220.266 198.381 220.226 198.09 220.245 197.8C220.265 197.249 220.493 196.727 220.882 196.337C221.272 195.947 221.794 195.72 222.345 195.7H278.345ZM278.345 208.9C278.636 208.907 278.922 208.974 279.187 209.094C279.451 209.215 279.689 209.388 279.885 209.603C280.081 209.818 280.232 210.07 280.328 210.344C280.424 210.619 280.464 210.91 280.445 211.2C280.425 211.751 280.198 212.273 279.808 212.663C279.418 213.053 278.896 213.28 278.345 213.3H174.545C174.254 213.293 173.968 213.226 173.703 213.106C173.439 212.985 173.201 212.812 173.005 212.597C172.809 212.382 172.658 212.13 172.562 211.856C172.466 211.581 172.426 211.29 172.445 211C172.465 210.449 172.692 209.927 173.082 209.537C173.472 209.147 173.994 208.92 174.545 208.9H278.345Z" fill="#E6E6E6"/>
<path id="Vector_61" d="M169.627 147.9C169.627 147.9 164.027 126.8 187.527 120.6C211.027 114.4 223.127 134.4 224.627 147.9C226.127 161.4 215.427 185.9 192.427 183.1C169.427 180.3 169.627 147.9 169.627 147.9V147.9Z" fill="#131313"/>
<path id="Vector_62" d="M213.927 135.2C211.227 130.6 212.827 124.1 204.727 119.1C199.827 116 195.227 115.2 189.327 115.6C184.427 116 180.927 118 177.727 122.4C176.004 124.971 174.562 127.72 173.427 130.6L171.227 128.9C172.018 126.428 173.2 124.099 174.727 122C177.731 117.563 182.587 114.731 187.927 114.3C193.974 113.789 200.042 115.003 205.427 117.8C210.627 120.5 216.327 127.8 219.127 132.6L213.927 135.2Z" fill="#131313"/>
<path id="Vector_63" d="M218.927 297.5C202.427 292.1 164.127 288.8 160.327 288.5C145.127 287.6 127.227 291.3 112.727 297.6C112.027 297.9 79.127 305.6 62.727 325.3C58.527 330.3 52.427 344.3 52.427 366.1L273.327 365.7C261.127 327.3 253.827 308.9 218.927 297.5V297.5Z" fill="#FDD301"/>
<path id="Vector_64" d="M90.427 167.3C91.227 166.3 92.827 166.4 94.127 165.9C93.723 163.624 93.589 161.308 93.727 159V158.6C94.127 151.3 96.627 140 107.927 131.6C112.927 127.9 119.527 124.8 128.427 122.8C154.027 117 182.127 132.5 191.727 141.7C210.027 159.1 208.127 179.2 201.427 204.4C185.927 263.3 155.527 248.5 155.527 248.6C122.927 258.1 75.127 186.4 90.427 167.3V167.3Z" fill="#131313"/>
<path id="Vector_65" d="M88.227 158.5C87.327 153.3 86.027 141.8 93.727 133.6C100.327 126.6 111.527 122.5 126.727 121.7C151.027 120.3 169.327 126.9 179.027 132.9C186.029 137.2 192.113 142.841 196.927 149.5L190.927 147.3C190.727 147.1 172.627 120.5 126.827 123.1C112.027 124 103.227 127.2 96.827 134C89.527 141.8 90.827 149.8 91.727 154.8C90.8702 155.715 89.9331 156.552 88.927 157.3L95.227 159.2C95.227 159.1 88.327 158.7 88.227 158.5Z" fill="#131313"/>
<path id="Vector_66" d="M138.127 317.4C115.327 317.8 114.027 309.4 113.027 300.5C112.627 296.8 112.327 290.4 112.027 282.7L111.627 272.5C111.327 265.6 110.827 258.6 110.427 253.1L109.527 242.9L155.727 231.5L158.427 230.8C159.627 268.4 170.527 285.2 171.727 291.6C174.227 305.1 153.027 317.2 138.127 317.4V317.4Z" fill="#FFB27D"/>
<path id="Vector_67" d="M155.627 248.6C150.527 262.5 137.827 280.8 112.027 282.7L111.627 272.5C111.327 265.6 110.827 258.6 110.427 253.1L155.627 248.6Z" fill="#F4A269"/>
<path id="Vector_68" d="M84.027 257.7C84.027 257.7 139.827 285 155.627 248.6C171.427 212.2 189.327 191.2 154.327 172.2C119.327 153.2 106.327 163.8 98.227 174.7C90.127 185.5 69.927 249.7 84.027 257.7Z" fill="#FFB27D"/>
<path id="Vector_69" d="M152.027 203.7C150.527 188 138.927 175.3 123.827 173.2C115.351 171.961 106.793 171.359 98.227 171.4C83.327 171.7 81.827 139.6 114.927 128.8C148.527 117.8 178.827 137.6 192.027 147.5C213.727 163.9 177.727 240.5 175.527 240.8C173.227 241.2 159.727 247.3 159.727 247.3C159.727 247.3 157.727 234.1 159.927 232.5C170.327 225.1 173.927 204.3 157.427 212.3C153.827 214.1 152.527 209.1 152.027 203.7V203.7Z" fill="#131313"/>
<g id="rotate">
<path id="Vector_70" d="M238.627 350.9C239.768 350.191 241.083 349.81 242.427 349.8C246.34 349.984 249.373 353.286 249.227 357.2C249.196 359.104 248.446 360.926 247.127 362.3C245.82 363.585 244.06 364.304 242.227 364.3C238.314 364.116 235.281 360.814 235.427 356.9C235.458 354.996 236.208 353.174 237.527 351.8C237.863 351.465 238.232 351.163 238.627 350.9ZM247.727 357.1C247.854 354.094 245.532 351.549 242.527 351.4C241.112 351.38 239.746 351.919 238.727 352.9C237.979 353.671 237.465 354.639 237.245 355.69C237.025 356.742 237.109 357.834 237.486 358.84C237.864 359.846 238.519 360.724 239.376 361.372C240.233 362.02 241.256 362.411 242.327 362.5C243.742 362.52 245.108 361.981 246.127 361C247.076 359.912 247.639 358.541 247.727 357.1V357.1Z" fill="#131313"/>
<path id="Vector_71" d="M162.727 349C163.825 348.294 165.128 347.977 166.427 348.1L242.527 349.8V351.5L166.427 349.8C162.727 349.7 162.427 352.2 162.427 352.3L160.827 352.1C160.923 350.821 161.631 349.666 162.727 349ZM234.427 325.2C234.862 324.908 235.332 324.672 235.827 324.5C237.564 323.898 239.469 324.006 241.127 324.8C241.959 325.209 242.699 325.783 243.301 326.488C243.903 327.193 244.354 328.014 244.627 328.9V328.9C245.231 330.705 245.124 332.672 244.327 334.4C243.524 336.105 242.09 337.432 240.327 338.1C238.564 338.714 236.627 338.581 234.965 337.731C233.303 336.881 232.061 335.389 231.527 333.6C230.923 331.795 231.03 329.828 231.827 328.1C232.446 326.937 233.338 325.941 234.427 325.2V325.2ZM241.027 335.9C241.886 335.352 242.551 334.547 242.927 333.6C243.542 332.28 243.614 330.772 243.127 329.4V329.4C242.666 328.029 241.7 326.886 240.427 326.2C239.143 325.603 237.684 325.496 236.327 325.9C235.002 326.41 233.927 327.413 233.327 328.7C232.712 330.02 232.64 331.528 233.127 332.9C233.34 333.576 233.687 334.203 234.148 334.743C234.608 335.282 235.172 335.724 235.807 336.041C236.441 336.358 237.133 336.545 237.84 336.589C238.548 336.634 239.258 336.535 239.927 336.3C240.33 336.304 240.721 336.162 241.027 335.9V335.9Z" fill="#131313"/>
<path id="Vector_72" d="M161.327 361.7L162.727 360.8L162.027 361.2L162.727 360.8C163.256 361.648 164.073 362.277 165.028 362.571C165.984 362.865 167.013 362.804 167.927 362.4L239.927 336.4L240.427 338L168.427 364C167.165 364.537 165.752 364.599 164.447 364.177C163.143 363.754 162.035 362.875 161.327 361.7Z" fill="#131313"/>
<path id="Vector_73" d="M212.827 350L210.227 347.5L170.427 349L212.827 350Z" fill="#131313"/>
<path id="Vector_74" d="M211.227 347.7L209.827 349.9L177.927 360.4L211.227 347.7Z" fill="#131313"/>
<path id="Vector_75" d="M210.127 348.9C210.147 348.972 210.152 349.048 210.143 349.122C210.133 349.196 210.109 349.268 210.072 349.333C210.035 349.398 209.985 349.455 209.926 349.501C209.867 349.547 209.799 349.58 209.727 349.6C209.661 349.626 209.59 349.635 209.52 349.628C209.449 349.62 209.382 349.596 209.323 349.556C209.264 349.517 209.215 349.464 209.181 349.402C209.147 349.34 209.129 349.271 209.127 349.2C209.107 349.128 209.102 349.052 209.111 348.978C209.121 348.904 209.145 348.832 209.182 348.767C209.219 348.702 209.269 348.645 209.328 348.599C209.387 348.553 209.455 348.52 209.527 348.5C209.727 348.4 210.027 348.6 210.127 348.9Z" fill="#131313"/>
</g>
<path id="Vector_76" d="M119.927 258.3V257.1H121.127V258.3H119.927ZM118.727 258.3H117.427L117.527 257.1H118.727V258.3ZM122.527 258.2L122.427 257C122.827 257 123.227 256.9 123.627 256.9L123.727 258.1C123.333 258.183 122.93 258.216 122.527 258.2V258.2ZM116.127 258.1C115.727 258.1 115.227 258 114.827 258L114.927 256.8C115.327 256.8 115.727 256.9 116.127 256.9V258.1ZM125.027 258L124.927 256.8C125.334 256.782 125.737 256.715 126.127 256.6L126.327 257.8C125.927 257.9 125.527 257.9 125.027 258V258ZM113.627 257.9C113.227 257.8 112.727 257.8 112.327 257.7L112.527 256.5C112.927 256.6 113.327 256.6 113.727 256.7L113.627 257.9ZM127.627 257.6L127.427 256.4C127.817 256.285 128.22 256.218 128.627 256.2L128.927 257.4C128.487 257.41 128.05 257.477 127.627 257.6V257.6ZM111.027 257.5L109.727 257.2L110.027 256L111.227 256.3L111.027 257.5ZM130.127 257.1L129.827 255.9L131.027 255.6L131.327 256.8C130.917 256.853 130.514 256.953 130.127 257.1V257.1ZM132.527 256.4L132.127 255.2C132.527 255.1 132.927 254.9 133.327 254.8L133.727 256L132.527 256.4ZM135.027 255.5L134.527 254.3C134.902 254.152 135.269 253.985 135.627 253.8L136.127 254.9C135.795 255.158 135.424 255.361 135.027 255.5ZM137.327 254.5L136.827 253.4L137.927 252.8L138.527 253.9L137.327 254.5ZM139.627 253.3L139.027 252.2L140.127 251.6L140.827 252.7C140.399 252.839 139.995 253.041 139.627 253.3V253.3ZM141.827 251.9L141.127 250.9L142.127 250.2L142.827 251.2L141.827 251.9ZM143.827 250.4L143.027 249.4C143.34 249.109 143.675 248.842 144.027 248.6L144.827 249.5C144.543 249.851 144.206 250.154 143.827 250.4V250.4ZM145.827 248.7L145.027 247.8L145.927 246.9L146.827 247.8C146.472 248.075 146.137 248.376 145.827 248.7V248.7ZM147.627 246.9L146.727 246C147.021 245.726 147.289 245.424 147.527 245.1L148.427 245.9C148.217 246.275 147.947 246.613 147.627 246.9ZM149.327 245L148.327 244.2C148.618 243.887 148.885 243.552 149.127 243.2L150.127 244C149.917 244.375 149.647 244.713 149.327 245ZM150.927 243L149.927 242.3L150.627 241.3L151.627 242C151.428 242.356 151.193 242.691 150.927 243V243ZM142.827 209.5C142.727 209 142.727 208.5 142.627 208.1L144.027 207.9C144.143 208.392 144.21 208.895 144.227 209.4L142.827 209.5ZM142.327 206.6L142.027 205.2L143.427 204.9L143.727 206.4L142.327 206.6ZM141.627 203.8C141.527 203.3 141.327 202.9 141.227 202.4L142.627 202C142.727 202.5 142.927 203 143.027 203.5L141.627 203.8ZM140.827 201L140.327 199.6L141.727 199.1L142.227 200.5L140.827 201ZM139.727 198.2L139.127 196.9L140.427 196.3L141.027 197.7L139.727 198.2ZM138.527 195.6L137.827 194.3L139.127 193.6L139.827 194.9L138.527 195.6ZM137.127 193C136.827 192.6 136.627 192.2 136.327 191.8L137.527 191C137.851 191.395 138.12 191.833 138.327 192.3L137.127 193ZM135.527 190.6L134.627 189.4L135.827 188.5L136.727 189.7L135.527 190.6ZM133.727 188.3C133.422 187.909 133.087 187.541 132.727 187.2L133.827 186.2C134.135 186.589 134.469 186.956 134.827 187.3L133.727 188.3ZM131.727 186.2C131.383 185.842 131.016 185.508 130.627 185.2L131.627 184.1C132.018 184.441 132.386 184.809 132.727 185.2L131.727 186.2ZM129.627 184.2C129.241 183.925 128.873 183.624 128.527 183.3L129.427 182.1C129.851 182.403 130.252 182.738 130.627 183.1L129.627 184.2ZM127.327 182.4C126.627 181.9 126.127 181.7 126.127 181.6L126.827 180.3L128.127 181.1L127.327 182.4ZM89.327 220.6L88.127 220.3C88.262 219.84 88.4642 219.401 88.727 219L89.727 219.7C89.5525 219.98 89.4179 220.283 89.327 220.6V220.6ZM90.527 218.9L89.627 218C89.952 217.726 90.2531 217.425 90.527 217.1L91.327 218C91.027 218.4 90.727 218.6 90.527 218.9ZM92.327 217.3L91.527 216.4L91.827 216.2C92.0162 215.979 92.2565 215.807 92.527 215.7L93.327 216.6C93.1186 216.799 92.8829 216.967 92.627 217.1L92.327 217.3ZM94.227 215.7L93.427 214.8C93.727 214.5 94.027 214.3 94.327 214L95.127 214.9C94.8525 215.194 94.5512 215.462 94.227 215.7V215.7ZM96.127 214.1L95.327 213.2C95.6015 212.906 95.9028 212.638 96.227 212.4L97.127 213.2C96.7719 213.475 96.4376 213.776 96.127 214.1V214.1ZM97.827 212.3L96.927 211.5C97.227 211.2 97.427 210.9 97.727 210.6L98.627 211.4C98.327 211.7 98.127 212 97.827 212.3ZM99.427 210.4L98.427 209.7C98.6836 209.384 98.9175 209.049 99.127 208.7L100.127 209.4L99.427 210.4ZM100.827 208.4L99.827 207.7L100.427 206.7L101.427 207.3C101.285 207.695 101.083 208.066 100.827 208.4V208.4ZM102.127 206.2L101.027 205.7C101.235 205.353 101.402 204.984 101.527 204.6L102.627 205.1C102.483 205.477 102.316 205.844 102.127 206.2V206.2ZM103.127 203.9L102.027 203.5C102.127 203.1 102.327 202.8 102.427 202.4L103.627 202.8C103.442 203.158 103.275 203.525 103.127 203.9V203.9ZM103.927 201.5L102.727 201.2L103.027 200L104.227 200.2L103.927 201.5ZM104.427 199L103.227 198.8C103.31 198.406 103.343 198.003 103.327 197.6L104.527 197.7C104.527 198.2 104.427 198.6 104.427 199V199ZM104.627 196.5L103.427 196.4V195.3H104.627V196.5ZM103.427 194.1C103.427 193.7 103.327 193.3 103.327 192.9L104.527 192.8C104.527 193.2 104.627 193.6 104.627 194.1H103.427ZM103.127 191.7L102.927 190.6L104.127 190.3L104.427 191.6L103.127 191.7Z" fill="#A0544A"/>
<path id="Vector_77" d="M101.527 275.1H101.427V273.8H102.627V275.1H101.527ZM100.127 275.1C99.6913 275.117 99.2551 275.083 98.827 275L98.927 273.7C99.3627 273.687 99.7985 273.721 100.227 273.8L100.127 275.1ZM104.027 275L103.927 273.7C104.363 273.713 104.798 273.679 105.227 273.6L105.327 274.8C104.912 274.957 104.47 275.025 104.027 275V275ZM97.527 274.9C97.127 274.9 96.627 274.8 96.227 274.8L96.327 273.6C96.727 273.6 97.127 273.7 97.527 273.7V274.9ZM106.527 274.9L106.427 273.7C106.727 273.7 106.927 273.6 107.227 273.6L107.327 274.8C107.056 274.784 106.785 274.818 106.527 274.9V274.9ZM94.927 274.6C94.527 274.5 94.027 274.5 93.627 274.4L93.827 273.2C94.227 273.3 94.627 273.3 95.027 273.4L94.927 274.6ZM92.427 274.2L91.127 273.9L91.427 272.7L92.627 273L92.427 274.2ZM89.927 273.6C89.5133 273.512 89.1108 273.378 88.727 273.2L89.127 272L90.327 272.3L89.927 273.6ZM87.427 272.8C87.027 272.7 86.627 272.5 86.227 272.4L86.627 271.2C87.027 271.3 87.427 271.5 87.827 271.6L87.427 272.8ZM85.027 271.9C84.627 271.7 84.227 271.6 83.827 271.4L84.327 270.3C84.727 270.5 85.127 270.6 85.527 270.8L85.027 271.9ZM82.627 270.9L81.427 270.3L82.027 269.2L83.127 269.8L82.627 270.9ZM80.327 269.7C79.939 269.503 79.57 269.268 79.227 269L79.927 267.9L81.027 268.5L80.327 269.7ZM78.127 268.3C77.727 268.1 77.427 267.8 77.027 267.6L77.727 266.6L78.727 267.3L78.127 268.3ZM76.027 266.8C75.727 266.5 75.327 266.3 75.027 266L75.827 265C76.14 265.291 76.475 265.558 76.827 265.8L76.027 266.8ZM74.027 265.1C73.727 264.8 73.327 264.5 73.027 264.2L73.927 263.3C74.2015 263.594 74.5028 263.862 74.827 264.1L74.027 265.1ZM72.227 263.3C71.906 262.986 71.605 262.652 71.327 262.3L72.327 261.5L71.827 261.9L72.327 261.5C72.5814 261.811 72.8483 262.111 73.127 262.4L72.227 263.3Z" fill="#A0544A"/>
<g id="man">
<path id="Vector_78" d="M52.327 270.8C53.032 270.188 53.551 269.391 53.827 268.5C53.827 268.5 54.327 268.3 54.227 269.7V270.3C54.227 270.326 54.2376 270.352 54.2563 270.371C54.2751 270.389 54.3005 270.4 54.327 270.4C55.1552 269.948 56.0261 269.58 56.927 269.3C57.127 269.3 57.327 269.7 57.427 269.9C57.6236 270.305 57.6593 270.77 57.527 271.2C57.427 271.6 57.027 272.1 55.927 273.2C54.901 273.827 53.729 274.172 52.527 274.2H51.327L50.827 272L51.127 271.9C51.627 271.9 51.927 271.2 52.327 270.8Z" fill="#FFB27D"/>
<path id="Vector_79" d="M13.927 252.3C13.927 252.3 -0.172976 261.2 28.127 274.2C34.027 276.9 51.327 274.7 51.327 274.7C51.327 274.7 52.327 272.5 51.027 271.7C51.027 271.7 36.527 267.7 33.027 266.4C28.027 264.5 23.327 256.4 20.227 254.1C18.4208 252.744 16.1771 252.103 13.927 252.3V252.3Z" fill="#FDD301"/>
<path id="Vector_80" d="M0.526978 359.4C0.526978 359.4 0.826978 364.9 1.92698 365H13.627C13.5932 364.497 13.3848 364.022 13.0378 363.657C12.6909 363.292 12.2272 363.059 11.727 363C9.82698 362.7 6.62698 361.3 5.52698 358.7C4.22698 356 0.526978 359.4 0.526978 359.4V359.4Z" fill="#2F2E41"/>
<g id="Group_5">
<path id="Vector_81" d="M0.127014 359.8C1.25601 360.192 2.43401 360.427 3.62701 360.5C4.74401 360.481 5.85401 360.313 6.92701 360C7.50147 355.958 8.30274 351.952 9.32701 348C10.7614 342.387 12.3621 336.818 14.127 331.3C20.127 312.3 21.927 301.1 22.127 300.1V300L3.62701 291.6C3.62701 291.6 5.92701 317.8 3.02701 327.9C2.56901 329.478 2.20201 331.08 1.92701 332.7C0.127014 343.6 0.127014 359.8 0.127014 359.8V359.8Z" fill="#131313"/>
<path id="Vector_82" d="M9.32699 348.1C10.7613 342.487 12.362 336.918 14.127 331.4C20.127 312.4 21.927 301.2 22.127 300.2V300.1L3.62699 291.6C3.62699 291.6 5.92699 317.8 3.02699 327.9C2.62699 329.3 9.32699 348.1 9.32699 348.1V348.1Z" fill="#131313"/>
</g>
<g id="Group 1">
<path id="Vector_83" d="M14.927 359.4C14.927 359.4 15.227 364.9 16.327 365H28.027C27.9932 364.497 27.7848 364.022 27.4379 363.657C27.0909 363.292 26.6272 363.059 26.127 363C24.227 362.7 21.027 361.3 19.927 358.7C18.627 356 14.927 359.4 14.927 359.4Z" fill="#2F2E41"/>
<path id="Vector_84" d="M25.427 292.2C25.383 304.876 24.514 317.536 22.827 330.1C20.027 351 20.927 359.8 20.927 359.8C20.0562 360.134 19.1505 360.369 18.227 360.5C16.874 360.59 15.516 360.42 14.227 360C14.227 360 10.227 339.1 11.327 328.7C12.527 318.3 5.82703 292.9 5.82703 292.9L25.427 292.2Z" fill="#131313"/>
<g id="Group_6">
<path id="Vector_85" d="M26.527 292.9C26.427 301.9 25.927 322.9 25.427 323.3C20.927 327.8 1.22698 322.1 0.12698 317.1C-0.87302 312.1 4.12698 253.4 11.727 251.1C13.327 250.6 21.827 253.5 21.827 253.5C22.755 256.211 23.49 258.985 24.027 261.8C24.327 263.5 25.427 275.7 26.027 283.9C26.227 286.1 26.327 288 26.427 289.3C26.5336 290.497 26.567 291.699 26.527 292.9V292.9Z" fill="#FDD301"/>
<path id="Vector_86" d="M19.827 251.2C19.727 251.2 14.027 248.5 13.327 248.7C12.627 248.9 11.827 251.1 11.827 251.1L21.927 253.5C21.498 252.524 20.76 251.716 19.827 251.2V251.2Z" fill="#FDD301"/>
</g>
<path id="Vector_87" d="M17.727 246.9C21.4825 246.9 24.527 243.856 24.527 240.1C24.527 236.344 21.4825 233.3 17.727 233.3C13.9715 233.3 10.927 236.344 10.927 240.1C10.927 243.856 13.9715 246.9 17.727 246.9Z" fill="#FFB8B8"/>
<path id="Vector_88" d="M12.127 244C10.6391 242.918 9.63705 241.293 9.33762 239.478C9.03819 237.663 9.46547 235.803 10.527 234.3C11.694 232.702 13.465 231.654 15.427 231.4C16.046 231.374 16.655 231.238 17.227 231C17.727 230.7 17.927 230.1 18.327 229.8C18.866 229.382 19.552 229.201 20.227 229.3C20.889 229.393 21.531 229.596 22.127 229.9C23.627 230.6 25.227 231.4 25.927 232.9C26.524 234.221 26.331 235.766 25.427 236.9C24.5274 238.02 23.2451 238.768 21.827 239C20.4156 239.22 18.9714 239.083 17.627 238.6C16.769 238.227 15.858 237.991 14.927 237.9C14.4407 237.885 13.9564 237.967 13.5018 238.14C13.0472 238.314 12.6313 238.575 12.2782 238.91C11.925 239.244 11.6415 239.645 11.4439 240.09C11.2464 240.534 11.1387 241.014 11.127 241.5C11.1078 242.494 11.465 243.458 12.127 244.2" fill="#2F2E41"/>
<path id="Vector_89" d="M51.327 291L23.827 317L21.427 314.4L15.627 308.2L43.127 282.2C43.6996 281.661 44.4614 281.369 45.2475 281.388C46.0336 281.407 46.7807 281.734 47.327 282.3L51.127 286.4L51.627 286.9C52.1131 287.491 52.353 288.247 52.2972 289.01C52.2413 289.773 51.8939 290.486 51.327 291V291Z" fill="#E6E6E6"/>
<path id="Vector_90" d="M50.427 290.7L36.127 304.2C34.527 302.5 31.527 299.4 29.227 296.7L43.527 283.2C43.983 282.721 44.616 282.45 45.277 282.45C45.938 282.45 46.571 282.721 47.027 283.2L50.627 287.1C51.0563 287.614 51.2744 288.271 51.2373 288.939C51.2001 289.608 50.9105 290.237 50.427 290.7Z" fill="#FDD301"/>
<path id="Vector_91" d="M13.727 309L22.927 318.9C23.271 319.2 23.783 319.2 24.127 318.9C24.357 318.704 24.497 318.423 24.516 318.121C24.535 317.819 24.431 317.523 24.227 317.3L15.227 307.6C14.883 307.3 14.371 307.3 14.027 307.6L13.827 307.8C13.648 307.942 13.536 308.151 13.517 308.378C13.498 308.605 13.574 308.83 13.727 309V309Z" fill="#131313"/>
<path id="Vector_92" d="M16.627 312.2L11.027 317.5L14.327 321.1L19.927 315.8L16.627 312.2Z" fill="#E6E6E6"/>
<path id="Vector_93" d="M18.327 314.1L12.727 319.4L14.327 321.1L19.927 315.8L18.327 314.1Z" fill="#6980E2"/>
<path id="Vector_94" d="M10.027 315L16.627 322.2C16.6917 322.27 16.7408 322.352 16.7711 322.442C16.8014 322.532 16.8122 322.628 16.8027 322.723C16.7933 322.817 16.7638 322.909 16.7162 322.991C16.6687 323.073 16.6042 323.145 16.527 323.2V323.2C16.401 323.344 16.218 323.426 16.027 323.426C15.836 323.426 15.653 323.344 15.527 323.2L8.92701 316C8.86233 315.93 8.81322 315.848 8.78292 315.758C8.75263 315.668 8.74185 315.572 8.75131 315.477C8.76077 315.383 8.79025 315.291 8.83778 315.209C8.88532 315.127 8.94982 315.055 9.02702 315V315C9.1655 314.879 9.34314 314.812 9.52702 314.812C9.71089 314.812 9.88854 314.879 10.027 315V315Z" fill="#131313"/>
<path id="Vector_95" d="M50.927 286.1L49.927 285L48.027 282.9L52.027 279.1C52.2845 278.859 52.6242 278.725 52.977 278.725C53.3298 278.725 53.6694 278.859 53.927 279.1L54.927 280.2L55.027 280.3C55.151 280.428 55.2473 280.581 55.3098 280.748C55.3724 280.915 55.3998 281.094 55.3904 281.272C55.381 281.45 55.335 281.624 55.2553 281.784C55.1756 281.944 55.0638 282.085 54.927 282.2L50.927 286.1Z" fill="#E6E6E6"/>
<path id="Vector_96" d="M54.327 279.7L54.727 280.1L65.327 270.1L64.927 269.7L54.327 279.7Z" fill="#0F2454"/>
<path id="Vector_97" d="M50.927 286.1L49.927 285L54.927 280.3L55.027 280.4C55.151 280.528 55.2473 280.681 55.3099 280.848C55.3724 281.015 55.3998 281.194 55.3904 281.372C55.381 281.55 55.3351 281.724 55.2553 281.884C55.1756 282.044 55.0638 282.185 54.927 282.3L50.927 286.1Z" fill="#6980E2"/>
<g id="Group_7">
<path id="Vector_98" d="M43.527 284.6L48.727 290.3L48.927 290.1L43.727 284.4L43.527 284.6Z" fill="#2C3A64"/>
<path id="Vector_99" d="M21.227 311.2L47.127 286.7L46.927 286.6L21.027 311L21.227 311.2Z" fill="#2C3A64"/>
<path id="Vector_100" d="M43.727 287.8L45.627 289.9L45.827 289.7L43.927 287.6L43.727 287.8ZM42.227 289.2L44.227 291.3L44.427 291.1L42.427 289L42.227 289.2ZM40.727 290.6L42.727 292.7L42.927 292.5L40.927 290.4L40.727 290.6ZM39.227 292L41.227 294.1L41.427 293.9L39.427 291.8L39.227 292ZM36.127 291.6L41.427 297.3L41.627 297.1L36.327 291.4L36.127 291.6ZM36.327 294.8L38.327 296.9L38.527 296.7L36.527 294.6L36.327 294.8ZM34.827 296.2L36.827 298.3L37.027 298.1L35.027 296L34.827 296.2ZM33.327 297.5L35.327 299.7L35.527 299.5L33.527 297.4L33.327 297.5ZM31.927 298.9L33.827 301.1L34.027 300.9L32.127 298.8L31.927 298.9ZM28.827 298.6L34.027 304.2L34.227 304.1L29.027 298.4L28.827 298.6ZM20.027 306.8L25.327 312.5L25.527 312.3L20.227 306.6L20.027 306.8ZM28.927 301.7L30.927 303.9L31.127 303.7L29.127 301.5L28.927 301.7ZM27.527 303.1L29.427 305.2L29.627 305.1L27.627 302.9L27.527 303.1ZM26.027 304.5L28.027 306.6L28.127 306.5L26.227 304.3L26.027 304.5ZM24.527 305.9L26.527 308L26.727 307.9L24.727 305.7L24.527 305.9ZM23.027 307.3L25.027 309.4L25.227 309.2L23.227 307.1L23.027 307.3Z" fill="#2C3A64"/>
</g>
<path id="Vector_101" d="M33.727 297.8C34.457 297.579 35.1135 297.164 35.627 296.6C35.627 296.6 36.127 296.6 35.527 297.6C35.4875 297.776 35.42 297.945 35.327 298.1C35.327 298.2 35.327 298.2 35.427 298.2C36.2266 298.091 37.0393 298.125 37.827 298.3C38.027 298.3 38.027 298.7 38.027 298.9C38.0474 299.289 37.9423 299.675 37.727 300C37.527 300.3 37.027 300.5 35.827 301C34.809 301.123 33.777 300.985 32.827 300.6L31.827 300.1L32.127 298.2L32.327 298.3C32.927 298.4 33.327 298 33.727 297.8V297.8Z" fill="#FFB27D"/>
<g id="Vector_102" filter="url(#filter0_d)">
<path d="M9.62697 269.8C9.62697 269.8 -3.97303 272.5 13.627 293C16.427 296.3 31.127 301.6 31.127 301.6C31.127 301.6 33.227 299.2 32.427 298.1L19.427 287.9C16.127 285.1 15.627 276.3 13.927 273.4C13.0232 271.681 11.4782 270.387 9.62697 269.8V269.8Z" fill="#FDD301"/>
</g>
</g>
</g>
</g>
<defs>
<filter id="filter0_d" x="0.613708" y="269.8" width="35.995" height="39.8" filterUnits="userSpaceOnUse" color-interpolation-filters="sRGB">
<feFlood flood-opacity="0" result="BackgroundImageFix"/>
<feColorMatrix in="SourceAlpha" type="matrix" values="0 0 0 0 0 0 0 0 0 0 0 0 0 0 0 0 0 0 127 0" result="hardAlpha"/>
<feOffset dy="4"/>
<feGaussianBlur stdDeviation="2"/>
<feComposite in2="hardAlpha" operator="out"/>
<feColorMatrix type="matrix" values="0 0 0 0 0 0 0 0 0 0 0 0 0 0 0 0 0 0 0.25 0"/>
<feBlend mode="normal" in2="BackgroundImageFix" result="effect1_dropShadow"/>
<feBlend mode="normal" in="SourceGraphic" in2="effect1_dropShadow" result="shape"/>
</filter>
<clipPath id="clip0">
<rect width="487.545" height="366.1" fill="white"/>
</clipPath>
</defs>
</svg>
